<?xml version="1.0" encoding="UTF-8"?>
<svg version="1.1" xmlns="http://www.w3.org/2000/svg" width="500" height="500">
<path d="M0 0 C25.08 0 50.16 0 76 0 C76 84.48 76 168.96 76 256 C50.92 256 25.84 256 0 256 C0 171.52 0 87.04 0 0 Z " fill="#FCFDFF" transform="translate(21,122)"/>
<path d="M0 0 C11.22 0 22.44 0 34 0 C34.2673999 2.62501465 34.5347998 5.2500293 34.81030273 7.95458984 C35.69280407 16.6122778 36.57960844 25.26952104 37.46855068 33.92654991 C38.00756204 39.17706039 38.54510757 44.42771246 39.0793457 49.67871094 C39.59463827 54.74296578 40.11372558 59.80681837 40.6354847 64.87041092 C40.83421055 66.8056304 41.03155149 68.7409926 41.22750664 70.6764946 C41.50147775 73.38025717 41.7802984 76.08347764 42.06030273 78.78662109 C42.14086411 79.59294479 42.22142548 80.39926849 42.3044281 81.23002625 C42.66469595 85.24297646 42.66469595 85.24297646 44 89 C44.13558823 87.94399597 44.27117645 86.88799194 44.41087341 85.79998779 C45.68838283 75.85279707 46.96839142 65.90593073 48.25085354 55.95937729 C48.91011338 50.84563782 49.56848926 45.73178778 50.22485352 40.61767578 C50.85819878 35.68317452 51.49385485 30.74897597 52.13112068 25.81497955 C52.37395782 23.93161893 52.61595922 22.04815035 52.85711479 20.16457367 C53.19477401 17.52837124 53.53539064 14.89256674 53.87670898 12.25683594 C54.02560326 11.08618843 54.02560326 11.08618843 54.17750549 9.89189148 C54.61780998 6.51355654 55.17200868 3.31196526 56 0 C64.91 0 73.82 0 83 0 C83.35827881 2.66054443 83.71655762 5.32108887 84.08569336 8.06225586 C85.26726808 16.83186549 86.45348069 25.60084317 87.64200497 34.36951351 C88.36278426 39.68834374 89.08197753 45.00737859 89.79760742 50.3269043 C90.48769652 55.45614233 91.18187158 60.58481194 91.87893867 65.71310616 C92.14476079 67.67421157 92.40908521 69.63552056 92.67191887 71.59702873 C93.03900778 74.33468247 93.41131389 77.07157772 93.78491211 79.80834961 C93.8935257 80.62761932 94.00213928 81.44688904 94.11404419 82.29098511 C94.32828729 85.95326393 94.32828729 85.95326393 96 89 C96.16579811 87.37174789 96.16579811 87.37174789 96.33494568 85.71060181 C97.37538888 75.49779698 98.41994021 65.28541966 99.46855068 55.07345009 C100.00756204 49.82293961 100.54510757 44.57228754 101.0793457 39.32128906 C101.59463827 34.25703422 102.11372558 29.19318163 102.6354847 24.12958908 C102.83421055 22.1943696 103.03155149 20.2590074 103.22750664 18.3235054 C103.50147775 15.61974283 103.7802984 12.91652236 104.06030273 10.21337891 C104.14086411 9.40705521 104.22142548 8.60073151 104.3044281 7.76997375 C104.88594784 2.22810432 104.88594784 2.22810432 106 0 C116.89 0 127.78 0 139 0 C137.40848469 17.81640542 135.33172523 35.56272211 133.19542003 53.31984186 C132.79917468 56.61602992 132.40454725 59.91241092 132.00990015 63.20879066 C131.0801047 70.97491976 130.14773405 78.74073654 129.21362305 86.50634766 C128.25126709 94.50711534 127.29312603 102.50837999 126.337017 110.5098964 C125.51208448 117.41249617 124.68471431 124.31480067 123.85534102 131.21686828 C123.36157011 135.32618088 122.86869577 139.43559579 122.37812614 143.5452919 C121.91882247 147.39207831 121.45647539 151.23848673 120.9917469 155.08462143 C120.82174437 156.49584695 120.65282128 157.90720298 120.48504639 159.31869507 C120.25632517 161.24146805 120.02335115 163.16373374 119.79014587 165.08596802 C119.66092711 166.16207903 119.53170835 167.23819004 119.39857388 168.34691048 C119 171 119 171 118 174 C113.17619198 174.0246519 108.35242033 174.04283693 103.52856445 174.05493164 C101.88630536 174.05997174 100.24405077 174.06680378 98.60180664 174.07543945 C96.24624521 174.08751926 93.89074291 174.09323139 91.53515625 174.09765625 C90.79660904 174.10281754 90.05806183 174.10797882 89.2971344 174.11329651 C87.53101912 174.1134925 85.76502854 174.06194719 84 174 C81.85605741 171.85605741 82.11249735 167.42150306 81.70898438 164.45703125 C81.58364822 163.56116302 81.45831207 162.6652948 81.32917786 161.74227905 C81.05668935 159.79071475 80.78614674 157.83887801 80.51728821 155.8868103 C80.09239204 152.80264309 79.66232538 149.7192374 79.23083496 146.63598633 C78.1601729 138.97750839 77.09860876 131.31777419 76.03668213 123.65808105 C75.13966611 117.19041658 74.23927718 110.7232395 73.33430481 104.25668335 C72.90935357 101.20975284 72.48945541 98.16215226 72.06970215 95.11450195 C71.81038761 93.25728963 71.55083837 91.40011005 71.29101562 89.54296875 C71.1164257 88.26031631 71.1164257 88.26031631 70.93830872 86.95175171 C70.71261285 83.16028949 70.71261285 83.16028949 69 80 C68.77782555 81.67796661 68.77782555 81.67796661 68.55116272 83.38983154 C67.15583979 93.92566681 65.75810308 104.46117938 64.35799503 114.99637985 C63.63824354 120.4127906 62.91934658 125.82931193 62.20239258 131.24609375 C61.51062204 136.47236718 60.81661987 141.69833982 60.12106133 146.92411041 C59.85592379 148.91911492 59.59159416 150.91422698 59.32808113 152.90944672 C58.95921372 155.70131233 58.58749057 158.49278376 58.21508789 161.28417969 C58.05216751 162.52495773 58.05216751 162.52495773 57.88595581 163.790802 C57.41921384 167.26942473 56.85262566 170.58949735 56 174 C44.45 174 32.9 174 21 174 C18.38469061 156.33981459 16.1957206 138.63798814 14.06109452 120.9150188 C13.66676813 117.64353 13.27095329 114.37222197 12.87514132 111.10091263 C11.94249947 103.39279386 11.01209211 95.68440782 10.08325195 87.97583008 C9.12661334 80.03680623 8.16656297 72.09820024 7.2048195 64.15979332 C6.37499197 57.3094687 5.54701443 50.45892232 4.72058219 43.60818726 C4.22866015 39.53041769 3.73609287 35.4527289 3.24183083 31.37524223 C2.77918851 27.55777973 2.3188662 23.74004453 1.86034584 19.92208481 C1.69185546 18.52233463 1.52255345 17.12268188 1.35238266 15.72313499 C1.12044069 13.81446382 0.89171766 11.90540229 0.66316223 9.99632263 C0.46989963 8.39460032 0.46989963 8.39460032 0.27273273 6.76051998 C0 4 0 4 0 0 Z " fill="#FCFDFF" transform="translate(113,172)"/>
<path d="M0 0 C10.47238052 12.19510978 12.34752696 27.14854523 12.125 42.625 C12.08375 46.70875 12.0425 50.7925 12 55 C-0.54 55 -13.08 55 -26 55 C-26.12375 51.7825 -26.2475 48.565 -26.375 45.25 C-26.14631549 31.69232279 -26.14631549 31.69232279 -30.8984375 19.74609375 C-33.66894997 17.44419956 -35.41126558 17.14073468 -39 17 C-43.05813905 17.68782018 -45.24968451 18.07461089 -47.875 21.3125 C-50.24797933 26.98128396 -50.15357718 32.4780313 -50.16113281 38.52856445 C-50.16609772 39.48204773 -50.17106262 40.43553101 -50.17617798 41.41790771 C-50.19076058 44.56637295 -50.19759492 47.71478781 -50.203125 50.86328125 C-50.20887942 53.05657451 -50.21463712 55.24986777 -50.22039795 57.44316101 C-50.23089666 62.04047886 -50.23674681 66.63777928 -50.24023438 71.23510742 C-50.24571837 77.11617914 -50.26974932 82.99701927 -50.29820633 88.87801838 C-50.31686009 93.40857103 -50.32203976 97.93906818 -50.32357025 102.46965599 C-50.32659083 104.63731338 -50.3345992 106.80496993 -50.34775543 108.97258949 C-50.36487384 112.00965471 -50.36292147 115.04615762 -50.35644531 118.08325195 C-50.3656601 118.97235764 -50.37487488 119.86146332 -50.3843689 120.7775116 C-50.34620427 126.51179842 -49.41280506 130.77406808 -47 136 C-44.09060706 138.58612706 -42.37448216 138.95987691 -38.5 139.375 C-34.72851598 138.97091243 -32.90775316 138.40928119 -30 136 C-25.85792611 128.95847438 -26.76001674 118.41843302 -26.4375 110.4375 C-26.293125 106.993125 -26.14875 103.54875 -26 100 C-13.46 100 -0.92 100 12 100 C12.60537268 139.14743314 12.60537268 139.14743314 0.75 155.375 C-10.78460717 166.38530684 -25.8370974 168.62844096 -41.19580078 168.47265625 C-55.23179759 167.99990805 -68.85639218 164.80177239 -78.8125 154.25 C-88.59541754 142.09616362 -91.13787216 126.85729321 -91.16113281 111.63476562 C-91.16609772 110.83999817 -91.17106262 110.04523071 -91.17617798 109.22637939 C-91.19067617 106.61966047 -91.19758263 104.01300248 -91.203125 101.40625 C-91.20595238 100.50682175 -91.20877975 99.60739349 -91.21169281 98.68070984 C-91.22663913 93.91604321 -91.23589601 89.15140648 -91.24023438 84.38671875 C-91.24569679 79.50979731 -91.2696907 74.63315818 -91.29820633 69.75632477 C-91.31700202 65.96748098 -91.32204733 62.17870272 -91.32357025 58.38981628 C-91.32656183 56.59440069 -91.33446906 54.79898525 -91.34775543 53.00361633 C-91.47276997 34.8044816 -90.25373674 15.54221273 -77.99609375 0.96484375 C-59.83609043 -16.91085423 -18.5935834 -17.35858524 0 0 Z " fill="#FCFDFF" transform="translate(356,181)"/>
<path d="M0 0 C14.39003345 15.13434552 13 35.78339791 13 55.21875 C0.13 55.21875 -12.74 55.21875 -26 55.21875 C-26.375 42.28125 -26.375 42.28125 -26.47802734 38.25805664 C-26.69602243 31.68417309 -27.03500867 25.52142626 -29 19.21875 C-33.64573977 17.67017008 -38.15301074 17.62263419 -43 18.21875 C-46.27487559 20.22377587 -47.56033006 21.6781475 -48.61761093 25.38285732 C-49.77067643 31.17312676 -50.28860236 36.66733767 -50.25878906 42.56469727 C-50.2622937 43.43927582 -50.26579834 44.31385437 -50.26940918 45.2149353 C-50.27812651 48.07175922 -50.27241352 50.92833034 -50.265625 53.78515625 C-50.2669744 55.78954617 -50.26891723 57.79393577 -50.27142334 59.79832458 C-50.27436096 63.98496641 -50.27012048 68.17152249 -50.26074219 72.3581543 C-50.24934112 77.70647528 -50.25592 83.05459562 -50.26788712 88.40290928 C-50.27513626 92.53718052 -50.2728039 96.6714047 -50.26763153 100.80567741 C-50.26630386 102.77711956 -50.26791158 104.74856608 -50.27259064 106.72000313 C-50.27770711 109.48084866 -50.26987453 112.24137529 -50.25878906 115.00219727 C-50.26283752 115.80504654 -50.26688599 116.60789581 -50.27105713 117.43507385 C-50.22049167 124.28163763 -49.50106955 131.2014092 -46 137.21875 C-42.08718168 139.70872529 -38.50879703 139.24608622 -34.0859375 138.80078125 C-31.45064817 138.06546644 -30.59898867 137.45086424 -29 135.21875 C-26.18818358 128.39961698 -26.55191193 121.05601961 -26.375 113.78125 C-26.189375 107.0678125 -26.189375 107.0678125 -26 100.21875 C-13.13 100.21875 -0.26 100.21875 13 100.21875 C13 142.15840517 13 142.15840517 -0.8125 157.19140625 C-12.44168206 168.23444003 -28.47016322 168.85341358 -43.68359375 168.53125 C-57.42258678 167.93809326 -68.58395134 164.05530046 -78.25 154.03125 C-90.32100846 139.65643078 -90.46136272 121.87166584 -90.3984375 104.09765625 C-90.40046353 102.06469112 -90.40337935 100.03172671 -90.40713501 97.99876404 C-90.41153447 93.75683613 -90.40520511 89.51509893 -90.39111328 85.27319336 C-90.37403398 79.87267881 -90.38387005 74.47261211 -90.40183067 69.07211399 C-90.41274249 64.87929494 -90.40918828 60.68657965 -90.4014473 56.49375725 C-90.3994651 54.50411868 -90.40183377 52.51447027 -90.40888596 50.52484322 C-90.45832972 32.65820203 -89.44570833 14.27280817 -76.8125 0.21875 C-69.97510249 -5.8504006 -61.0086787 -9.59629732 -52 -10.78125 C-51.12214844 -10.90242187 -50.24429688 -11.02359375 -49.33984375 -11.1484375 C-32.3206731 -13.0267309 -13.30875618 -11.85311097 0 0 Z " fill="#FCFDFF" transform="translate(474,180.78125)"/>
</svg>
