<?xml version="1.0" encoding="UTF-8"?>
<svg version="1.1" xmlns="http://www.w3.org/2000/svg" width="500" height="500">
<path d="M0 0 C25.41 0 50.82 0 77 0 C77 83.16 77 166.32 77 252 C51.59 252 26.18 252 0 252 C0 168.84 0 85.68 0 0 Z " fill="#051D41" transform="translate(21,124)"/>
<path d="M0 0 C10.89 0 21.78 0 33 0 C34.322592 12.54536298 34.322592 12.54536298 34.98168945 18.80249023 C35.53565236 24.06117596 36.0902697 29.31979214 36.64526367 34.57836914 C39.00591482 56.96417854 39.00591482 56.96417854 40.03125 67.171875 C40.10180099 67.87081375 40.17235199 68.5697525 40.24504089 69.28987122 C40.55142808 72.32715838 40.854063 75.36471707 41.1496582 78.40307617 C41.25109131 79.41345947 41.35252441 80.42384277 41.45703125 81.46484375 C41.5804187 82.72735962 41.5804187 82.72735962 41.70629883 84.01538086 C41.90502211 86.06959123 41.90502211 86.06959123 43 88 C43.13558823 86.93955475 43.27117645 85.8791095 43.41087341 84.78652954 C44.68706511 74.80911414 45.96707381 64.83219494 47.25085354 54.85575294 C47.91078572 49.72634628 48.56935609 44.59677231 49.22485352 39.46679688 C49.85709802 34.51919412 50.49286831 29.57205625 51.13112068 24.62522507 C51.37440564 22.73468639 51.61640411 20.84398172 51.85711479 18.95311356 C52.19360926 16.31155745 52.53460921 13.67062032 52.87670898 11.02978516 C53.02560326 9.84835182 53.02560326 9.84835182 53.17750549 8.64305115 C53.88594784 3.22810432 53.88594784 3.22810432 55 1 C63.58 1 72.16 1 81 1 C83.93424857 19.74622179 86.63189942 38.51134877 89.1875 57.3125 C89.71990423 61.22363266 90.25297229 65.13467004 90.78791809 69.04545593 C91.11667093 71.44922827 91.44396668 73.85320048 91.76957703 76.25740051 C91.91675674 77.33430649 92.06393646 78.41121246 92.21557617 79.52075195 C92.34340988 80.46159134 92.47124359 81.40243073 92.60295105 82.3717804 C92.99017668 84.93497569 93.46969364 87.46290885 94 90 C94.16579811 88.39720184 94.16579811 88.39720184 94.33494568 86.76202393 C95.37646982 76.69711078 96.42102313 66.63251602 97.46855068 56.56822586 C98.00700951 51.39394813 98.54439672 46.21956375 99.0793457 41.04492188 C99.59554099 36.05207107 100.11453707 31.05951867 100.6354847 26.06716156 C100.83384248 24.16146983 101.03118711 22.25567237 101.22750664 20.34976959 C101.50243205 17.68243784 101.78094192 15.01550315 102.06030273 12.34863281 C102.14086411 11.5588504 102.22142548 10.76906799 102.3044281 9.95535278 C102.66664024 6.53009196 103.1622126 3.35114961 104 0 C114.89 0 125.78 0 137 0 C134.68177869 19.76624585 132.35649212 39.5316472 130.02594471 59.29644299 C129.43258134 64.32904834 128.83959687 69.36169804 128.24713135 74.39440918 C126.76287141 87.00239552 125.27649194 99.61012707 123.78528404 112.21729374 C123.10478834 117.97095673 122.42541092 123.72474688 121.74865723 129.47885132 C121.10397613 134.95979473 120.45626795 140.4403721 119.80628014 145.92068863 C119.56455606 147.9632791 119.32393235 150.00600012 119.08445168 152.04885483 C118.75527958 154.8552734 118.42220333 157.66120173 118.08813477 160.46704102 C117.99207317 161.29398814 117.89601158 162.12093527 117.79703903 162.9729414 C117.41899776 166.11975629 117.00530302 168.98409093 116 172 C104.78 172 93.56 172 82 172 C78.77737431 152.31035938 75.88745477 132.58738247 73.08972168 112.83404541 C72.51454606 108.77650487 71.93683599 104.71932518 71.359375 100.66210938 C70.23718168 92.77507946 69.11767201 84.8876719 68 77 C67.77782555 78.6746357 67.77782555 78.6746357 67.55116272 80.38310242 C66.15515741 90.9038194 64.75742301 101.4243054 63.35799503 111.94456768 C62.63859057 117.35314808 61.91979574 122.76180805 61.20239258 128.1706543 C60.51005168 133.39037225 59.81611143 138.6098753 59.12106133 143.82923317 C58.85615493 145.82065064 58.59182512 147.8121449 58.32808113 149.80371666 C57.95860905 152.59290129 57.58708885 155.38180599 57.21508789 158.1706543 C57.1064743 158.99424438 56.99786072 159.81783447 56.88595581 160.66638184 C56.7836113 161.43052902 56.68126678 162.19467621 56.57582092 162.98197937 C56.48825059 163.64106135 56.40068026 164.30014334 56.31045628 164.9791975 C55.9489524 167.33227581 55.4668908 169.66554598 55 172 C43.45 172 31.9 172 20 172 C17.38721615 150.75584369 14.77843928 129.51120786 12.17697144 108.26566315 C10.96890457 98.40074393 9.75903968 88.53605148 8.54492188 78.671875 C7.48655408 70.07306149 6.43158022 61.47383952 5.3806591 52.87411261 C4.82422324 48.32175667 4.26610408 43.76962156 3.70391846 39.2179718 C3.17444347 34.93071773 2.64952046 30.64293042 2.12802887 26.35469818 C1.93621211 24.78399525 1.74275708 23.21349135 1.54750824 21.64321136 C1.28028382 19.49203095 1.01907546 17.34019848 0.75927734 15.18811035 C0.61179047 13.9860923 0.46430359 12.78407425 0.31234741 11.54563141 C-0.02550029 7.71053187 0 3.84995188 0 0 Z " fill="#051D41" transform="translate(114,173)"/>
<path d="M0 0 C9.88252055 8.15676696 14.63669025 19.15412674 16.16430664 31.73925781 C16.56651429 36.53864531 16.46853001 41.34780973 16.4296875 46.16015625 C16.4090625 49.79015625 16.3884375 53.42015625 16.3671875 57.16015625 C3.8271875 57.16015625 -8.7128125 57.16015625 -21.6328125 57.16015625 C-21.9453125 45.22265625 -21.9453125 45.22265625 -22.02075195 41.51586914 C-22.23238259 35.17158417 -22.54368317 28.85331806 -25.6328125 23.16015625 C-28.83906137 21.022657 -29.85739353 20.86440626 -33.5703125 20.84765625 C-34.85228516 20.82251953 -34.85228516 20.82251953 -36.16015625 20.796875 C-39.22860345 21.24768952 -40.46814963 21.9393898 -42.6328125 24.16015625 C-44.94006289 29.43235555 -44.92896103 34.34038396 -44.92333984 39.98583984 C-44.93005707 40.95897629 -44.93677429 41.93211273 -44.94369507 42.93473816 C-44.9626494 46.14274236 -44.96659788 49.35053708 -44.96875 52.55859375 C-44.97517931 54.79529913 -44.98190777 57.03200366 -44.98892212 59.26870728 C-45.00088819 63.95422312 -45.00460359 68.63966527 -45.00341797 73.32519531 C-45.00321473 79.31955356 -45.03052522 85.31343798 -45.06496239 91.30768394 C-45.08723368 95.92660683 -45.09125544 100.54541567 -45.09019852 105.16438675 C-45.0925538 107.37391417 -45.10137316 109.58344478 -45.11686325 111.79291916 C-45.13652884 114.88750877 -45.13068263 117.98107641 -45.11865234 121.07568359 C-45.13551086 122.43503777 -45.13551086 122.43503777 -45.15270996 123.82185364 C-45.09623955 129.55814199 -44.21890379 134.50768186 -40.6328125 139.16015625 C-36.57769931 140.51186065 -32.87249942 140.69779771 -28.6328125 140.16015625 C-25.1658643 137.93775356 -24.1290039 135.41064451 -23.06323242 131.50756836 C-22.0809215 126.15026856 -22.14502022 120.65406619 -22.0078125 115.22265625 C-21.8840625 110.91203125 -21.7603125 106.60140625 -21.6328125 102.16015625 C-9.0928125 102.16015625 3.4471875 102.16015625 16.3671875 102.16015625 C16.83109545 143.91187152 16.83109545 143.91187152 2.3671875 159.16015625 C-8.23480933 169.36948653 -24.56441999 169.6414061 -38.40234375 169.4375 C-51.53322433 168.95419896 -64.16519258 165.1691918 -73.4453125 155.47265625 C-85.80555362 140.11687434 -85.7917426 119.49830728 -85.80078125 100.77734375 C-85.80400396 99.19328788 -85.80736875 97.60923229 -85.81086731 96.025177 C-85.81682612 92.71534538 -85.81871066 89.40553973 -85.81811523 86.09570312 C-85.81801401 81.90046207 -85.83163982 77.70539175 -85.84888744 73.51019096 C-85.86013003 70.23948435 -85.8620307 66.96881735 -85.86150551 63.69809341 C-85.86266828 62.15388529 -85.86699143 60.60967554 -85.87483788 59.06548691 C-85.96204141 40.12654513 -85.35158965 18.82713321 -71.75 4.125 C-54.69833429 -11.6227148 -19.08278414 -13.33529871 0 0 Z " fill="#051D41" transform="translate(465.6328125,178.83984375)"/>
<path d="M0 0 C9.88252055 8.15676696 14.63669025 19.15412674 16.16430664 31.73925781 C16.56651429 36.53864531 16.46853001 41.34780973 16.4296875 46.16015625 C16.4090625 49.79015625 16.3884375 53.42015625 16.3671875 57.16015625 C3.8271875 57.16015625 -8.7128125 57.16015625 -21.6328125 57.16015625 C-21.9453125 45.22265625 -21.9453125 45.22265625 -22.02075195 41.51586914 C-22.23238259 35.17158417 -22.54368317 28.85331806 -25.6328125 23.16015625 C-28.83906137 21.022657 -29.85739353 20.86440626 -33.5703125 20.84765625 C-34.85228516 20.82251953 -34.85228516 20.82251953 -36.16015625 20.796875 C-39.22860345 21.24768952 -40.46814963 21.9393898 -42.6328125 24.16015625 C-44.94006289 29.43235555 -44.92896103 34.34038396 -44.92333984 39.98583984 C-44.93005707 40.95897629 -44.93677429 41.93211273 -44.94369507 42.93473816 C-44.9626494 46.14274236 -44.96659788 49.35053708 -44.96875 52.55859375 C-44.97517931 54.79529913 -44.98190777 57.03200366 -44.98892212 59.26870728 C-45.00088819 63.95422312 -45.00460359 68.63966527 -45.00341797 73.32519531 C-45.00321473 79.31955356 -45.03052522 85.31343798 -45.06496239 91.30768394 C-45.08723368 95.92660683 -45.09125544 100.54541567 -45.09019852 105.16438675 C-45.0925538 107.37391417 -45.10137316 109.58344478 -45.11686325 111.79291916 C-45.13652884 114.88750877 -45.13068263 117.98107641 -45.11865234 121.07568359 C-45.13551086 122.43503777 -45.13551086 122.43503777 -45.15270996 123.82185364 C-45.09623955 129.55814199 -44.21890379 134.50768186 -40.6328125 139.16015625 C-36.57769931 140.51186065 -32.87249942 140.69779771 -28.6328125 140.16015625 C-25.1658643 137.93775356 -24.1290039 135.41064451 -23.06323242 131.50756836 C-22.0809215 126.15026856 -22.14502022 120.65406619 -22.0078125 115.22265625 C-21.8840625 110.91203125 -21.7603125 106.60140625 -21.6328125 102.16015625 C-9.0928125 102.16015625 3.4471875 102.16015625 16.3671875 102.16015625 C16.83109545 143.91187152 16.83109545 143.91187152 2.3671875 159.16015625 C-8.23480933 169.36948653 -24.56441999 169.6414061 -38.40234375 169.4375 C-51.53322433 168.95419896 -64.16519258 165.1691918 -73.4453125 155.47265625 C-85.80555362 140.11687434 -85.7917426 119.49830728 -85.80078125 100.77734375 C-85.80400396 99.19328788 -85.80736875 97.60923229 -85.81086731 96.025177 C-85.81682612 92.71534538 -85.81871066 89.40553973 -85.81811523 86.09570312 C-85.81801401 81.90046207 -85.83163982 77.70539175 -85.84888744 73.51019096 C-85.86013003 70.23948435 -85.8620307 66.96881735 -85.86150551 63.69809341 C-85.86266828 62.15388529 -85.86699143 60.60967554 -85.87483788 59.06548691 C-85.96204141 40.12654513 -85.35158965 18.82713321 -71.75 4.125 C-54.69833429 -11.6227148 -19.08278414 -13.33529871 0 0 Z " fill="#051D41" transform="translate(348.6328125,178.83984375)"/>
</svg>
