<?xml version="1.0" encoding="UTF-8"?>
<svg version="1.1" xmlns="http://www.w3.org/2000/svg" width="500" height="500">
<path d="M0 0 C15.18 0 30.36 0 46 0 C46 47.85 46 95.7 46 145 C30.82 145 15.64 145 0 145 C0 97.15 0 49.3 0 0 Z " fill="#FCFDFF" transform="translate(201,181)"/>
<path d="M0 0 C3.31248187 -0.02888146 6.62493167 -0.04675799 9.9375 -0.0625 C10.88302734 -0.07087891 11.82855469 -0.07925781 12.80273438 -0.08789062 C14.15141602 -0.09272461 14.15141602 -0.09272461 15.52734375 -0.09765625 C16.77632446 -0.10551147 16.77632446 -0.10551147 18.05053711 -0.11352539 C20 0 20 0 21 1 C21.23959853 2.53034851 21.41876968 4.07022934 21.57250977 5.61157227 C21.72255211 7.08298424 21.72255211 7.08298424 21.87562561 8.5841217 C21.97983322 9.6507756 22.08404083 10.7174295 22.19140625 11.81640625 C22.35575417 13.44569313 22.35575417 13.44569313 22.52342224 15.1078949 C22.87393588 18.5923613 23.21827849 22.07740693 23.5625 25.5625 C23.79842327 27.91866037 24.03474607 30.27478076 24.27148438 32.63085938 C24.85230062 38.42011635 25.42804558 44.20986118 26 50 C27.89143277 38.28873931 29.65515948 26.57634375 31.1875 14.8125 C31.36631331 13.45374666 31.54534962 12.09502264 31.72460938 10.73632812 C32.15190775 7.49117017 32.57628322 4.24562754 33 1 C38.61 1 44.22 1 50 1 C50.86162495 6.97637732 51.71587438 12.95374665 52.56347656 18.93212891 C52.85249478 20.9633386 53.14348289 22.99426905 53.43652344 25.02490234 C53.85877554 27.95337863 54.27379884 30.88280501 54.6875 33.8125 C54.81874268 34.71178223 54.94998535 35.61106445 55.08520508 36.53759766 C55.81301795 41.74992886 56.12836683 46.73695985 56 52 C56.66 52 57.32 52 58 52 C57.98267822 50.70094727 57.96535645 49.40189453 57.94750977 48.06347656 C57.94941833 43.3240014 58.3234598 38.69209025 58.83984375 33.984375 C58.92625626 33.16551819 59.01266876 32.34666138 59.10169983 31.50299072 C59.28358793 29.78853967 59.46773001 28.07432634 59.65405273 26.36035156 C59.93821785 23.74338912 60.21478272 21.12570501 60.49023438 18.5078125 C60.66882746 16.83328599 60.8478489 15.15880509 61.02734375 13.484375 C61.1508445 12.31862946 61.1508445 12.31862946 61.27684021 11.1293335 C61.68974947 7.3548611 62.25370694 3.73146531 63 0 C69.6 0 76.2 0 83 0 C82.28962081 11.7548318 80.94699808 23.37243896 79.49609375 35.0546875 C79.25059195 37.05246254 79.00540391 39.05027616 78.76051331 41.04812622 C78.12084366 46.25976666 77.47696475 51.47087834 76.83215332 56.68188477 C76.1726266 62.01807402 75.51715741 67.35476154 74.86132812 72.69140625 C73.57814863 83.12809172 72.29013829 93.56417246 71 104 C64.07 104 57.14 104 50 104 C47.75 93.875 47.75 93.875 47.22216797 90.12280273 C47.10219452 89.28261093 46.98222107 88.44241913 46.85861206 87.57676697 C46.73769196 86.70451981 46.61677185 85.83227264 46.4921875 84.93359375 C46.29666794 83.55434471 46.29666794 83.55434471 46.09719849 82.14723206 C45.68647503 79.2444455 45.28065535 76.34099868 44.875 73.4375 C44.59537759 71.45503219 44.31543271 69.47260983 44.03515625 67.49023438 C43.35304414 62.6606734 42.67532542 57.83051445 42 53 C41.67 53 41.34 53 41 53 C40.92705215 53.56518845 40.85410431 54.13037689 40.77894592 54.71269226 C40.01852746 60.60161922 39.25569008 66.49022925 38.49145508 72.37866211 C38.20665593 74.575522 37.92247111 76.77246161 37.63891602 78.96948242 C37.23095058 82.12960698 36.82076797 85.28943708 36.41015625 88.44921875 C36.22103416 89.91979988 36.22103416 89.91979988 36.02809143 91.42008972 C35.90804245 92.34066666 35.78799347 93.26124359 35.66430664 94.2097168 C35.5599379 95.0157988 35.45556915 95.8218808 35.34803772 96.65238953 C34.98188491 99.12219125 34.50918416 101.5560279 34 104 C30.52085059 104.02887814 27.04173169 104.04675687 23.5625 104.0625 C22.07266602 104.07506836 22.07266602 104.07506836 20.55273438 104.08789062 C19.60849609 104.09111328 18.66425781 104.09433594 17.69140625 104.09765625 C16.81685791 104.10289307 15.94230957 104.10812988 15.04125977 104.11352539 C13 104 13 104 12 103 C11.54470588 99.95446275 11.14746036 96.91911377 10.78491211 93.86206055 C10.66772324 92.90273621 10.55053436 91.94341187 10.42979431 90.95501709 C10.04138922 87.76608469 9.65926285 84.57643394 9.27734375 81.38671875 C9.01003915 79.17808858 8.74242151 76.96949628 8.47450256 74.76094055 C7.91284206 70.12325566 7.35412543 65.48522857 6.79760742 60.84692383 C6.08367892 54.89762119 5.36386127 48.94905012 4.64200497 43.00070477 C4.08851384 38.43622873 3.53747342 33.87145958 2.98724556 29.30658913 C2.7227003 27.11323644 2.45754883 24.91995679 2.19178581 22.72675133 C1.82070012 19.66015671 1.45274701 16.59320254 1.08569336 13.52612305 C0.97505554 12.61635208 0.86441772 11.70658112 0.75042725 10.76924133 C0.65090256 9.93218658 0.55137787 9.09513184 0.44883728 8.23271179 C0.31804732 7.14510071 0.31804732 7.14510071 0.18461514 6.03551769 C0.00280845 4.03096528 0 2.01278018 0 0 Z " fill="#FCFDFF" transform="translate(256,203)"/>
<path d="M0 0 C6.03708847 4.604559 8.83532452 11.39914231 9.90625 18.78125 C10.01881758 21.72063476 10.00054854 24.65280752 9.96875 27.59375 C9.948125 30.295625 9.9275 32.9975 9.90625 35.78125 C2.31625 35.78125 -5.27375 35.78125 -13.09375 35.78125 C-13.46875 28.09375 -13.46875 28.09375 -13.57177734 25.70043945 C-13.79644287 21.68034971 -14.30671202 18.46429169 -16.09375 14.78125 C-18.40375 14.45125 -20.71375 14.12125 -23.09375 13.78125 C-26.16395926 17.14164707 -26.47569386 19.46110466 -26.49780273 23.95507812 C-26.51048691 25.20317261 -26.52317108 26.45126709 -26.53623962 27.73718262 C-26.53418826 29.09562343 -26.53120029 30.45406311 -26.52734375 31.8125 C-26.53190618 33.20967869 -26.53721194 34.60685513 -26.54322815 36.00402832 C-26.55215487 38.92937347 -26.54974092 41.85444554 -26.53979492 44.77978516 C-26.52829809 48.52602293 -26.54852837 52.27131909 -26.57771206 56.01743317 C-26.59606886 58.90169241 -26.59578289 61.78572569 -26.59007454 64.67002869 C-26.5899213 66.05111513 -26.59596817 67.43221687 -26.60836601 68.81324768 C-26.62326339 70.74458642 -26.60997537 72.67608024 -26.59545898 74.60742188 C-26.59529282 75.70566284 -26.59512665 76.80390381 -26.59495544 77.9354248 C-25.97493835 81.45585797 -24.94804535 82.68037118 -22.09375 84.78125 C-18.89420046 84.63775653 -18.89420046 84.63775653 -16.09375 83.78125 C-14.20411516 78.91121548 -13.69293121 74.55391811 -13.46875 69.40625 C-13.283125 65.631875 -13.283125 65.631875 -13.09375 61.78125 C-5.50375 61.78125 2.08625 61.78125 9.90625 61.78125 C10.45988302 86.51019164 10.45988302 86.51019164 2.71875 96.08984375 C-0.41961027 99.01852909 -4.0486044 100.4794486 -8.09375 101.78125 C-8.68671875 101.97332031 -9.2796875 102.16539062 -9.890625 102.36328125 C-19.73769917 104.23143185 -31.77733169 103.84180463 -40.3359375 98.33984375 C-48.82814022 91.63629179 -50.4455746 83.50091986 -51.68798828 73.1640625 C-52.4223491 66.06396665 -52.3904011 58.94171722 -52.35449219 51.81103516 C-52.3437614 49.28393578 -52.35446156 46.75754693 -52.3671875 44.23046875 C-52.39599014 13.74222354 -52.39599014 13.74222354 -43.59765625 2.9453125 C-33.16483575 -7.31237672 -12.09989224 -7.04322086 0 0 Z " fill="#FCFDFF" transform="translate(398.09375,206.21875)"/>
<path d="M0 0 C5.81653212 4.91173823 9.18842846 9.8769501 10.8125 17.375 C11.03117572 20.69492644 11.00272593 23.98742056 10.9375 27.3125 C10.89625 30.303125 10.855 33.29375 10.8125 36.375 C3.2225 36.375 -4.3675 36.375 -12.1875 36.375 C-12.625 28.1875 -12.625 28.1875 -12.75561523 25.63598633 C-12.97146314 21.79681416 -13.29208383 18.12972832 -14.1875 14.375 C-19.50920494 14.07937633 -19.50920494 14.07937633 -24.1875 16.375 C-25.25475619 19.57676857 -25.32071659 21.88602122 -25.33276367 25.25170898 C-25.33914352 26.45983749 -25.34552338 27.667966 -25.35209656 28.91270447 C-25.35320938 30.21897293 -25.3543222 31.52524139 -25.35546875 32.87109375 C-25.35868247 34.22485896 -25.36204663 35.57862382 -25.36555481 36.93238831 C-25.37154116 39.76946823 -25.3733952 42.60651772 -25.37280273 45.44360352 C-25.3727011 49.07637419 -25.38635713 52.70894949 -25.40357494 56.34167385 C-25.41470075 59.13752639 -25.41672177 61.93333177 -25.41619301 64.72920418 C-25.41794484 66.71893383 -25.42878112 68.70864877 -25.43974304 70.698349 C-25.43666641 71.90962967 -25.43358978 73.12091034 -25.43041992 74.36889648 C-25.43184494 75.43462387 -25.43326996 76.50035126 -25.43473816 77.59837341 C-25.18390235 80.41540364 -24.79760842 82.06086209 -23.1875 84.375 C-20.27083333 85.375 -20.27083333 85.375 -17.1875 85.375 C-13.93900023 83.65273504 -13.93900023 83.65273504 -13.1875 80.375 C-13.04257877 78.96835074 -12.94121069 77.5568867 -12.87109375 76.14453125 C-12.83298584 75.42112549 -12.79487793 74.69771973 -12.75561523 73.95239258 C-12.71251221 73.03997803 -12.66940918 72.12756348 -12.625 71.1875 C-12.480625 68.279375 -12.33625 65.37125 -12.1875 62.375 C-4.5975 62.375 2.9925 62.375 10.8125 62.375 C11.49058718 86.27757323 11.49058718 86.27757323 4.5625 95.8125 C-3.48123771 103.30780105 -12.63979473 103.76100223 -23.1640625 103.5859375 C-30.7830274 103.29769081 -37.12478108 101.4399145 -42.72265625 96.10546875 C-50.11326554 87.37469564 -50.50259242 76.49075264 -50.5234375 65.58203125 C-50.5334227 63.74749641 -50.5334227 63.74749641 -50.54360962 61.87590027 C-50.55370507 59.29480485 -50.5584276 56.7136835 -50.55810547 54.13256836 C-50.56246659 50.21748983 -50.59878913 46.30355044 -50.63671875 42.38867188 C-50.64259019 39.86979548 -50.64655739 37.35091379 -50.6484375 34.83203125 C-50.66280853 33.67741898 -50.67717957 32.5228067 -50.69198608 31.33320618 C-50.63713705 21.39983125 -49.22006333 10.16322467 -41.9609375 2.73828125 C-30.70655523 -5.91321525 -12.38122538 -6.31199725 0 0 Z " fill="#FCFDFF" transform="translate(467.1875,205.625)"/>
<path d="M0 0 C1.32 0 2.64 0 4 0 C4.99 3.96 5.98 7.92 7 12 C7.66 8.37 8.32 4.74 9 1 C10.65 0.67 12.3 0.34 14 0 C14.99 3.96 15.98 7.92 17 12 C17.66 8.04 18.32 4.08 19 0 C20.32 0 21.64 0 23 0 C22.47703913 9.52149445 20.8815863 18.67490566 19 28 C17.68 28 16.36 28 15 28 C14.01 23.38 13.02 18.76 12 14 C11.01 18.29 10.02 22.58 9 27 C7.35 27.33 5.7 27.66 4 28 C3.32634616 24.27206058 2.66231022 20.54247005 2 16.8125 C1.80921875 15.75740234 1.6184375 14.70230469 1.421875 13.61523438 C1.24140625 12.59365234 1.0609375 11.57207031 0.875 10.51953125 C0.70742187 9.58214111 0.53984375 8.64475098 0.3671875 7.67895508 C0.01100934 5.08032281 -0.06645996 2.61893788 0 0 Z " fill="#FCFDFF" transform="translate(125,201)"/>
<path d="M0 0 C3.96 0 7.92 0 12 0 C15.1945394 4.25938587 15.41627249 5.00473011 15 10 C14.79375 10.639375 14.5875 11.27875 14.375 11.9375 C13.78959286 14.24694244 13.78959286 14.24694244 15.0625 17.375 C16.12340974 21.47718434 15.79820828 23.22376261 14 27 C9.81537205 29.09231398 4.67855628 28 0 28 C0 18.76 0 9.52 0 0 Z M5 3 C5 5.64 5 8.28 5 11 C6.65 10.67 8.3 10.34 10 10 C10 8.02 10 6.04 10 4 C8.35 3.67 6.7 3.34 5 3 Z M5 15 C5 18.3 5 21.6 5 25 C6.65 24.67 8.3 24.34 10 24 C10.76716851 21.14921909 10.76716851 21.14921909 11 18 C9.87359395 16.03959519 9.87359395 16.03959519 8 15 C7.01 15 6.02 15 5 15 Z " fill="#FCFDFF" transform="translate(179,278)"/>
<path d="M0 0 C1.32 0 2.64 0 4 0 C5.65 3.96 7.3 7.92 9 12 C9.33 8.04 9.66 4.08 10 0 C11.65 0 13.3 0 15 0 C15 9.24 15 18.48 15 28 C13.35 27.67 11.7 27.34 10 27 C7.77704432 23.17432073 6.53668268 19.17099584 5 15 C4.67 19.29 4.34 23.58 4 28 C2.68 28 1.36 28 0 28 C0 18.76 0 9.52 0 0 Z " fill="#FCFDFF" transform="translate(54,240)"/>
<path d="M0 0 C1.32 0 2.64 0 4 0 C5.98 4.62 7.96 9.24 10 14 C10.33 9.38 10.66 4.76 11 0 C12.32 0 13.64 0 15 0 C15 9.24 15 18.48 15 28 C13.35 27.67 11.7 27.34 10 27 C7.77704432 23.17432073 6.53668268 19.17099584 5 15 C4.67 19.29 4.34 23.58 4 28 C2.68 28 1.36 28 0 28 C0 18.76 0 9.52 0 0 Z " fill="#FCFDFF" transform="translate(158,240)"/>
<path d="M0 0 C2.26791241 1.6527191 2.9197411 2.52187904 3.38818359 5.3125 C3.39156738 6.199375 3.39495117 7.08625 3.3984375 8 C3.40423828 9.4540625 3.40423828 9.4540625 3.41015625 10.9375 C3.39855469 11.948125 3.38695313 12.95875 3.375 14 C3.38660156 15.010625 3.39820312 16.02125 3.41015625 17.0625 C3.40628906 18.031875 3.40242188 19.00125 3.3984375 20 C3.39336182 21.3303125 3.39336182 21.3303125 3.38818359 22.6875 C2.92408972 25.45221523 2.17957503 26.29731093 0 28 C-2.80915474 29.40457737 -4.88810534 29.24895157 -8 29 C-11.1359157 27.22015595 -11.84102736 26.47691793 -13 23 C-13.24874332 20.04598464 -13.23115464 17.08843233 -13.25 14.125 C-13.270625 13.32191406 -13.29125 12.51882812 -13.3125 11.69140625 C-13.34342228 6.99895069 -13.14990566 3.75339225 -10 0 C-6.22941703 -1.25686099 -3.86146303 -0.82745636 0 0 Z M-6 3 C-8.36568222 5.36568222 -8.25571704 5.85232226 -8.265625 9.0625 C-8.26820312 9.85914063 -8.27078125 10.65578125 -8.2734375 11.4765625 C-8.26570313 12.30929688 -8.25796875 13.14203125 -8.25 14 C-8.25773437 14.83273438 -8.26546875 15.66546875 -8.2734375 16.5234375 C-8.27085938 17.32007813 -8.26828125 18.11671875 -8.265625 18.9375 C-8.26336914 19.66839844 -8.26111328 20.39929688 -8.25878906 21.15234375 C-8.15448561 23.24697364 -8.15448561 23.24697364 -6 25 C-3.89179203 24.6814823 -3.89179203 24.6814823 -2 24 C-0.97654514 20.62097444 -0.8661965 17.52139987 -0.875 14 C-0.87242188 12.96875 -0.86984375 11.9375 -0.8671875 10.875 C-0.98136329 8.40342991 -1.28649344 6.3557042 -2 4 C-3.89179203 3.3185177 -3.89179203 3.3185177 -6 3 Z " fill="#FCFDFF" transform="translate(45,240)"/>
<path d="M0 0 C1.65 0 3.3 0 5 0 C5.33 7.59 5.66 15.18 6 23 C7.32 23 8.64 23 10 23 C10.33 15.41 10.66 7.82 11 0 C12.65 0 14.3 0 16 0 C16.08736736 3.72901814 16.14051482 7.45777165 16.1875 11.1875 C16.21263672 12.24259766 16.23777344 13.29769531 16.26367188 14.38476562 C16.27333984 15.40634766 16.28300781 16.42792969 16.29296875 17.48046875 C16.3086792 18.41785889 16.32438965 19.35524902 16.34057617 20.32104492 C15.93229508 23.53256353 14.88830698 25.39378631 13 28 C10.11138291 29.44430855 8.20352299 29.37688506 5 29 C2.3203125 27.24609375 2.3203125 27.24609375 0 24 C-0.61947255 19.88026185 -0.47030911 15.84152138 -0.3125 11.6875 C-0.28994141 10.56537109 -0.26738281 9.44324219 -0.24414062 8.28710938 C-0.18533776 5.52337464 -0.10320401 2.76237446 0 0 Z " fill="#FCFDFF" transform="translate(93,240)"/>
<path d="M0 0 C2.49646958 2.25487575 2.95861614 3.39303676 3.1875 6.75 C3.0946875 7.86375 3.0946875 7.86375 3 9 C1.35 9 -0.3 9 -2 9 C-2 7.35 -2 5.7 -2 4 C-3.65 4.33 -5.3 4.66 -7 5 C-7 10.94 -7 16.88 -7 23 C-5.35 23.33 -3.7 23.66 -2 24 C-1.67 21.69 -1.34 19.38 -1 17 C-2.32 17 -3.64 17 -5 17 C-5 16.01 -5 15.02 -5 14 C-2.36 14 0.28 14 3 14 C3 18.62 3 23.24 3 28 C-7.36519608 29.35734711 -7.36519608 29.35734711 -10.296875 27.70703125 C-13.98200257 24.01345155 -13.21903447 18.99432937 -13.25 14.125 C-13.270625 13.32191406 -13.29125 12.51882812 -13.3125 11.69140625 C-13.34342228 6.99895069 -13.14990566 3.75339225 -10 0 C-6.20519658 -1.26493447 -3.87641726 -0.89988258 0 0 Z " fill="#FCFDFF" transform="translate(191,240)"/>
<path d="M0 0 C2.52490921 2.85070395 2.97228108 4.51029901 3.1875 8.3125 C3.0946875 9.6428125 3.0946875 9.6428125 3 11 C1.35 11 -0.3 11 -2 11 C-2.66 8.69 -3.32 6.38 -4 4 C-4.99 4.33 -5.98 4.66 -7 5 C-7 10.94 -7 16.88 -7 23 C-5.68 23 -4.36 23 -3 23 C-2.67 21.02 -2.34 19.04 -2 17 C-0.35 17 1.3 17 3 17 C2.65627302 25.19788853 2.65627302 25.19788853 0.3125 28.0625 C-2.70027855 29.28389671 -4.77408472 29.40323941 -8 29 C-11.1359157 27.22015595 -11.84102736 26.47691793 -13 23 C-13.24874332 20.04598464 -13.23115464 17.08843233 -13.25 14.125 C-13.270625 13.32191406 -13.29125 12.51882813 -13.3125 11.69140625 C-13.34342228 6.99895069 -13.14990566 3.75339225 -10 0 C-6.17853346 -1.27382218 -3.89335307 -0.97333827 0 0 Z " fill="#FCFDFF" transform="translate(134,278)"/>
<path d="M0 0 C1.32 0 2.64 0 4 0 C4.33 7.92 4.66 15.84 5 24 C6.32 24 7.64 24 9 24 C10.23060421 21.53879159 10.2057723 19.74223134 10.31640625 16.9921875 C10.35830078 16.00605469 10.40019531 15.01992188 10.44335938 14.00390625 C10.48267578 12.97136719 10.52199219 11.93882812 10.5625 10.875 C10.60568359 9.83472656 10.64886719 8.79445313 10.69335938 7.72265625 C10.7996288 5.14857472 10.90166583 2.57439492 11 0 C12.65 0 14.3 0 16 0 C16.05865035 3.18742115 16.09381259 6.37470118 16.125 9.5625 C16.14175781 10.45775391 16.15851563 11.35300781 16.17578125 12.27539062 C16.21460215 17.57444322 15.96590395 22.04618243 14 27 C10.73083718 29.17944188 10.13719614 29.23305854 6.4375 28.8125 C5.65246094 28.73644531 4.86742187 28.66039062 4.05859375 28.58203125 C2 28 2 28 0 25 C-0.22705078 22.36450195 -0.22705078 22.36450195 -0.1953125 19.23828125 C-0.18886719 18.12001953 -0.18242187 17.00175781 -0.17578125 15.84960938 C-0.15902344 14.68236328 -0.14226562 13.51511719 -0.125 12.3125 C-0.11597656 11.13365234 -0.10695312 9.95480469 -0.09765625 8.74023438 C-0.07406423 5.82661974 -0.0411454 2.91341108 0 0 Z " fill="#FCFDFF" transform="translate(158,278)"/>
<path d="M0 0 C2.67927341 4.01891012 2.15601248 6.24161923 2 11 C0.68 11 -0.64 11 -2 11 C-2.66 8.69 -3.32 6.38 -4 4 C-4.99 4.33 -5.98 4.66 -7 5 C-7 10.94 -7 16.88 -7 23 C-5.68 23 -4.36 23 -3 23 C-2.67 21.02 -2.34 19.04 -2 17 C-0.68 17 0.64 17 2 17 C2.48372093 24.25581395 2.48372093 24.25581395 0.375 27.5 C-2.76313998 29.48198314 -4.34873465 29.67064058 -8 29 C-10.87302634 26.94120873 -12.72951138 25.33802882 -13.44897461 21.77905273 C-13.60123393 19.14802202 -13.58355555 16.57139868 -13.5 13.9375 C-13.50257812 13.03966797 -13.50515625 12.14183594 -13.5078125 11.21679688 C-13.45245123 7.49375139 -13.40382643 4.7689137 -11.65625 1.44140625 C-7.95418817 -1.7804353 -4.50820239 -0.98360779 0 0 Z " fill="#FCFDFF" transform="translate(25,240)"/>
<path d="M0 0 C3.375 1.125 3.375 1.125 5.3125 3.5 C6.375 6.125 6.375 6.125 6.375 9.125 C4.725 9.125 3.075 9.125 1.375 9.125 C0.715 7.805 0.055 6.485 -0.625 5.125 C-1.285 5.125 -1.945 5.125 -2.625 5.125 C-2.50035163 9.23839633 -0.9489356 11.05208852 1.875 13.8125 C2.5040625 14.39386719 3.133125 14.97523438 3.78125 15.57421875 C6.2048916 17.93251707 6.36805817 19.0500282 6.6875 22.5 C6.375 26.125 6.375 26.125 4.75 28.5625 C1.67682885 30.58432313 -0.00747881 30.65255517 -3.625 30.125 C-5.9375 29 -5.9375 29 -7.625 27.125 C-8.375 23.9375 -8.375 23.9375 -8.625 21.125 C-6.975 20.795 -5.325 20.465 -3.625 20.125 C-2.965 21.775 -2.305 23.425 -1.625 25.125 C-0.965 25.125 -0.305 25.125 0.375 25.125 C0.70464903 22.78803676 0.70464903 22.78803676 0.375 20.125 C-1.32228491 18.04803548 -1.32228491 18.04803548 -3.5625 16.25 C-6.45683864 13.51531349 -7.5682243 12.28451267 -8.9375 8.4375 C-8.625 5.125 -8.625 5.125 -6.625 2.125 C-3.625 0.125 -3.625 0.125 0 0 Z " fill="#FCFDFF" transform="translate(188.625,199.875)"/>
<path d="M0 0 C1.875 1.25 1.875 1.25 3 3 C3.1875 5.6875 3.1875 5.6875 3 8 C1.68 8 0.36 8 -1 8 C-1.66 6.68 -2.32 5.36 -3 4 C-3.99 4.33 -4.98 4.66 -6 5 C-4.59649895 9.91225366 -1.88188276 11.84597026 2 15 C4.12557266 17.77248608 4.00059451 18.98305644 3.875 22.5625 C3 26 3 26 1.375 28 C-2.08383253 29.45635054 -4.41298371 28.91305869 -8 28 C-9.9375 26.8125 -9.9375 26.8125 -11 25 C-11.1875 21.8125 -11.1875 21.8125 -11 19 C-9.68 19 -8.36 19 -7 19 C-6.67 20.65 -6.34 22.3 -6 24 C-4.35 24 -2.7 24 -1 24 C-2.13487493 18.70391699 -4.31973395 16.48453008 -8.44140625 13.296875 C-11.15706635 11.037228 -11.02877915 9.69781894 -11.375 6.0625 C-11.34375 3.9140625 -11.34375 3.9140625 -11 2 C-7.45500092 -1.44073441 -4.59814828 -1.39943643 0 0 Z " fill="#FCFDFF" transform="translate(85,240)"/>
<path d="M0 0 C4.62 0 9.24 0 14 0 C14 0.99 14 1.98 14 3 C12.35 3 10.7 3 9 3 C9 11.25 9 19.5 9 28 C7.35 28 5.7 28 4 28 C4 19.75 4 11.5 4 3 C2.68 3 1.36 3 0 3 C0 2.01 0 1.02 0 0 Z " fill="#FCFDFF" transform="translate(163,201)"/>
<path d="M0 0 C1.65 0 3.3 0 5 0 C5 8.25 5 16.5 5 25 C7.31 25 9.62 25 12 25 C12 25.99 12 26.98 12 28 C8.04 28 4.08 28 0 28 C0 18.76 0 9.52 0 0 Z " fill="#FCFDFF" transform="translate(142,278)"/>
<path d="M0 0 C1.65 0 3.3 0 5 0 C5 8.25 5 16.5 5 25 C7.31 25 9.62 25 12 25 C12 25.99 12 26.98 12 28 C8.04 28 4.08 28 0 28 C0 18.76 0 9.52 0 0 Z " fill="#FCFDFF" transform="translate(114,240)"/>
<path d="M0 0 C4.62 0 9.24 0 14 0 C14 0.99 14 1.98 14 3 C12.35 3 10.7 3 9 3 C9 11.25 9 19.5 9 28 C7.68 28 6.36 28 5 28 C5 19.75 5 11.5 5 3 C3.35 3 1.7 3 0 3 C0 2.01 0 1.02 0 0 Z " fill="#FCFDFF" transform="translate(129,240)"/>
<path d="M0 0 C1.65 0 3.3 0 5 0 C5 9.24 5 18.48 5 28 C3.35 28 1.7 28 0 28 C0 18.76 0 9.52 0 0 Z " fill="#FCFDFF" transform="translate(147,240)"/>
<path d="M0 0 C1.65 0 3.3 0 5 0 C5 9.24 5 18.48 5 28 C3.35 28 1.7 28 0 28 C0 18.76 0 9.52 0 0 Z " fill="#FCFDFF" transform="translate(153,201)"/>
</svg>
