<?xml version="1.0" encoding="UTF-8"?>
<svg version="1.1" xmlns="http://www.w3.org/2000/svg" width="866" height="650">
<path d="M0 0 C3.85674376 1.4756237 5.21823735 3.47006893 7.25 7 C8.03117187 8.3303125 8.03117187 8.3303125 8.828125 9.6875 C10 12 10 12 10 14 C10.66 14 11.32 14 12 14 C12.50789062 14.96679688 13.01578125 15.93359375 13.5390625 16.9296875 C16.99527702 23.47834891 20.49567355 29.95452079 24.3671875 36.26953125 C26.5066275 39.84720724 28.53176928 43.48482265 30.5625 47.125 C32.87339905 51.26724957 35.17984523 55.38599008 37.75 59.375 C39.48034193 62.06729473 40.91985025 64.80568022 42.3125 67.6875 C44.90744535 73.01699218 48.02287718 77.96314939 51.1640625 82.984375 C52.55052364 85.26171118 53.79893961 87.47253313 54.9375 89.875 C56.83538508 93.874115 59.13683488 97.59928731 61.4375 101.375 C64.47222324 106.35716214 67.234823 111.35499224 69.76171875 116.6171875 C71.16662933 119.32064319 72.770364 121.82526258 74.4375 124.375 C76.87479813 128.11499196 78.99212885 131.85738567 80.9375 135.875 C83.6457641 141.46532056 86.82168365 146.65097398 90.125 151.90625 C92.22092196 155.36452123 93.97670676 158.90623554 95.7265625 162.546875 C97.14311136 165.27568692 98.75435234 167.80250357 100.4375 170.375 C102.90152536 174.15352701 105.03321042 177.9405463 107 182 C108.94760907 186.0195336 111.05228417 189.76401268 113.5 193.5 C116.52442257 198.12597675 118.99093882 202.8665112 121.40625 207.83203125 C125.42484114 215.81996609 130.10609932 223.4764399 134.625 231.1875 C136.75324748 234.82225973 138.81798372 238.47781146 140.8125 242.1875 C143.81176657 247.74496453 147.03084935 253.1616194 150.25268555 258.59155273 C152.81484799 262.92896559 155.26920097 267.29716248 157.625 271.75 C159.96751093 276.17535672 162.46984547 280.44222494 165.125 284.6875 C167.91112943 289.14957701 170.38201171 293.62300251 172.66796875 298.35546875 C175.2117325 303.40569766 178.10590469 308.26703196 180.93847656 313.15917969 C182.00606657 315.01052023 183.06329987 316.86739163 184.1171875 318.7265625 C188.86808273 327.10233789 188.86808273 327.10233789 193.9921875 335.25390625 C195 337 195 337 195.9375 339.39453125 C197.45024093 343.10408345 199.61494514 346.32209068 201.7578125 349.6953125 C203 352 203 352 203 355 C176.27 355 149.54 355 122 355 C119.03 349.39 116.06 343.78 113 338 C109.90326782 332.94237496 109.90326782 332.94237496 106.765625 327.91015625 C104.73199997 324.55827429 103.03633608 321.11601246 101.33984375 317.5859375 C99.73609465 314.49065499 97.91694062 311.57668054 96.0625 308.625 C92.85834531 303.51275319 90.12325697 298.32363635 87.49609375 292.8984375 C85.4919018 289.01564265 83.11120225 285.43288764 80.71875 281.78125 C78.37274892 277.9849937 76.48851971 274.00987005 74.546875 269.99609375 C72.46880321 265.97114157 70.03421631 262.23352571 67.515625 258.47265625 C66 256 66 256 65.05859375 253.62109375 C63.67194561 250.18773249 61.75350996 247.13856806 59.8125 244 C56.87830781 239.19152852 54.06883762 234.3587777 51.4375 229.375 C49.09605261 224.94684602 46.60092126 220.67980546 43.9375 216.4375 C40.7632482 211.36114356 38.0345132 206.1968073 35.41796875 200.81640625 C33.6812218 197.36683449 31.71295191 194.10695429 29.6953125 190.81640625 C24.72184396 182.55403109 20.08669513 174.07737668 15.5625 165.5625 C11.29110061 157.5637002 6.63691119 149.79038399 2 142 C-4.66276939 151.26479767 -10.39304109 160.63733504 -15.39233398 170.89306641 C-17.47611662 175.10891795 -19.86358098 178.90549772 -22.546875 182.75390625 C-24.79082644 186.22237957 -26.50291452 189.92635438 -28.30859375 193.63671875 C-33.47777187 203.91538472 -39.4556884 213.80199174 -45.17578125 223.78125 C-46.77772891 226.6078129 -48.3365567 229.45108165 -49.875 232.3125 C-52.89477183 237.90405553 -56.13191611 243.3614887 -59.39794922 248.81176758 C-61.40003644 252.17589161 -63.30446222 255.54223125 -65.02734375 259.05859375 C-66.9471083 262.97539338 -69.14754359 266.66577067 -71.4375 270.375 C-74.44854495 275.31347979 -77.19037907 280.2672033 -79.6953125 285.484375 C-81.2877108 288.55474778 -83.09824844 291.44607864 -84.9375 294.375 C-88.14322135 299.48974642 -90.87918654 304.68161762 -93.5078125 310.109375 C-94.99796044 312.99604902 -96.65272789 315.6621464 -98.4375 318.375 C-101.13592209 322.48801341 -103.42202922 326.70214877 -105.5625 331.125 C-107.9120099 335.95045083 -110.39079069 340.39999409 -113.54296875 344.7421875 C-115.64301663 347.99641719 -117.26793696 351.53587391 -119 355 C-145.4 355 -171.8 355 -199 355 C-198.16007442 350.8003721 -197.44149527 348.58671192 -195.453125 344.98046875 C-194.9375 344.04009766 -194.421875 343.09972656 -193.890625 342.13085938 C-193.07851562 340.67389648 -193.07851562 340.67389648 -192.25 339.1875 C-191.46109375 337.74793945 -191.46109375 337.74793945 -190.65625 336.27929688 C-187.92780068 331.33229408 -185.10213143 326.48201613 -182.07226562 321.71411133 C-180.65307608 319.44541146 -179.3805736 317.11255861 -178.125 314.75 C-175.95576314 310.7190212 -173.70159053 306.75477839 -171.375 302.8125 C-169.51217885 299.64570405 -167.70450364 296.50445765 -166.125 293.1875 C-164.1912024 289.17759068 -161.87522718 285.4235104 -159.5625 281.625 C-156.51296016 276.61455735 -153.71221751 271.58657592 -151.16015625 266.30078125 C-149.51690732 263.04194752 -147.61041761 259.96593852 -145.7109375 256.8515625 C-143.70931546 253.51552577 -141.78259898 250.14030254 -139.875 246.75 C-139.50238037 246.08782471 -139.12976074 245.42564941 -138.74584961 244.7434082 C-136.45144618 240.64520758 -134.19692794 236.52700757 -131.96484375 232.39453125 C-131.44229004 231.42870117 -130.91973633 230.46287109 -130.38134766 229.46777344 C-129.36264424 227.58128563 -128.34776831 225.6927241 -127.33740234 223.80175781 C-124.58068003 218.69505801 -121.61887243 213.86338311 -118.3503418 209.07006836 C-116.44529317 206.14963673 -114.98946759 203.15416666 -113.5 200 C-111.1526009 195.13339327 -108.54207031 190.67629162 -105.453125 186.24609375 C-103.2036012 182.76900723 -101.4881979 179.05443573 -99.67578125 175.3359375 C-96.36928939 168.75378355 -92.65321059 162.39413218 -89 156 C-88.52191895 155.16162598 -88.04383789 154.32325195 -87.55126953 153.45947266 C-78.8806686 138.25450581 -78.8806686 138.25450581 -74.73828125 131.078125 C-71.05217608 124.67632349 -67.51179976 118.22289739 -64.07592773 111.68530273 C-61.28796953 106.43068026 -58.24540122 101.3540732 -55.14697266 96.27807617 C-52.62316962 92.11725618 -50.40886175 87.89811205 -48.3046875 83.515625 C-46.7122892 80.44525222 -44.90175156 77.55392136 -43.0625 74.625 C-39.85834531 69.51275319 -37.12325697 64.32363635 -34.49609375 58.8984375 C-32.4919018 55.01564265 -30.11120225 51.43288764 -27.71875 47.78125 C-25.95227172 44.92276697 -24.46481083 42.02312023 -23 39 C-20.57508771 33.99539379 -17.76610882 29.42970533 -14.71875 24.78515625 C-12.94273178 21.90719945 -11.46347125 18.98510102 -10 15.9375 C-7.2190286 10.18765373 -3.8190819 5.10717461 0 0 Z " fill="#000000" transform="translate(431,49)"/>
<path d="M0 0 C0.99 0 1.98 0 3 0 C4.27099609 1.49365234 4.27099609 1.49365234 5.5234375 3.5859375 C6.21481812 4.72675781 6.21481812 4.72675781 6.92016602 5.890625 C7.40026123 6.71046875 7.88035645 7.5303125 8.375 8.375 C8.87249756 9.20773437 9.36999512 10.04046875 9.88256836 10.8984375 C12.67153797 15.60726665 15.29587306 20.34416932 17.65234375 25.28515625 C24.02433202 38.12148044 31.53354302 50.43684867 38.73339844 62.81933594 C43.06467727 70.27634876 47.35404706 77.74454047 51.375 85.375 C54.48482408 91.22204251 57.9326593 96.80532794 61.53662109 102.35693359 C68 112.43590149 68 112.43590149 68 118 C56.10490469 118.02352644 44.20981521 118.04111465 32.31470108 118.05181217 C26.7869406 118.05695526 21.25919642 118.06388949 15.73144531 118.07543945 C-10.86443899 118.12958046 -37.41972021 117.96265272 -64 117 C-63.36576542 111.84239225 -62.52327549 108.64808353 -59.625 104.3125 C-55.98349634 98.69795427 -52.69645864 92.94119715 -49.5 87.0625 C-48.55367161 85.32796883 -47.60706084 83.59359168 -46.66015625 81.859375 C-46.20656738 81.02857422 -45.75297852 80.19777344 -45.28564453 79.34179688 C-41.45848114 72.37063257 -37.47720562 65.48736762 -33.42578125 58.64453125 C-32.98177979 57.89389404 -32.53777832 57.14325684 -32.08032227 56.36987305 C-31.22293408 54.92305998 -30.36294122 53.47778573 -29.49975586 52.03442383 C-27.53555162 48.72513636 -25.67439828 45.40949318 -23.98046875 41.953125 C-22.05727211 38.0329469 -19.85484724 34.33810195 -17.5625 30.625 C-15.01402343 26.44518858 -12.55955141 22.29233152 -10.4375 17.875 C-8.43952129 13.75373381 -6.22247168 9.80463676 -3.875 5.875 C-3.21242188 4.75867188 -2.54984375 3.64234375 -1.8671875 2.4921875 C-1.25101562 1.66976563 -0.63484375 0.84734375 0 0 Z " fill="#000000" transform="translate(431,286)"/>
<path d="M0 0 C9 0 9 0 11.53125 1.58203125 C12.1809375 2.31808594 12.830625 3.05414063 13.5 3.8125 C14.24636719 4.64007813 14.99273437 5.46765625 15.76171875 6.3203125 C16.50035156 7.20460938 17.23898437 8.08890625 18 9 C19.06154297 10.26457031 19.06154297 10.26457031 20.14453125 11.5546875 C21.61506708 13.34052741 23.07172082 15.13787217 24.515625 16.9453125 C26.38890526 19.24862251 28.2862971 21.50360676 30.234375 23.7421875 C31.06134888 24.69315308 31.06134888 24.69315308 31.9050293 25.66333008 C32.9964393 26.91389399 34.09156892 28.16122292 35.19067383 29.4050293 C39 33.78076577 39 33.78076577 39 36 C39.5775 36.20625 40.155 36.4125 40.75 36.625 C43.81793324 38.49984809 45.11327684 40.98124294 47 44 C47.66 44.66 48.32 45.32 49 46 C49.66 30.82 50.32 15.64 51 0 C54.3 0 57.6 0 61 0 C61 22.44 61 44.88 61 68 C53.86697322 68 51.80798307 67.79146552 47.0078125 63.01953125 C46.38648438 62.29121094 45.76515625 61.56289063 45.125 60.8125 C44.43792969 60.01457031 43.75085938 59.21664062 43.04296875 58.39453125 C42.36878906 57.60433594 41.69460938 56.81414063 41 56 C39.81331946 54.66593729 38.6258607 53.33256627 37.4375 52 C27.55420285 40.66260856 27.55420285 40.66260856 26 36 C25.39671875 35.7009375 24.7934375 35.401875 24.171875 35.09375 C21.39940351 33.69754134 20.11963405 31.96088584 18.25 29.5 C17.63640625 28.7059375 17.0228125 27.911875 16.390625 27.09375 C15 25 15 25 15 23 C14.34 23 13.68 23 13 23 C12.97494385 24.25659424 12.9498877 25.51318848 12.92407227 26.80786133 C12.82997705 31.46519357 12.72976141 36.12237741 12.62768555 40.77954102 C12.58434471 42.79610729 12.54266902 44.81271007 12.50268555 46.8293457 C12.44496253 49.72618617 12.38127378 52.62284306 12.31640625 55.51953125 C12.29133751 56.87435356 12.29133751 56.87435356 12.26576233 58.25654602 C12.24581711 59.09719101 12.22587189 59.937836 12.20532227 60.80395508 C12.18977798 61.54341873 12.1742337 62.28288239 12.15821838 63.04475403 C12 65 12 65 11 68 C7.37 68 3.74 68 0 68 C0 45.56 0 23.12 0 0 Z " fill="#000000" transform="translate(323,484)"/>
<path d="M0 0 C6.6825 -0.020625 13.365 -0.04125 20.25 -0.0625 C22.33344727 -0.092229 24.41689453 -0.12195801 26.56347656 -0.15258789 C36.99291739 -0.13405332 43.91935134 0.67838031 51.87109375 7.70849609 C57.86895359 14.16444936 58.77482705 19.76014308 58.51953125 28.58203125 C57.52335898 35.13579619 54.09011377 39.14739916 49.25 43.4375 C48.5075 43.953125 47.765 44.46875 47 45 C46.34 45.66 45.68 46.32 45 47 C45.35827881 47.46374023 45.71655762 47.92748047 46.08569336 48.40527344 C47.70970433 50.51509064 49.32365366 52.63239913 50.9375 54.75 C51.50146484 55.47960937 52.06542969 56.20921875 52.64648438 56.9609375 C53.45375977 58.02441406 53.45375977 58.02441406 54.27734375 59.109375 C54.77484131 59.75874023 55.27233887 60.40810547 55.78491211 61.07714844 C57.06815641 63.10785611 57.73992352 64.61064422 58 67 C55.50882422 69.49117578 54.51144551 69.35140298 51.0625 69.4375 C49.74958984 69.49744141 49.74958984 69.49744141 48.41015625 69.55859375 C46 69 46 69 44.41796875 66.765625 C43.95003906 65.85296875 43.48210938 64.9403125 43 64 C41.77612945 62.41695005 40.52471409 60.85490405 39.25 59.3125 C36.42964651 55.80668026 33.62529712 52.29636587 30.9375 48.6875 C30.34839844 47.90761719 29.75929688 47.12773438 29.15234375 46.32421875 C27.72131376 43.43790403 28.06446757 42.02043327 29 39 C29.73605469 38.84144531 30.47210937 38.68289063 31.23046875 38.51953125 C35.6410088 37.46496355 39.32631708 36.42270301 43.1875 34 C45.948097 29.43073599 45.70480966 25.19992908 45 20 C43.70461786 16.54564763 42.65984721 15.439177 39.6171875 13.4140625 C34.51002903 11.41752755 29.68887818 11.46958919 24.25 11.375 C22.17177816 11.32412554 20.09364093 11.26962344 18.015625 11.2109375 C17.10071289 11.19337402 16.18580078 11.17581055 15.24316406 11.15771484 C13 11 13 11 11 10 C11 29.47 11 48.94 11 69 C7.37 69 3.74 69 0 69 C0 46.23 0 23.46 0 0 Z " fill="#000000" transform="translate(490,483)"/>
<path d="M0 0 C1.51400391 0.01740234 1.51400391 0.01740234 3.05859375 0.03515625 C4.07050781 0.04417969 5.08242188 0.05320312 6.125 0.0625 C7.29869141 0.07990234 7.29869141 0.07990234 8.49609375 0.09765625 C8.65064838 2.0970012 8.79347891 4.09724749 8.93359375 6.09765625 C8.98233643 6.77175537 9.0310791 7.44585449 9.08129883 8.14038086 C9.37992254 12.73899052 9.52721325 17.32114694 9.55906677 21.92984009 C9.57957893 24.78522374 9.62128884 27.64020584 9.66213989 30.49536133 C9.67636923 31.93116784 9.68012015 33.36711883 9.67306519 34.80297852 C9.37490399 44.21044047 9.37490399 44.21044047 13.296875 52.4375 C17.96733585 56.95988218 23.17173616 58.00403911 29.49609375 58.09765625 C34.73585216 57.50818343 38.78164065 55.91823658 42.49609375 52.09765625 C45.97545325 46.68508196 46.04576646 41.68750355 46.2265625 35.44921875 C46.26670975 34.43669037 46.30685699 33.42416199 46.34822083 32.38095093 C46.47290703 29.16185046 46.5785116 25.94245036 46.68359375 22.72265625 C46.76501597 20.53380693 46.8476844 18.34500359 46.93164062 16.15625 C47.13423125 10.80381047 47.31971707 5.45102111 47.49609375 0.09765625 C51.12609375 0.09765625 54.75609375 0.09765625 58.49609375 0.09765625 C58.57061507 6.48394256 58.62487119 12.86997204 58.66088867 19.2565918 C58.67591411 21.42623305 58.69634028 23.59584423 58.72241211 25.76538086 C58.75907081 28.89574635 58.77588301 32.02570795 58.7890625 35.15625 C58.80454636 36.11599228 58.82003021 37.07573456 58.83598328 38.06455994 C58.83844797 48.07455342 56.47011413 54.93144028 49.5546875 62.21484375 C43.10187515 68.11665694 36.0757083 68.31930884 27.80859375 68.41015625 C26.94814453 68.43916016 26.08769531 68.46816406 25.20117188 68.49804688 C17.33145844 68.57514279 11.67255217 66.29674285 5.24609375 61.84765625 C-0.68350839 55.91805411 -3.0548788 51.03606224 -3.24850464 42.59364319 C-3.24770905 41.54438156 -3.24691345 40.49511993 -3.24609375 39.4140625 C-3.26358673 38.31795151 -3.28107971 37.22184052 -3.29910278 36.09251404 C-3.34843673 32.61490475 -3.36349704 29.13806318 -3.37890625 25.66015625 C-3.4106438 23.29619459 -3.44447608 20.93226007 -3.48046875 18.56835938 C-3.5875724 9.96312292 -3.5875724 9.96312292 -3.60498047 5.67407227 C-3.60988495 4.81217789 -3.61478943 3.95028351 -3.61984253 3.06227112 C-3.44311185 0.06745594 -3.01147819 0.11745235 0 0 Z " fill="#000000" transform="translate(409.50390625,483.90234375)"/>
<path d="M0 0 C1.875 0 1.875 0 4 1 C7.38738375 5.29068609 9.77916401 10.20408826 12.36328125 15.0078125 C14.02165706 18.03959262 15.74776847 21.0215932 17.5 24 C20.2564816 28.69085466 22.88581663 33.43461221 25.46875 38.22265625 C27.0899239 41.16310177 28.7874334 44.04942168 30.5 46.9375 C33.4720189 51.98072677 36.11450115 57.12693498 38.640625 62.40625 C39.9151038 65.01579622 39.9151038 65.01579622 41.66015625 67.171875 C43.39758447 69.54247677 43.23911477 71.13062272 43 74 C35.75555556 75.20740741 35.75555556 75.20740741 33.0078125 74.453125 C29.99782228 72.2746885 28.43446281 69.29293012 26.625 66.125 C26.23070801 65.45243164 25.83641602 64.77986328 25.43017578 64.08691406 C22.54749887 59.11256019 19.97272581 54.01863334 17.46875 48.84375 C15.43320701 44.90259229 13.02775127 41.24562501 10.59765625 37.5390625 C8.80390802 34.68836238 7.3537222 31.76367528 5.91015625 28.7265625 C4.58792907 26.21830322 2.86051142 24.12629877 1 22 C0.62488281 22.68964844 0.24976563 23.37929688 -0.13671875 24.08984375 C-3.3965481 30.07577725 -6.67401726 36.05058167 -10 42 C-10.30776367 42.55252441 -10.61552734 43.10504883 -10.93261719 43.67431641 C-12.78644129 47.00081274 -14.65420221 50.31820803 -16.54296875 53.625 C-18.26577391 56.65283524 -19.89508722 59.71465736 -21.48828125 62.8125 C-22.3251086 64.37522082 -23.16233793 65.93772646 -24 67.5 C-24.36633545 68.24830078 -24.7326709 68.99660156 -25.11010742 69.76757812 C-26.26319243 71.86777837 -27.19665615 73.41803851 -29 75 C-32.83146686 75.84625442 -36.46670874 75.76664563 -40 74 C-39.47454997 69.37331013 -38.26932601 66.31242976 -35.8125 62.375 C-33.31424235 58.26052261 -31.03022568 54.14743177 -28.9375 49.8125 C-27.20033464 46.26024893 -25.40031758 42.98205489 -23.125 39.75 C-19.85210613 35.05485382 -17.46548204 30.01434856 -14.97021484 24.88183594 C-12.7276363 20.31916293 -10.24966189 16.12316262 -7.3125 11.96484375 C-5.93119866 9.89700275 -4.8343086 7.7988865 -3.75 5.5625 C-2 2 -2 2 0 0 Z " fill="#000000" transform="translate(268,477)"/>
<path d="M0 0 C2.22265625 0.0703125 2.22265625 0.0703125 5 1 C6.72239457 3.29452912 8.07203359 5.38327298 9.4375 7.875 C9.82945557 8.55900879 10.22141113 9.24301758 10.62524414 9.94775391 C11.76918624 11.95523938 12.88923775 13.97400293 14 16 C14.515625 16.9384375 15.03125 17.876875 15.5625 18.84375 C16.49465168 20.5597565 17.42157702 22.27861043 18.34375 24 C20.46330639 27.83919647 22.6994508 31.60401189 24.9375 35.375 C28.5594879 41.4832335 32.01383046 47.64049774 35.328125 53.921875 C37.64336954 58.18452148 40.16695568 62.31438755 42.71484375 66.44140625 C44 69 44 69 44 73 C40.36879732 74.81560134 36.91031206 75.12059368 33 74 C30.03240193 70.9809001 28.24797415 67.42588158 26.3125 63.6875 C25.78333984 62.73037109 25.25417969 61.77324219 24.70898438 60.78710938 C23.10656164 57.87450501 21.5514936 54.93999265 20 52 C16.87903563 46.21717654 13.73643092 40.46002256 10.375 34.8125 C7.71447454 30.28783696 5.27390252 25.72971725 3 21 C-0.03812412 24.48821658 -2.25845042 28.09577794 -4.4453125 32.13671875 C-6.44597522 35.82135637 -8.5040594 39.47241291 -10.5625 43.125 C-10.93850342 43.79378174 -11.31450684 44.46256348 -11.7019043 45.15161133 C-13.49849615 48.34533377 -15.30389096 51.53336414 -17.12890625 54.7109375 C-18.59438713 57.28700201 -19.9955524 59.87807122 -21.375 62.5 C-26.19586594 71.06879525 -26.19586594 71.06879525 -30 74 C-33.57239465 74.47631929 -35.76645861 74.6167707 -39 73 C-39.30324021 68.90625716 -38.62154512 66.84187992 -36.375 63.4375 C-34.02572664 59.72927928 -31.96811564 56.01755133 -30.0625 52.0625 C-27.60813458 47.04482866 -24.77652757 42.44838418 -21.71875 37.78125 C-19.37036968 33.98114367 -17.48498591 30.00109391 -15.5390625 25.984375 C-13.4813415 21.99427641 -11.05966559 18.29509528 -8.6015625 14.54296875 C-7.16382803 12.26012694 -5.92472801 9.98817883 -4.75 7.5625 C-3.35145723 4.71546651 -2.0165624 2.41987488 0 0 Z " fill="#000000" transform="translate(594,478)"/>
<path d="M0 0 C22.7 0 22.7 0 27.875 4.5 C31.30430479 8.53447623 31.33029661 11.28694849 31.29296875 16.453125 C30.7631268 21.05921771 28.16572234 23.83427766 25 27 C18.78626224 28.24509679 12.30898471 28.10175782 6 28 C5.67 31.63 5.34 35.26 5 39 C2.525 39.495 2.525 39.495 0 40 C0 26.8 0 13.6 0 0 Z M5 7 C5.33 11.95 5.66 16.9 6 22 C12.34758084 23.10521487 12.34758084 23.10521487 17.8125 21.75 C18.56144531 21.49734375 19.31039063 21.2446875 20.08203125 20.984375 C22.33531658 20.02457067 22.33531658 20.02457067 24 17 C24.445239 13.5122945 24.51663107 11.73036422 22.4609375 8.82421875 C19.11680952 6.34531753 16.2273893 6.55602288 12.25 6.75 C9.8575 6.8325 7.465 6.915 5 7 Z " fill="#000000" transform="translate(276,571)"/>
<path d="M0 0 C2.72502965 -0.37722015 2.72502965 -0.37722015 5 -1 C6 0 6 0 6.11352539 2.68383789 C6.10828857 3.85164795 6.10305176 5.01945801 6.09765625 6.22265625 C6.09443359 7.48271484 6.09121094 8.74277344 6.08789062 10.04101562 C6.07953403 11.38151109 6.07106907 12.72200588 6.0625 14.0625 C6.0574866 15.40689942 6.05292342 16.7513006 6.04882812 18.09570312 C6.03699488 21.39717941 6.02050971 24.69856803 6 28 C3.625 28.625 3.625 28.625 1 29 C0.34 28.34 -0.32 27.68 -1 27 C-1.55816406 27.32355469 -2.11632812 27.64710938 -2.69140625 27.98046875 C-6.67490586 29.73967924 -10.72734852 29.44463365 -15 29 C-19.72403852 27.0487667 -22.72471109 23.55057782 -25 19 C-25.58237004 14.14200183 -26.13493128 9.15526038 -23.80078125 4.72265625 C-16.97699272 -3.40744948 -9.55621724 -3.25780133 0 0 Z M-17 7 C-17.77035174 9.35182322 -17.77035174 9.35182322 -17.875 11.9375 C-17.95492188 12.79214844 -18.03484375 13.64679687 -18.1171875 14.52734375 C-17.98827013 17.24750032 -17.47723998 18.72886915 -16 21 C-13.04242408 22.72525262 -11.3054394 23.01832636 -7.875 22.8125 C-4.85150824 21.95803494 -3.70554182 21.60319541 -2 19 C-0.66734188 14.38695266 -1.05842647 11.36854044 -3 7 C-4.06345052 5.01970318 -4.06345052 5.01970318 -6 4 C-10.78394428 3.47811517 -13.51798915 3.60708111 -17 7 Z " fill="#000000" transform="translate(345,582)"/>
<path d="M0 0 C3.37019429 2.06931139 6.2166881 4.4333762 8 8 C8.18704404 10.69013339 8.08581391 13.29686177 8 16 C6.38219843 17.61780157 4.54364482 17.22272147 2.30859375 17.31640625 C0.89223633 17.37924805 0.89223633 17.37924805 -0.55273438 17.44335938 C-1.54595703 17.48267578 -2.53917969 17.52199219 -3.5625 17.5625 C-4.55958984 17.60568359 -5.55667969 17.64886719 -6.58398438 17.69335938 C-9.0558415 17.79980298 -11.5278031 17.90181928 -14 18 C-10.52779931 22.00040906 -10.52779931 22.00040906 -5.625 23.4375 C-1.84327314 22.98108469 1.38797169 22.17943782 5 21 C6 22 6 22 6.375 24.375 C6 27 6 27 3.8828125 28.640625 C0.52371172 30.22459122 -1.7996274 30.40093719 -5.5 30.375 C-6.6034375 30.38273438 -7.706875 30.39046875 -8.84375 30.3984375 C-13.53919437 29.80569576 -16.08298299 27.99343509 -19.25 24.5625 C-22.28136448 20.1237163 -22.36907599 16.35160185 -22 11 C-20.10672504 5.7409029 -17.40216785 3.20991406 -13 0 C-8.53640452 -1.48786516 -4.54438376 -1.1412522 0 0 Z M-14 10 C-13.67 10.66 -13.34 11.32 -13 12 C-11.04174127 12.02694851 -9.08337774 12.04637218 -7.125 12.0625 C-5.48917969 12.07990234 -5.48917969 12.07990234 -3.8203125 12.09765625 C-1.04822454 12.19744303 -1.04822454 12.19744303 1 11 C-0.36983503 7.83884224 -0.9890638 7.0072908 -4 5 C-9.02989227 4.0734409 -10.79982026 6.34265172 -14 10 Z " fill="#000000" transform="translate(508,581)"/>
<path d="M0 0 C1.2375 0.20496094 1.2375 0.20496094 2.5 0.4140625 C6.22017437 1.84400453 7.7004243 3.05791293 10 6.375 C10.60967876 10.49657992 10.47033197 14.532877 10.3125 18.6875 C10.28994141 19.80962891 10.26738281 20.93175781 10.24414062 22.08789062 C10.18533776 24.85162536 10.10320401 27.61262554 10 30.375 C8.33388095 30.417721 6.66617115 30.41563832 5 30.375 C3.44116152 28.81616152 3.71031171 27.17270828 3.53515625 25.0078125 C3.45716797 24.12222656 3.37917969 23.23664062 3.29882812 22.32421875 C3.14195217 20.44948624 2.98827792 18.57448292 2.83789062 16.69921875 C2.75861328 15.81105469 2.67933594 14.92289063 2.59765625 14.0078125 C2.53070557 13.19199707 2.46375488 12.37618164 2.39477539 11.53564453 C2.09505039 9.08844872 2.09505039 9.08844872 0 6.375 C-5.58500567 6.57398708 -5.58500567 6.57398708 -10 9.375 C-10.44531653 11.48431809 -10.44531653 11.48431809 -10.59765625 13.91015625 C-10.67693359 14.80154297 -10.75621094 15.69292969 -10.83789062 16.61132812 C-10.91201172 17.54396484 -10.98613281 18.47660156 -11.0625 19.4375 C-11.21617575 21.28287899 -11.37352798 23.12795678 -11.53515625 24.97265625 C-11.600979 25.79258057 -11.66680176 26.61250488 -11.73461914 27.45727539 C-12 29.375 -12 29.375 -13 30.375 C-14.65 30.375 -16.3 30.375 -18 30.375 C-18 20.805 -18 11.235 -18 1.375 C-13 0.375 -13 0.375 -10 0.375 C-9.21625 0.19710937 -8.4325 0.01921875 -7.625 -0.1640625 C-4.81318911 -0.6578031 -2.79787675 -0.51585853 0 0 Z " fill="#000000" transform="translate(458,580.625)"/>
<path d="M0 0 C0.9375 2.0625 0.9375 2.0625 1 4 C0 5 0 5 -2.94140625 5.09765625 C-4.73384766 5.08025391 -4.73384766 5.08025391 -6.5625 5.0625 C-8.35880859 5.04896484 -8.35880859 5.04896484 -10.19140625 5.03515625 C-11.11824219 5.02355469 -12.04507813 5.01195312 -13 5 C-13.33 6.65 -13.66 8.3 -14 10 C-13.26394531 10.09796875 -12.52789063 10.1959375 -11.76953125 10.296875 C-1.01540579 11.94479911 -1.01540579 11.94479911 2 16 C2.68833079 19.14087073 2.92621598 21.90534895 2 25 C-0.82176011 28.08313298 -2.45718327 28.93105234 -6.62890625 29.4609375 C-8.57603516 29.41839844 -8.57603516 29.41839844 -10.5625 29.375 C-11.86316406 29.36210938 -13.16382813 29.34921875 -14.50390625 29.3359375 C-17.63810498 29.03477427 -19.44384011 28.7710985 -22 27 C-22.875 25 -22.875 25 -23 23 C-22.34 22.34 -21.68 21.68 -21 21 C-17.36565322 21.10689255 -13.80219831 21.52107723 -10.1875 21.90625 C-9.135625 21.9371875 -8.08375 21.968125 -7 22 C-6.34 21.34 -5.68 20.68 -5 20 C-8.62482335 18.37252829 -11.88219578 17.02945105 -15.75 16.0625 C-19 15 -19 15 -20.9375 13.3125 C-22.48471252 9.94503746 -22.51410188 7.66297593 -22 4 C-19.91052231 1.33011184 -18.25444343 -0.45640785 -15.125 -1.8125 C-9.70513761 -2.29072315 -4.99903053 -2.38049073 0 0 Z " fill="#000000" transform="translate(588,582)"/>
<path d="M0 0 C1.65 0 3.3 0 5 0 C5.66 2.31 6.32 4.62 7 7 C9.31 7 11.62 7 14 7 C14 8.32 14 9.64 14 11 C12 12 12 12 6 12 C6.66 17.94 7.32 23.88 8 30 C10.31 30.33 12.62 30.66 15 31 C15.38218767 32.65614657 15.71395102 34.32457024 16 36 C14.27415266 37.72584734 12.03790633 37.2533507 9.6875 37.3125 C8.23923828 37.36857422 8.23923828 37.36857422 6.76171875 37.42578125 C4 37 4 37 1.69140625 35.65234375 C-0.99172371 31.44484897 -0.67834756 27.14190738 -0.75 22.25 C-0.77964844 21.26644531 -0.80929687 20.28289063 -0.83984375 19.26953125 C-0.91042411 16.84627224 -0.96317701 14.42396846 -1 12 C-2.32 11.67 -3.64 11.34 -5 11 C-5 9.68 -5 8.36 -5 7 C-3.68 7 -2.36 7 -1 7 C-0.67 4.69 -0.34 2.38 0 0 Z " fill="#000000" transform="translate(406,574)"/>
<path d="M0 0 C-0.1875 2.375 -0.1875 2.375 -1 5 C-2.64551962 5.71727778 -4.31422289 6.38325228 -6 7 C-7.77226766 9.80628353 -8.32297128 12.27141066 -8.6328125 15.546875 C-8.71660156 16.39121094 -8.80039062 17.23554687 -8.88671875 18.10546875 C-8.96535156 18.97816406 -9.04398437 19.85085938 -9.125 20.75 C-9.21136719 21.63816406 -9.29773438 22.52632812 -9.38671875 23.44140625 C-9.59823066 25.62702936 -9.80240227 27.81308238 -10 30 C-11.98 30 -13.96 30 -16 30 C-16.02465746 25.8882744 -16.04283959 21.77657722 -16.05493164 17.66479492 C-16.0599708 16.26504772 -16.06680216 14.8653058 -16.07543945 13.46557617 C-16.0875232 11.45754223 -16.09269807 9.44947043 -16.09765625 7.44140625 C-16.10289307 6.23170166 -16.10812988 5.02199707 -16.11352539 3.77563477 C-16 1 -16 1 -15 0 C-13.33388095 -0.042721 -11.66617115 -0.04063832 -10 0 C0 0 0 0 0 0 Z " fill="#000000" transform="translate(386,581)"/>
<path d="M0 0 C0 1.65 0 3.3 0 5 C-1.7578125 5.87890625 -3.515625 6.7578125 -5.2734375 7.63671875 C-8.68993201 10.33435808 -9.08564073 14.10052075 -9.6328125 18.20703125 C-9.80403028 19.74140594 -9.96793518 21.27661203 -10.125 22.8125 C-10.21136719 23.60076172 -10.29773438 24.38902344 -10.38671875 25.20117188 C-10.59751064 27.13343084 -10.79962896 29.06663263 -11 31 C-12.65 30.67 -14.3 30.34 -16 30 C-17.44108662 20.63293695 -17.44108662 11.36706305 -16 2 C-13.23735711 1.40267181 -10.83967231 1 -8 1 C-5.07175348 0.02391783 -3.04386724 -0.08226668 0 0 Z " fill="#000000" transform="translate(551,580)"/>
</svg>
