<?xml version="1.0" encoding="UTF-8"?>
<svg version="1.1" xmlns="http://www.w3.org/2000/svg" width="866" height="650">
<path d="M0 0 C2.61293906 0.02383889 5.22486841 0.0205047 7.83789062 0.01391602 C9.52539662 0.01948749 11.21289841 0.02659401 12.90039062 0.03540039 C13.66825897 0.03448898 14.43612732 0.03357758 15.2272644 0.03263855 C20.34886692 0.09905763 24.79129812 0.93371253 29.72070312 2.33618164 C29.15117451 5.85218441 28.26915575 8.53229206 26.50585938 11.62133789 C26.06693359 12.39928711 25.62800781 13.17723633 25.17578125 13.97875977 C24.71623047 14.77733398 24.25667969 15.5759082 23.78320312 16.39868164 C22.87762248 17.99337458 21.97265311 19.58841483 21.06835938 21.18383789 C20.66625244 21.88516846 20.26414551 22.58649902 19.84985352 23.30908203 C18.74559143 25.29150107 17.71948497 27.29889529 16.72070312 29.33618164 C16.016875 29.35076416 15.31304687 29.36534668 14.58789062 29.38037109 C-18.67223439 30.1483717 -46.89709068 36.76085449 -72.27929688 59.33618164 C-73.10558594 60.03098633 -73.931875 60.72579102 -74.78320312 61.44165039 C-103.26076351 85.90828678 -120.54336701 122.65842048 -129.40429688 158.46118164 C-129.64607666 159.41887451 -129.88785645 160.37656738 -130.13696289 161.36328125 C-134.55427916 179.83913406 -135.82851932 198.07810539 -135.71679688 217.02368164 C-135.71375549 218.12080475 -135.71071411 219.21792786 -135.70758057 220.34829712 C-135.64070703 236.67301865 -135.01138196 252.37967174 -131.27929688 268.33618164 C-131.06499023 269.30330078 -130.85068359 270.27041992 -130.62988281 271.2668457 C-123.55208966 302.74087493 -110.23004584 331.71119806 -89.68359375 356.63061523 C-88.24936893 358.37253015 -86.83463703 360.12918413 -85.41992188 361.88696289 C-80.53677116 367.88717423 -75.74124203 373.02076498 -69.27929688 377.33618164 C-67.71901493 378.50740627 -66.15874523 379.67864722 -64.59863281 380.85009766 C-50.53284785 391.24697234 -36.37506348 397.4830867 -19.43725586 401.75634766 C-17.27929688 402.33618164 -17.27929688 402.33618164 -14.17773438 403.45336914 C-10.50188298 404.57296808 -6.90516396 404.84093105 -3.09179688 405.02368164 C-2.33785645 405.06130615 -1.58391602 405.09893066 -0.80712891 405.13769531 C10.64951644 405.62435144 20.77104103 403.60012925 31.72070312 400.33618164 C32.96335937 399.97524414 34.20601562 399.61430664 35.48632812 399.24243164 C53.13354196 393.77844075 69.31052145 384.05942751 82.72070312 371.33618164 C83.28917969 370.80766602 83.85765625 370.27915039 84.44335938 369.73461914 C117.65982304 337.80444223 135.14533053 292.2767538 140.72070312 247.33618164 C140.81496582 246.64766113 140.90922852 245.95914063 141.00634766 245.24975586 C146.68752614 198.26569835 138.27848284 147.6070415 115.49414062 106.10180664 C114.72070312 104.33618164 114.72070312 104.33618164 114.72070312 101.33618164 C114.06070312 101.33618164 113.40070313 101.33618164 112.72070312 101.33618164 C111.56665039 99.89013672 111.56665039 99.89013672 110.28710938 97.85571289 C109.56950439 96.73724976 109.56950439 96.73724976 108.83740234 95.59619141 C108.3245166 94.78851318 107.81163086 93.98083496 107.28320312 93.14868164 C102.70200861 86.10808717 97.91100766 79.54107644 92.32617188 73.26977539 C90.69366534 71.43167583 89.10442682 69.55316148 87.58398438 67.62133789 C80.03509823 58.39190977 70.07805509 52.40774532 60.14916992 45.99267578 C59.34777588 45.44603271 58.54638184 44.89938965 57.72070312 44.33618164 C56.82174316 43.72419922 55.9227832 43.1122168 54.99658203 42.48168945 C52.23629463 39.87952193 51.89222741 38.43667534 51.35742188 34.72290039 C51.19306641 33.63944336 51.02871094 32.55598633 50.859375 31.43969727 C50.71048828 30.31241211 50.56160156 29.18512695 50.40820312 28.02368164 C50.23998047 26.90799805 50.07175781 25.79231445 49.8984375 24.64282227 C49.1027907 19.16422574 48.50503926 13.87155425 48.72070312 8.33618164 C53.33001949 8.96674322 57.17993229 10.81591999 61.28320312 12.89868164 C61.98920654 13.25583252 62.69520996 13.6129834 63.42260742 13.98095703 C81.83002436 23.47732614 101.23114553 38.50735177 113.72070312 55.33618164 C113.72070312 55.99618164 113.72070312 56.65618164 113.72070312 57.33618164 C114.71070313 57.66618164 115.70070313 57.99618164 116.72070312 58.33618164 C118.09594727 59.92407227 118.09594727 59.92407227 119.50585938 61.99243164 C120.03091064 62.75740967 120.55596191 63.5223877 121.09692383 64.31054688 C121.653396 65.14400635 122.20986816 65.97746582 122.78320312 66.83618164 C123.65755005 68.14147827 123.65755005 68.14147827 124.54956055 69.47314453 C126.285886 72.08608459 128.00450785 74.7099918 129.72070312 77.33618164 C130.3771582 78.31820557 130.3771582 78.31820557 131.046875 79.32006836 C146.61317109 102.79092448 157.42036849 131.04056115 163.72070312 158.33618164 C163.9361377 159.26350098 164.15157227 160.19082031 164.37353516 161.14624023 C165.73109726 167.17752144 166.77844423 173.22794018 167.72070312 179.33618164 C167.86878418 180.21064941 168.01686523 181.08511719 168.16943359 181.98608398 C170.79642896 197.83571695 171.01043601 213.62355673 171.03320312 229.64868164 C171.03678833 230.66290192 171.04037354 231.67712219 171.04406738 232.72207642 C171.07914369 251.1832202 170.01854677 269.42487134 166.53320312 287.58618164 C166.32252197 288.7031543 166.11184082 289.82012695 165.89477539 290.97094727 C162.01782072 310.72634249 156.40138435 330.03188532 147.72216797 348.21850586 C146.54416059 350.70949464 145.39315261 353.21239053 144.24023438 355.71508789 C137.32141402 370.61534606 129.78336508 384.33250812 119.72070312 397.33618164 C119.25148438 397.94276611 118.78226563 398.54935059 118.29882812 399.17431641 C117.15665672 400.60350037 115.94458362 401.97631443 114.72070312 403.33618164 C114.06070312 403.33618164 113.40070313 403.33618164 112.72070312 403.33618164 C112.46546875 404.07094727 112.21023438 404.80571289 111.94726562 405.56274414 C108.53920938 413.26885857 101.07392283 419.03262432 94.72070312 424.33618164 C93.82480469 425.11993164 92.92890625 425.90368164 92.00585938 426.71118164 C84.99469525 432.75497095 77.72651363 437.64836864 69.72070312 442.33618164 C68.87894531 442.86985352 68.0371875 443.40352539 67.16992188 443.95336914 C39.915987 461.17107595 5.12687718 465.20433813 -26.02148438 458.33618164 C-40.46414452 454.89759251 -53.83246055 449.49804153 -66.27929688 441.33618164 C-67.47577984 440.57555789 -68.67240574 439.81515896 -69.86914062 439.05493164 C-76.7550586 434.62690624 -83.11591009 430.05348053 -89.08398438 424.41040039 C-91.10741547 422.49858204 -93.19602929 420.73249174 -95.34179688 418.96118164 C-100.30553201 414.65189434 -104.23494958 409.4904438 -108.27929688 404.33618164 C-109.02695312 403.44157227 -109.77460938 402.54696289 -110.54492188 401.62524414 C-112.27929688 399.33618164 -112.27929688 399.33618164 -112.27929688 397.33618164 C-113.26929688 397.00618164 -114.25929688 396.67618164 -115.27929688 396.33618164 C-118.131388 392.75841052 -120.60740202 388.91975129 -123.11816406 385.09741211 C-124.13672787 383.55243328 -125.17882139 382.02302035 -126.22460938 380.49633789 C-137.02249437 364.02843379 -144.40974643 345.22250204 -150.49609375 326.57788086 C-151.34603645 324.14515833 -152.31834278 321.78453843 -153.31054688 319.40649414 C-155.32863974 314.42840384 -156.64175626 309.45317035 -157.77929688 304.21118164 C-157.98651367 303.27757812 -158.19373047 302.34397461 -158.40722656 301.38208008 C-162.31836869 283.32374392 -165.40283527 265.21901898 -165.48242188 246.71508789 C-165.48943619 245.62540207 -165.4964505 244.53571625 -165.50367737 243.41300964 C-165.52111769 239.90819133 -165.5275311 236.40354178 -165.52929688 232.89868164 C-165.52997162 231.70400269 -165.53064636 230.50932373 -165.53134155 229.27844238 C-165.51590593 212.11575695 -165.24583788 195.28500031 -162.27929688 178.33618164 C-162.09705566 177.2664209 -161.91481445 176.19666016 -161.72705078 175.09448242 C-159.48018522 162.22334025 -156.74398108 149.63373721 -152.27929688 137.33618164 C-151.78284668 135.95172852 -151.78284668 135.95172852 -151.27636719 134.53930664 C-140.18529464 103.90034025 -126.44431486 77.13904832 -105.27929688 52.33618164 C-104.49941406 51.41321289 -103.71953125 50.49024414 -102.91601562 49.53930664 C-83.88708119 27.69255924 -59.41284192 10.83276229 -31.27929688 3.33618164 C-30.29993164 3.06620361 -29.32056641 2.79622559 -28.31152344 2.51806641 C-18.82296412 0.17088917 -9.73132652 -0.09498926 0 0 Z " fill="#FEFEFE" transform="translate(430.279296875,35.663818359375)"/>
<path d="M0 0 C0.99 0.33 1.98 0.66 3 1 C3.20363159 2.30650513 3.20363159 2.30650513 3.41137695 3.6394043 C3.92766501 6.93704949 4.44820375 10.23396973 4.97143555 13.53051758 C5.19509053 14.94497124 5.41715188 16.35967801 5.63745117 17.7746582 C5.95831066 19.8335675 6.28530724 21.89143209 6.61328125 23.94921875 C6.80704346 25.17987061 7.00080566 26.41052246 7.20043945 27.6784668 C7.76457208 30.96123544 8.52828811 34.16279758 9.32885742 37.39550781 C11.89878221 48.38165953 13.40275723 59.57957674 15.125 70.72265625 C15.51669358 73.23455381 15.90879071 75.74638847 16.30126953 78.25816345 C17.1209816 83.5101357 17.93785347 88.76253666 18.75195312 94.01538086 C19.78697611 100.69368187 20.82672513 107.3712369 21.86831665 114.04851627 C24.09982903 128.35467159 26.33041398 142.6609667 28.53161621 156.97182083 C28.98974374 159.9336916 29.45564787 162.89425494 29.92285156 165.85470581 C30.20135883 167.64586531 30.47968993 169.43705221 30.7578125 171.22827148 C30.88509735 172.02136498 31.0123822 172.81445848 31.14352417 173.63158512 C31.83737309 178.14707505 32.1201716 182.43104652 32 187 C24.92926341 185.73629059 18.17026665 183.95369337 11.33203125 181.76953125 C10.33531906 181.45602219 9.33860687 181.14251312 8.31169128 180.81950378 C5.1437302 179.822048 1.97804542 178.81759278 -1.1875 177.8125 C-4.29364418 176.83093412 -7.40026082 175.85088161 -10.5071106 174.87155151 C-12.57020905 174.2209847 -14.63293443 173.56923359 -16.69528198 172.91629028 C-21.94200551 171.25919851 -27.19564017 169.63232195 -32.46728516 168.05615234 C-34.03135857 167.58745979 -34.03135857 167.58745979 -35.62702942 167.10929871 C-37.60220658 166.51969049 -39.5787665 165.93468696 -41.55693054 165.35517883 C-46.31915017 163.93329153 -50.57629401 162.29947648 -55 160 C-57.05206094 159.28418781 -59.12121006 158.61586322 -61.203125 157.9921875 C-62.3478125 157.64542969 -63.4925 157.29867187 -64.671875 156.94140625 C-65.85265625 156.58949219 -67.0334375 156.23757812 -68.25 155.875 C-70.60981649 155.16552931 -72.96921427 154.45466393 -75.328125 153.7421875 C-76.88901855 153.27594971 -76.88901855 153.27594971 -78.48144531 152.80029297 C-81 152 -81 152 -83 151 C-82.62697109 144.61587672 -79.33698978 139.81744811 -76.1875 134.4375 C-75.60363525 133.42244385 -75.01977051 132.4073877 -74.41821289 131.36157227 C-72.61966824 128.23663431 -70.81004127 125.11828893 -69 122 C-66.97334072 118.48249344 -64.95410641 114.96077794 -62.9375 111.4375 C-62.44580322 110.57987061 -61.95410645 109.72224121 -61.44750977 108.83862305 C-57.42372543 101.79749478 -53.53136212 94.68926071 -49.66674805 87.55981445 C-43.55960444 76.30907428 -37.27685928 65.15668343 -31 54 C-30.34 54 -29.68 54 -29 54 C-28.72615479 53.11876465 -28.45230957 52.2375293 -28.17016602 51.32958984 C-27.08858022 48.25204612 -25.83903912 45.58294264 -24.27734375 42.7265625 C-23.74302734 41.74429688 -23.20871094 40.76203125 -22.65820312 39.75 C-22.09037109 38.71875 -21.52253906 37.6875 -20.9375 36.625 C-20.35548828 35.56023437 -19.77347656 34.49546875 -19.17382812 33.3984375 C-17.45591861 30.26187944 -15.73000542 27.12990017 -14 24 C-13.53480957 23.15791992 -13.06961914 22.31583984 -12.59033203 21.44824219 C-8.56851092 14.18769124 -4.50496353 6.9754274 0 0 Z " fill="#FEFEFE" transform="translate(460,90)"/>
<path d="M0 0 C1.84985352 0.16479492 1.84985352 0.16479492 4 1 C5.29272461 3.30981445 5.29272461 3.30981445 6.40234375 6.36328125 C6.81806641 7.47896484 7.23378906 8.59464844 7.66210938 9.74414062 C8.29342773 11.51047852 8.29342773 11.51047852 8.9375 13.3125 C9.77826216 15.60088048 10.62070377 17.88864463 11.46484375 20.17578125 C11.87847168 21.30322754 12.29209961 22.43067383 12.71826172 23.59228516 C15.39254942 32.37065663 15.39254942 32.37065663 20 40 C20.33733154 39.1435791 20.67466309 38.2871582 21.0222168 37.40478516 C22.29530301 34.1790526 23.57247202 30.95499627 24.85229492 27.73193359 C25.40174966 26.34584928 25.94964545 24.9591458 26.49584961 23.57177734 C29.6612021 15.53508953 32.93608236 7.63620481 37 0 C37.99 0 38.98 0 40 0 C43.3975552 17.25433754 46.78740557 34.51097801 49.9375 51.8125 C50.14850342 52.9478418 50.35950684 54.08318359 50.5769043 55.25292969 C51.53456431 60.58527168 52.2550973 65.58111496 52 71 C48.37 71 44.74 71 41 71 C38.91523766 60.01433746 36.92221599 49.01525193 35 38 C31.42421381 44.81738675 28.57066682 51.84173798 25.75 59 C25.29109375 60.15628906 24.8321875 61.31257812 24.359375 62.50390625 C23.23641526 65.33470061 22.11671391 68.16673727 21 71 C20.01 71 19.02 71 18 71 C16.46984507 67.24642224 14.93990409 63.49275736 13.41015625 59.73901367 C12.89035746 58.46359941 12.37050151 57.18820845 11.85058594 55.9128418 C11.10075886 54.07346715 10.3511584 52.23400012 9.6015625 50.39453125 C9.15119629 49.28956299 8.70083008 48.18459473 8.23681641 47.04614258 C7.14920353 44.36747186 6.07069218 41.6854708 5 39 C4.85377197 39.86278564 4.70754395 40.72557129 4.55688477 41.61450195 C4.01271383 44.81844057 3.46642524 48.02200884 2.91870117 51.2253418 C2.68217506 52.61126487 2.4464911 53.99733195 2.21166992 55.38354492 C1.87380399 57.3771682 1.53264776 59.37023298 1.19140625 61.36328125 C0.98717041 62.56251221 0.78293457 63.76174316 0.57250977 64.99731445 C0 68 0 68 -1 71 C-4.96 71 -8.92 71 -13 71 C-11.81672176 61.10349105 -10.23970502 51.31450237 -8.5 41.5 C-8.28641846 40.28344727 -8.07283691 39.06689453 -7.8527832 37.81347656 C-6.82626483 32.09469802 -5.63143506 26.57950792 -4 21 C-3.22723591 17.3660164 -2.54923984 13.71588106 -1.875 10.0625 C-1.69324219 9.09248047 -1.51148438 8.12246094 -1.32421875 7.12304688 C-0.87985936 4.74923226 -0.43853091 2.37489701 0 0 Z " fill="#FEFEFE" transform="translate(511,529)"/>
<path d="M0 0 C3.81059215 3.43882706 6.09875688 7.07292308 6.8359375 12.22265625 C7.18791114 19.68178982 4.46113479 25.61657173 -0.11328125 31.44921875 C-1.69820065 33.27204702 -1.69820065 33.27204702 -1.3125 35.8125 C-0.39079937 38.44593037 0.76143755 40.1982093 2.5625 42.3125 C4.0475 39.3425 4.0475 39.3425 5.5625 36.3125 C9.1925 36.3125 12.8225 36.3125 16.5625 36.3125 C15.54808752 41.3845624 13.84071533 45.03601018 11.5234375 49.59375 C10.38548508 52.81332269 10.46303113 54.10283977 11.5625 57.3125 C12.68568072 59.4107201 13.87838792 61.47268137 15.125 63.5 C18.5625 69.10928068 18.5625 69.10928068 18.5625 71.3125 C16.48031638 71.42082169 14.39650871 71.49823541 12.3125 71.5625 C11.15234375 71.60890625 9.9921875 71.6553125 8.796875 71.703125 C4.98583987 71.24285506 3.90738245 70.26101556 1.5625 67.3125 C0.799375 67.951875 0.03625 68.59125 -0.75 69.25 C-5.82789034 73.14698561 -11.26823216 72.93119448 -17.4375 72.3125 C-22.90450501 69.82749772 -24.91718196 66.5398263 -27.4375 61.3125 C-29.5853279 54.42807151 -29.21016647 46.76689953 -26.44921875 40.140625 C-25.34566444 38.14655775 -24.0265074 36.55517905 -22.5625 34.8125 C-21.20603561 33.13705534 -21.20603561 33.13705534 -20.4375 31.3125 C-21.47802238 28.01925929 -21.47802238 28.01925929 -22.578125 25.81640625 C-24.661755 19.74546611 -24.50510916 12.0461162 -22.74609375 5.89453125 C-21.27247612 3.00278786 -19.40198086 1.28628349 -16.8125 -0.625 C-10.85784584 -2.49961335 -5.66570589 -2.78134653 0 0 Z M-10.4375 9.3125 C-12.91467167 13.02825751 -12.74095742 14.91236738 -12.4375 19.3125 C-11.5400173 22.14628132 -11.5400173 22.14628132 -10.4375 24.3125 C-7.34503562 23.24613297 -6.43334553 22.30605341 -4.625 19.5 C-3.35433529 16.0892684 -3.21784956 14.68999354 -4.4375 11.3125 C-5.0975 10.6525 -5.7575 9.9925 -6.4375 9.3125 C-7.7575 9.3125 -9.0775 9.3125 -10.4375 9.3125 Z M-13.4375 41.3125 C-16.03926306 44.5449935 -17.35632516 46.73412924 -17.9375 50.875 C-17.34175559 54.97074285 -16.64606173 56.67983397 -13.4375 59.3125 C-9.79924137 59.56661568 -9.79924137 59.56661568 -6.4375 58.3125 C-4.80490801 56.72122266 -4.80490801 56.72122266 -4.4375 54.3125 C-5.6007825 51.83641283 -6.74214848 49.8082363 -8.25 47.5625 C-8.63220703 46.96050781 -9.01441406 46.35851562 -9.40820312 45.73828125 C-10.37734707 44.23602297 -11.40298553 42.77051225 -12.4375 41.3125 C-12.7675 41.3125 -13.0975 41.3125 -13.4375 41.3125 Z " fill="#FEFEFE" transform="translate(330.4375,528.6875)"/>
<path d="M0 0 C8.82104653 5.22061938 12.72345407 11.5503193 15.8828125 21.359375 C18.93517451 34.51462537 17.81267488 49.04465358 10.875 60.75 C7.37068526 65.83571102 3.1634894 70.45110598 -2.84375 72.4453125 C-11.56487304 73.97476318 -18.02689622 72.8067706 -25.5 68.25 C-34.60007526 59.14992474 -37.20342767 48.24220054 -37.3125 35.8125 C-37.21181168 24.33822723 -35.08789829 15.08567278 -27.9375 5.8125 C-20.33465593 -1.28636766 -10.07068346 -4.00564263 0 0 Z M-19.9375 15.8125 C-25.23667925 24.3055089 -27.57109901 33.31716334 -25.40625 43.25 C-23.64215915 48.92577056 -21.34045931 53.81003391 -16.6875 57.6875 C-12.99403356 59.19846355 -9.81262254 59.69655837 -5.9375 58.8125 C-1.01024789 56.17931264 2.38288979 51.92327353 4.3984375 46.76171875 C6.53902391 37.25499676 6.76740979 26.1597624 1.54296875 17.671875 C-1.14382132 14.29743681 -3.57911834 12.25676428 -7.88671875 11.4453125 C-12.97870239 11.11554594 -16.13957533 12.2677703 -19.9375 15.8125 Z " fill="#FEFEFE" transform="translate(472.9375,528.1875)"/>
<path d="M0 0 C4.26154171 2.13077085 6.17691316 4.43563174 8.9375 8.125 C9.90609804 9.39043721 10.87621492 10.65471294 11.84765625 11.91796875 C12.35699707 12.58231934 12.86633789 13.24666992 13.39111328 13.93115234 C16.67629514 18.15552732 20.09320326 22.27486735 23.49584961 26.40478516 C24.01026611 27.03304199 24.52468262 27.66129883 25.0546875 28.30859375 C25.72733643 29.12541626 25.72733643 29.12541626 26.41357422 29.95874023 C28.70164587 32.90281027 30.83276703 35.96587384 33 39 C33.33 26.46 33.66 13.92 34 1 C37.63 1 41.26 1 45 1 C45 25.09 45 49.18 45 74 C40.17229595 72.79307399 39.1361054 70.84805012 36.5625 66.9375 C32.68611005 61.27740888 28.5969202 55.87012766 24.25 50.5625 C23.71963135 49.91337646 23.1892627 49.26425293 22.64282227 48.59545898 C19.15041608 44.34561098 15.58181127 40.17877982 12 36 C11.67 48.21 11.34 60.42 11 73 C7.37 73 3.74 73 0 73 C0 48.91 0 24.82 0 0 Z " fill="#FEFEFE" transform="translate(677,527)"/>
<path d="M0 0 C22.80144695 0 22.80144695 0 28.5 4.25 C32.979205 9.1771255 33.37637533 13.96836643 33.26953125 20.3984375 C32.91132848 23.85587296 31.92037959 26.86514281 30.65625 30.08984375 C29.8375412 32.13624736 29.8375412 32.13624736 30 35 C31.32255312 36.67523395 32.65705519 38.34106818 34 40 C37.03836789 45.3171438 36.683435 51.62020038 35.5 57.47265625 C34.03294881 62.46563161 32.28653186 65.83169384 28 69 C19 72 19 72 0 72 C0 48.24 0 24.48 0 0 Z M12 12 C12 17.94 12 23.88 12 30 C17.47079904 29.45512913 17.47079904 29.45512913 19.8125 27.9375 C21.72889113 24.81075658 22.22461514 21.60086145 22 18 C20.610911 14.95086064 20.610911 14.95086064 18 13 C15.03 12.505 15.03 12.505 12 12 Z M12 42 C12 47.61 12 53.22 12 59 C19.36649023 58.67066672 19.36649023 58.67066672 22.5 56.375 C24.59649067 53.05555644 24.48183405 50.85467236 24 47 C23.23608998 44.48130668 23.23608998 44.48130668 21 43 C17.96596129 42.36521885 15.11324732 42.18047811 12 42 Z " fill="#FEFEFE" transform="translate(86,528)"/>
<path d="M0 0 C4.496096 1.124024 4.496096 1.124024 6.7421875 4.21875 C7.24459961 4.89607178 7.74701172 5.57339355 8.26464844 6.27124023 C8.79606445 7.00673096 9.32748047 7.74222168 9.875 8.5 C11.02049263 10.04515627 12.16903439 11.58805585 13.3203125 13.12890625 C14.2160498 14.32797607 14.2160498 14.32797607 15.12988281 15.55126953 C18.80631408 20.36518671 22.70709032 24.99574942 26.59326172 29.640625 C27.1554541 30.31480469 27.71764648 30.98898437 28.296875 31.68359375 C28.79541992 32.27712646 29.29396484 32.87065918 29.80761719 33.48217773 C31 35 31 35 32 37 C32.85001765 28.77620965 33.27955342 20.57361246 33.5625 12.3125 C33.62727539 10.52682617 33.62727539 10.52682617 33.69335938 8.70507812 C33.79823679 5.80346966 33.90040196 2.90179365 34 0 C37.3 0 40.6 0 44 0 C44 23.76 44 47.52 44 72 C43.01 72 42.02 72 41 72 C39.34740352 69.95017391 37.89009184 67.93541563 36.4375 65.75 C32.23257883 59.61342841 27.71347532 53.94104545 22.8359375 48.328125 C21 46 21 46 21 44 C19.515 43.505 19.515 43.505 18 43 C16.02 40.36 14.04 37.72 12 35 C11.67 47.21 11.34 59.42 11 72 C7.37 72 3.74 72 0 72 C0 48.24 0 24.48 0 0 Z " fill="#FEFEFE" transform="translate(221,528)"/>
<path d="M0 0 C4.64852603 3.28798183 8.10170389 7.32628282 11.5625 11.8125 C10.1307479 16.82363235 7.57804307 18.75719549 3.5625 21.8125 C2.840625 21.07 2.11875 20.3275 1.375 19.5625 C-3.4550483 14.58697394 -3.4550483 14.58697394 -9.75 12.125 C-15.08806567 13.12023258 -17.95657267 15.74357819 -21.4375 19.8125 C-26.16301449 27.93447803 -25.66398281 39.8424973 -23.4375 48.8125 C-23.1075 49.8025 -22.7775 50.7925 -22.4375 51.8125 C-21.7775 51.8125 -21.1175 51.8125 -20.4375 51.8125 C-19.4165625 53.0190625 -19.4165625 53.0190625 -18.375 54.25 C-14.50576534 57.62528981 -11.47046399 57.96778201 -6.4375 57.8125 C-3.51238547 57.3791741 -3.51238547 57.3791741 -1.4375 55.8125 C-0.12681667 53.36961372 -0.12681667 53.36961372 0.5625 50.8125 C1.0575 49.8225 1.0575 49.8225 1.5625 48.8125 C6.19102129 49.65954965 8.85844052 52.03233521 11.5625 55.8125 C11.87505904 59.87576748 9.46413652 63.00912706 7.08984375 66.16796875 C3.20854748 70.34706269 -1.84787099 72.38649344 -7.4453125 73.05078125 C-14.57257295 73.30062986 -20.94779531 71.7627656 -26.484375 67.08203125 C-35.2871316 57.65856745 -37.95951802 45.63870608 -37.68359375 33.02734375 C-36.80469623 21.54587296 -34.21591362 11.83775325 -25.5 3.9375 C-17.57930374 -1.55849332 -9.3494661 -3.22981556 0 0 Z " fill="#FEFEFE" transform="translate(414.4375,528.1875)"/>
<path d="M0 0 C15.77435824 0.02120922 15.77435824 0.02120922 22.49145508 3.75292969 C28.73972386 10.71528633 29.45528068 18.37538231 29.06176758 27.43261719 C28.39186736 34.00857651 26.42424405 37.3658094 21.92895508 42.06542969 C16.98331586 45.29911687 12.63469994 46.19042969 6.67895508 46.19042969 C6.67895508 54.77042969 6.67895508 63.35042969 6.67895508 72.19042969 C2.71895508 72.19042969 -1.24104492 72.19042969 -5.32104492 72.19042969 C-6.14975982 68.04685519 -6.44757299 64.75357779 -6.45043945 60.58007812 C-6.45359161 59.26231384 -6.45674377 57.94454956 -6.45999146 56.58685303 C-6.4582022 55.15783657 -6.45615138 53.72882042 -6.45385742 52.29980469 C-6.45453129 50.82961003 -6.45550202 49.35941547 -6.45675659 47.88922119 C-6.45822778 44.81611057 -6.45609637 41.7430291 -6.45141602 38.66992188 C-6.44569893 34.72308936 -6.44901384 30.77632455 -6.45498848 26.82949448 C-6.45859259 23.79786666 -6.45745655 20.76625506 -6.45486069 17.73462677 C-6.45419204 16.27850588 -6.45501768 14.82238353 -6.45734024 13.36626434 C-6.45986643 11.33857754 -6.45533663 9.31088559 -6.45043945 7.28320312 C-6.44964386 6.12802185 -6.44884827 4.97284058 -6.44802856 3.78265381 C-6.22166997 -0.83819496 -4.12538998 0.0454262 0 0 Z M6.67895508 12.19042969 C6.67895508 19.12042969 6.67895508 26.05042969 6.67895508 33.19042969 C13.30611548 32.87641995 13.30611548 32.87641995 16.11645508 30.12792969 C18.1467088 26.3110527 18.38196473 23.42563415 17.67895508 19.19042969 C16.28708171 15.82063101 15.40842286 14.57340027 12.17895508 12.87792969 C9.62898714 12.05785145 9.62898714 12.05785145 6.67895508 12.19042969 Z " fill="#FEFEFE" transform="translate(583.321044921875,527.8095703125)"/>
<path d="M0 0 C0.99 0.33 1.98 0.66 3 1 C4.00526109 3.27180233 4.80719524 5.42515817 5.55859375 7.78125 C5.78901871 8.46876343 6.01944366 9.15627686 6.2568512 9.86462402 C6.99503334 12.07284919 7.71703918 14.28593611 8.4375 16.5 C9.38837382 19.38748365 10.34611154 22.27261601 11.30859375 25.15625 C11.65834763 26.20726395 11.65834763 26.20726395 12.01516724 27.2795105 C13.45552717 31.55245733 15.09771765 35.6268982 17.00610352 39.70605469 C19.28062126 44.95571538 20.95801032 50.44649706 22.75 55.875 C23.16121094 57.09703125 23.57242188 58.3190625 23.99609375 59.578125 C24.38410156 60.74601563 24.77210938 61.91390625 25.171875 63.1171875 C25.5234668 64.17534668 25.87505859 65.23350586 26.23730469 66.32373047 C27 69 27 69 27 72 C23.04 72 19.08 72 15 72 C12.48616256 66.64795901 10.98891862 62.93351174 10 57 C4.06 57.33 -1.88 57.66 -8 58 C-8.639375 60.124375 -9.27875 62.24875 -9.9375 64.4375 C-11.875 70.875 -11.875 70.875 -13 72 C-14.68608966 72.07205511 -16.37500659 72.08386068 -18.0625 72.0625 C-19.44115234 72.04896484 -19.44115234 72.04896484 -20.84765625 72.03515625 C-21.55792969 72.02355469 -22.26820313 72.01195312 -23 72 C-24.10334671 68.68995986 -23.95316612 68.12919918 -22.86352539 64.98535156 C-22.58870834 64.17818695 -22.3138913 63.37102234 -22.03074646 62.53939819 C-21.72282669 61.66530304 -21.41490692 60.79120789 -21.09765625 59.890625 C-20.78453995 58.9792276 -20.47142365 58.0678302 -20.14881897 57.1288147 C-19.12864459 54.16615999 -18.09577175 51.20810942 -17.0625 48.25 C-16.36560331 46.23480401 -15.66947636 44.21934167 -14.97412109 42.20361328 C-13.28926388 37.32557452 -11.59457589 32.45102345 -9.89666748 27.57751465 C-8.67545379 24.06707599 -7.46417496 20.55328954 -6.25390625 17.0390625 C-1.20589626 2.41179252 -1.20589626 2.41179252 0 0 Z M0 30 C-1.32 34.62 -2.64 39.24 -4 44 C-1.03 44 1.94 44 5 44 C4.48594831 39.03083364 3.76615118 34.70973649 2 30 C1.34 30 0.68 30 0 30 Z " fill="#FEFEFE" transform="translate(152,528)"/>
<path d="M0 0 C0.66 0 1.32 0 2 0 C6.43031094 11.82365942 10.67189817 23.69928293 14.71459961 35.66162109 C16.87236319 41.98145126 19.24193322 48.15132033 21.88305664 54.28564453 C24.34439045 60.26708919 26 65.51080276 26 72 C22.04 72 18.08 72 14 72 C13.32779649 70.06441401 12.66241923 68.12645628 12 66.1875 C11.62875 65.10855469 11.2575 64.02960938 10.875 62.91796875 C10 60 10 60 10 57 C4.06 57.33 -1.88 57.66 -8 58 C-9.65 62.62 -11.3 67.24 -13 72 C-14.60875 72.061875 -16.2175 72.12375 -17.875 72.1875 C-18.77992188 72.22230469 -19.68484375 72.25710938 -20.6171875 72.29296875 C-21.79667969 72.14794922 -21.79667969 72.14794922 -23 72 C-23.66 71.01 -24.32 70.02 -25 69 C-24.42358398 66.50854492 -24.42358398 66.50854492 -23.24609375 63.48046875 C-22.80958496 62.33022217 -22.37307617 61.17997559 -21.92333984 59.99487305 C-21.68170105 59.37591156 -21.44006226 58.75695007 -21.19110107 58.11923218 C-19.89164105 54.78828053 -18.63673726 51.44059655 -17.37890625 48.09375 C-17.10896851 47.37833542 -16.83903076 46.66292084 -16.56091309 45.92582703 C-12.8032426 35.90370702 -9.42269314 25.74850825 -6.00534058 15.60653687 C-5.44985616 13.95844377 -4.89335888 12.3106916 -4.33570862 10.66333008 C-3.82583408 9.15668742 -3.31858254 7.64915382 -2.8143158 6.140625 C-1.1123778 1.1123778 -1.1123778 1.1123778 0 0 Z M0 30 C-0.67031719 31.9570868 -1.33614683 33.91571113 -2 35.875 C-2.37125 36.96554687 -2.7425 38.05609375 -3.125 39.1796875 C-4.098772 41.82620854 -4.098772 41.82620854 -4 44 C-1.03 44 1.94 44 5 44 C4.71572583 42.41532272 4.42225182 40.8322943 4.125 39.25 C3.88136719 37.92742188 3.88136719 37.92742188 3.6328125 36.578125 C3.03203736 34.13052256 2.22002883 32.19400143 1 30 C0.67 30 0.34 30 0 30 Z " fill="#FEFEFE" transform="translate(640,528)"/>
<path d="M0 0 C1.65322266 0.01740234 1.65322266 0.01740234 3.33984375 0.03515625 C4.99693359 0.04869141 4.99693359 0.04869141 6.6875 0.0625 C7.54214844 0.07410156 8.39679687 0.08570313 9.27734375 0.09765625 C13.31557404 7.96993664 17.19505556 15.7888794 20.27734375 24.09765625 C20.8084375 23.03546875 21.33953125 21.97328125 21.88671875 20.87890625 C27.08203125 10.48828125 27.08203125 10.48828125 32.27734375 0.09765625 C36.56734375 0.09765625 40.85734375 0.09765625 45.27734375 0.09765625 C43.53363311 5.78765938 41.46616593 10.9365733 38.73828125 16.21875 C36.9679241 19.70739497 35.30424869 23.23924179 33.65234375 26.78515625 C33.36327148 27.40277832 33.07419922 28.02040039 32.77636719 28.65673828 C31.93425478 30.46616811 31.1057222 32.2818978 30.27734375 34.09765625 C29.75889893 35.17321777 29.2404541 36.2487793 28.70629883 37.35693359 C27.11068456 41.10719113 26.85044015 44.47440985 26.765625 48.5625 C26.7476738 49.24067276 26.7297226 49.91884552 26.71122742 50.61756897 C26.65759432 52.75670382 26.62338331 54.89562183 26.58984375 57.03515625 C26.55662883 58.49677468 26.52213538 59.95836465 26.48632812 61.41992188 C26.40189772 64.97895835 26.33486405 68.53807137 26.27734375 72.09765625 C22.64734375 72.09765625 19.01734375 72.09765625 15.27734375 72.09765625 C15.29941895 71.27378418 15.32149414 70.44991211 15.34423828 69.60107422 C15.68390206 51.50831696 14.57775385 37.5912365 5.56982422 21.45458984 C3.59761473 17.85812019 1.91452001 14.14084037 0.21484375 10.41015625 C-0.33300781 9.25128906 -0.88085938 8.09242188 -1.4453125 6.8984375 C-2.72265625 4.09765625 -2.72265625 4.09765625 -3.72265625 1.09765625 C-2.72265625 0.09765625 -2.72265625 0.09765625 0 0 Z " fill="#FEFEFE" transform="translate(734.72265625,527.90234375)"/>
<path d="M0 0 C3.63 0 7.26 0 11 0 C11 23.76 11 47.52 11 72 C7.37 72 3.74 72 0 72 C0 48.24 0 24.48 0 0 Z " fill="#FEFEFE" transform="translate(189,528)"/>
</svg>
