<?xml version="1.0" encoding="UTF-8"?>
<svg version="1.1" xmlns="http://www.w3.org/2000/svg" width="866" height="650">
<path d="M0 0 C0 0.66 0 1.32 0 2 C1.918125 2.1546875 1.918125 2.1546875 3.875 2.3125 C11.75164035 3.20139985 18.85463701 5.76816979 26.015625 9.08203125 C28.31050549 10.14363935 30.64230313 11.08734315 33 12 C33 12.66 33 13.32 33 14 C33.86625 14.2475 34.7325 14.495 35.625 14.75 C39.40978268 16.15177136 42.02568348 17.23813466 45 20 C46.17027898 23.21826719 45.88254667 25.72331075 45 29 C42.69990733 33.61054612 40.14414511 37.91513677 37 42 C36.34 42 35.68 42 35 42 C34.690625 43.2065625 34.690625 43.2065625 34.375 44.4375 C32.86312708 48.3546253 30.84176526 51.37397123 28.46484375 54.80859375 C26.69872707 57.4507043 25.32987924 60.11859499 24 63 C23.34 63 22.68 63 22 63 C21.87625 63.5775 21.7525 64.155 21.625 64.75 C20.98583433 67.05099641 20.20694364 68.94109615 19 71 C15.85658007 72.57170996 12.44228549 72.23175783 9 72 C8.01 71.67 7.02 71.34 6 71 C6 70.34 6 69.68 6 69 C5.27554687 68.88269531 4.55109375 68.76539063 3.8046875 68.64453125 C0.94187992 67.98664371 -1.25715127 67.00457966 -3.875 65.6875 C-10.67209677 62.48886623 -17.72848752 60.7565462 -25 59 C-25 58.34 -25 57.68 -25 57 C-29.31248547 56.97070016 -33.62494493 56.95310097 -37.9375 56.9375 C-39.14986328 56.92912109 -40.36222656 56.92074219 -41.61132812 56.91210938 C-50.4308134 56.88820833 -58.62362987 56.98450675 -67 60 C-68.8914471 60.55678962 -70.78777085 61.09715914 -72.6875 61.625 C-73.61949219 61.88539063 -74.55148437 62.14578125 -75.51171875 62.4140625 C-78 63 -78 63 -81 63 C-81 63.66 -81 64.32 -81 65 C-81.76183594 65.36351562 -82.52367187 65.72703125 -83.30859375 66.1015625 C-91.25413418 69.97017769 -98.68753669 74.05625129 -105.375 79.875 C-108 82 -108 82 -111 82 C-111.2475 82.61875 -111.495 83.2375 -111.75 83.875 C-113.23740369 86.40358627 -114.43678009 86.71839004 -117 88 C-118.16666667 89.91666667 -118.16666667 89.91666667 -119 92 C-119.66 92.99 -120.32 93.98 -121 95 C-121.66 95 -122.32 95 -123 95 C-123.2578125 95.70253906 -123.515625 96.40507812 -123.78125 97.12890625 C-125.5611608 101.32196536 -127.97804204 105.08047157 -130.34375 108.96484375 C-131.96194874 111.93026928 -133.03706514 114.76935355 -134 118 C-134.66 118 -135.32 118 -136 118 C-136.12375 118.9075 -136.2475 119.815 -136.375 120.75 C-136.69240916 123.02627712 -137.05251537 125.27979501 -137.4765625 127.5390625 C-141.16815807 147.5397967 -139.87046469 167.1123995 -136 187 C-135.34 187 -134.68 187 -134 187 C-133.70867187 187.7734375 -133.41734375 188.546875 -133.1171875 189.34375 C-130.74700014 195.36611285 -128.35213703 200.44145159 -124.13671875 205.37890625 C-123 207 -123 207 -123 210 C-122.38125 210.2475 -121.7625 210.495 -121.125 210.75 C-118.59641373 212.23740369 -118.28160996 213.43678009 -117 216 C-115.67592331 216.68486725 -114.34090759 217.34870203 -113 218 C-111.31002677 219.64302953 -109.64783606 221.31471312 -108 223 C-103.61656645 227.12932146 -99.56855654 230.63336347 -94 233 C-94 233.66 -94 234.32 -94 235 C-93.113125 235.28875 -92.22625 235.5775 -91.3125 235.875 C-88.49617576 236.83148748 -85.74916844 237.86798946 -83 239 C-83 239.66 -83 240.32 -83 241 C-81.845 241.2475 -80.69 241.495 -79.5 241.75 C-75.70711904 242.58156223 -71.95621765 243.53287837 -68.20141602 244.52148438 C-61.13126836 246.36362984 -54.3340734 247.74184062 -47 248 C-46.24589844 248.02835938 -45.49179687 248.05671875 -44.71484375 248.0859375 C-42.47000244 248.12552906 -40.24370366 248.07723593 -38 248 C-37.24074219 247.99484375 -36.48148437 247.9896875 -35.69921875 247.984375 C-28.05286058 247.65140761 -21.06039714 245.38915795 -13.81713867 243.08349609 C-12.98029541 242.81746582 -12.14345215 242.55143555 -11.28125 242.27734375 C-10.52908203 242.03234131 -9.77691406 241.78733887 -9.00195312 241.53491211 C-7 241 -7 241 -4 241 C-4 240.34 -4 239.68 -4 239 C-3.39671875 238.75765625 -2.7934375 238.5153125 -2.171875 238.265625 C2.38187654 236.35598726 5.6510981 234.72100211 9 231 C9.9590625 230.5359375 9.9590625 230.5359375 10.9375 230.0625 C13.8545768 228.55976347 15.70636207 226.34576606 18 224 C19.30759708 222.89003146 20.62047979 221.78627115 21.9375 220.6875 C26.85132659 216.43194075 30.48407061 211.5987361 33.75 206 C34.1625 205.34 34.575 204.68 35 204 C35.66 204 36.32 204 37 204 C37.1343042 203.41226807 37.2686084 202.82453613 37.40698242 202.21899414 C38.50154965 198.12326687 40.46248405 194.31346113 42.20898438 190.45898438 C46.55491949 180.7252161 49.62314262 171.16432596 51.625 160.6875 C52.80412447 154.63889001 54.04799123 148.84828024 56 143 C56.79226197 139.39036119 57.46006758 135.75996392 58.125 132.125 C58.30675781 131.15046875 58.48851562 130.1759375 58.67578125 129.171875 C59.12096813 126.78192438 59.56225969 124.39132373 60 122 C60.66 122 61.32 122 62 122 C62.103125 120.72125 62.20625 119.4425 62.3125 118.125 C62.88133308 112.86329406 64.3374613 108.00852854 66 103 C66.66 103 67.32 103 68 103 C68.23847656 101.71738281 68.47695313 100.43476563 68.72265625 99.11328125 C69.91463527 93.75933504 72.0295388 89.0928943 74.4375 84.1875 C74.83259766 83.35541016 75.22769531 82.52332031 75.63476562 81.66601562 C77.49947259 77.79698137 79.40389666 74.42737434 82 71 C83.03041427 69.01549844 84.03685937 67.01800895 85 65 C85.66 65 86.32 65 87 65 C87.26425781 64.26394531 87.52851562 63.52789062 87.80078125 62.76953125 C92.80807168 51.20546313 104.44981687 40.88928171 114 33 C114.64582031 32.32904297 114.64582031 32.32904297 115.3046875 31.64453125 C117.70336907 29.31769959 120.34031871 27.32653402 123 25.3125 C123.53367187 24.89677734 124.06734375 24.48105469 124.6171875 24.05273438 C128.6473984 21 128.6473984 21 132 21 C132 20.34 132 19.68 132 19 C135.36894537 17.34155967 138.7461001 15.70055134 142.125 14.0625 C143.07632813 13.59392578 144.02765625 13.12535156 145.0078125 12.64257812 C149.6564299 10.39897459 153.77420755 8.41348863 159 8 C159 7.34 159 6.68 159 6 C159.54414551 5.85900879 160.08829102 5.71801758 160.64892578 5.57275391 C163.14150734 4.9256261 165.63325425 4.27533833 168.125 3.625 C168.9809375 3.40328125 169.836875 3.1815625 170.71875 2.953125 C174.1830885 2.04706724 177.58515307 1.14905993 180.95703125 -0.0625 C209.24972137 -8.77911827 246.53055785 -6.82638968 274 4 C274.91910156 4.35320312 275.83820312 4.70640625 276.78515625 5.0703125 C279.20248186 6.01930895 281.60136652 7.00486446 284 8 C285.8741073 8.7522279 287.74909666 9.50226231 289.625 10.25 C291.08333333 10.83333333 292.54166667 11.41666667 294 12 C294 12.66 294 13.32 294 14 C294.66 14.0825 295.32 14.165 296 14.25 C299.99039163 15.24759791 303.38549643 17.07166683 307 19 C307 19.66 307 20.32 307 21 C307.66 21 308.32 21 309 21 C309 23.64 309 26.28 309 29 C308.34 29 307.68 29 307 29 C306.79375 29.804375 306.5875 30.60875 306.375 31.4375 C304.86312708 35.3546253 302.84176526 38.37397123 300.46484375 41.80859375 C298.69872707 44.4507043 297.32987924 47.11859499 296 50 C295.34 50 294.68 50 294 50 C293.71125 50.9075 293.4225 51.815 293.125 52.75 C292.23468224 55.32202908 291.28505587 57.61346766 290 60 C289.34 60 288.68 60 288 60 C287.773125 60.845625 287.54625 61.69125 287.3125 62.5625 C286.28455659 65.25473273 285.32682291 67.40153853 283.8125 69.8125 C283.44769531 70.39644531 283.08289063 70.98039062 282.70703125 71.58203125 C279.8838493 73.92714578 277.62575911 73.94467306 274 74 C271.06107863 73.03339456 268.44642029 71.62915983 265.75 70.125 C264.3496651 69.37628079 262.94864963 68.62883271 261.546875 67.8828125 C260.93682617 67.54652832 260.32677734 67.21024414 259.69824219 66.86376953 C257.83148003 65.86147916 257.83148003 65.86147916 255 65 C255 64.34 255 63.68 255 63 C247.97337865 61.47810505 240.93758849 60.39337805 233.80859375 59.46484375 C231 59 231 59 230 58 C228.44051458 57.84313751 226.87457332 57.74923361 225.30859375 57.68359375 C224.36435547 57.64169922 223.42011719 57.59980469 222.44726562 57.55664062 C221.45404297 57.51732422 220.46082031 57.47800781 219.4375 57.4375 C217.94186523 57.37272461 217.94186523 57.37272461 216.41601562 57.30664062 C213.9441585 57.20019702 211.4721969 57.09818072 209 57 C209 57.66 209 58.32 209 59 C207.94941406 59.10957031 206.89882813 59.21914062 205.81640625 59.33203125 C194.76353328 60.55061379 185.96114227 62.7623987 176.06640625 68.01171875 C174 69 174 69 172 69 C172 69.66 172 70.32 172 71 C170.54462432 71.83848804 169.08559627 72.67063934 167.625 73.5 C166.81289063 73.9640625 166.00078125 74.428125 165.1640625 74.90625 C163 76 163 76 161 76 C160.7525 76.61875 160.505 77.2375 160.25 77.875 C158.74724284 80.42968717 157.60281506 80.69859247 155 82 C153.62517293 83.63260714 152.29352333 85.30225062 151 87 C150.06027344 87.93392578 150.06027344 87.93392578 149.1015625 88.88671875 C147.02529579 90.97456316 145.19499057 93.12442828 143.375 95.4375 C142.78460937 96.17871094 142.19421875 96.91992188 141.5859375 97.68359375 C139.96595654 100.04972357 138.95966007 102.30630069 138 105 C137.34 105 136.68 105 136 105 C135.69255859 105.92232422 135.69255859 105.92232422 135.37890625 106.86328125 C134.25260417 110.2421875 133.12630208 113.62109375 132 117 C131.34 117 130.68 117 130 117 C129.70706435 118.58309905 129.41575581 120.16649915 129.125 121.75 C128.96257813 122.63171875 128.80015625 123.5134375 128.6328125 124.421875 C128.42398438 125.60265625 128.21515625 126.7834375 128 128 C127.83387207 128.84868652 127.66774414 129.69737305 127.49658203 130.57177734 C126.03735036 138.4552994 125.61647408 146.11542676 125.625 154.125 C125.62371094 155.38948975 125.62242187 156.65397949 125.62109375 157.95678711 C125.72144267 166.89753405 126.73140802 175.09110025 129.125 183.69140625 C130 187 130 187 130 191 C130.66 191 131.32 191 132 191 C132.30292969 191.64066406 132.60585938 192.28132812 132.91796875 192.94140625 C134.97012855 197.17832695 137.00655981 201.20797225 139.8125 205 C142 208 142 208 142 210 C142.66 210 143.32 210 144 210 C145.23203992 211.69821718 146.45908708 213.40052275 147.6484375 215.12890625 C150.35814248 218.88020303 153.73165877 221.80433441 157.3125 224.6875 C158.199375 225.450625 159.08625 226.21375 160 227 C160 227.66 160 228.32 160 229 C160.763125 229.28875 161.52625 229.5775 162.3125 229.875 C165 231 165 231 168 233 C168 233.66 168 234.32 168 235 C168.7734375 235.1546875 168.7734375 235.1546875 169.5625 235.3125 C172.86026435 236.24263866 175.86633332 237.61395512 179 239 C179 239.66 179 240.32 179 241 C179.70382812 241.12503906 180.40765625 241.25007812 181.1328125 241.37890625 C184.14514368 242.03144121 186.96126818 242.93472217 189.875 243.9375 C191.91255914 244.63707971 193.95446208 245.3241053 196 246 C197.02609375 246.36738281 198.0521875 246.73476563 199.109375 247.11328125 C204.55483857 248.35436582 209.80876058 248.28938377 215.375 248.25 C217.00308594 248.26160156 217.00308594 248.26160156 218.6640625 248.2734375 C228.99466238 248.24848436 237.76199407 245.87983374 247.48828125 242.6796875 C250.44538483 241.7261493 252.87101653 241 256 241 C256 240.34 256 239.68 256 239 C257.4562545 238.32880451 258.91507867 237.66318193 260.375 237 C261.18710937 236.62875 261.99921875 236.2575 262.8359375 235.875 C265 235 265 235 267 235 C267.33 234.01 267.66 233.02 268 232 C269.41169592 231.09248119 270.82532173 230.18778046 272.25 229.30078125 C275.0623751 227.2103328 277.15966556 224.55309488 279.40625 221.8828125 C281.16540313 219.80459728 283.07553353 217.92446647 285 216 C289.28677025 211.39172198 291.6783227 206.83661891 294 201 C294.66 201 295.32 201 296 201 C296.4803318 199.41701974 296.95921612 197.83360022 297.4375 196.25 C297.70433594 195.36828125 297.97117187 194.4865625 298.24609375 193.578125 C298.88483103 191.39384206 299.45595065 189.20904565 300 187 C298.94399597 186.98969254 297.88799194 186.97938507 296.79998779 186.96876526 C286.8530625 186.87105188 276.90620005 186.76831968 266.95937729 186.66066074 C261.84549861 186.6054726 256.73161417 186.55205911 251.61767578 186.50268555 C246.68339312 186.45498147 241.7491796 186.40263639 236.81497955 186.34705925 C234.93152842 186.3266631 233.04805834 186.30794551 231.16457367 186.29092598 C228.5285914 186.26682135 225.89273933 186.23677501 223.25683594 186.20532227 C222.08618843 186.19668907 222.08618843 186.19668907 220.89189148 186.18788147 C217.43086572 186.14087263 214.33123464 185.92332693 211 185 C211.30581876 178.11907785 214.27114088 172.7169246 218 167 C218.66 166.67 219.32 166.34 220 166 C221.38742327 163.68762789 222.69997593 161.36151162 224 159 C225.19893042 156.84889889 226.40781659 154.7033257 227.625 152.5625 C228.21539063 151.51191406 228.80578125 150.46132813 229.4140625 149.37890625 C229.93742188 148.59386719 230.46078125 147.80882812 231 147 C231.66 147 232.32 147 233 147 C233.20625 146.195625 233.4125 145.39125 233.625 144.5625 C236.19693727 137.89884435 240.54517822 130.66880152 246.80714035 126.91737556 C249.35797451 125.85024255 251.20015161 125.75361734 253.96075439 125.75949097 C254.95912323 125.75674164 255.95749207 125.75399231 256.9861145 125.75115967 C258.61962357 125.7619455 258.61962357 125.7619455 260.28613281 125.77294922 C261.43763824 125.77265717 262.58914368 125.77236511 263.77554321 125.77206421 C267.58481357 125.77345847 271.39388877 125.78902447 275.203125 125.8046875 C277.84299615 125.80841728 280.48286868 125.81126442 283.1227417 125.81326294 C289.3629356 125.81947708 295.60305936 125.83588698 301.84322238 125.85596192 C308.94836958 125.87832299 316.05352015 125.88931487 323.15869379 125.89935279 C337.7724987 125.92025328 352.38624837 125.95542797 367 126 C368.2210087 130.15468359 369.25615328 133.93338399 369.44921875 138.265625 C369.49336914 139.22847412 369.53751953 140.19132324 369.58300781 141.18334961 C369.61749023 142.19534424 369.65197266 143.20733887 369.6875 144.25 C369.72584961 145.30904541 369.76419922 146.36809082 369.80371094 147.45922852 C370.4467104 168.63205484 368.22015533 188.05521447 361 208 C360.32786763 209.99816979 359.65936967 211.99758244 359 214 C358.34 214 357.68 214 357 214 C356.896875 214.845625 356.79375 215.69125 356.6875 216.5625 C355.9171146 220.41442701 354.63725486 223.44075031 353 227 C352.34 227 351.68 227 351 227 C350.8453125 228.051875 350.8453125 228.051875 350.6875 229.125 C349.89945728 232.42045139 348.67130238 235.05850781 347 238 C346.34 238.33 345.68 238.66 345 239 C344.07133836 240.48867276 343.20294664 242.01554706 342.375 243.5625 C341.92898438 244.38878906 341.48296875 245.21507812 341.0234375 246.06640625 C340.68570313 246.70449219 340.34796875 247.34257812 340 248 C339.34 248 338.68 248 338 248 C337.62294922 248.83724609 337.62294922 248.83724609 337.23828125 249.69140625 C332.70805061 258.13735674 325.41815829 265.10351521 318 271 C317.41605469 271.60199219 316.83210937 272.20398438 316.23046875 272.82421875 C313.60507923 275.38523795 310.80605952 277.54630414 307.875 279.75 C307.33746094 280.16121094 306.79992187 280.57242187 306.24609375 280.99609375 C302.244212 284 302.244212 284 300 284 C300 284.66 300 285.32 300 286 C298.71086513 286.67154933 297.41859796 287.33708859 296.125 288 C295.40570312 288.37125 294.68640625 288.7425 293.9453125 289.125 C292 290 292 290 290 290 C290 290.66 290 291.32 290 292 C289.23816406 292.31453125 288.47632813 292.6290625 287.69140625 292.953125 C280.6441627 295.87324031 280.6441627 295.87324031 273.6875 299 C242.2723629 313.00022414 201.94747554 312.30608627 169 304 C169 303.34 169 302.68 169 302 C167.14375 301.9071875 167.14375 301.9071875 165.25 301.8125 C154.52694232 300.63043065 144.12467225 294.52282794 135 289 C133.00757511 287.9849911 131.00925805 286.98126556 129 286 C129 285.34 129 284.68 129 284 C127.95779297 283.64421875 127.95779297 283.64421875 126.89453125 283.28125 C123.47801815 281.7689473 120.64243329 279.74761633 117.6875 277.5 C117.13771484 277.09652344 116.58792969 276.69304687 116.02148438 276.27734375 C114.63992549 275.23731309 113.31443702 274.12366546 112 273 C112 272.34 112 271.68 112 271 C111.071875 270.62875 111.071875 270.62875 110.125 270.25 C107.59641373 268.76259631 107.28160996 267.56321991 106 265 C105.41734375 264.7215625 104.8346875 264.443125 104.234375 264.15625 C101.39017817 262.68442786 99.50346432 260.76819284 97.25 258.5 C96.45078125 257.7059375 95.6515625 256.911875 94.828125 256.09375 C93 254 93 254 93 252 C92.01 251.67 91.02 251.34 90 251 C89.505 250.154375 89.01 249.30875 88.5 248.4375 C88.005 247.633125 87.51 246.82875 87 246 C86.01 246 85.02 246 84 246 C82.9739266 247.31337396 81.97272675 248.64664105 81 250 C80.34 250 79.68 250 79 250 C78.6596875 251.0828125 78.6596875 251.0828125 78.3125 252.1875 C76.20316599 256.70750145 72.7554556 259.38330155 68.9375 262.5 C66.01082561 264.811657 66.01082561 264.811657 64.1875 267.375 C60.99520503 271.20575396 57.13925729 274.22717707 53 277 C52.34 277 51.68 277 51 277 C50.67 277.99 50.34 278.98 50 280 C48.21484375 281.2109375 48.21484375 281.2109375 45.9375 282.375 C42.93152005 283.9583385 40.0315363 285.57931662 37.1875 287.4375 C23.66202229 296 23.66202229 296 18 296 C18 296.66 18 297.32 18 298 C16.9378125 298.32613281 15.875625 298.65226562 14.78125 298.98828125 C13.35398198 299.42908996 11.92691124 299.87053773 10.5 300.3125 C9.39277588 300.65535034 9.39277588 300.65535034 8.26318359 301.00512695 C4.66834991 302.12856215 1.12106653 303.28036949 -2.375 304.6875 C-34.91637772 316.46972297 -76.52199798 309.68737699 -108 298 C-108 297.34 -108 296.68 -108 296 C-108.845625 295.896875 -109.69125 295.79375 -110.5625 295.6875 C-114.41442701 294.9171146 -117.44075031 293.63725486 -121 292 C-121 291.34 -121 290.68 -121 290 C-121.53625 289.896875 -122.0725 289.79375 -122.625 289.6875 C-125.62502044 288.81907303 -128.2379535 287.44379704 -131 286 C-131 285.34 -131 284.68 -131 284 C-132.28777344 283.64421875 -132.28777344 283.64421875 -133.6015625 283.28125 C-137.41623115 281.84307607 -140.13501502 279.96398858 -143.375 277.5 C-143.92027344 277.09652344 -144.46554687 276.69304687 -145.02734375 276.27734375 C-146.39449727 275.23912942 -147.70313753 274.12478686 -149 273 C-149 272.34 -149 271.68 -149 271 C-149.804375 270.6596875 -149.804375 270.6596875 -150.625 270.3125 C-153 269 -153 269 -155.875 266.4375 C-159.20175066 263.84263449 -160.79229636 262.82094878 -165 263 C-167.05533966 264.62263658 -168.36617892 265.9991287 -170 268 C-171.38938658 269.6097535 -172.78562782 271.21360795 -174.1875 272.8125 C-174.86167969 273.60269531 -175.53585937 274.39289063 -176.23046875 275.20703125 C-176.81441406 275.79871094 -177.39835938 276.39039063 -178 277 C-178.66 277 -179.32 277 -180 277 C-180.20625 277.5775 -180.4125 278.155 -180.625 278.75 C-182.12663966 281.20722854 -183.6885791 282.31467172 -186.1171875 283.8046875 C-188.08671873 285.02256937 -188.08671873 285.02256937 -190.1953125 286.6328125 C-196.44683314 291.27622494 -202.73654891 294.25467888 -210 297 C-210.68707031 297.29777344 -211.37414062 297.59554688 -212.08203125 297.90234375 C-221.33985918 301.81986673 -231.69262176 302.1944169 -241.61914062 302.65869141 C-245.27342976 302.81554958 -245.27342976 302.81554958 -248.85181236 303.50702381 C-251.54759948 304.1256657 -254.03783031 304.12921325 -256.80459595 304.13371277 C-257.99045288 304.13797775 -259.17630981 304.14224274 -260.39810181 304.14663696 C-261.69581512 304.14618378 -262.99352844 304.14573059 -264.33056641 304.14526367 C-265.71392914 304.14825662 -267.09729105 304.15165946 -268.48065186 304.15544128 C-272.23716944 304.16427501 -275.99366424 304.16661923 -279.75019121 304.16725707 C-282.10011945 304.16796831 -284.45004192 304.17010412 -286.79996872 304.17275429 C-295.00711178 304.18200798 -303.21423861 304.18608944 -311.42138672 304.18530273 C-319.05572121 304.18470301 -326.6899848 304.1952341 -334.32430136 304.2110464 C-340.88924319 304.22415617 -347.45416195 304.22948514 -354.01911676 304.22884732 C-357.93514966 304.2285932 -361.85111964 304.23139639 -365.76713943 304.24202538 C-369.45582946 304.25176349 -373.14439719 304.25174672 -376.83309174 304.24450874 C-378.81830951 304.24297758 -380.80352741 304.25127098 -382.78872681 304.25994873 C-389.76819441 304.23560895 -396.22439166 303.71822208 -403 302 C-403.85450498 297.98608174 -404.15255038 294.27727752 -404.20532227 290.16577148 C-404.2152162 289.48178882 -404.22511013 288.79780615 -404.23530388 288.09309673 C-404.26731139 285.7691311 -404.2920636 283.44515161 -404.31640625 281.12109375 C-404.33731199 279.40265694 -404.35840097 277.68422235 -404.37965393 275.96578979 C-404.43697766 271.14933909 -404.48608635 266.33283558 -404.53263092 261.51626968 C-404.56256197 258.43111255 -404.59405224 255.34597398 -404.62567139 252.26083374 C-405.07748453 207.20134204 -405.10970339 162.14001877 -405.12211341 117.07865566 C-405.12375586 111.24129317 -405.1267154 105.40393346 -405.13081557 99.56657219 C-405.13801332 89.2785992 -405.13928005 78.99064538 -405.13438225 68.70267105 C-405.13287668 65.2353386 -405.13351131 61.7680176 -405.13614082 58.30068588 C-405.1564459 27.79401323 -405.1564459 27.79401323 -404.55419922 13.28588867 C-404.51547762 12.33637738 -404.47675602 11.38686609 -404.43686104 10.40858173 C-404.1300188 4.1300188 -404.1300188 4.1300188 -403 3 C-396.36111422 1.92795657 -389.64145172 1.85509273 -382.93334961 1.87060547 C-381.98027924 1.86885315 -381.02720886 1.86710083 -380.04525757 1.86529541 C-376.91426735 1.86092039 -373.78333449 1.86380498 -370.65234375 1.8671875 C-368.43640635 1.86651195 -366.22046901 1.86553984 -364.00453186 1.86428833 C-359.3536814 1.86281613 -354.70285017 1.86494584 -350.05200195 1.86962891 C-344.19379165 1.87525022 -338.33562751 1.87199788 -332.4774189 1.866189 C-243.72000753 1.79142582 -243.72000753 1.79142582 -224 9 C-222.23049688 9.58735608 -220.45979522 10.17112339 -218.6875 10.75 C-217.470625 11.1625 -216.25375 11.575 -215 12 C-215 12.66 -215 13.32 -215 14 C-214.14148438 14.23460937 -213.28296875 14.46921875 -212.3984375 14.7109375 C-208.62129099 16.14364825 -205.74890523 18.13400928 -202.625 20.625 C-202.05628174 21.07302979 -201.48756348 21.52105957 -200.90161133 21.98266602 C-192.5951065 28.62007921 -185.71515069 35.9712779 -180 45 C-180 45.66 -180 46.32 -180 47 C-179.34 47 -178.68 47 -178 47 C-176.35 49.97 -174.7 52.94 -173 56 C-169.30989609 54.15494804 -168.06609177 53.21146881 -165.5625 50.1875 C-164.64597656 49.11048828 -164.64597656 49.11048828 -163.7109375 48.01171875 C-162.86402344 47.01591797 -162.86402344 47.01591797 -162 46 C-158.14315559 41.83043848 -153.82375054 38.43140065 -149.3671875 34.93359375 C-147.47037859 33.38422014 -145.79056814 31.84703729 -144.125 30.0625 C-141.91640682 27.91886544 -140.8941952 27.62018469 -138 27 C-137.67 26.01 -137.34 25.02 -137 24 C-135.31944392 22.97848552 -133.63109262 21.9660696 -131.89453125 21.04296875 C-129.75736449 19.91284414 -129.75736449 19.91284414 -127 17.875 C-123.61872378 15.76170236 -120.85214744 14.92451538 -117 14 C-117 13.34 -117 12.68 -117 12 C-116.17757813 11.68546875 -115.35515625 11.3709375 -114.5078125 11.046875 C-113.39148438 10.61890625 -112.27515625 10.1909375 -111.125 9.75 C-109.33255859 9.06357422 -109.33255859 9.06357422 -107.50390625 8.36328125 C-104.67023796 7.26077263 -101.86633848 6.11239726 -99.0625 4.9375 C-88.69901212 0.79545873 -78.06118809 -1.67822281 -67 -3 C-66.12988281 -3.11214844 -65.25976562 -3.22429687 -64.36328125 -3.33984375 C-43.17289503 -5.59808929 -20.83851667 -4.49270772 0 0 Z M-338 62 C-339.97175095 78.9424526 -339.39746023 96.42993048 -338.6875 113.4375 C-338.66510254 114.18241699 -338.64270508 114.92733398 -338.61962891 115.69482422 C-338.53606399 117.95612414 -338.53606399 117.95612414 -338 121 C-334.36185453 123.42543031 -331.62476744 123.32289105 -327.41430664 123.35400391 C-326.64310486 123.3671463 -325.87190308 123.3802887 -325.07733154 123.39382935 C-322.52160226 123.43328415 -319.96610885 123.45662658 -317.41015625 123.4765625 C-316.53424772 123.48471355 -315.6583392 123.49286461 -314.75588799 123.50126266 C-310.11257753 123.54299525 -305.46938517 123.57158445 -300.82592773 123.59033203 C-296.05423599 123.61236984 -291.28443346 123.6810521 -286.5134058 123.76067543 C-282.82505614 123.81327571 -279.13714553 123.82973953 -275.4484539 123.83689499 C-273.69148552 123.8465711 -271.93453304 123.86963988 -270.17793465 123.90697098 C-258.46250837 124.14030953 -251.04412715 123.1503173 -242 115 C-240.09250797 113.09091429 -238.80529387 111.4111442 -237.3125 109.125 C-236.68988281 108.19945312 -236.06726563 107.27390625 -235.42578125 106.3203125 C-232.42429346 101.43569949 -232.81629787 97.39364169 -232.8125 91.75 C-232.80025391 90.80769531 -232.78800781 89.86539063 -232.77539062 88.89453125 C-232.76479335 83.85729339 -232.99743847 79.71749672 -235 75 C-235.66 75 -236.32 75 -237 75 C-237.226875 74.443125 -237.45375 73.88625 -237.6875 73.3125 C-239.36718835 70.3530491 -241.54133285 68.33873216 -244 66 C-244.45375 65.46375 -244.9075 64.9275 -245.375 64.375 C-250.19220971 60.29889947 -255.43834598 59.62631169 -261.55249023 59.64355469 C-262.27217987 59.64151031 -262.99186951 59.63946594 -263.73336792 59.63735962 C-266.09204251 59.63437278 -268.45000319 59.65276885 -270.80859375 59.671875 C-272.46094083 59.67493724 -274.11329051 59.67680982 -275.76564026 59.67755127 C-279.22122147 59.68214164 -282.67656801 59.69651618 -286.13208008 59.71875 C-290.54451324 59.74700876 -294.95676193 59.75796133 -299.369277 59.7624321 C-303.59907259 59.76760806 -307.82882272 59.78213551 -312.05859375 59.796875 C-312.85713713 59.79875572 -313.6556805 59.80063644 -314.47842216 59.80257416 C-316.75838124 59.80951046 -319.03820154 59.82317701 -321.31811523 59.83886719 C-322.61160385 59.84569519 -323.90509247 59.85252319 -325.23777771 59.85955811 C-332.07501712 59.73026138 -332.07501712 59.73026138 -338 62 Z M-338 181 C-338.85275917 202.07533372 -339.06903474 222.92474366 -338 244 C-334.0396984 246.69152118 -329.68739758 246.30279126 -325.09155273 246.30639648 C-324.19180222 246.31472 -323.2920517 246.32304352 -322.36503601 246.33161926 C-319.38784458 246.35572851 -316.4108725 246.36449479 -313.43359375 246.37109375 C-311.35815873 246.38006301 -309.28272436 246.38918491 -307.20729065 246.39845276 C-302.85196361 246.41495037 -298.49671348 246.42264365 -294.14135742 246.42553711 C-288.58206928 246.43090586 -283.02351296 246.46852047 -277.46443081 246.51428127 C-273.17392906 246.54415242 -268.88360088 246.55126293 -264.59300423 246.55226326 C-262.54503102 246.55644959 -260.49705654 246.56881954 -258.44918633 246.58978081 C-242.978968 246.98753489 -242.978968 246.98753489 -229 241 C-226.59593616 238.62157423 -226.59593616 238.62157423 -225 236 C-224.13375 235.175 -223.2675 234.35 -222.375 233.5 C-219.18573484 230.14287878 -218 227.61909149 -218 223 C-217.34 223 -216.68 223 -216 223 C-214.05969519 214.58158075 -213.58614593 205.61009322 -218 198 C-219.56155382 195.52017396 -221.16602507 193.30422492 -223 191 C-223.66 191 -224.32 191 -225 191 C-225.309375 190.071875 -225.309375 190.071875 -225.625 189.125 C-227.54775888 186.15346355 -229.66594527 185.86975341 -233 185 C-233 184.34 -233 183.68 -233 183 C-239.93795146 180.46172507 -246.60516919 179.84949361 -253.94799805 179.87060547 C-254.71003036 179.86885315 -255.47206268 179.86710083 -256.25718689 179.86529541 C-258.75872118 179.86092023 -261.26018382 179.86380105 -263.76171875 179.8671875 C-265.51658644 179.86651287 -267.27145404 179.86554152 -269.02632141 179.86428833 C-272.70041801 179.86281692 -276.37449023 179.86494672 -280.04858398 179.86962891 C-284.72740736 179.87530475 -289.40617309 179.87205727 -294.08499432 179.86605644 C-297.70982791 179.86241774 -301.33464817 179.86360488 -304.95948219 179.86618423 C-306.68282897 179.86684548 -308.40617702 179.86605356 -310.12952232 179.86370468 C-319.47219564 179.8537699 -328.6979558 179.9928331 -338 181 Z " fill="#000000" transform="translate(451,178)"/>
</svg>
