<?xml version="1.0" encoding="UTF-8"?>
<svg version="1.1" xmlns="http://www.w3.org/2000/svg" width="866" height="222">
<path d="M0 0 C1.12664062 -0.00128906 2.25328125 -0.00257812 3.4140625 -0.00390625 C5.15816406 0.00189453 5.15816406 0.00189453 6.9375 0.0078125 C8.10023437 0.00394531 9.26296875 0.00007813 10.4609375 -0.00390625 C11.58757812 -0.00261719 12.71421875 -0.00132813 13.875 0 C14.89464844 0.00112793 15.91429688 0.00225586 16.96484375 0.00341797 C20.02646192 0.13668486 22.92800479 0.56825183 25.9375 1.1328125 C25.9375 1.7928125 25.9375 2.4528125 25.9375 3.1328125 C26.51757812 3.18179688 27.09765625 3.23078125 27.6953125 3.28125 C32.37673092 3.72930655 36.51235459 4.4308335 40.9375 6.1328125 C40.9375 6.7928125 40.9375 7.4528125 40.9375 8.1328125 C41.64777344 8.32617188 42.35804688 8.51953125 43.08984375 8.71875 C44.00894531 8.97914062 44.92804688 9.23953125 45.875 9.5078125 C46.79152344 9.76304688 47.70804687 10.01828125 48.65234375 10.28125 C50.9375 11.1328125 50.9375 11.1328125 51.9375 13.1328125 C52.63875 13.5453125 53.34 13.9578125 54.0625 14.3828125 C57.70375016 16.59922564 60.76162481 19.30472767 63.9375 22.1328125 C63.0808706 26.4615249 61.17540978 28.10607075 57.9375 31.1328125 C57.09058594 32.0609375 57.09058594 32.0609375 56.2265625 33.0078125 C51.73290544 37.87430573 51.73290544 37.87430573 48.4375 38.9453125 C45.20415171 37.89447431 43.42190106 36.05797067 40.93359375 33.7890625 C33.71633258 27.80057182 24.94941254 25.87021884 15.9375 24.1328125 C15.9375 23.4728125 15.9375 22.8128125 15.9375 22.1328125 C9.9975 22.1328125 4.0575 22.1328125 -2.0625 22.1328125 C-2.0625 22.7928125 -2.0625 23.4528125 -2.0625 24.1328125 C-3.27873047 24.35324219 -3.27873047 24.35324219 -4.51953125 24.578125 C-18.65761719 27.44195149 -29.24065139 33.7247542 -38.0625 45.1328125 C-38.5575 46.1228125 -38.5575 46.1228125 -39.0625 47.1328125 C-39.7225 47.1328125 -40.3825 47.1328125 -41.0625 47.1328125 C-42.0525 50.1028125 -43.0425 53.0728125 -44.0625 56.1328125 C-44.7225 56.1328125 -45.3825 56.1328125 -46.0625 56.1328125 C-46.7225 59.4328125 -47.3825 62.7328125 -48.0625 66.1328125 C-42.7825 66.1328125 -37.5025 66.1328125 -32.0625 66.1328125 C-31.7325 64.1528125 -31.4025 62.1728125 -31.0625 60.1328125 C-28.07849599 54.12475073 -23.69205115 48.83264638 -18.0625 45.1328125 C-17.4025 45.1328125 -16.7425 45.1328125 -16.0625 45.1328125 C-15.7325 44.1428125 -15.4025 43.1528125 -15.0625 42.1328125 C-4.59710788 36.54602423 7.07990437 35.13238902 18.55859375 38.0546875 C28.02040852 41.42374987 36.28279389 46.66060474 41.9375 55.1328125 C42.8125 58.0703125 42.8125 58.0703125 42.9375 60.1328125 C43.5975 60.1328125 44.2575 60.1328125 44.9375 60.1328125 C45.4325 63.1028125 45.4325 63.1028125 45.9375 66.1328125 C59.4675 66.1328125 72.9975 66.1328125 86.9375 66.1328125 C87.50210176 87.58767929 85.23459783 106.9762951 70.9375 124.1328125 C70.2775 124.1328125 69.6175 124.1328125 68.9375 124.1328125 C68.75832031 124.82890625 68.57914063 125.525 68.39453125 126.2421875 C66.31599321 130.36582865 63.22575059 132.58184731 59.625 135.3828125 C58.96048828 135.92421875 58.29597656 136.465625 57.61132812 137.0234375 C54.15078545 139.7617502 51.4961825 141.81538006 46.9375 142.1328125 C46.9375 142.7928125 46.9375 143.4528125 46.9375 144.1328125 C40.3125 147.1328125 40.3125 147.1328125 36.9375 147.1328125 C36.9375 147.7928125 36.9375 148.4528125 36.9375 149.1328125 C33.77443043 149.87648089 30.60969963 150.61087709 27.44140625 151.33203125 C25.4038059 151.79770357 23.36846696 152.27400115 21.33984375 152.77734375 C10.85384632 155.21065534 0.3247276 154.74184926 -10.0625 152.1328125 C-11.01769531 151.9265625 -11.97289062 151.7203125 -12.95703125 151.5078125 C-14.46330078 151.1675 -14.46330078 151.1675 -16 150.8203125 C-16.89589844 150.61792969 -17.79179688 150.41554687 -18.71484375 150.20703125 C-23.65997779 148.62020294 -28.33451761 146.2818954 -33.0625 144.1328125 C-33.0625 125.6528125 -33.0625 107.1728125 -33.0625 88.1328125 C-45.85243795 88.17241655 -45.85243795 88.17241655 -58.64233398 88.22290039 C-60.2394199 88.22581953 -61.83650655 88.22836809 -63.43359375 88.23046875 C-64.27055786 88.23558472 -65.10752197 88.24070068 -65.96984863 88.24597168 C-68.00108265 88.24628174 -70.03222471 88.19521438 -72.0625 88.1328125 C-73.65864666 86.53666584 -73.19233576 84.85959474 -73.1953125 82.65234375 C-73.19724609 81.2765918 -73.19724609 81.2765918 -73.19921875 79.87304688 C-73.19535156 78.90689453 -73.19148438 77.94074219 -73.1875 76.9453125 C-73.19136719 75.99849609 -73.19523437 75.05167969 -73.19921875 74.07617188 C-73.1925757 69.31642496 -73.05344167 64.81225929 -72.0625 60.1328125 C-71.4025 60.1328125 -70.7425 60.1328125 -70.0625 60.1328125 C-70.01351562 59.55273438 -69.96453125 58.97265625 -69.9140625 58.375 C-69.46600595 53.69358158 -68.764479 49.55795791 -67.0625 45.1328125 C-66.4025 45.1328125 -65.7425 45.1328125 -65.0625 45.1328125 C-64.93875 44.3903125 -64.815 43.6478125 -64.6875 42.8828125 C-64.10763299 40.33139765 -63.32541261 38.4060552 -62.0625 36.1328125 C-61.4025 36.1328125 -60.7425 36.1328125 -60.0625 36.1328125 C-59.5984375 34.9571875 -59.5984375 34.9571875 -59.125 33.7578125 C-58.0625 31.1328125 -58.0625 31.1328125 -57.0625 29.1328125 C-56.4025 29.1328125 -55.7425 29.1328125 -55.0625 29.1328125 C-54.66998047 28.25109375 -54.66998047 28.25109375 -54.26953125 27.3515625 C-51.08789666 21.50312093 -44.33597079 15.22396943 -38.0625 13.1328125 C-37.7325 12.4728125 -37.4025 11.8128125 -37.0625 11.1328125 C-30.83173077 8.1328125 -30.83173077 8.1328125 -27.0625 8.1328125 C-27.0625 7.4728125 -27.0625 6.8128125 -27.0625 6.1328125 C-25.50283782 5.6240295 -23.93960759 5.12617781 -22.375 4.6328125 C-21.50488281 4.354375 -20.63476562 4.0759375 -19.73828125 3.7890625 C-17.06858323 3.13430445 -14.79853316 3.01449755 -12.0625 3.1328125 C-12.0625 2.4728125 -12.0625 1.8128125 -12.0625 1.1328125 C-7.99080176 0.36898982 -4.14068429 0.0045804 0 0 Z M-5.85546875 64.8359375 C-9.694293 69.46805797 -11.15794884 73.11953559 -11.0625 79.1328125 C-9.36792217 85.27565712 -6.08670831 88.52506774 -1.0625 92.1328125 C3.18205258 94.25508879 8.34101108 93.74682538 12.9375 93.1328125 C16.12911882 91.62306369 18.66617724 89.84595421 20.9375 87.1328125 C21.67519656 85.02137444 21.67519656 85.02137444 21.9375 83.1328125 C22.5975 83.1328125 23.2575 83.1328125 23.9375 83.1328125 C25.17684063 77.94230668 25.38882323 74.13980799 22.875 69.3203125 C19.93882571 64.72351504 17.07283119 61.88634588 11.61328125 60.57421875 C4.9183994 59.57972635 -0.79526601 60.02929612 -5.85546875 64.8359375 Z M45.9375 88.1328125 C44.9475 90.1128125 43.9575 92.0928125 42.9375 94.1328125 C39.17587906 101.24400403 34.30216373 107.04141113 26.9375 110.5703125 C26.2775 110.7559375 25.6175 110.9415625 24.9375 111.1328125 C24.9375 111.7928125 24.9375 112.4528125 24.9375 113.1328125 C18.91395165 114.18693346 13.04394893 114.28243528 6.9375 114.2578125 C5.9784375 114.26167969 5.019375 114.26554687 4.03125 114.26953125 C2.62359375 114.26759766 2.62359375 114.26759766 1.1875 114.265625 C0.34703125 114.26449707 -0.4934375 114.26336914 -1.359375 114.26220703 C-4.61186136 114.1065154 -7.83901597 113.59331022 -11.0625 113.1328125 C-11.0625 118.0828125 -11.0625 123.0328125 -11.0625 128.1328125 C-6.55314332 129.93655517 -2.82111938 130.7681008 1.9375 131.1328125 C2.58203125 131.18695313 3.2265625 131.24109375 3.890625 131.296875 C15.36021387 131.77842262 27.14434425 129.08874616 36.9375 123.1328125 C36.9375 122.4728125 36.9375 121.8128125 36.9375 121.1328125 C37.50339844 121.03484375 38.06929687 120.936875 38.65234375 120.8359375 C44.00152609 119.19003524 48.7978967 114.82383675 51.875 110.2578125 C52.225625 109.5565625 52.57625 108.8553125 52.9375 108.1328125 C53.9275 107.6378125 53.9275 107.6378125 54.9375 107.1328125 C56.02993066 105.10732436 57.03846652 103.03611625 58 100.9453125 C58.52722656 99.81738281 59.05445313 98.68945312 59.59765625 97.52734375 C61.20971385 93.78977268 61.20971385 93.78977268 61.9375 88.1328125 C56.6575 88.1328125 51.3775 88.1328125 45.9375 88.1328125 Z " fill="#FEFEFE" transform="translate(92.0625,35.8671875)"/>
<path d="M0 0 C7.816875 -0.061875 15.63375 -0.12375 23.6875 -0.1875 C27.34718872 -0.22846802 27.34718872 -0.22846802 31.08081055 -0.27026367 C41.74781878 -0.33837734 51.76851767 -0.40197107 62 3 C62 3.66 62 4.32 62 5 C62.7425 5.12375 63.485 5.2475 64.25 5.375 C69.59655099 6.59012522 72.26711472 8.99397677 76 13 C77.2375 14.299375 77.2375 14.299375 78.5 15.625 C85.56679687 24.23486328 87.18648839 34.01653832 87.25 44.75 C87.270625 45.6059375 87.29125 46.461875 87.3125 47.34375 C87.38355182 59.06730016 82.75733451 69.61613255 74.84375 78.18359375 C67.00602706 85.90507928 56.76958807 90.14086746 45.75073242 90.11352539 C44.71589722 90.11340454 43.68106201 90.11328369 42.61486816 90.11315918 C41.53926636 90.10804321 40.46366455 90.10292725 39.35546875 90.09765625 C38.35793579 90.09664917 37.36040283 90.09564209 36.3326416 90.09460449 C32.61758265 90.08938493 28.90254013 90.07542367 25.1875 90.0625 C16.875625 90.041875 8.56375 90.02125 0 90 C0 60.3 0 30.6 0 0 Z M21 18 C21 35.49 21 52.98 21 71 C25.475625 71.061875 29.95125 71.12375 34.5625 71.1875 C35.96056885 71.21481201 37.3586377 71.24212402 38.79907227 71.27026367 C49.13397216 71.36148044 49.13397216 71.36148044 57.890625 66.38671875 C64.59436273 58.00704659 66.49205099 50.6169463 66 40 C65.71818839 37.9920923 65.40743184 35.9862302 65 34 C64.34 34 63.68 34 63 34 C62.7525 32.9275 62.505 31.855 62.25 30.75 C60.08865145 24.26595434 55.84042143 21.97144248 50 19 C40.51541962 17.10308392 30.67241209 18 21 18 Z " fill="#FEFEFE" transform="translate(432,39)"/>
<path d="M0 0 C6.73641851 0 6.73641851 0 10.25 3.4375 C12.89555492 6.04382356 12.89555492 6.04382356 16 8 C16 8.66 16 9.32 16 10 C16.56847656 10.26167969 17.13695312 10.52335937 17.72265625 10.79296875 C23.91623882 14.07567375 29.14440622 19.01317396 34 24 C35.09659582 24.90508507 36.20094975 25.8008448 37.3125 26.6875 C38.199375 27.450625 39.08625 28.21375 40 29 C40 29.66 40 30.32 40 31 C40.721875 31.226875 41.44375 31.45375 42.1875 31.6875 C45.54562879 33.25462677 47.4618052 35.328216 50 38 C50.99 38.66 51.98 39.32 53 40 C53 40.66 53 41.32 53 42 C53.639375 42.268125 54.27875 42.53625 54.9375 42.8125 C57 44 57 44 58 47 C59.32 47.33 60.64 47.66 62 48 C62.33 32.16 62.66 16.32 63 0 C69.93 0 76.86 0 84 0 C84 29.7 84 59.4 84 90 C82.02 90 80.04 90 78 90 C77.67 89.01 77.34 88.02 77 87 C76.2575 86.71125 75.515 86.4225 74.75 86.125 C71.30339228 84.71502412 69.60761113 82.64966938 67 80 C65.22806491 78.49725269 63.43594444 77.01800119 61.625 75.5625 C56.80871595 71.66298852 52.08633608 67.67785042 47.40625 63.6171875 C43.83928606 60.53815731 40.21742087 57.5368494 36.5625 54.5625 C32.47547925 51.23546245 28.47922792 47.83373484 24.55859375 44.3125 C23.01868399 42.91181956 23.01868399 42.91181956 21 42 C21 57.84 21 73.68 21 90 C14.07 90 7.14 90 0 90 C0 60.3 0 30.6 0 0 Z " fill="#FEFEFE" transform="translate(640,39)"/>
<path d="M0 0 C23.76 0 47.52 0 72 0 C72 5.94 72 11.88 72 18 C55.17 18 38.34 18 21 18 C21 23.94 21 29.88 21 36 C35.85 36 50.7 36 66 36 C66 42.27 66 48.54 66 55 C51.15 55 36.3 55 21 55 C21 60.28 21 65.56 21 71 C22.47388184 70.98952637 23.94776367 70.97905273 25.46630859 70.96826172 C30.91924626 70.93214209 36.37217329 70.90912885 41.82519531 70.89013672 C44.18816911 70.88006076 46.55113039 70.86639971 48.9140625 70.84912109 C52.30471888 70.82494276 55.69521084 70.81353301 59.0859375 70.8046875 C60.14743011 70.79436493 61.20892273 70.78404236 62.30258179 70.77340698 C63.77388046 70.77318039 63.77388046 70.77318039 65.27490234 70.77294922 C66.14094086 70.768508 67.00697937 70.76406677 67.89926147 70.75949097 C70 71 70 71 72 73 C72 78.61 72 84.22 72 90 C48.24 90 24.48 90 0 90 C0 60.3 0 30.6 0 0 Z " fill="#FEFEFE" transform="translate(541,39)"/>
<path d="M0 0 C0.83265381 0.00523682 1.66530762 0.01047363 2.52319336 0.01586914 C3.42231445 0.0190918 4.32143555 0.02231445 5.24780273 0.02563477 C6.66609375 0.03820313 6.66609375 0.03820313 8.11303711 0.05102539 C9.06243164 0.05553711 10.01182617 0.06004883 10.98999023 0.06469727 C13.34356776 0.07652429 15.69702188 0.09300514 18.05053711 0.11352539 C18.05053711 0.77352539 18.05053711 1.43352539 18.05053711 2.11352539 C18.63061523 2.16250977 19.21069336 2.21149414 19.80834961 2.26196289 C24.48976803 2.71001944 28.6253917 3.41154639 33.05053711 5.11352539 C33.05053711 5.77352539 33.05053711 6.43352539 33.05053711 7.11352539 C34.01991211 7.38165039 34.98928711 7.64977539 35.98803711 7.92602539 C36.99866211 8.31790039 38.00928711 8.70977539 39.05053711 9.11352539 C39.54553711 10.59852539 39.54553711 10.59852539 40.05053711 12.11352539 C40.60741211 12.38165039 41.16428711 12.64977539 41.73803711 12.92602539 C45.16025433 14.68338018 47.71665064 17.05930359 50.05053711 20.11352539 C51.51395174 25.18669612 51.51395174 25.18669612 50.05053711 28.11352539 C47.99590404 28.88256178 45.90481786 29.55559284 43.80053711 30.17602539 C42.66100586 30.51762695 41.52147461 30.85922852 40.34741211 31.21118164 C39.25944336 31.50895508 38.17147461 31.80672852 37.05053711 32.11352539 C36.14432617 32.36618164 35.23811523 32.61883789 34.30444336 32.87915039 C33.5606543 32.95649414 32.81686523 33.03383789 32.05053711 33.11352539 C29.23803711 30.80102539 29.23803711 30.80102539 27.05053711 28.11352539 C27.05053711 27.45352539 27.05053711 26.79352539 27.05053711 26.11352539 C26.47303711 25.98977539 25.89553711 25.86602539 25.30053711 25.73852539 C23.02717944 25.10703715 21.12518421 24.22494348 19.05053711 23.11352539 C19.05053711 22.45352539 19.05053711 21.79352539 19.05053711 21.11352539 C7.53030099 20.07667448 7.53030099 20.07667448 -3.94946289 21.11352539 C-3.94946289 21.77352539 -3.94946289 22.43352539 -3.94946289 23.11352539 C-5.30915899 24.04368786 -6.71438173 24.90771943 -8.13696289 25.73852539 C-13.35518152 29.09133358 -16.6058134 33.03951124 -18.55883789 38.96118164 C-19.94350854 46.59071691 -19.89194805 54.3549794 -15.94946289 61.11352539 C-13.74648483 64.21146329 -12.12431854 65.99695496 -8.94946289 68.11352539 C-8.94946289 68.77352539 -8.94946289 69.43352539 -8.94946289 70.11352539 C-5.64946289 71.10352539 -2.34946289 72.09352539 1.05053711 73.11352539 C1.05053711 73.77352539 1.05053711 74.43352539 1.05053711 75.11352539 C9.11012244 74.86780633 15.05791408 74.20355018 22.05053711 70.11352539 C22.71053711 70.11352539 23.37053711 70.11352539 24.05053711 70.11352539 C24.05053711 69.45352539 24.05053711 68.79352539 24.05053711 68.11352539 C26.35573213 65.22418013 28.85996986 62.98312323 32.05053711 61.11352539 C35.38161858 60.88112436 37.98322095 61.88358683 41.05053711 63.11352539 C42.43305664 63.63366211 42.43305664 63.63366211 43.84350586 64.16430664 C46.2669153 65.10427504 48.66289789 66.08669099 51.05053711 67.11352539 C51.29944217 71.98376773 50.09635169 74.26146577 47.05053711 78.11352539 C46.39053711 78.11352539 45.73053711 78.11352539 45.05053711 78.11352539 C44.80303711 78.73227539 44.55553711 79.35102539 44.30053711 79.98852539 C42.81099617 82.52074499 41.67472663 82.92071197 39.05053711 84.11352539 C38.55553711 84.60852539 38.06053711 85.10352539 37.55053711 85.61352539 C35.83184475 87.33221775 34.2968255 88.20097073 32.05053711 89.11352539 C31.06053711 89.11352539 30.07053711 89.11352539 29.05053711 89.11352539 C29.05053711 89.77352539 29.05053711 90.43352539 29.05053711 91.11352539 C14.84933096 95.55140231 1.33151131 94.71053238 -12.94946289 91.11352539 C-12.94946289 90.45352539 -12.94946289 89.79352539 -12.94946289 89.11352539 C-14.40352539 88.83508789 -14.40352539 88.83508789 -15.88696289 88.55102539 C-24.68948816 86.03346745 -31.05586959 78.45391534 -35.94946289 71.11352539 C-35.94946289 70.12352539 -35.94946289 69.13352539 -35.94946289 68.11352539 C-36.60946289 68.11352539 -37.26946289 68.11352539 -37.94946289 68.11352539 C-40.97439576 59.76471068 -43.68600621 51.98793833 -41.94946289 43.11352539 C-41.80766602 42.12352539 -41.66586914 41.13352539 -41.51977539 40.11352539 C-39.9097536 29.2670628 -35.41154076 21.1352591 -27.94946289 13.11352539 C-25.69946289 12.42602539 -25.69946289 12.42602539 -23.94946289 12.11352539 C-23.61946289 11.12352539 -23.28946289 10.13352539 -22.94946289 9.11352539 C-16.7127724 4.7367051 -10.38169812 2.43214777 -2.94946289 1.11352539 C-1.94946289 0.11352539 -1.94946289 0.11352539 0 0 Z " fill="#FEFEFE" transform="translate(250.949462890625,36.886474609375)"/>
<path d="M0 0 C3.37890625 0.3203125 3.37890625 0.3203125 7 1 C9.16422008 4.21142334 10 6.12446408 10 10 C10.66 10 11.32 10 12 10 C12.67408308 11.26691507 13.33900497 12.53870749 14 13.8125 C14.37125 14.52019531 14.7425 15.22789063 15.125 15.95703125 C16 18 16 18 16 21 C16.66 21 17.32 21 18 21 C19.23021044 23.46042088 20.46007969 25.9209979 21.6875 28.3828125 C22.71393979 30.42958232 23.75955976 32.46673608 24.8125 34.5 C26 37 26 37 26 39 C26.66 39 27.32 39 28 39 C29.20807505 41.41615011 30.41576639 43.83247732 31.62109375 46.25 C32.479826 47.96259916 33.34575748 49.67163114 34.22265625 51.375 C37 56.79032258 37 56.79032258 37 59 C37.66 59 38.32 59 39 59 C42 65.625 42 65.625 42 69 C42.66 69 43.32 69 44 69 C47 74.625 47 74.625 47 78 C47.66 78 48.32 78 49 78 C49.83819158 79.62249941 50.6704116 81.24808497 51.5 82.875 C52.19609375 84.23238281 52.19609375 84.23238281 52.90625 85.6171875 C54 88 54 88 54 90 C46.08 90 38.16 90 30 90 C24 79.375 24 79.375 24 76 C10.47 76.33 -3.06 76.66 -17 77 C-18.98 80.96 -20.96 84.92 -23 89 C-24 90 -24 90 -26.22485352 90.11352539 C-27.66235962 90.10567017 -27.66235962 90.10567017 -29.12890625 90.09765625 C-30.68061523 90.09282227 -30.68061523 90.09282227 -32.26367188 90.08789062 C-33.35228516 90.07951172 -34.44089844 90.07113281 -35.5625 90.0625 C-37.2012207 90.05573242 -37.2012207 90.05573242 -38.87304688 90.04882812 C-41.58208495 90.03699826 -44.29101599 90.02051543 -47 90 C-47.33 89.34 -47.66 88.68 -48 88 C-47.16380519 86.43213474 -46.30959377 84.8723911 -45.390625 83.3515625 C-43.58773939 80.30286268 -41.92028161 77.18496103 -40.25 74.0625 C-39.32960938 72.34740234 -39.32960938 72.34740234 -38.390625 70.59765625 C-37.93171875 69.74042969 -37.4728125 68.88320312 -37 68 C-36.34 68 -35.68 68 -35 68 C-34.896875 67.29875 -34.79375 66.5975 -34.6875 65.875 C-33.90640997 62.60862353 -32.57941257 59.9528148 -31 57 C-30.34 57 -29.68 57 -29 57 C-28.87625 56.278125 -28.7525 55.55625 -28.625 54.8125 C-28.0095069 52.04278106 -27.11555626 49.6029646 -26 47 C-25.34 47 -24.68 47 -24 47 C-23.87625 46.443125 -23.7525 45.88625 -23.625 45.3125 C-22.94023145 42.77885636 -22.00866237 40.42078968 -21 38 C-20.34 38 -19.68 38 -19 38 C-18.01 35.03 -17.02 32.06 -16 29 C-15.34 29 -14.68 29 -14 29 C-13.84942139 28.472854 -13.69884277 27.94570801 -13.54370117 27.40258789 C-11.55962717 20.93798351 -8.64663972 15.30128379 -5.3125 9.4375 C-4.80138672 8.52419922 -4.29027344 7.61089844 -3.76367188 6.66992188 C-2.51593645 4.44265583 -1.26133712 2.21958207 0 0 Z M3 39 C2.67 40.32 2.34 41.64 2 43 C1.34 43 0.68 43 0 43 C-2.29045014 47.81209901 -2.29045014 47.81209901 -3 53 C-3.66 53 -4.32 53 -5 53 C-5.66 54.98 -6.32 56.96 -7 59 C-0.4 59 6.2 59 13 59 C12.505 56.525 12.505 56.525 12 54 C11.34 54 10.68 54 10 54 C8.515 49.05 8.515 49.05 7 44 C6.34 44 5.68 44 5 44 C4.67 42.35 4.34 40.7 4 39 C3.67 39 3.34 39 3 39 Z " fill="#FEFEFE" transform="translate(359,39)"/>
<path d="M0 0 C1.2065625 0.0309375 1.2065625 0.0309375 2.4375 0.0625 C2.4375 0.7225 2.4375 1.3825 2.4375 2.0625 C3.0975 2.0625 3.7575 2.0625 4.4375 2.0625 C7.4375 7.6875 7.4375 7.6875 7.4375 11.0625 C8.0975 11.0625 8.7575 11.0625 9.4375 11.0625 C10.11158308 12.32941507 10.77650497 13.60120749 11.4375 14.875 C11.80875 15.58269531 12.18 16.29039063 12.5625 17.01953125 C13.4375 19.0625 13.4375 19.0625 13.4375 22.0625 C14.0975 22.0625 14.7575 22.0625 15.4375 22.0625 C15.72882813 22.65675781 16.02015625 23.25101563 16.3203125 23.86328125 C18.99339374 29.26828513 21.79021989 34.58383255 24.6953125 39.8671875 C26.84667994 43.81296903 28.95810585 47.77901341 31.0625 51.75 C31.4347168 52.45068604 31.80693359 53.15137207 32.19042969 53.87329102 C33.28024701 55.93256139 34.36154914 57.9959525 35.4375 60.0625 C36.01322754 61.16585693 36.01322754 61.16585693 36.60058594 62.29150391 C39.4375 67.82435961 39.4375 67.82435961 39.4375 70.0625 C40.0975 70.0625 40.7575 70.0625 41.4375 70.0625 C44.4375 75.6875 44.4375 75.6875 44.4375 79.0625 C45.0975 79.0625 45.7575 79.0625 46.4375 79.0625 C49.4375 85.5625 49.4375 85.5625 49.4375 90.0625 C34.20357718 91.58257929 34.20357718 91.58257929 27.4375 90.0625 C23.45527818 86.63150422 21.79060138 83.09826906 20.4375 78.0625 C20.4375 77.4025 20.4375 76.7425 20.4375 76.0625 C6.9075 76.0625 -6.6225 76.0625 -20.5625 76.0625 C-21.2225 77.7125 -21.8825 79.3625 -22.5625 81.0625 C-23.8825 84.0325 -25.2025 87.0025 -26.5625 90.0625 C-34.4825 90.0625 -42.4025 90.0625 -50.5625 90.0625 C-49.66372793 85.56863963 -48.87596486 83.76404378 -46.5625 80.0625 C-45.86427383 78.40880643 -45.18751395 76.74522986 -44.5625 75.0625 C-43.9025 75.0625 -43.2425 75.0625 -42.5625 75.0625 C-41.5725 72.0925 -40.5825 69.1225 -39.5625 66.0625 C-38.9025 66.0625 -38.2425 66.0625 -37.5625 66.0625 C-37.19125 64.515625 -37.19125 64.515625 -36.8125 62.9375 C-35.7180528 59.10310805 -33.82460624 56.35871195 -31.5625 53.0625 C-29.81554105 49.7680805 -28.19080841 46.41681532 -26.5625 43.0625 C-25.96024601 41.85321222 -25.35645409 40.64468691 -24.75 39.4375 C-24.358125 38.65375 -23.96625 37.87 -23.5625 37.0625 C-22.9025 37.0625 -22.2425 37.0625 -21.5625 37.0625 C-21.43875 36.32 -21.315 35.5775 -21.1875 34.8125 C-20.60763299 32.26108515 -19.82541261 30.3357427 -18.5625 28.0625 C-17.9025 28.0625 -17.2425 28.0625 -16.5625 28.0625 C-15.5725 24.7625 -14.5825 21.4625 -13.5625 18.0625 C-12.9025 18.0625 -12.2425 18.0625 -11.5625 18.0625 C-11.35625 17.299375 -11.15 16.53625 -10.9375 15.75 C-5.11110242 0.12466103 -5.11110242 0.12466103 0 0 Z M-0.5625 39.0625 C-0.5625 40.0525 -0.5625 41.0425 -0.5625 42.0625 C-1.2225 42.0625 -1.8825 42.0625 -2.5625 42.0625 C-3.73657021 44.32977333 -4.90189739 46.60084624 -6.0625 48.875 C-6.39636719 49.51759766 -6.73023438 50.16019531 -7.07421875 50.82226562 C-8.56489084 53.75797699 -9.5625 55.72376517 -9.5625 59.0625 C-2.9625 59.0625 3.6375 59.0625 10.4375 59.0625 C10.1075 57.7425 9.7775 56.4225 9.4375 55.0625 C8.7775 55.0625 8.1175 55.0625 7.4375 55.0625 C5.9525 50.1125 5.9525 50.1125 4.4375 45.0625 C3.7775 45.0625 3.1175 45.0625 2.4375 45.0625 C1.7775 43.0825 1.1175 41.1025 0.4375 39.0625 C0.1075 39.0625 -0.2225 39.0625 -0.5625 39.0625 Z " fill="#FEFEFE" transform="translate(794.5625,38.9375)"/>
<path d="M0 0 C0.94875 0.04125 1.8975 0.0825 2.875 0.125 C3.06835938 1.01703125 3.26171875 1.9090625 3.4609375 2.828125 C3.72132813 3.99859375 3.98171875 5.1690625 4.25 6.375 C4.50523437 7.53515625 4.76046875 8.6953125 5.0234375 9.890625 C5.73296405 12.58552401 6.50596389 14.72025832 7.875 17.125 C8.14763672 16.2896875 8.14763672 16.2896875 8.42578125 15.4375 C10.12362185 10.28303009 11.93922235 5.19489385 13.875 0.125 C15.855 0.125 17.835 0.125 19.875 0.125 C20.205 1.775 20.535 3.425 20.875 5.125 C21.535 5.125 22.195 5.125 22.875 5.125 C24.195 9.745 25.515 14.365 26.875 19.125 C27.14054687 17.83722656 27.40609375 16.54945313 27.6796875 15.22265625 C28.03601287 13.5441762 28.39280798 11.86579583 28.75 10.1875 C28.92402344 9.33736328 29.09804688 8.48722656 29.27734375 7.61132812 C29.45136719 6.80244141 29.62539063 5.99355469 29.8046875 5.16015625 C29.96179199 4.4112915 30.11889648 3.66242676 30.28076172 2.89086914 C30.875 1.125 30.875 1.125 32.875 0.125 C34.87460012 0.085008 36.87547242 0.08153201 38.875 0.125 C39.19713502 5.17178194 38.46335768 8.77478627 36.7421875 13.50390625 C35.05531116 18.60252797 34.01752175 23.88236472 32.875 29.125 C32.215 29.125 31.555 29.125 30.875 29.125 C30.875 30.775 30.875 32.425 30.875 34.125 C28.565 34.125 26.255 34.125 23.875 34.125 C23.38 31.65 23.38 31.65 22.875 29.125 C22.215 29.125 21.555 29.125 20.875 29.125 C19.885 25.495 18.895 21.865 17.875 18.125 C17.215 18.125 16.555 18.125 15.875 18.125 C15.45927734 19.73181641 15.45927734 19.73181641 15.03515625 21.37109375 C14.66945076 22.76827627 14.30355554 24.16540915 13.9375 25.5625 C13.75509766 26.26955078 13.57269531 26.97660156 13.38476562 27.70507812 C11.98828125 33.01171875 11.98828125 33.01171875 10.875 34.125 C8.54202567 34.16592937 6.20794775 34.16741723 3.875 34.125 C2.55873308 30.50526598 1.875 28.02932869 1.875 24.125 C1.215 24.125 0.555 24.125 -0.125 24.125 C-0.40214844 22.87203125 -0.67929687 21.6190625 -0.96484375 20.328125 C-1.33070096 18.67707708 -1.69658793 17.02603576 -2.0625 15.375 C-2.24490234 14.55 -2.42730469 13.725 -2.61523438 12.875 C-2.79248047 12.07578125 -2.96972656 11.2765625 -3.15234375 10.453125 C-3.31468506 9.7199707 -3.47702637 8.98681641 -3.64428711 8.23144531 C-4.09888668 6.10200584 -4.09888668 6.10200584 -4.81079102 3.97949219 C-4.91447998 3.36750977 -5.01816895 2.75552734 -5.125 2.125 C-3.125 0.125 -3.125 0.125 0 0 Z " fill="#FEFEFE" transform="translate(354.125,153.875)"/>
<path d="M0 0 C8 0 8 0 10.2421875 2.08203125 C10.78101563 2.98308594 11.31984375 3.88414062 11.875 4.8125 C12.42929687 5.70582031 12.98359375 6.59914062 13.5546875 7.51953125 C14.03164063 8.33808594 14.50859375 9.15664062 15 10 C15.99 11.485 15.99 11.485 17 13 C17 13.99 17 14.98 17 16 C17.99 16.33 18.98 16.66 20 17 C20.33 17.66 20.66 18.32 21 19 C20.98839844 17.71222656 20.97679687 16.42445313 20.96484375 15.09765625 C20.9554673 13.41927228 20.94636695 11.74088674 20.9375 10.0625 C20.92912109 9.21236328 20.92074219 8.36222656 20.91210938 7.48632812 C20.90727539 6.27299805 20.90727539 6.27299805 20.90234375 5.03515625 C20.89448853 3.91185913 20.89448853 3.91185913 20.88647461 2.76586914 C21 1 21 1 22 0 C24.31 0 26.62 0 29 0 C29 11.22 29 22.44 29 34 C21 34 21 34 19 32.125 C18 30 18 30 18 28 C17.34 28 16.68 28 16 28 C13 23.61538462 13 23.61538462 13 21 C12.34 21 11.68 21 11 21 C10.34 19.68 9.68 18.36 9 17 C8.67 22.61 8.34 28.22 8 34 C5.36 34 2.72 34 0 34 C0 22.78 0 11.56 0 0 Z " fill="#FEFEFE" transform="translate(692,154)"/>
<path d="M0 0 C3.28507191 1.98473095 4.53921103 3.28942073 6 6.8125 C6 8.1325 6 9.4525 6 10.8125 C6.66 10.8125 7.32 10.8125 8 10.8125 C8 14.4425 8 18.0725 8 21.8125 C7.34 21.8125 6.68 21.8125 6 21.8125 C5.9175 22.72 5.835 23.6275 5.75 24.5625 C4.86697223 28.38895369 4.17243641 29.53485334 1 31.8125 C-6.05332265 34.36628923 -12.80173559 34.3640325 -19.875 31.75 C-23.78421065 28.1857197 -25.68172772 24.30916924 -26.3515625 19.0546875 C-26.56737082 11.85453735 -25.35786834 7.46510189 -20.5 2 C-15.16909285 -2.66454375 -6.47169904 -2.44762977 0 0 Z M-15.4375 7.25 C-17.72023869 10.99369145 -18.21943692 14.45301987 -18 18.8125 C-17.25430409 21.39883773 -16.2745191 23.41640409 -15 25.8125 C-13.58566794 26.0361337 -12.16832382 26.24076476 -10.75 26.4375 C-9.96109375 26.55351562 -9.1721875 26.66953125 -8.359375 26.7890625 C-5.63298683 26.81614583 -4.26984994 26.29088911 -2 24.8125 C0.258789 20.85961925 0.39335237 17.29671705 0 12.8125 C-1.58227602 8.50406076 -1.58227602 8.50406076 -5 5.8125 C-10.49687031 5.28818696 -10.49687031 5.28818696 -15.4375 7.25 Z " fill="#FEFEFE" transform="translate(327,155.1875)"/>
<path d="M0 0 C0 1.32 0 2.64 0 4 C-0.66 4 -1.32 4 -2 4 C-2 4.66 -2 5.32 -2 6 C-3.44632813 5.93039063 -3.44632813 5.93039063 -4.921875 5.859375 C-6.18515625 5.82328125 -7.4484375 5.7871875 -8.75 5.75 C-10.00296875 5.70359375 -11.2559375 5.6571875 -12.546875 5.609375 C-16.03468883 5.69775323 -16.03468883 5.69775323 -18.328125 7.828125 C-21.26328501 11.64108987 -22.36639548 14.2479661 -23 19 C-22.34 19 -21.68 19 -21 19 C-20.67 20.65 -20.34 22.3 -20 24 C-15.71 24.66 -11.42 25.32 -7 26 C-7 24.02 -7 22.04 -7 20 C-9.31 20 -11.62 20 -14 20 C-14 17.69 -14 15.38 -14 13 C-9.05 13 -4.1 13 1 13 C1 18.94 1 24.88 1 31 C-15.78591549 35.48732394 -15.78591549 35.48732394 -24 31 C-25.296875 28.87890625 -25.296875 28.87890625 -26 27 C-26.66 27 -27.32 27 -28 27 C-30.64366888 20.88651572 -31.20987513 13.69444012 -29.125 7.328125 C-27.16276372 3.26738603 -24.43112307 0.73301425 -20.4375 -1.3125 C-13.48146381 -2.70370724 -6.52367668 -3.01645234 0 0 Z " fill="#FEFEFE" transform="translate(241,156)"/>
<path d="M0 0 C18.70967742 0 18.70967742 0 22.5 2.9375 C24.89990517 6.23736961 25.126589 7.9017527 24.8125 11.9375 C24.75707031 12.81277344 24.70164062 13.68804687 24.64453125 14.58984375 C23.83408122 17.62043569 22.62853476 18.40391577 20 20 C20.433125 20.59167969 20.86625 21.18335938 21.3125 21.79296875 C21.869375 22.58316406 22.42625 23.37335938 23 24.1875 C23.556875 24.96480469 24.11375 25.74210937 24.6875 26.54296875 C26.151369 29.28336637 26.26080213 30.94100837 26 34 C23.69 34 21.38 34 19 34 C18.67 33.01 18.34 32.02 18 31 C17.34 31 16.68 31 16 31 C15.75765625 30.43410156 15.5153125 29.86820313 15.265625 29.28515625 C14.93046875 28.55167969 14.5953125 27.81820312 14.25 27.0625 C13.92515625 26.33160156 13.6003125 25.60070312 13.265625 24.84765625 C11.97377317 22.52359666 11.97377317 22.52359666 8 22 C8 25.96 8 29.92 8 34 C5.36 34 2.72 34 0 34 C0 22.78 0 11.56 0 0 Z M8 7 C8 9.64 8 12.28 8 15 C10.31 15 12.62 15 15 15 C16.19838209 12.67145537 16.19838209 12.67145537 17 10 C16.34 9.01 15.68 8.02 15 7 C11.41642759 6.74984127 11.41642759 6.74984127 8 7 Z " fill="#FEFEFE" transform="translate(609,154)"/>
<path d="M0 0 C17.41935484 0 17.41935484 0 22.0625 2.9375 C24.45449724 6.71839886 24.55973453 9.3053201 24.56640625 13.6953125 C23.83246139 16.68170884 22.57029847 17.43635918 20 19 C21.11795353 22.0743722 22.44985661 24.82715412 24.125 27.625 C26 31 26 31 26 34 C23.36 34 20.72 34 18 34 C18 33.34 18 32.68 18 32 C17.34 32 16.68 32 16 32 C15.67386719 31.36191406 15.34773437 30.72382813 15.01171875 30.06640625 C14.57472656 29.24011719 14.13773438 28.41382813 13.6875 27.5625 C13.04361328 26.32693359 13.04361328 26.32693359 12.38671875 25.06640625 C11.09979113 22.69352356 11.09979113 22.69352356 8 22 C8 25.96 8 29.92 8 34 C5.36 34 2.72 34 0 34 C0 22.78 0 11.56 0 0 Z M8 7 C8 9.64 8 12.28 8 15 C10.91652174 15.16681109 10.91652174 15.16681109 14 15 C14.66 14.34 15.32 13.68 16 13 C15.71016731 9.69316534 15.71016731 9.69316534 14 7 C12.00041636 6.95919217 9.99954746 6.95745644 8 7 Z " fill="#FEFEFE" transform="translate(781,154)"/>
<path d="M0 0 C18.13636364 0 18.13636364 0 22.5625 2.375 C24.88443815 6.61506097 24.79977572 11.28060274 24 16 C22.59765625 17.83984375 22.59765625 17.83984375 21 19 C20.34 19 19.68 19 19 19 C19.66 20.65 20.32 22.3 21 24 C21.66 24 22.32 24 23 24 C26 30.625 26 30.625 26 34 C22.625 34.125 22.625 34.125 19 34 C18.34 33.34 17.68 32.68 17 32 C17 31.01 17 30.02 17 29 C16.34 29 15.68 29 15 29 C14.5875 28.030625 14.175 27.06125 13.75 26.0625 C13.1725 25.051875 12.595 24.04125 12 23 C10.68 22.67 9.36 22.34 8 22 C8 25.96 8 29.92 8 34 C5.36 34 2.72 34 0 34 C0 22.78 0 11.56 0 0 Z M8 7 C8 9.64 8 12.28 8 15 C10.31 15 12.62 15 15 15 C15 14.34 15 13.68 15 13 C15.66 13 16.32 13 17 13 C17 11.35 17 9.7 17 8 C14.03 7.67 11.06 7.34 8 7 Z " fill="#FEFEFE" transform="translate(260,154)"/>
<path d="M0 0 C1.98 0 3.96 0 6 0 C7 1 7 1 7.09765625 3.72265625 C7.06510417 6.81510417 7.03255208 9.90755208 7 13 C11.29 13 15.58 13 20 13 C19.9690625 10.0609375 19.9690625 10.0609375 19.9375 7.0625 C19.91622812 5.04167124 19.92755947 3.01964199 20 1 C20.33 0.67 20.66 0.34 21 0 C22.98 0 24.96 0 27 0 C27 11.22 27 22.44 27 34 C24.69 34 22.38 34 20 34 C20 29.71 20 25.42 20 21 C15.71 21 11.42 21 7 21 C7 25.29 7 29.58 7 34 C4.69 34 2.38 34 0 34 C0 22.78 0 11.56 0 0 Z " fill="#FEFEFE" transform="translate(450,154)"/>
<path d="M0 0 C0.94101562 0.00322266 1.88203125 0.00644531 2.8515625 0.00976562 C3.83640625 0.01814453 4.82125 0.02652344 5.8359375 0.03515625 C6.82851563 0.03966797 7.82109375 0.04417969 8.84375 0.04882812 C11.2995391 0.0606348 13.75520854 0.07710225 16.2109375 0.09765625 C16.2109375 2.40765625 16.2109375 4.71765625 16.2109375 7.09765625 C11.2609375 7.09765625 6.3109375 7.09765625 1.2109375 7.09765625 C1.2109375 9.07765625 1.2109375 11.05765625 1.2109375 13.09765625 C5.5009375 13.09765625 9.7909375 13.09765625 14.2109375 13.09765625 C14.2109375 15.73765625 14.2109375 18.37765625 14.2109375 21.09765625 C9.9209375 21.09765625 5.6309375 21.09765625 1.2109375 21.09765625 C1.2109375 23.40765625 1.2109375 25.71765625 1.2109375 28.09765625 C6.1609375 28.09765625 11.1109375 28.09765625 16.2109375 28.09765625 C16.2109375 30.07765625 16.2109375 32.05765625 16.2109375 34.09765625 C12.56512063 34.12653137 8.91933287 34.1444121 5.2734375 34.16015625 C3.71206055 34.17272461 3.71206055 34.17272461 2.11914062 34.18554688 C1.12978516 34.18876953 0.14042969 34.19199219 -0.87890625 34.1953125 C-2.25357056 34.20316772 -2.25357056 34.20316772 -3.65600586 34.21118164 C-5.7890625 34.09765625 -5.7890625 34.09765625 -6.7890625 33.09765625 C-6.8774592 30.72197105 -6.90436555 28.37556951 -6.88671875 26 C-6.8853038 25.29114151 -6.88388885 24.58228302 -6.88243103 23.85194397 C-6.87681693 21.57963913 -6.86426213 19.3074315 -6.8515625 17.03515625 C-6.84654931 15.49804829 -6.84198609 13.9609388 -6.83789062 12.42382812 C-6.82684292 8.64839983 -6.80956891 4.87304454 -6.7890625 1.09765625 C-4.33631109 -0.12871945 -2.7384844 -0.01649689 0 0 Z " fill="#FEFEFE" transform="translate(746.7890625,153.90234375)"/>
<path d="M0 0 C1.4540625 0.0309375 1.4540625 0.0309375 2.9375 0.0625 C6.70563055 7.62246003 9.83514589 14.64279533 10.9375 23.0625 C11.5975 23.0625 12.2575 23.0625 12.9375 23.0625 C14.36008812 26.88570557 15.17792276 29.97531305 14.9375 34.0625 C12.6275 34.0625 10.3175 34.0625 7.9375 34.0625 C7.6075 32.0825 7.2775 30.1025 6.9375 28.0625 C6.2775 28.0625 5.6175 28.0625 4.9375 28.0625 C4.6075 27.0725 4.2775 26.0825 3.9375 25.0625 C0.6375 24.7325 -2.6625 24.4025 -6.0625 24.0625 C-6.206875 25.155625 -6.35125 26.24875 -6.5 27.375 C-7.0625 31.0625 -7.0625 31.0625 -8.0625 34.0625 C-11.0325 34.0625 -14.0025 34.0625 -17.0625 34.0625 C-6.1131675 0.12475852 -6.1131675 0.12475852 0 0 Z M-1.0625 12.0625 C-1.3925 14.0425 -1.7225 16.0225 -2.0625 18.0625 C-0.7425 18.0625 0.5775 18.0625 1.9375 18.0625 C1.2775 16.0825 0.6175 14.1025 -0.0625 12.0625 C-0.3925 12.0625 -0.7225 12.0625 -1.0625 12.0625 Z " fill="#FEFEFE" transform="translate(578.0625,153.9375)"/>
<path d="M0 0 C0.61875 0.33 1.2375 0.66 1.875 1 C1.545 2.98 1.215 4.96 0.875 7 C-3.745 7 -8.365 7 -13.125 7 C-13.125 7.99 -13.125 8.98 -13.125 10 C-12.320625 10.226875 -11.51625 10.45375 -10.6875 10.6875 C0.53216548 14.82106097 0.53216548 14.82106097 3.1171875 19.015625 C4.111867 21.62024967 4.27179551 23.2224314 3.875 26 C1.92080799 30.15265802 0.65268649 31.68059305 -3.625 33.4375 C-9.10536925 34.48582821 -14.6363912 33.67692842 -20.125 33 C-20.125 30.69 -20.125 28.38 -20.125 26 C-15.505 26 -10.885 26 -6.125 26 C-6.125 24.68 -6.125 23.36 -6.125 22 C-8.6 21.01 -8.6 21.01 -11.125 20 C-11.125 19.34 -11.125 18.68 -11.125 18 C-11.8675 17.9175 -12.61 17.835 -13.375 17.75 C-16.87280317 16.79605368 -18.08694385 16.01934244 -20.125 13 C-20.68918636 9.89982443 -20.70037133 7.09902972 -20.125 4 C-15.48797898 -2.39589106 -7.00793513 -2.24253924 0 0 Z " fill="#FEFEFE" transform="translate(842.125,155)"/>
<path d="M0 0 C16.22994652 0 16.22994652 0 21 2 C23.29000466 5.43500699 23.29748064 6.88728019 23.3125 10.9375 C23.32925781 11.97777344 23.34601562 13.01804688 23.36328125 14.08984375 C22.94643841 17.42906862 22.48517466 18.73838707 20 21 C17.08203125 21.828125 17.08203125 21.828125 13.8125 22.25 C12.72582031 22.39953125 11.63914062 22.5490625 10.51953125 22.703125 C9.68808594 22.80109375 8.85664062 22.8990625 8 23 C7.67 26.63 7.34 30.26 7 34 C4.69 34 2.38 34 0 34 C0 22.78 0 11.56 0 0 Z M7 7 C7 9.97 7 12.94 7 16 C11.1460881 16.34778172 11.1460881 16.34778172 14.875 14.8125 C16.34781139 12.43963721 16.22223194 10.74086056 16 8 C13.04335481 6.5216774 10.25770263 6.93967217 7 7 Z " fill="#FEFEFE" transform="translate(524,154)"/>
<path d="M0 0 C1.21042969 -0.00128906 2.42085938 -0.00257813 3.66796875 -0.00390625 C4.94285156 -0.00003906 6.21773438 0.00382813 7.53125 0.0078125 C9.44357422 0.00201172 9.44357422 0.00201172 11.39453125 -0.00390625 C13.21017578 -0.00197266 13.21017578 -0.00197266 15.0625 0 C16.18205078 0.00112793 17.30160156 0.00225586 18.45507812 0.00341797 C21.03125 0.1328125 21.03125 0.1328125 22.03125 1.1328125 C22.07205783 3.13239614 22.07379356 5.13326504 22.03125 7.1328125 C18.73125 7.1328125 15.43125 7.1328125 12.03125 7.1328125 C12.03125 16.0428125 12.03125 24.9528125 12.03125 34.1328125 C9.39125 34.1328125 6.75125 34.1328125 4.03125 34.1328125 C4.03125 25.2228125 4.03125 16.3128125 4.03125 7.1328125 C0.40125 7.1328125 -3.22875 7.1328125 -6.96875 7.1328125 C-7.01129356 5.13326504 -7.00955783 3.13239614 -6.96875 1.1328125 C-5.16595809 -0.66997941 -2.42827299 0.00244645 0 0 Z " fill="#FEFEFE" transform="translate(411.96875,153.8671875)"/>
<path d="M0 0 C1.12591553 0.00523682 2.25183105 0.01047363 3.41186523 0.01586914 C4.62680664 0.0190918 5.84174805 0.02231445 7.09350586 0.02563477 C8.37290039 0.03401367 9.65229492 0.04239258 10.97045898 0.05102539 C12.2537207 0.05553711 13.53698242 0.06004883 14.85913086 0.06469727 C18.04211921 0.07652994 21.22501661 0.09301471 24.40795898 0.11352539 C24.40795898 2.42352539 24.40795898 4.73352539 24.40795898 7.11352539 C21.10795898 7.11352539 17.80795898 7.11352539 14.40795898 7.11352539 C14.40795898 16.02352539 14.40795898 24.93352539 14.40795898 34.11352539 C12.09795898 34.11352539 9.78795898 34.11352539 7.40795898 34.11352539 C7.40795898 25.20352539 7.40795898 16.29352539 7.40795898 7.11352539 C3.77795898 7.11352539 0.14795898 7.11352539 -3.59204102 7.11352539 C-3.63458458 5.11397793 -3.63284884 3.11310903 -3.59204102 1.11352539 C-2.59204102 0.11352539 -2.59204102 0.11352539 0 0 Z " fill="#FEFEFE" transform="translate(651.592041015625,153.886474609375)"/>
</svg>
