<?xml version="1.0" encoding="UTF-8"?>
<svg version="1.1" xmlns="http://www.w3.org/2000/svg" width="866" height="212">
<path d="M0 0 C1.12664062 -0.00128906 2.25328125 -0.00257812 3.4140625 -0.00390625 C5.15816406 0.00189453 5.15816406 0.00189453 6.9375 0.0078125 C8.10023437 0.00394531 9.26296875 0.00007813 10.4609375 -0.00390625 C11.58757812 -0.00261719 12.71421875 -0.00132813 13.875 0 C14.89464844 0.00112793 15.91429688 0.00225586 16.96484375 0.00341797 C20.02646192 0.13668486 22.92800479 0.56825183 25.9375 1.1328125 C25.9375 1.7928125 25.9375 2.4528125 25.9375 3.1328125 C26.51757812 3.18179687 27.09765625 3.23078125 27.6953125 3.28125 C32.37673092 3.72930655 36.51235459 4.4308335 40.9375 6.1328125 C40.9375 6.7928125 40.9375 7.4528125 40.9375 8.1328125 C41.64777344 8.32617188 42.35804688 8.51953125 43.08984375 8.71875 C44.00894531 8.97914062 44.92804688 9.23953125 45.875 9.5078125 C46.79152344 9.76304688 47.70804687 10.01828125 48.65234375 10.28125 C50.9375 11.1328125 50.9375 11.1328125 51.9375 13.1328125 C52.63875 13.5453125 53.34 13.9578125 54.0625 14.3828125 C57.70375016 16.59922564 60.76162481 19.30472767 63.9375 22.1328125 C63.0808706 26.4615249 61.17540978 28.10607075 57.9375 31.1328125 C57.09058594 32.0609375 57.09058594 32.0609375 56.2265625 33.0078125 C51.73290544 37.87430573 51.73290544 37.87430573 48.4375 38.9453125 C45.20415171 37.89447431 43.42190106 36.05797067 40.93359375 33.7890625 C33.71633258 27.80057182 24.94941254 25.87021884 15.9375 24.1328125 C15.9375 23.4728125 15.9375 22.8128125 15.9375 22.1328125 C9.9975 22.1328125 4.0575 22.1328125 -2.0625 22.1328125 C-2.0625 22.7928125 -2.0625 23.4528125 -2.0625 24.1328125 C-3.27873047 24.35324219 -3.27873047 24.35324219 -4.51953125 24.578125 C-18.65761719 27.44195149 -29.24065139 33.7247542 -38.0625 45.1328125 C-38.5575 46.1228125 -38.5575 46.1228125 -39.0625 47.1328125 C-39.7225 47.1328125 -40.3825 47.1328125 -41.0625 47.1328125 C-42.0525 50.1028125 -43.0425 53.0728125 -44.0625 56.1328125 C-44.7225 56.1328125 -45.3825 56.1328125 -46.0625 56.1328125 C-46.7225 59.4328125 -47.3825 62.7328125 -48.0625 66.1328125 C-42.7825 66.1328125 -37.5025 66.1328125 -32.0625 66.1328125 C-31.7325 64.1528125 -31.4025 62.1728125 -31.0625 60.1328125 C-28.07849599 54.12475073 -23.69205115 48.83264638 -18.0625 45.1328125 C-17.4025 45.1328125 -16.7425 45.1328125 -16.0625 45.1328125 C-15.7325 44.1428125 -15.4025 43.1528125 -15.0625 42.1328125 C-4.59710788 36.54602423 7.07990437 35.13238902 18.55859375 38.0546875 C28.02040852 41.42374987 36.28279389 46.66060474 41.9375 55.1328125 C42.8125 58.0703125 42.8125 58.0703125 42.9375 60.1328125 C43.5975 60.1328125 44.2575 60.1328125 44.9375 60.1328125 C45.4325 63.1028125 45.4325 63.1028125 45.9375 66.1328125 C59.4675 66.1328125 72.9975 66.1328125 86.9375 66.1328125 C87.50210176 87.58767929 85.23459783 106.9762951 70.9375 124.1328125 C70.2775 124.1328125 69.6175 124.1328125 68.9375 124.1328125 C68.75832031 124.82890625 68.57914063 125.525 68.39453125 126.2421875 C66.31599321 130.36582865 63.22575059 132.58184731 59.625 135.3828125 C58.96048828 135.92421875 58.29597656 136.465625 57.61132812 137.0234375 C54.15078545 139.7617502 51.4961825 141.81538006 46.9375 142.1328125 C46.9375 142.7928125 46.9375 143.4528125 46.9375 144.1328125 C40.3125 147.1328125 40.3125 147.1328125 36.9375 147.1328125 C36.9375 147.7928125 36.9375 148.4528125 36.9375 149.1328125 C33.77443043 149.87648089 30.60969963 150.61087709 27.44140625 151.33203125 C25.4038059 151.79770357 23.36846696 152.27400115 21.33984375 152.77734375 C10.85384632 155.21065534 0.3247276 154.74184926 -10.0625 152.1328125 C-11.01769531 151.9265625 -11.97289062 151.7203125 -12.95703125 151.5078125 C-14.46330078 151.1675 -14.46330078 151.1675 -16 150.8203125 C-16.89589844 150.61792969 -17.79179688 150.41554687 -18.71484375 150.20703125 C-23.65997779 148.62020294 -28.33451761 146.2818954 -33.0625 144.1328125 C-33.0625 125.6528125 -33.0625 107.1728125 -33.0625 88.1328125 C-45.85243795 88.17241655 -45.85243795 88.17241655 -58.64233398 88.22290039 C-60.2394199 88.22581953 -61.83650655 88.22836809 -63.43359375 88.23046875 C-64.27055786 88.23558472 -65.10752197 88.24070068 -65.96984863 88.24597168 C-68.00108265 88.24628174 -70.03222471 88.19521438 -72.0625 88.1328125 C-73.65864666 86.53666584 -73.19233576 84.85959474 -73.1953125 82.65234375 C-73.19724609 81.2765918 -73.19724609 81.2765918 -73.19921875 79.87304688 C-73.19535156 78.90689453 -73.19148438 77.94074219 -73.1875 76.9453125 C-73.19136719 75.99849609 -73.19523437 75.05167969 -73.19921875 74.07617188 C-73.1925757 69.31642496 -73.05344167 64.81225929 -72.0625 60.1328125 C-71.4025 60.1328125 -70.7425 60.1328125 -70.0625 60.1328125 C-70.01351562 59.55273438 -69.96453125 58.97265625 -69.9140625 58.375 C-69.46600595 53.69358158 -68.764479 49.55795791 -67.0625 45.1328125 C-66.4025 45.1328125 -65.7425 45.1328125 -65.0625 45.1328125 C-64.93875 44.3903125 -64.815 43.6478125 -64.6875 42.8828125 C-64.10763299 40.33139765 -63.32541261 38.4060552 -62.0625 36.1328125 C-61.4025 36.1328125 -60.7425 36.1328125 -60.0625 36.1328125 C-59.5984375 34.9571875 -59.5984375 34.9571875 -59.125 33.7578125 C-58.0625 31.1328125 -58.0625 31.1328125 -57.0625 29.1328125 C-56.4025 29.1328125 -55.7425 29.1328125 -55.0625 29.1328125 C-54.66998047 28.25109375 -54.66998047 28.25109375 -54.26953125 27.3515625 C-51.08789666 21.50312093 -44.33597079 15.22396943 -38.0625 13.1328125 C-37.7325 12.4728125 -37.4025 11.8128125 -37.0625 11.1328125 C-30.83173077 8.1328125 -30.83173077 8.1328125 -27.0625 8.1328125 C-27.0625 7.4728125 -27.0625 6.8128125 -27.0625 6.1328125 C-25.50283782 5.6240295 -23.93960759 5.12617781 -22.375 4.6328125 C-21.50488281 4.354375 -20.63476562 4.0759375 -19.73828125 3.7890625 C-17.06858323 3.13430445 -14.79853316 3.01449755 -12.0625 3.1328125 C-12.0625 2.4728125 -12.0625 1.8128125 -12.0625 1.1328125 C-7.99080176 0.36898982 -4.14068429 0.0045804 0 0 Z M-5.85546875 64.8359375 C-9.694293 69.46805797 -11.15794884 73.11953559 -11.0625 79.1328125 C-9.36792217 85.27565712 -6.08670831 88.52506774 -1.0625 92.1328125 C3.18205258 94.25508879 8.34101108 93.74682538 12.9375 93.1328125 C16.12911882 91.62306369 18.66617724 89.84595421 20.9375 87.1328125 C21.67519656 85.02137444 21.67519656 85.02137444 21.9375 83.1328125 C22.5975 83.1328125 23.2575 83.1328125 23.9375 83.1328125 C25.17684063 77.94230668 25.38882323 74.13980799 22.875 69.3203125 C19.93882571 64.72351504 17.07283119 61.88634588 11.61328125 60.57421875 C4.9183994 59.57972635 -0.79526601 60.02929612 -5.85546875 64.8359375 Z M45.9375 88.1328125 C44.9475 90.1128125 43.9575 92.0928125 42.9375 94.1328125 C39.17587906 101.24400403 34.30216373 107.04141113 26.9375 110.5703125 C26.2775 110.7559375 25.6175 110.9415625 24.9375 111.1328125 C24.9375 111.7928125 24.9375 112.4528125 24.9375 113.1328125 C18.91395165 114.18693346 13.04394893 114.28243528 6.9375 114.2578125 C5.9784375 114.26167969 5.019375 114.26554687 4.03125 114.26953125 C2.62359375 114.26759766 2.62359375 114.26759766 1.1875 114.265625 C0.34703125 114.26449707 -0.4934375 114.26336914 -1.359375 114.26220703 C-4.61186136 114.1065154 -7.83901597 113.59331022 -11.0625 113.1328125 C-11.0625 118.0828125 -11.0625 123.0328125 -11.0625 128.1328125 C-6.55314332 129.93655517 -2.82111938 130.7681008 1.9375 131.1328125 C2.58203125 131.18695313 3.2265625 131.24109375 3.890625 131.296875 C15.36021387 131.77842262 27.14434425 129.08874616 36.9375 123.1328125 C36.9375 122.4728125 36.9375 121.8128125 36.9375 121.1328125 C37.50339844 121.03484375 38.06929687 120.936875 38.65234375 120.8359375 C44.00152609 119.19003524 48.7978967 114.82383675 51.875 110.2578125 C52.225625 109.5565625 52.57625 108.8553125 52.9375 108.1328125 C53.9275 107.6378125 53.9275 107.6378125 54.9375 107.1328125 C56.02993066 105.10732436 57.03846652 103.03611625 58 100.9453125 C58.52722656 99.81738281 59.05445313 98.68945312 59.59765625 97.52734375 C61.20971385 93.78977268 61.20971385 93.78977268 61.9375 88.1328125 C56.6575 88.1328125 51.3775 88.1328125 45.9375 88.1328125 Z " fill="#090909" transform="translate(92.0625,27.8671875)"/>
<path d="M0 0 C7.816875 -0.061875 15.63375 -0.12375 23.6875 -0.1875 C27.34718872 -0.22846802 27.34718872 -0.22846802 31.08081055 -0.27026367 C41.74781878 -0.33837734 51.76851767 -0.40197107 62 3 C62 3.66 62 4.32 62 5 C62.7425 5.12375 63.485 5.2475 64.25 5.375 C69.59655099 6.59012522 72.26711472 8.99397677 76 13 C77.2375 14.299375 77.2375 14.299375 78.5 15.625 C85.56679687 24.23486328 87.18648839 34.01653832 87.25 44.75 C87.270625 45.6059375 87.29125 46.461875 87.3125 47.34375 C87.38355182 59.06730016 82.75733451 69.61613255 74.84375 78.18359375 C67.00602706 85.90507928 56.76958807 90.14086746 45.75073242 90.11352539 C44.71589722 90.11340454 43.68106201 90.11328369 42.61486816 90.11315918 C41.53926636 90.10804321 40.46366455 90.10292725 39.35546875 90.09765625 C38.35793579 90.09664917 37.36040283 90.09564209 36.3326416 90.09460449 C32.61758265 90.08938493 28.90254013 90.07542367 25.1875 90.0625 C16.875625 90.041875 8.56375 90.02125 0 90 C0 60.3 0 30.6 0 0 Z M21 18 C21 35.49 21 52.98 21 71 C25.475625 71.061875 29.95125 71.12375 34.5625 71.1875 C35.96056885 71.21481201 37.3586377 71.24212402 38.79907227 71.27026367 C49.13397216 71.36148044 49.13397216 71.36148044 57.890625 66.38671875 C64.59436273 58.00704659 66.49205099 50.6169463 66 40 C65.71818839 37.9920923 65.40743184 35.9862302 65 34 C64.34 34 63.68 34 63 34 C62.7525 32.9275 62.505 31.855 62.25 30.75 C60.08865145 24.26595434 55.84042143 21.97144248 50 19 C40.51541962 17.10308392 30.67241209 18 21 18 Z " fill="#191919" transform="translate(432,31)"/>
<path d="M0 0 C6.73641851 0 6.73641851 0 10.25 3.4375 C12.89555492 6.04382356 12.89555492 6.04382356 16 8 C16 8.66 16 9.32 16 10 C16.56847656 10.26167969 17.13695312 10.52335937 17.72265625 10.79296875 C23.91623882 14.07567375 29.14440622 19.01317396 34 24 C35.09659582 24.90508507 36.20094975 25.8008448 37.3125 26.6875 C38.199375 27.450625 39.08625 28.21375 40 29 C40 29.66 40 30.32 40 31 C40.721875 31.226875 41.44375 31.45375 42.1875 31.6875 C45.54562879 33.25462677 47.4618052 35.328216 50 38 C50.99 38.66 51.98 39.32 53 40 C53 40.66 53 41.32 53 42 C53.639375 42.268125 54.27875 42.53625 54.9375 42.8125 C57 44 57 44 58 47 C59.32 47.33 60.64 47.66 62 48 C62.33 32.16 62.66 16.32 63 0 C69.93 0 76.86 0 84 0 C84 29.7 84 59.4 84 90 C82.02 90 80.04 90 78 90 C77.67 89.01 77.34 88.02 77 87 C76.2575 86.71125 75.515 86.4225 74.75 86.125 C71.30339228 84.71502412 69.60761113 82.64966938 67 80 C65.22806491 78.49725269 63.43594444 77.01800119 61.625 75.5625 C56.80871595 71.66298852 52.08633608 67.67785042 47.40625 63.6171875 C43.83928606 60.53815731 40.21742087 57.5368494 36.5625 54.5625 C32.47547925 51.23546245 28.47922792 47.83373484 24.55859375 44.3125 C23.01868399 42.91181956 23.01868399 42.91181956 21 42 C21 57.84 21 73.68 21 90 C14.07 90 7.14 90 0 90 C0 60.3 0 30.6 0 0 Z " fill="#0B0B0B" transform="translate(640,31)"/>
<path d="M0 0 C23.76 0 47.52 0 72 0 C72 5.94 72 11.88 72 18 C55.17 18 38.34 18 21 18 C21 23.94 21 29.88 21 36 C35.85 36 50.7 36 66 36 C66 42.27 66 48.54 66 55 C51.15 55 36.3 55 21 55 C21 60.28 21 65.56 21 71 C22.47388184 70.98952637 23.94776367 70.97905273 25.46630859 70.96826172 C30.91924626 70.93214209 36.37217329 70.90912885 41.82519531 70.89013672 C44.18816911 70.88006076 46.55113039 70.86639971 48.9140625 70.84912109 C52.30471888 70.82494276 55.69521084 70.81353301 59.0859375 70.8046875 C60.14743011 70.79436493 61.20892273 70.78404236 62.30258179 70.77340698 C63.77388046 70.77318039 63.77388046 70.77318039 65.27490234 70.77294922 C66.14094086 70.768508 67.00697937 70.76406677 67.89926147 70.75949097 C70 71 70 71 72 73 C72 78.61 72 84.22 72 90 C48.24 90 24.48 90 0 90 C0 60.3 0 30.6 0 0 Z " fill="#202020" transform="translate(541,31)"/>
<path d="M0 0 C0.83265381 0.00523682 1.66530762 0.01047363 2.52319336 0.01586914 C3.42231445 0.0190918 4.32143555 0.02231445 5.24780273 0.02563477 C6.66609375 0.03820312 6.66609375 0.03820312 8.11303711 0.05102539 C9.06243164 0.05553711 10.01182617 0.06004883 10.98999023 0.06469727 C13.34356776 0.07652429 15.69702188 0.09300514 18.05053711 0.11352539 C18.05053711 0.77352539 18.05053711 1.43352539 18.05053711 2.11352539 C18.63061523 2.16250977 19.21069336 2.21149414 19.80834961 2.26196289 C24.48976803 2.71001944 28.6253917 3.41154639 33.05053711 5.11352539 C33.05053711 5.77352539 33.05053711 6.43352539 33.05053711 7.11352539 C34.01991211 7.38165039 34.98928711 7.64977539 35.98803711 7.92602539 C36.99866211 8.31790039 38.00928711 8.70977539 39.05053711 9.11352539 C39.54553711 10.59852539 39.54553711 10.59852539 40.05053711 12.11352539 C40.60741211 12.38165039 41.16428711 12.64977539 41.73803711 12.92602539 C45.16025433 14.68338018 47.71665064 17.05930359 50.05053711 20.11352539 C51.51395174 25.18669612 51.51395174 25.18669612 50.05053711 28.11352539 C47.99590404 28.88256178 45.90481786 29.55559284 43.80053711 30.17602539 C42.66100586 30.51762695 41.52147461 30.85922852 40.34741211 31.21118164 C39.25944336 31.50895508 38.17147461 31.80672852 37.05053711 32.11352539 C36.14432617 32.36618164 35.23811523 32.61883789 34.30444336 32.87915039 C33.5606543 32.95649414 32.81686523 33.03383789 32.05053711 33.11352539 C29.23803711 30.80102539 29.23803711 30.80102539 27.05053711 28.11352539 C27.05053711 27.45352539 27.05053711 26.79352539 27.05053711 26.11352539 C26.47303711 25.98977539 25.89553711 25.86602539 25.30053711 25.73852539 C23.02717944 25.10703715 21.12518421 24.22494348 19.05053711 23.11352539 C19.05053711 22.45352539 19.05053711 21.79352539 19.05053711 21.11352539 C7.53030099 20.07667448 7.53030099 20.07667448 -3.94946289 21.11352539 C-3.94946289 21.77352539 -3.94946289 22.43352539 -3.94946289 23.11352539 C-5.30915899 24.04368786 -6.71438173 24.90771943 -8.13696289 25.73852539 C-13.35518152 29.09133358 -16.6058134 33.03951124 -18.55883789 38.96118164 C-19.94350854 46.59071691 -19.89194805 54.3549794 -15.94946289 61.11352539 C-13.74648483 64.21146329 -12.12431854 65.99695496 -8.94946289 68.11352539 C-8.94946289 68.77352539 -8.94946289 69.43352539 -8.94946289 70.11352539 C-5.64946289 71.10352539 -2.34946289 72.09352539 1.05053711 73.11352539 C1.05053711 73.77352539 1.05053711 74.43352539 1.05053711 75.11352539 C9.11012244 74.86780633 15.05791408 74.20355018 22.05053711 70.11352539 C22.71053711 70.11352539 23.37053711 70.11352539 24.05053711 70.11352539 C24.05053711 69.45352539 24.05053711 68.79352539 24.05053711 68.11352539 C26.35573213 65.22418013 28.85996986 62.98312323 32.05053711 61.11352539 C35.38161858 60.88112436 37.98322095 61.88358683 41.05053711 63.11352539 C42.43305664 63.63366211 42.43305664 63.63366211 43.84350586 64.16430664 C46.2669153 65.10427504 48.66289789 66.08669099 51.05053711 67.11352539 C51.29944217 71.98376773 50.09635169 74.26146577 47.05053711 78.11352539 C46.39053711 78.11352539 45.73053711 78.11352539 45.05053711 78.11352539 C44.80303711 78.73227539 44.55553711 79.35102539 44.30053711 79.98852539 C42.81099617 82.52074499 41.67472663 82.92071197 39.05053711 84.11352539 C38.55553711 84.60852539 38.06053711 85.10352539 37.55053711 85.61352539 C35.83184475 87.33221775 34.2968255 88.20097073 32.05053711 89.11352539 C31.06053711 89.11352539 30.07053711 89.11352539 29.05053711 89.11352539 C29.05053711 89.77352539 29.05053711 90.43352539 29.05053711 91.11352539 C14.84933096 95.55140231 1.33151131 94.71053238 -12.94946289 91.11352539 C-12.94946289 90.45352539 -12.94946289 89.79352539 -12.94946289 89.11352539 C-14.40352539 88.83508789 -14.40352539 88.83508789 -15.88696289 88.55102539 C-24.68948816 86.03346745 -31.05586959 78.45391534 -35.94946289 71.11352539 C-35.94946289 70.12352539 -35.94946289 69.13352539 -35.94946289 68.11352539 C-36.60946289 68.11352539 -37.26946289 68.11352539 -37.94946289 68.11352539 C-40.97439576 59.76471068 -43.68600621 51.98793833 -41.94946289 43.11352539 C-41.80766602 42.12352539 -41.66586914 41.13352539 -41.51977539 40.11352539 C-39.9097536 29.2670628 -35.41154076 21.1352591 -27.94946289 13.11352539 C-25.69946289 12.42602539 -25.69946289 12.42602539 -23.94946289 12.11352539 C-23.61946289 11.12352539 -23.28946289 10.13352539 -22.94946289 9.11352539 C-16.7127724 4.7367051 -10.38169812 2.43214777 -2.94946289 1.11352539 C-1.94946289 0.11352539 -1.94946289 0.11352539 0 0 Z " fill="#0D0D0D" transform="translate(250.949462890625,28.886474609375)"/>
<path d="M0 0 C3.37890625 0.3203125 3.37890625 0.3203125 7 1 C9.16422008 4.21142334 10 6.12446408 10 10 C10.66 10 11.32 10 12 10 C12.67408308 11.26691507 13.33900497 12.53870749 14 13.8125 C14.37125 14.52019531 14.7425 15.22789063 15.125 15.95703125 C16 18 16 18 16 21 C16.66 21 17.32 21 18 21 C19.23021044 23.46042088 20.46007969 25.9209979 21.6875 28.3828125 C22.71393979 30.42958232 23.75955976 32.46673608 24.8125 34.5 C26 37 26 37 26 39 C26.66 39 27.32 39 28 39 C29.20807505 41.41615011 30.41576639 43.83247732 31.62109375 46.25 C32.479826 47.96259916 33.34575748 49.67163114 34.22265625 51.375 C37 56.79032258 37 56.79032258 37 59 C37.66 59 38.32 59 39 59 C42 65.625 42 65.625 42 69 C42.66 69 43.32 69 44 69 C47 74.625 47 74.625 47 78 C47.66 78 48.32 78 49 78 C49.83819158 79.62249941 50.6704116 81.24808497 51.5 82.875 C52.19609375 84.23238281 52.19609375 84.23238281 52.90625 85.6171875 C54 88 54 88 54 90 C46.08 90 38.16 90 30 90 C24 79.375 24 79.375 24 76 C10.47 76.33 -3.06 76.66 -17 77 C-18.98 80.96 -20.96 84.92 -23 89 C-24 90 -24 90 -26.22485352 90.11352539 C-27.66235962 90.10567017 -27.66235962 90.10567017 -29.12890625 90.09765625 C-30.68061523 90.09282227 -30.68061523 90.09282227 -32.26367188 90.08789062 C-33.35228516 90.07951172 -34.44089844 90.07113281 -35.5625 90.0625 C-37.2012207 90.05573242 -37.2012207 90.05573242 -38.87304688 90.04882812 C-41.58208495 90.03699826 -44.29101599 90.02051543 -47 90 C-47.33 89.34 -47.66 88.68 -48 88 C-47.16380519 86.43213474 -46.30959377 84.8723911 -45.390625 83.3515625 C-43.58773939 80.30286268 -41.92028161 77.18496103 -40.25 74.0625 C-39.32960938 72.34740234 -39.32960938 72.34740234 -38.390625 70.59765625 C-37.93171875 69.74042969 -37.4728125 68.88320312 -37 68 C-36.34 68 -35.68 68 -35 68 C-34.896875 67.29875 -34.79375 66.5975 -34.6875 65.875 C-33.90640997 62.60862353 -32.57941257 59.9528148 -31 57 C-30.34 57 -29.68 57 -29 57 C-28.87625 56.278125 -28.7525 55.55625 -28.625 54.8125 C-28.0095069 52.04278106 -27.11555626 49.6029646 -26 47 C-25.34 47 -24.68 47 -24 47 C-23.87625 46.443125 -23.7525 45.88625 -23.625 45.3125 C-22.94023145 42.77885636 -22.00866237 40.42078968 -21 38 C-20.34 38 -19.68 38 -19 38 C-18.01 35.03 -17.02 32.06 -16 29 C-15.34 29 -14.68 29 -14 29 C-13.84942139 28.472854 -13.69884277 27.94570801 -13.54370117 27.40258789 C-11.55962717 20.93798351 -8.64663972 15.30128379 -5.3125 9.4375 C-4.80138672 8.52419922 -4.29027344 7.61089844 -3.76367188 6.66992188 C-2.51593645 4.44265583 -1.26133712 2.21958207 0 0 Z M3 39 C2.67 40.32 2.34 41.64 2 43 C1.34 43 0.68 43 0 43 C-2.29045014 47.81209901 -2.29045014 47.81209901 -3 53 C-3.66 53 -4.32 53 -5 53 C-5.66 54.98 -6.32 56.96 -7 59 C-0.4 59 6.2 59 13 59 C12.505 56.525 12.505 56.525 12 54 C11.34 54 10.68 54 10 54 C8.515 49.05 8.515 49.05 7 44 C6.34 44 5.68 44 5 44 C4.67 42.35 4.34 40.7 4 39 C3.67 39 3.34 39 3 39 Z " fill="#0E0E0E" transform="translate(359,31)"/>
<path d="M0 0 C1.2065625 0.0309375 1.2065625 0.0309375 2.4375 0.0625 C2.4375 0.7225 2.4375 1.3825 2.4375 2.0625 C3.0975 2.0625 3.7575 2.0625 4.4375 2.0625 C7.4375 7.6875 7.4375 7.6875 7.4375 11.0625 C8.0975 11.0625 8.7575 11.0625 9.4375 11.0625 C10.11158308 12.32941507 10.77650497 13.60120749 11.4375 14.875 C11.80875 15.58269531 12.18 16.29039063 12.5625 17.01953125 C13.4375 19.0625 13.4375 19.0625 13.4375 22.0625 C14.0975 22.0625 14.7575 22.0625 15.4375 22.0625 C15.72882813 22.65675781 16.02015625 23.25101563 16.3203125 23.86328125 C18.99339374 29.26828513 21.79021989 34.58383255 24.6953125 39.8671875 C26.84667994 43.81296903 28.95810585 47.77901341 31.0625 51.75 C31.4347168 52.45068604 31.80693359 53.15137207 32.19042969 53.87329102 C33.28024701 55.93256139 34.36154914 57.9959525 35.4375 60.0625 C36.01322754 61.16585693 36.01322754 61.16585693 36.60058594 62.29150391 C39.4375 67.82435961 39.4375 67.82435961 39.4375 70.0625 C40.0975 70.0625 40.7575 70.0625 41.4375 70.0625 C44.4375 75.6875 44.4375 75.6875 44.4375 79.0625 C45.0975 79.0625 45.7575 79.0625 46.4375 79.0625 C49.4375 85.5625 49.4375 85.5625 49.4375 90.0625 C34.20357718 91.58257929 34.20357718 91.58257929 27.4375 90.0625 C23.45527818 86.63150422 21.79060138 83.09826906 20.4375 78.0625 C20.4375 77.4025 20.4375 76.7425 20.4375 76.0625 C6.9075 76.0625 -6.6225 76.0625 -20.5625 76.0625 C-21.2225 77.7125 -21.8825 79.3625 -22.5625 81.0625 C-23.8825 84.0325 -25.2025 87.0025 -26.5625 90.0625 C-34.4825 90.0625 -42.4025 90.0625 -50.5625 90.0625 C-49.66372793 85.56863963 -48.87596486 83.76404378 -46.5625 80.0625 C-45.86427383 78.40880643 -45.18751395 76.74522986 -44.5625 75.0625 C-43.9025 75.0625 -43.2425 75.0625 -42.5625 75.0625 C-41.5725 72.0925 -40.5825 69.1225 -39.5625 66.0625 C-38.9025 66.0625 -38.2425 66.0625 -37.5625 66.0625 C-37.19125 64.515625 -37.19125 64.515625 -36.8125 62.9375 C-35.7180528 59.10310805 -33.82460624 56.35871195 -31.5625 53.0625 C-29.81554105 49.7680805 -28.19080841 46.41681532 -26.5625 43.0625 C-25.96024601 41.85321222 -25.35645409 40.64468691 -24.75 39.4375 C-24.358125 38.65375 -23.96625 37.87 -23.5625 37.0625 C-22.9025 37.0625 -22.2425 37.0625 -21.5625 37.0625 C-21.43875 36.32 -21.315 35.5775 -21.1875 34.8125 C-20.60763299 32.26108515 -19.82541261 30.3357427 -18.5625 28.0625 C-17.9025 28.0625 -17.2425 28.0625 -16.5625 28.0625 C-15.5725 24.7625 -14.5825 21.4625 -13.5625 18.0625 C-12.9025 18.0625 -12.2425 18.0625 -11.5625 18.0625 C-11.35625 17.299375 -11.15 16.53625 -10.9375 15.75 C-5.11110242 0.12466103 -5.11110242 0.12466103 0 0 Z M-0.5625 39.0625 C-0.5625 40.0525 -0.5625 41.0425 -0.5625 42.0625 C-1.2225 42.0625 -1.8825 42.0625 -2.5625 42.0625 C-3.73657021 44.32977333 -4.90189739 46.60084624 -6.0625 48.875 C-6.39636719 49.51759766 -6.73023438 50.16019531 -7.07421875 50.82226562 C-8.56489084 53.75797699 -9.5625 55.72376517 -9.5625 59.0625 C-2.9625 59.0625 3.6375 59.0625 10.4375 59.0625 C10.1075 57.7425 9.7775 56.4225 9.4375 55.0625 C8.7775 55.0625 8.1175 55.0625 7.4375 55.0625 C5.9525 50.1125 5.9525 50.1125 4.4375 45.0625 C3.7775 45.0625 3.1175 45.0625 2.4375 45.0625 C1.7775 43.0825 1.1175 41.1025 0.4375 39.0625 C0.1075 39.0625 -0.2225 39.0625 -0.5625 39.0625 Z " fill="#131313" transform="translate(794.5625,30.9375)"/>
<path d="M0 0 C0.94875 0.04125 1.8975 0.0825 2.875 0.125 C3.06835938 1.01703125 3.26171875 1.9090625 3.4609375 2.828125 C3.72132813 3.99859375 3.98171875 5.1690625 4.25 6.375 C4.50523437 7.53515625 4.76046875 8.6953125 5.0234375 9.890625 C5.73296405 12.58552401 6.50596389 14.72025832 7.875 17.125 C8.14763672 16.2896875 8.14763672 16.2896875 8.42578125 15.4375 C10.12362185 10.28303009 11.93922235 5.19489385 13.875 0.125 C15.855 0.125 17.835 0.125 19.875 0.125 C20.205 1.775 20.535 3.425 20.875 5.125 C21.535 5.125 22.195 5.125 22.875 5.125 C24.195 9.745 25.515 14.365 26.875 19.125 C27.14054687 17.83722656 27.40609375 16.54945313 27.6796875 15.22265625 C28.03601287 13.5441762 28.39280798 11.86579583 28.75 10.1875 C28.92402344 9.33736328 29.09804688 8.48722656 29.27734375 7.61132812 C29.45136719 6.80244141 29.62539063 5.99355469 29.8046875 5.16015625 C29.96179199 4.4112915 30.11889648 3.66242676 30.28076172 2.89086914 C30.875 1.125 30.875 1.125 32.875 0.125 C34.87460012 0.085008 36.87547242 0.08153201 38.875 0.125 C39.19713502 5.17178194 38.46335768 8.77478627 36.7421875 13.50390625 C35.05531116 18.60252797 34.01752175 23.88236472 32.875 29.125 C32.215 29.125 31.555 29.125 30.875 29.125 C30.875 30.775 30.875 32.425 30.875 34.125 C28.565 34.125 26.255 34.125 23.875 34.125 C23.38 31.65 23.38 31.65 22.875 29.125 C22.215 29.125 21.555 29.125 20.875 29.125 C19.885 25.495 18.895 21.865 17.875 18.125 C17.215 18.125 16.555 18.125 15.875 18.125 C15.45927734 19.73181641 15.45927734 19.73181641 15.03515625 21.37109375 C14.66945076 22.76827627 14.30355554 24.16540915 13.9375 25.5625 C13.75509766 26.26955078 13.57269531 26.97660156 13.38476562 27.70507812 C11.98828125 33.01171875 11.98828125 33.01171875 10.875 34.125 C8.54202567 34.16592937 6.20794775 34.16741723 3.875 34.125 C2.55873308 30.50526598 1.875 28.02932869 1.875 24.125 C1.215 24.125 0.555 24.125 -0.125 24.125 C-0.40214844 22.87203125 -0.67929687 21.6190625 -0.96484375 20.328125 C-1.33070096 18.67707708 -1.69658793 17.02603576 -2.0625 15.375 C-2.24490234 14.55 -2.42730469 13.725 -2.61523438 12.875 C-2.79248047 12.07578125 -2.96972656 11.2765625 -3.15234375 10.453125 C-3.31468506 9.7199707 -3.47702637 8.98681641 -3.64428711 8.23144531 C-4.09888668 6.10200584 -4.09888668 6.10200584 -4.81079102 3.97949219 C-4.91447998 3.36750977 -5.01816895 2.75552734 -5.125 2.125 C-3.125 0.125 -3.125 0.125 0 0 Z " fill="#141414" transform="translate(354.125,145.875)"/>
<path d="M0 0 C8 0 8 0 10.2421875 2.08203125 C10.78101563 2.98308594 11.31984375 3.88414062 11.875 4.8125 C12.42929687 5.70582031 12.98359375 6.59914062 13.5546875 7.51953125 C14.03164063 8.33808594 14.50859375 9.15664062 15 10 C15.99 11.485 15.99 11.485 17 13 C17 13.99 17 14.98 17 16 C17.99 16.33 18.98 16.66 20 17 C20.33 17.66 20.66 18.32 21 19 C20.98839844 17.71222656 20.97679687 16.42445313 20.96484375 15.09765625 C20.9554673 13.41927228 20.94636695 11.74088674 20.9375 10.0625 C20.92912109 9.21236328 20.92074219 8.36222656 20.91210938 7.48632812 C20.90727539 6.27299805 20.90727539 6.27299805 20.90234375 5.03515625 C20.89448853 3.91185913 20.89448853 3.91185913 20.88647461 2.76586914 C21 1 21 1 22 0 C24.31 0 26.62 0 29 0 C29 11.22 29 22.44 29 34 C21 34 21 34 19 32.125 C18 30 18 30 18 28 C17.34 28 16.68 28 16 28 C13 23.61538462 13 23.61538462 13 21 C12.34 21 11.68 21 11 21 C10.34 19.68 9.68 18.36 9 17 C8.67 22.61 8.34 28.22 8 34 C5.36 34 2.72 34 0 34 C0 22.78 0 11.56 0 0 Z " fill="#444444" transform="translate(692,146)"/>
<path d="M0 0 C3.28507191 1.98473095 4.53921103 3.28942073 6 6.8125 C6 8.1325 6 9.4525 6 10.8125 C6.66 10.8125 7.32 10.8125 8 10.8125 C8 14.4425 8 18.0725 8 21.8125 C7.34 21.8125 6.68 21.8125 6 21.8125 C5.9175 22.72 5.835 23.6275 5.75 24.5625 C4.86697223 28.38895369 4.17243641 29.53485334 1 31.8125 C-6.05332265 34.36628923 -12.80173559 34.3640325 -19.875 31.75 C-23.78421065 28.1857197 -25.68172772 24.30916924 -26.3515625 19.0546875 C-26.56737082 11.85453735 -25.35786834 7.46510189 -20.5 2 C-15.16909285 -2.66454375 -6.47169904 -2.44762977 0 0 Z M-15.4375 7.25 C-17.72023869 10.99369145 -18.21943692 14.45301987 -18 18.8125 C-17.25430409 21.39883773 -16.2745191 23.41640409 -15 25.8125 C-13.58566794 26.0361337 -12.16832382 26.24076476 -10.75 26.4375 C-9.96109375 26.55351562 -9.1721875 26.66953125 -8.359375 26.7890625 C-5.63298683 26.81614583 -4.26984994 26.29088911 -2 24.8125 C0.258789 20.85961925 0.39335237 17.29671705 0 12.8125 C-1.58227602 8.50406076 -1.58227602 8.50406076 -5 5.8125 C-10.49687031 5.28818696 -10.49687031 5.28818696 -15.4375 7.25 Z " fill="#4D4D4D" transform="translate(327,147.1875)"/>
<path d="M0 0 C0 1.32 0 2.64 0 4 C-0.66 4 -1.32 4 -2 4 C-2 4.66 -2 5.32 -2 6 C-3.44632813 5.93039063 -3.44632813 5.93039063 -4.921875 5.859375 C-6.18515625 5.82328125 -7.4484375 5.7871875 -8.75 5.75 C-10.00296875 5.70359375 -11.2559375 5.6571875 -12.546875 5.609375 C-16.03468883 5.69775323 -16.03468883 5.69775323 -18.328125 7.828125 C-21.26328501 11.64108987 -22.36639548 14.2479661 -23 19 C-22.34 19 -21.68 19 -21 19 C-20.67 20.65 -20.34 22.3 -20 24 C-15.71 24.66 -11.42 25.32 -7 26 C-7 24.02 -7 22.04 -7 20 C-9.31 20 -11.62 20 -14 20 C-14 17.69 -14 15.38 -14 13 C-9.05 13 -4.1 13 1 13 C1 18.94 1 24.88 1 31 C-15.78591549 35.48732394 -15.78591549 35.48732394 -24 31 C-25.296875 28.87890625 -25.296875 28.87890625 -26 27 C-26.66 27 -27.32 27 -28 27 C-30.64366888 20.88651572 -31.20987513 13.69444012 -29.125 7.328125 C-27.16276372 3.26738603 -24.43112307 0.73301425 -20.4375 -1.3125 C-13.48146381 -2.70370724 -6.52367668 -3.01645234 0 0 Z " fill="#191919" transform="translate(241,148)"/>
<path d="M0 0 C18.70967742 0 18.70967742 0 22.5 2.9375 C24.89990517 6.23736961 25.126589 7.9017527 24.8125 11.9375 C24.75707031 12.81277344 24.70164062 13.68804687 24.64453125 14.58984375 C23.83408122 17.62043569 22.62853476 18.40391577 20 20 C20.433125 20.59167969 20.86625 21.18335938 21.3125 21.79296875 C21.869375 22.58316406 22.42625 23.37335938 23 24.1875 C23.556875 24.96480469 24.11375 25.74210937 24.6875 26.54296875 C26.151369 29.28336637 26.26080213 30.94100837 26 34 C23.69 34 21.38 34 19 34 C18.67 33.01 18.34 32.02 18 31 C17.34 31 16.68 31 16 31 C15.75765625 30.43410156 15.5153125 29.86820313 15.265625 29.28515625 C14.93046875 28.55167969 14.5953125 27.81820312 14.25 27.0625 C13.92515625 26.33160156 13.6003125 25.60070312 13.265625 24.84765625 C11.97377317 22.52359666 11.97377317 22.52359666 8 22 C8 25.96 8 29.92 8 34 C5.36 34 2.72 34 0 34 C0 22.78 0 11.56 0 0 Z M8 7 C8 9.64 8 12.28 8 15 C10.31 15 12.62 15 15 15 C16.19838209 12.67145537 16.19838209 12.67145537 17 10 C16.34 9.01 15.68 8.02 15 7 C11.41642759 6.74984127 11.41642759 6.74984127 8 7 Z " fill="#121212" transform="translate(609,146)"/>
<path d="M0 0 C17.41935484 0 17.41935484 0 22.0625 2.9375 C24.45449724 6.71839886 24.55973453 9.3053201 24.56640625 13.6953125 C23.83246139 16.68170884 22.57029847 17.43635918 20 19 C21.11795353 22.0743722 22.44985661 24.82715412 24.125 27.625 C26 31 26 31 26 34 C23.36 34 20.72 34 18 34 C18 33.34 18 32.68 18 32 C17.34 32 16.68 32 16 32 C15.67386719 31.36191406 15.34773437 30.72382813 15.01171875 30.06640625 C14.57472656 29.24011719 14.13773438 28.41382813 13.6875 27.5625 C13.04361328 26.32693359 13.04361328 26.32693359 12.38671875 25.06640625 C11.09979113 22.69352356 11.09979113 22.69352356 8 22 C8 25.96 8 29.92 8 34 C5.36 34 2.72 34 0 34 C0 22.78 0 11.56 0 0 Z M8 7 C8 9.64 8 12.28 8 15 C10.91652174 15.16681109 10.91652174 15.16681109 14 15 C14.66 14.34 15.32 13.68 16 13 C15.71016731 9.69316534 15.71016731 9.69316534 14 7 C12.00041636 6.95919217 9.99954746 6.95745644 8 7 Z " fill="#323232" transform="translate(781,146)"/>
<path d="M0 0 C18.13636364 0 18.13636364 0 22.5625 2.375 C24.88443815 6.61506097 24.79977572 11.28060274 24 16 C22.59765625 17.83984375 22.59765625 17.83984375 21 19 C20.34 19 19.68 19 19 19 C19.66 20.65 20.32 22.3 21 24 C21.66 24 22.32 24 23 24 C26 30.625 26 30.625 26 34 C22.625 34.125 22.625 34.125 19 34 C18.34 33.34 17.68 32.68 17 32 C17 31.01 17 30.02 17 29 C16.34 29 15.68 29 15 29 C14.5875 28.030625 14.175 27.06125 13.75 26.0625 C13.1725 25.051875 12.595 24.04125 12 23 C10.68 22.67 9.36 22.34 8 22 C8 25.96 8 29.92 8 34 C5.36 34 2.72 34 0 34 C0 22.78 0 11.56 0 0 Z M8 7 C8 9.64 8 12.28 8 15 C10.31 15 12.62 15 15 15 C15 14.34 15 13.68 15 13 C15.66 13 16.32 13 17 13 C17 11.35 17 9.7 17 8 C14.03 7.67 11.06 7.34 8 7 Z " fill="#323232" transform="translate(260,146)"/>
<path d="M0 0 C1.98 0 3.96 0 6 0 C7 1 7 1 7.09765625 3.72265625 C7.06510417 6.81510417 7.03255208 9.90755208 7 13 C11.29 13 15.58 13 20 13 C19.9690625 10.0609375 19.9690625 10.0609375 19.9375 7.0625 C19.91622812 5.04167124 19.92755947 3.01964199 20 1 C20.33 0.67 20.66 0.34 21 0 C22.98 0 24.96 0 27 0 C27 11.22 27 22.44 27 34 C24.69 34 22.38 34 20 34 C20 29.71 20 25.42 20 21 C15.71 21 11.42 21 7 21 C7 25.29 7 29.58 7 34 C4.69 34 2.38 34 0 34 C0 22.78 0 11.56 0 0 Z " fill="#080808" transform="translate(450,146)"/>
<path d="M0 0 C0.94101562 0.00322266 1.88203125 0.00644531 2.8515625 0.00976562 C3.83640625 0.01814453 4.82125 0.02652344 5.8359375 0.03515625 C6.82851563 0.03966797 7.82109375 0.04417969 8.84375 0.04882812 C11.2995391 0.0606348 13.75520854 0.07710225 16.2109375 0.09765625 C16.2109375 2.40765625 16.2109375 4.71765625 16.2109375 7.09765625 C11.2609375 7.09765625 6.3109375 7.09765625 1.2109375 7.09765625 C1.2109375 9.07765625 1.2109375 11.05765625 1.2109375 13.09765625 C5.5009375 13.09765625 9.7909375 13.09765625 14.2109375 13.09765625 C14.2109375 15.73765625 14.2109375 18.37765625 14.2109375 21.09765625 C9.9209375 21.09765625 5.6309375 21.09765625 1.2109375 21.09765625 C1.2109375 23.40765625 1.2109375 25.71765625 1.2109375 28.09765625 C6.1609375 28.09765625 11.1109375 28.09765625 16.2109375 28.09765625 C16.2109375 30.07765625 16.2109375 32.05765625 16.2109375 34.09765625 C12.56512063 34.12653137 8.91933287 34.1444121 5.2734375 34.16015625 C3.71206055 34.17272461 3.71206055 34.17272461 2.11914062 34.18554688 C1.12978516 34.18876953 0.14042969 34.19199219 -0.87890625 34.1953125 C-2.25357056 34.20316772 -2.25357056 34.20316772 -3.65600586 34.21118164 C-5.7890625 34.09765625 -5.7890625 34.09765625 -6.7890625 33.09765625 C-6.8774592 30.72197105 -6.90436555 28.37556951 -6.88671875 26 C-6.8853038 25.29114151 -6.88388885 24.58228302 -6.88243103 23.85194397 C-6.87681693 21.57963913 -6.86426213 19.3074315 -6.8515625 17.03515625 C-6.84654931 15.49804829 -6.84198609 13.9609388 -6.83789062 12.42382812 C-6.82684292 8.64839983 -6.80956891 4.87304454 -6.7890625 1.09765625 C-4.33631109 -0.12871945 -2.7384844 -0.01649689 0 0 Z " fill="#0D0D0D" transform="translate(746.7890625,145.90234375)"/>
<path d="M0 0 C1.4540625 0.0309375 1.4540625 0.0309375 2.9375 0.0625 C6.70563055 7.62246003 9.83514589 14.64279533 10.9375 23.0625 C11.5975 23.0625 12.2575 23.0625 12.9375 23.0625 C14.36008812 26.88570557 15.17792276 29.97531305 14.9375 34.0625 C12.6275 34.0625 10.3175 34.0625 7.9375 34.0625 C7.6075 32.0825 7.2775 30.1025 6.9375 28.0625 C6.2775 28.0625 5.6175 28.0625 4.9375 28.0625 C4.6075 27.0725 4.2775 26.0825 3.9375 25.0625 C0.6375 24.7325 -2.6625 24.4025 -6.0625 24.0625 C-6.206875 25.155625 -6.35125 26.24875 -6.5 27.375 C-7.0625 31.0625 -7.0625 31.0625 -8.0625 34.0625 C-11.0325 34.0625 -14.0025 34.0625 -17.0625 34.0625 C-6.1131675 0.12475852 -6.1131675 0.12475852 0 0 Z M-1.0625 12.0625 C-1.3925 14.0425 -1.7225 16.0225 -2.0625 18.0625 C-0.7425 18.0625 0.5775 18.0625 1.9375 18.0625 C1.2775 16.0825 0.6175 14.1025 -0.0625 12.0625 C-0.3925 12.0625 -0.7225 12.0625 -1.0625 12.0625 Z " fill="#3D3D3D" transform="translate(578.0625,145.9375)"/>
<path d="M0 0 C0.61875 0.33 1.2375 0.66 1.875 1 C1.545 2.98 1.215 4.96 0.875 7 C-3.745 7 -8.365 7 -13.125 7 C-13.125 7.99 -13.125 8.98 -13.125 10 C-12.320625 10.226875 -11.51625 10.45375 -10.6875 10.6875 C0.53216548 14.82106097 0.53216548 14.82106097 3.1171875 19.015625 C4.111867 21.62024967 4.27179551 23.2224314 3.875 26 C1.92080799 30.15265802 0.65268649 31.68059305 -3.625 33.4375 C-9.10536925 34.48582821 -14.6363912 33.67692842 -20.125 33 C-20.125 30.69 -20.125 28.38 -20.125 26 C-15.505 26 -10.885 26 -6.125 26 C-6.125 24.68 -6.125 23.36 -6.125 22 C-8.6 21.01 -8.6 21.01 -11.125 20 C-11.125 19.34 -11.125 18.68 -11.125 18 C-11.8675 17.9175 -12.61 17.835 -13.375 17.75 C-16.87280317 16.79605368 -18.08694385 16.01934244 -20.125 13 C-20.68918636 9.89982443 -20.70037133 7.09902972 -20.125 4 C-15.48797898 -2.39589106 -7.00793513 -2.24253924 0 0 Z " fill="#484848" transform="translate(842.125,147)"/>
<path d="M0 0 C16.22994652 0 16.22994652 0 21 2 C23.29000466 5.43500699 23.29748064 6.88728019 23.3125 10.9375 C23.32925781 11.97777344 23.34601562 13.01804688 23.36328125 14.08984375 C22.94643841 17.42906862 22.48517466 18.73838707 20 21 C17.08203125 21.828125 17.08203125 21.828125 13.8125 22.25 C12.72582031 22.39953125 11.63914062 22.5490625 10.51953125 22.703125 C9.68808594 22.80109375 8.85664062 22.8990625 8 23 C7.67 26.63 7.34 30.26 7 34 C4.69 34 2.38 34 0 34 C0 22.78 0 11.56 0 0 Z M7 7 C7 9.97 7 12.94 7 16 C11.1460881 16.34778172 11.1460881 16.34778172 14.875 14.8125 C16.34781139 12.43963721 16.22223194 10.74086056 16 8 C13.04335481 6.5216774 10.25770263 6.93967217 7 7 Z " fill="#0F0F0F" transform="translate(524,146)"/>
<path d="M0 0 C1.21042969 -0.00128906 2.42085938 -0.00257813 3.66796875 -0.00390625 C4.94285156 -0.00003906 6.21773438 0.00382813 7.53125 0.0078125 C9.44357422 0.00201172 9.44357422 0.00201172 11.39453125 -0.00390625 C13.21017578 -0.00197266 13.21017578 -0.00197266 15.0625 0 C16.18205078 0.00112793 17.30160156 0.00225586 18.45507812 0.00341797 C21.03125 0.1328125 21.03125 0.1328125 22.03125 1.1328125 C22.07205783 3.13239614 22.07379356 5.13326504 22.03125 7.1328125 C18.73125 7.1328125 15.43125 7.1328125 12.03125 7.1328125 C12.03125 16.0428125 12.03125 24.9528125 12.03125 34.1328125 C9.39125 34.1328125 6.75125 34.1328125 4.03125 34.1328125 C4.03125 25.2228125 4.03125 16.3128125 4.03125 7.1328125 C0.40125 7.1328125 -3.22875 7.1328125 -6.96875 7.1328125 C-7.01129356 5.13326504 -7.00955783 3.13239614 -6.96875 1.1328125 C-5.16595809 -0.66997941 -2.42827299 0.00244645 0 0 Z " fill="#666666" transform="translate(411.96875,145.8671875)"/>
<path d="M0 0 C1.12591553 0.00523682 2.25183105 0.01047363 3.41186523 0.01586914 C4.62680664 0.0190918 5.84174805 0.02231445 7.09350586 0.02563477 C8.37290039 0.03401367 9.65229492 0.04239258 10.97045898 0.05102539 C12.2537207 0.05553711 13.53698242 0.06004883 14.85913086 0.06469727 C18.04211921 0.07652994 21.22501661 0.09301471 24.40795898 0.11352539 C24.40795898 2.42352539 24.40795898 4.73352539 24.40795898 7.11352539 C21.10795898 7.11352539 17.80795898 7.11352539 14.40795898 7.11352539 C14.40795898 16.02352539 14.40795898 24.93352539 14.40795898 34.11352539 C12.09795898 34.11352539 9.78795898 34.11352539 7.40795898 34.11352539 C7.40795898 25.20352539 7.40795898 16.29352539 7.40795898 7.11352539 C3.77795898 7.11352539 0.14795898 7.11352539 -3.59204102 7.11352539 C-3.63458458 5.11397793 -3.63284884 3.11310903 -3.59204102 1.11352539 C-2.59204102 0.11352539 -2.59204102 0.11352539 0 0 Z " fill="#0A0A0A" transform="translate(651.592041015625,145.886474609375)"/>
<path d="M0 0 C0.94101562 0.00322266 1.88203125 0.00644531 2.8515625 0.00976562 C3.83640625 0.01814453 4.82125 0.02652344 5.8359375 0.03515625 C6.82851563 0.03966797 7.82109375 0.04417969 8.84375 0.04882812 C11.2995391 0.0606348 13.75520854 0.07710225 16.2109375 0.09765625 C16.2109375 2.40765625 16.2109375 4.71765625 16.2109375 7.09765625 C11.2609375 7.09765625 6.3109375 7.09765625 1.2109375 7.09765625 C1.2109375 9.07765625 1.2109375 11.05765625 1.2109375 13.09765625 C5.5009375 13.09765625 9.7909375 13.09765625 14.2109375 13.09765625 C14.2109375 13.75765625 14.2109375 14.41765625 14.2109375 15.09765625 C9.5909375 15.09765625 4.9709375 15.09765625 0.2109375 15.09765625 C0.2109375 12.12765625 0.2109375 9.15765625 0.2109375 6.09765625 C4.8309375 6.09765625 9.4509375 6.09765625 14.2109375 6.09765625 C14.2109375 4.77765625 14.2109375 3.45765625 14.2109375 2.09765625 C8.2709375 2.09765625 2.3309375 2.09765625 -3.7890625 2.09765625 C-3.7890625 12.32765625 -3.7890625 22.55765625 -3.7890625 33.09765625 C2.1509375 33.09765625 8.0909375 33.09765625 14.2109375 33.09765625 C14.2109375 31.77765625 14.2109375 30.45765625 14.2109375 29.09765625 C9.5909375 29.09765625 4.9709375 29.09765625 0.2109375 29.09765625 C0.2109375 25.79765625 0.2109375 22.49765625 0.2109375 19.09765625 C4.8309375 19.09765625 9.4509375 19.09765625 14.2109375 19.09765625 C14.2109375 19.75765625 14.2109375 20.41765625 14.2109375 21.09765625 C9.9209375 21.09765625 5.6309375 21.09765625 1.2109375 21.09765625 C1.2109375 23.40765625 1.2109375 25.71765625 1.2109375 28.09765625 C6.1609375 28.09765625 11.1109375 28.09765625 16.2109375 28.09765625 C16.2109375 30.07765625 16.2109375 32.05765625 16.2109375 34.09765625 C12.56512063 34.12653137 8.91933287 34.1444121 5.2734375 34.16015625 C3.71206055 34.17272461 3.71206055 34.17272461 2.11914062 34.18554688 C1.12978516 34.18876953 0.14042969 34.19199219 -0.87890625 34.1953125 C-2.25357056 34.20316772 -2.25357056 34.20316772 -3.65600586 34.21118164 C-5.7890625 34.09765625 -5.7890625 34.09765625 -6.7890625 33.09765625 C-6.8774592 30.72197105 -6.90436555 28.37556951 -6.88671875 26 C-6.8853038 25.29114151 -6.88388885 24.58228302 -6.88243103 23.85194397 C-6.87681693 21.57963913 -6.86426213 19.3074315 -6.8515625 17.03515625 C-6.84654931 15.49804829 -6.84198609 13.9609388 -6.83789062 12.42382812 C-6.82684292 8.64839983 -6.80956891 4.87304454 -6.7890625 1.09765625 C-4.33631109 -0.12871945 -2.7384844 -0.01649689 0 0 Z " fill="#BCBCBC" transform="translate(746.7890625,145.90234375)"/>
<path d="M0 0 C1.98 0 3.96 0 6 0 C7 1 7 1 7.09765625 3.72265625 C7.06510417 6.81510417 7.03255208 9.90755208 7 13 C11.29 13 15.58 13 20 13 C19.9690625 10.0609375 19.9690625 10.0609375 19.9375 7.0625 C19.91622812 5.04167124 19.92755947 3.01964199 20 1 C20.33 0.67 20.66 0.34 21 0 C22.98 0 24.96 0 27 0 C27 11.22 27 22.44 27 34 C24.69 34 22.38 34 20 34 C20 29.71 20 25.42 20 21 C15.71 21 11.42 21 7 21 C7 25.29 7 29.58 7 34 C4.69 34 2.38 34 0 34 C0 22.78 0 11.56 0 0 Z M1 2 C1 12.23 1 22.46 1 33 C2.32 33 3.64 33 5 33 C5 28.38 5 23.76 5 19 C10.61 19 16.22 19 22 19 C22 23.62 22 28.24 22 33 C23.32 33 24.64 33 26 33 C26 22.77 26 12.54 26 2 C24.68 2 23.36 2 22 2 C21.67 5.96 21.34 9.92 21 14 C13.08 14.495 13.08 14.495 5 15 C5 10.71 5 6.42 5 2 C3.68 2 2.36 2 1 2 Z " fill="#B0B0B0" transform="translate(450,146)"/>
<path d="M0 0 C0.66 0 1.32 0 2 0 C0.68 5.94 -0.64 11.88 -2 18 C-2.66 18 -3.32 18 -4 18 C-4 25.59 -4 33.18 -4 41 C8.87 41 21.74 41 35 41 C35 59.81 35 78.62 35 98 C36.65 98.33 38.3 98.66 40 99 C41.39605469 99.70576172 41.39605469 99.70576172 42.8203125 100.42578125 C46.44686381 102.22123601 49.96613416 103.2140712 53.875 104.1875 C54.56335938 104.36474609 55.25171875 104.54199219 55.9609375 104.72460938 C57.63907979 105.15579871 59.31933172 105.5787638 61 106 C57.45622755 107.22314605 55.0373749 106.78575397 51.4375 105.875 C50.48746094 105.64554687 49.53742188 105.41609375 48.55859375 105.1796875 C43.55444233 103.52079208 38.7994073 101.18154877 34 99 C34 80.52 34 62.04 34 43 C21.21006205 43.03960405 21.21006205 43.03960405 8.42016602 43.09008789 C6.8230801 43.09300703 5.22599345 43.09555559 3.62890625 43.09765625 C2.79194214 43.10277222 1.95497803 43.10788818 1.09265137 43.11315918 C-0.93858265 43.11346924 -2.96972471 43.06240188 -5 43 C-6.59614666 41.40385334 -6.12983576 39.72678224 -6.1328125 37.51953125 C-6.13474609 36.1437793 -6.13474609 36.1437793 -6.13671875 34.74023438 C-6.13285156 33.77408203 -6.12898438 32.80792969 -6.125 31.8125 C-6.12886719 30.86568359 -6.13273437 29.91886719 -6.13671875 28.94335938 C-6.1300757 24.18361246 -5.99094167 19.67944679 -5 15 C-4.34 15 -3.68 15 -3 15 C-2.95101563 14.41992188 -2.90203125 13.83984375 -2.8515625 13.2421875 C-2.40350595 8.56076908 -1.701979 4.42514541 0 0 Z " fill="#8D8D8D" transform="translate(25,73)"/>
<path d="M0 0 C0 0.33 0 0.66 0 1 C-4.95 1 -9.9 1 -15 1 C-15 1.66 -15 2.32 -15 3 C-16.21623047 3.22042969 -16.21623047 3.22042969 -17.45703125 3.4453125 C-31.59511719 6.30913899 -42.17815139 12.5919417 -51 24 C-51.33 24.66 -51.66 25.32 -52 26 C-52.66 26 -53.32 26 -54 26 C-54.99 28.97 -55.98 31.94 -57 35 C-57.66 35 -58.32 35 -59 35 C-59.66 38.3 -60.32 41.6 -61 45 C-55.72 45 -50.44 45 -45 45 C-44.67 43.02 -44.34 41.04 -44 39 C-41.01599599 32.99193823 -36.62955115 27.69983388 -31 24 C-30.34 24 -29.68 24 -29 24 C-28.505 22.515 -28.505 22.515 -28 21 C-25.625 19.75 -25.625 19.75 -23 19 C-22.01 19.33 -21.02 19.66 -20 20 C-22 22 -22 22 -23.921875 22.3984375 C-26.64787609 23.18754308 -27.49642116 24.42025767 -29.25 26.625 C-32.27509127 30.29692504 -35.47970932 33.14611141 -39.30078125 35.96875 C-41.77479185 38.62595614 -41.77479185 38.62595614 -43 46 C-49.6 46 -56.2 46 -63 46 C-61.125 35.375 -61.125 35.375 -60 32 C-59.34 32 -58.68 32 -58 32 C-57.77570312 31.13375 -57.55140625 30.2675 -57.3203125 29.375 C-55.81283448 25.52156505 -53.68914492 22.94117394 -50.875 20 C-50.38362549 19.47744629 -49.89225098 18.95489258 -49.38598633 18.41650391 C-43.98849453 12.7825807 -38.7538757 7.93846892 -31 6 C-31 5.34 -31 4.68 -31 4 C-20.45074289 -0.17497101 -11.18842453 -0.45205756 0 0 Z " fill="#A7A7A7" transform="translate(105,49)"/>
<path d="M0 0 C2.31 0 4.62 0 7 0 C7 11.22 7 22.44 7 34 C-1 34 -1 34 -3 32.125 C-4 30 -4 30 -4 28 C-4.66 28 -5.32 28 -6 28 C-9 23.61538462 -9 23.61538462 -9 21 C-9.66 21 -10.32 21 -11 21 C-11.66 19.68 -12.32 18.36 -13 17 C-13.33 22.61 -13.66 28.22 -14 34 C-14.66 34 -15.32 34 -16 34 C-16 26.08 -16 18.16 -16 10 C-11.53086943 14.46913057 -8.49420073 18.41388334 -5.375 23.8125 C-4.18683458 26.12294121 -4.18683458 26.12294121 -2 27 C-1.27306096 28.97888961 -0.60183749 30.97954558 0 33 C1.65 33 3.3 33 5 33 C5 22.77 5 12.54 5 2 C4.01 2 3.02 2 2 2 C2 10.25 2 18.5 2 27 C1.67 26.34 1.34 25.68 1 25 C0.34 25 -0.32 25 -1 25 C-1.02886984 21.02084841 -1.04675406 17.04172347 -1.0625 13.0625 C-1.07087891 11.92619141 -1.07925781 10.78988281 -1.08789062 9.61914062 C-1.09111328 8.53955078 -1.09433594 7.45996094 -1.09765625 6.34765625 C-1.10289307 5.34742432 -1.10812988 4.34719238 -1.11352539 3.31665039 C-1 1 -1 1 0 0 Z " fill="#9B9B9B" transform="translate(714,146)"/>
<path d="M0 0 C1.32 0 2.64 0 4 0 C4.19335938 0.88042969 4.38671875 1.76085937 4.5859375 2.66796875 C4.84632813 3.82941406 5.10671875 4.99085938 5.375 6.1875 C5.75785156 7.91033203 5.75785156 7.91033203 6.1484375 9.66796875 C6.89472452 12.58807348 7.80431788 15.23953389 9 18 C9.99 17.67 10.98 17.34 12 17 C12.12375 15.72125 12.2475 14.4425 12.375 13.125 C12.75 9.25 12.75 9.25 15 7 C17.38918969 13.11925115 16.70305445 16.81353651 14.625 22.9375 C14.3775 23.71673828 14.13 24.49597656 13.875 25.29882812 C13.26698511 27.20472094 12.63582183 29.10320267 12 31 C10.35 31 8.7 31 7 31 C6.81824219 30.2265625 6.63648438 29.453125 6.44921875 28.65625 C4.78877609 21.67721548 4.78877609 21.67721548 2.375 14.9375 C0.43652156 10.13697486 0.27311365 5.12323534 0 0 Z " fill="#141414" transform="translate(352,148)"/>
<path d="M0 0 C6.73641851 0 6.73641851 0 10.25 3.4375 C12.89555492 6.04382356 12.89555492 6.04382356 16 8 C16 8.66 16 9.32 16 10 C11.6687053 8.72608979 9.43276951 6.63158651 6.52734375 3.33984375 C4.81192705 1.62895975 4.81192705 1.62895975 1 1 C1 30.04 1 59.08 1 89 C7.27 89 13.54 89 20 89 C20 72.5 20 56 20 39 C24 41 24 41 26 44 C24.35 43.34 22.7 42.68 21 42 C21 57.84 21 73.68 21 90 C14.07 90 7.14 90 0 90 C0 60.3 0 30.6 0 0 Z " fill="#DDDDDD" transform="translate(640,31)"/>
<path d="M0 0 C0.94875 0.04125 1.8975 0.0825 2.875 0.125 C3.06835938 1.01703125 3.26171875 1.9090625 3.4609375 2.828125 C3.72132813 3.99859375 3.98171875 5.1690625 4.25 6.375 C4.50523437 7.53515625 4.76046875 8.6953125 5.0234375 9.890625 C5.73296405 12.58552401 6.50596389 14.72025832 7.875 17.125 C8.14763672 16.2896875 8.14763672 16.2896875 8.42578125 15.4375 C10.12362185 10.28303009 11.93922235 5.19489385 13.875 0.125 C15.855 0.125 17.835 0.125 19.875 0.125 C20.205 1.775 20.535 3.425 20.875 5.125 C20.215 4.795 19.555 4.465 18.875 4.125 C18.875 3.465 18.875 2.805 18.875 2.125 C17.225 2.125 15.575 2.125 13.875 2.125 C13.936875 2.970625 13.99875 3.81625 14.0625 4.6875 C13.84188773 8.73205829 12.56726541 11.46970672 10.875 15.125 C10.50191369 16.44776056 10.14453585 17.77732077 9.875 19.125 C9.215 19.125 8.555 19.125 7.875 19.125 C7.545 20.115 7.215 21.105 6.875 22.125 C3.93536715 15.71125561 1.42514749 9.32264013 1.875 2.125 C0.555 2.125 -0.765 2.125 -2.125 2.125 C-1.50527718 5.02205376 -0.87943301 7.91755455 -0.25 10.8125 C-0.07597656 11.62912109 0.09804688 12.44574219 0.27734375 13.28710938 C1.18207202 17.42540352 2.25007118 21.20275803 3.875 25.125 C4.36813497 27.79072015 4.60023632 30.42315717 4.875 33.125 C6.525 33.125 8.175 33.125 9.875 33.125 C10.14054687 31.95582031 10.40609375 30.78664062 10.6796875 29.58203125 C11.03624851 28.03380583 11.39303102 26.48563141 11.75 24.9375 C11.92402344 24.16857422 12.09804688 23.39964844 12.27734375 22.60742188 C13.20045044 18.62438746 14.20572186 14.87711617 15.875 11.125 C16.535 11.125 17.195 11.125 17.875 11.125 C17.44380859 12.61386719 17.44380859 12.61386719 17.00390625 14.1328125 C16.25112094 16.76590298 15.53039448 19.40460839 14.83984375 22.0546875 C14.67033203 22.704375 14.50082031 23.3540625 14.32617188 24.0234375 C13.9777708 25.36405305 13.63148465 26.70521967 13.28710938 28.046875 C11.98529974 33.01470026 11.98529974 33.01470026 10.875 34.125 C8.54202567 34.16592937 6.20794775 34.16741723 3.875 34.125 C2.55873308 30.50526598 1.875 28.02932869 1.875 24.125 C1.215 24.125 0.555 24.125 -0.125 24.125 C-0.40214844 22.87203125 -0.67929687 21.6190625 -0.96484375 20.328125 C-1.33070096 18.67707708 -1.69658793 17.02603576 -2.0625 15.375 C-2.24490234 14.55 -2.42730469 13.725 -2.61523438 12.875 C-2.79248047 12.07578125 -2.96972656 11.2765625 -3.15234375 10.453125 C-3.31468506 9.7199707 -3.47702637 8.98681641 -3.64428711 8.23144531 C-4.09888668 6.10200584 -4.09888668 6.10200584 -4.81079102 3.97949219 C-4.91447998 3.36750977 -5.01816895 2.75552734 -5.125 2.125 C-3.125 0.125 -3.125 0.125 0 0 Z " fill="#AFAFAF" transform="translate(354.125,145.875)"/>
<path d="M0 0 C1.12591553 0.00523682 2.25183105 0.01047363 3.41186523 0.01586914 C4.62680664 0.0190918 5.84174805 0.02231445 7.09350586 0.02563477 C8.37290039 0.03401367 9.65229492 0.04239258 10.97045898 0.05102539 C12.2537207 0.05553711 13.53698242 0.06004883 14.85913086 0.06469727 C18.04211921 0.07652994 21.22501661 0.09301471 24.40795898 0.11352539 C24.40795898 2.42352539 24.40795898 4.73352539 24.40795898 7.11352539 C21.10795898 7.11352539 17.80795898 7.11352539 14.40795898 7.11352539 C14.40795898 16.02352539 14.40795898 24.93352539 14.40795898 34.11352539 C12.09795898 34.11352539 9.78795898 34.11352539 7.40795898 34.11352539 C7.40795898 25.20352539 7.40795898 16.29352539 7.40795898 7.11352539 C3.77795898 7.11352539 0.14795898 7.11352539 -3.59204102 7.11352539 C-3.63458458 5.11397793 -3.63284884 3.11310903 -3.59204102 1.11352539 C-2.59204102 0.11352539 -2.59204102 0.11352539 0 0 Z M-2.59204102 2.11352539 C-2.59204102 3.43352539 -2.59204102 4.75352539 -2.59204102 6.11352539 C1.03795898 6.11352539 4.66795898 6.11352539 8.40795898 6.11352539 C8.40795898 15.02352539 8.40795898 23.93352539 8.40795898 33.11352539 C9.72795898 33.11352539 11.04795898 33.11352539 12.40795898 33.11352539 C12.40795898 23.87352539 12.40795898 14.63352539 12.40795898 5.11352539 C15.70795898 5.11352539 19.00795898 5.11352539 22.40795898 5.11352539 C22.40795898 4.12352539 22.40795898 3.13352539 22.40795898 2.11352539 C14.15795898 2.11352539 5.90795898 2.11352539 -2.59204102 2.11352539 Z " fill="#ACACAC" transform="translate(651.592041015625,145.886474609375)"/>
<path d="M0 0 C6.93 0 13.86 0 21 0 C21 29.7 21 59.4 21 90 C19.02 90 17.04 90 15 90 C15 89.01 15 88.02 15 87 C16.65 87.66 18.3 88.32 20 89 C20 59.96 20 30.92 20 1 C13.73 1 7.46 1 1 1 C1 17.83 1 34.66 1 52 C-4 49 -4 49 -5 47 C-3.68 47.33 -2.36 47.66 -1 48 C-0.67 32.16 -0.34 16.32 0 0 Z " fill="#A6A6A6" transform="translate(703,31)"/>
<path d="M0 0 C0.66 0 1.32 0 2 0 C5 6.625 5 6.625 5 10 C5.66 10 6.32 10 7 10 C10 15.625 10 15.625 10 19 C10.66 19 11.32 19 12 19 C12.83819158 20.62249941 13.6704116 22.24808497 14.5 23.875 C15.19609375 25.23238281 15.19609375 25.23238281 15.90625 26.6171875 C17 29 17 29 17 31 C9.08 31 1.16 31 -7 31 C-13 20.375 -13 20.375 -13 17 C-18.78478888 17.01938271 -24.56804849 17.07098361 -30.35229492 17.15258789 C-32.32030913 17.17579829 -34.28844809 17.19017073 -36.2565918 17.19555664 C-39.08461521 17.20482417 -41.91066833 17.24576458 -44.73828125 17.29296875 C-45.61962234 17.2890361 -46.50096344 17.28510345 -47.40901184 17.28105164 C-49.71792959 17.33631968 -51.7650936 17.41625223 -54 18 C-56.16314722 20.36999745 -56.16314722 20.36999745 -57 23 C-57.33 22.01 -57.66 21.02 -58 20 C-57.34 18.68 -56.68 17.36 -56 16 C-41.48 16 -26.96 16 -12 16 C-9.69 20.29 -7.38 24.58 -5 29 C-0.70040594 30.26497709 1.21799028 30.60109138 5.4375 30.3125 C6.35982422 30.30154297 7.28214844 30.29058594 8.23242188 30.27929688 C10.49640342 30.24410545 12.74120372 30.14994699 15 30 C15 29.34 15 28.68 15 28 C14.34 28 13.68 28 13 28 C11.74335022 25.09399739 11 23.20395416 11 20 C10.34 20 9.68 20 9 20 C7.48987869 17.23456804 5.99369852 14.46183193 4.5 11.6875 C4.07074219 10.90181641 3.64148438 10.11613281 3.19921875 9.30664062 C2.79316406 8.54931641 2.38710938 7.79199219 1.96875 7.01171875 C1.40317383 5.96697388 1.40317383 5.96697388 0.82617188 4.90112305 C0 3 0 3 0 0 Z " fill="#C4C4C4" transform="translate(396,90)"/>
<path d="M0 0 C17.5 0 17.5 0 22 3 C21.67 3.66 21.34 4.32 21 5 C19.35 4.34 17.7 3.68 16 3 C9.07 2.505 9.07 2.505 2 2 C2 12.23 2 22.46 2 33 C2.99 33 3.98 33 5 33 C5 28.71 5 24.42 5 20 C7.31 20 9.62 20 12 20 C12.33 21.32 12.66 22.64 13 24 C10.525 23.01 10.525 23.01 8 22 C8 25.96 8 29.92 8 34 C5.36 34 2.72 34 0 34 C0 22.78 0 11.56 0 0 Z " fill="#9B9B9B" transform="translate(781,146)"/>
<path d="M0 0 C16.22994652 0 16.22994652 0 21 2 C23.29000466 5.43500699 23.29748064 6.88728019 23.3125 10.9375 C23.32925781 11.97777344 23.34601562 13.01804688 23.36328125 14.08984375 C22.94643841 17.42906862 22.48517466 18.73838707 20 21 C17.08203125 21.828125 17.08203125 21.828125 13.8125 22.25 C12.72582031 22.39953125 11.63914062 22.5490625 10.51953125 22.703125 C9.68808594 22.80109375 8.85664062 22.8990625 8 23 C7.67 26.63 7.34 30.26 7 34 C4.69 34 2.38 34 0 34 C0 22.78 0 11.56 0 0 Z M2 2 C2 12.23 2 22.46 2 33 C3.32 33 4.64 33 6 33 C6 29.04 6 25.08 6 21 C7.381875 21.061875 8.76375 21.12375 10.1875 21.1875 C14.30284037 21.19397066 16.6918162 20.60644784 20 18 C22.58620253 15.41379747 22.35629171 14.15954974 22.4375 10.5625 C22.47746094 9.59441406 22.51742187 8.62632812 22.55859375 7.62890625 C22.37425781 6.76136719 22.18992187 5.89382812 22 5 C15.828093 0.71376061 15.828093 0.71376061 2 2 Z " fill="#ACACAC" transform="translate(524,146)"/>
<path d="M0 0 C0.66 0.33 1.32 0.66 2 1 C1.56429687 1.38929687 1.12859375 1.77859375 0.6796875 2.1796875 C-7.49106743 9.85524516 -12.63620747 18.43153369 -13.1796875 29.73828125 C-13.50845999 43.13417955 -11.82741261 54.30384647 -2.60546875 64.69921875 C-0.45123153 66.86024097 1.73222943 68.95900649 4 71 C1 71 1 71 -1.4375 68.75 C-2.283125 67.8425 -3.12875 66.935 -4 66 C-5.0828125 64.948125 -5.0828125 64.948125 -6.1875 63.875 C-8.75716732 61.21672347 -10 59.77129852 -10 56 C-10.66 56 -11.32 56 -12 56 C-15.02493287 47.65118529 -17.73654332 39.87441294 -16 31 C-15.85820312 30.01 -15.71640625 29.02 -15.5703125 28 C-13.93703879 16.99689287 -9.31332834 9.27560838 -2 1 C-1.34 0.67 -0.68 0.34 0 0 Z " fill="#C4C4C4" transform="translate(225,41)"/>
<path d="M0 0 C1.12664062 -0.00128906 2.25328125 -0.00257812 3.4140625 -0.00390625 C5.15816406 0.00189453 5.15816406 0.00189453 6.9375 0.0078125 C8.10023437 0.00394531 9.26296875 0.00007813 10.4609375 -0.00390625 C11.58757812 -0.00261719 12.71421875 -0.00132813 13.875 0 C14.89464844 0.00112793 15.91429688 0.00225586 16.96484375 0.00341797 C20.02646192 0.13668486 22.92800479 0.56825183 25.9375 1.1328125 C25.9375 1.7928125 25.9375 2.4528125 25.9375 3.1328125 C24.803125 2.9678125 23.66875 2.8028125 22.5 2.6328125 C5.00295839 0.83684866 -11.95207734 2.68174202 -28.0625 10.1328125 C-28.76117188 10.44863281 -29.45984375 10.76445313 -30.1796875 11.08984375 C-37.69205385 14.74586204 -44.29586166 19.04580537 -50.0625 25.1328125 C-51.71114545 26.48836543 -53.37253995 27.82912903 -55.0625 29.1328125 C-52.26274125 22.84369926 -46.56565427 18.10731281 -41.0625 14.1328125 C-40.0725 13.8028125 -39.0825 13.4728125 -38.0625 13.1328125 C-37.7325 12.4728125 -37.4025 11.8128125 -37.0625 11.1328125 C-30.83173077 8.1328125 -30.83173077 8.1328125 -27.0625 8.1328125 C-27.0625 7.4728125 -27.0625 6.8128125 -27.0625 6.1328125 C-25.50283782 5.6240295 -23.93960759 5.12617781 -22.375 4.6328125 C-21.50488281 4.354375 -20.63476562 4.0759375 -19.73828125 3.7890625 C-17.06858323 3.13430445 -14.79853316 3.01449755 -12.0625 3.1328125 C-12.0625 2.4728125 -12.0625 1.8128125 -12.0625 1.1328125 C-7.99080176 0.36898982 -4.14068429 0.0045804 0 0 Z " fill="#C6C6C6" transform="translate(92.0625,27.8671875)"/>
<path d="M0 0 C18.70967742 0 18.70967742 0 22.5 2.9375 C24.89990517 6.23736961 25.126589 7.9017527 24.8125 11.9375 C24.75707031 12.81277344 24.70164062 13.68804687 24.64453125 14.58984375 C23.82712841 17.64643498 22.59527814 18.31180936 20 20 C19.67 20.66 19.34 21.32 19 22 C18.34 21.01 17.68 20.02 17 19 C17.825 18.38125 18.65 17.7625 19.5 17.125 C23.04115841 13.36554409 23.04115841 13.36554409 22 4 C15.4 3.34 8.8 2.68 2 2 C2 12.56 2 23.12 2 34 C1.34 34 0.68 34 0 34 C0 22.78 0 11.56 0 0 Z " fill="#CFCFCF" transform="translate(609,146)"/>
<path d="M0 0 C1.65 0 3.3 0 5 0 C4.34 0.33 3.68 0.66 3 1 C3 1.66 3 2.32 3 3 C-3.06356034 5.12224612 -8.60869483 5.30154278 -15 5.25 C-15.9590625 5.25773438 -16.918125 5.26546875 -17.90625 5.2734375 C-18.8446875 5.27085937 -19.783125 5.26828125 -20.75 5.265625 C-21.59046875 5.26336914 -22.4309375 5.26111328 -23.296875 5.25878906 C-26 5 -26 5 -33 3 C-32.67 7.95 -32.34 12.9 -32 18 C-18.95478753 20.39911953 -8.02380203 19.78977402 5 18 C5 18.66 5 19.32 5 20 C-2.43441319 21.69238674 -9.71503168 22.21649408 -17.3125 22.25 C-18.15973633 22.25902344 -19.00697266 22.26804688 -19.87988281 22.27734375 C-20.6994043 22.27347656 -21.51892578 22.26960938 -22.36328125 22.265625 C-23.08813721 22.26336914 -23.81299316 22.26111328 -24.55981445 22.25878906 C-27 22 -27 22 -34 20 C-34 13.73 -34 7.46 -34 1 C-30.9371875 1.495 -30.9371875 1.495 -27.8125 2 C-18.50780255 3.32789711 -9.2732308 3.72525224 0 2 C0 1.34 0 0.68 0 0 Z " fill="#B0B0B0" transform="translate(114,138)"/>
<path d="M0 0 C18.13636364 0 18.13636364 0 22.5625 2.375 C24.88443815 6.61506097 24.79977572 11.28060274 24 16 C22.59765625 17.83984375 22.59765625 17.83984375 21 19 C20.34 19 19.68 19 19 19 C19.66 20.65 20.32 22.3 21 24 C19.68 22.68 18.36 21.36 17 20 C17.825 19.154375 18.65 18.30875 19.5 17.4375 C21.73006251 14.77153292 22.00228014 13.98078166 22.4375 10.3125 C22.23021604 6.86759876 22.23021604 6.86759876 20 4 C14.27287157 2.09095719 8.02355259 2.40157017 2 2 C2 12.56 2 23.12 2 34 C1.34 34 0.68 34 0 34 C0 22.78 0 11.56 0 0 Z " fill="#C2C2C2" transform="translate(260,146)"/>
<path d="M0 0 C4.95 0 9.9 0 15 0 C15 5.94 15 11.88 15 18 C0.14285714 21.71428571 0.14285714 21.71428571 -7 19 C-7 18.67 -7 18.34 -7 18 C2.9 17.505 2.9 17.505 13 17 C13 11.72 13 6.44 13 1 C9.04 1 5.08 1 1 1 C1 2.32 1 3.64 1 5 C3.31 5 5.62 5 8 5 C8 7.97 8 10.94 8 14 C4.83013832 15.58493084 1.45967739 15.2940042 -2 15 C-4.5 14 -4.5 14 -6 13 C-6 12.34 -6 11.68 -6 11 C-1.71 11.66 2.58 12.32 7 13 C7 11.02 7 9.04 7 7 C4.69 7 2.38 7 0 7 C0 4.69 0 2.38 0 0 Z " fill="#C9C9C9" transform="translate(227,161)"/>
<path d="M0 0 C0.83265381 0.00523682 1.66530762 0.01047363 2.52319336 0.01586914 C3.42231445 0.0190918 4.32143555 0.02231445 5.24780273 0.02563477 C6.66609375 0.03820312 6.66609375 0.03820312 8.11303711 0.05102539 C9.06243164 0.05553711 10.01182617 0.06004883 10.98999023 0.06469727 C13.34356776 0.07652429 15.69702188 0.09300514 18.05053711 0.11352539 C18.05053711 0.77352539 18.05053711 1.43352539 18.05053711 2.11352539 C18.63061523 2.16250977 19.21069336 2.21149414 19.80834961 2.26196289 C24.48976803 2.71001944 28.6253917 3.41154639 33.05053711 5.11352539 C33.05053711 5.77352539 33.05053711 6.43352539 33.05053711 7.11352539 C34.01991211 7.38165039 34.98928711 7.64977539 35.98803711 7.92602539 C36.99866211 8.31790039 38.00928711 8.70977539 39.05053711 9.11352539 C39.54553711 10.59852539 39.54553711 10.59852539 40.05053711 12.11352539 C36.3281882 10.71764455 32.88822673 9.01426855 29.40600586 7.11352539 C22.10977246 4.01595366 15.12353753 3.76183691 7.30053711 3.80102539 C6.2402832 3.80231445 5.1800293 3.80360352 4.08764648 3.80493164 C-3.31581723 3.89593918 -9.95139792 4.53529093 -16.94946289 7.11352539 C-14.4457587 4.06479716 -12.10533377 3.39633344 -8.32446289 2.48852539 C-5.47896248 1.79395443 -2.69403143 0.15688474 0 0 Z " fill="#979696" transform="translate(250.949462890625,28.886474609375)"/>
<path d="M0 0 C0 1.32 0 2.64 0 4 C-0.66 4 -1.32 4 -2 4 C-2 4.66 -2 5.32 -2 6 C-7.28 6 -12.56 6 -18 6 C-18 5.34 -18 4.68 -18 4 C-15.66062093 2.83031047 -14.22630632 2.86635779 -11.625 2.875 C-10.46871094 2.87113281 -10.46871094 2.87113281 -9.2890625 2.8671875 C-7.0671811 2.99610212 -5.13381492 3.38616283 -3 4 C-3 2.68 -3 1.36 -3 0 C-5.56406672 0.08737713 -8.12482216 0.19429119 -10.6875 0.3125 C-11.40873047 0.33505859 -12.12996094 0.35761719 -12.87304688 0.38085938 C-18.38553004 0.65774209 -21.75278077 1.80651862 -25.796875 5.75390625 C-27.48118672 8.89831937 -27.32567254 11.39224161 -27.25 14.9375 C-27.23453125 16.14277344 -27.2190625 17.34804687 -27.203125 18.58984375 C-27.02942407 21.50601517 -26.66753565 24.16297349 -26 27 C-26.66 27 -27.32 27 -28 27 C-30.64366888 20.88651572 -31.20987513 13.69444012 -29.125 7.328125 C-27.16276372 3.26738603 -24.43112307 0.73301425 -20.4375 -1.3125 C-13.48146381 -2.70370724 -6.52367668 -3.01645234 0 0 Z " fill="#BABABA" transform="translate(241,148)"/>
<path d="M0 0 C3.54581059 1.8662161 5.6710856 3.1340672 7 7 C7 7.99 7 8.98 7 10 C7.66 10 8.32 10 9 10 C9.33 11.98 9.66 13.96 10 16 C23.53 16 37.06 16 51 16 C51.04125 19.320625 51.0825 22.64125 51.125 26.0625 C51.14320801 27.09511963 51.16141602 28.12773926 51.18017578 29.19165039 C51.21215318 34.5385804 50.77942078 38.94896699 49 44 C47.93567725 40.80703175 47.96211664 38.79555059 48.12109375 35.45703125 C48.16419678 34.48999268 48.2072998 33.5229541 48.25170898 32.52661133 C48.34367554 30.68812622 48.34367554 30.68812622 48.4375 28.8125 C48.623125 24.914375 48.80875 21.01625 49 17 C35.47 17 21.94 17 8 17 C7.34 15.02 6.68 13.04 6 11 C4.97766076 8.98455243 4.97766076 8.98455243 3.875 7.25 C2 4 2 4 2 2 C1.34 2 0.68 2 0 2 C0 1.34 0 0.68 0 0 Z " fill="#A4A4A4" transform="translate(128,78)"/>
<path d="M0 0 C0.66 0 1.32 0 2 0 C1.79193224 10.4033881 -4.44851537 21.13821844 -11 29 C-11.66 29 -12.32 29 -13 29 C-13.17917969 29.69609375 -13.35835937 30.3921875 -13.54296875 31.109375 C-15.62150679 35.23301615 -18.71174941 37.44903481 -22.3125 40.25 C-22.97701172 40.79140625 -23.64152344 41.3328125 -24.32617188 41.890625 C-27.78671455 44.6289377 -30.4413175 46.68256756 -35 47 C-35 47.66 -35 48.32 -35 49 C-41.625 52.125 -41.625 52.125 -45 51 C-44.26064209 50.61630249 -44.26064209 50.61630249 -43.50634766 50.22485352 C-30.24835704 43.28026543 -16.99182325 35.9836465 -10 22 C-9.34 22 -8.68 22 -8 22 C-7.7525 21.175 -7.505 20.35 -7.25 19.5 C-6.296788 16.83100641 -5.31231237 14.60272411 -4 12.125 C-1.95054651 8.16374288 -0.93288352 4.35345642 0 0 Z " fill="#C9C9C9" transform="translate(174,123)"/>
<path d="M0 0 C0 0.66 0 1.32 0 2 C-1.3596961 2.93016247 -2.76491884 3.79419404 -4.1875 4.625 C-9.40571863 7.97780819 -12.65635051 11.92598585 -14.609375 17.84765625 C-15.99404565 25.47719152 -15.94248516 33.24145401 -12 40 C-9.79702194 43.0979379 -8.17485565 44.88342956 -5 47 C-5 47.66 -5 48.32 -5 49 C-0.05 50.485 -0.05 50.485 5 52 C5 52.66 5 53.32 5 54 C-3.43517363 53.19665013 -7.95479098 48.55136911 -13.23046875 42.34765625 C-18.40570978 35.481608 -18.78743152 28.4220936 -18 20 C-16.75392675 12.46996595 -11.42534874 7.05864406 -6 2 C-3.76795557 0.66803859 -2.59045699 0 0 0 Z " fill="#BEBEBE" transform="translate(247,50)"/>
<path d="M0 0 C6.21127026 -0.12347317 12.42182856 -0.21427988 18.6340332 -0.2746582 C20.74776652 -0.29982363 22.86141265 -0.33395926 24.97485352 -0.37719727 C28.01079798 -0.43775941 31.04559362 -0.46618909 34.08203125 -0.48828125 C35.02899368 -0.51408768 35.97595612 -0.5398941 36.95161438 -0.56648254 C39.40276167 -0.56753364 41.60740935 -0.53312084 44 0 C46.046875 2.40869141 46.046875 2.40869141 47 5 C47.38542969 5.64324219 47.77085937 6.28648438 48.16796875 6.94921875 C51 11.77777778 51 11.77777778 51 14 C57.27 13.67 63.54 13.34 70 13 C69.01 10.03 68.02 7.06 67 4 C67.66 4 68.32 4 69 4 C72 10.5 72 10.5 72 15 C56.76607718 16.52007929 56.76607718 16.52007929 50 15 C46.01777818 11.56900422 44.35310138 8.03576906 43 3 C43 2.34 43 1.68 43 1 C29.47 1 15.94 1 2 1 C1.34 2.65 0.68 4.3 0 6 C-1 3 -1 3 0 0 Z " fill="#8F8F8F" transform="translate(772,106)"/>
<path d="M0 0 C0.66 0 1.32 0 2 0 C0.68 5.94 -0.64 11.88 -2 18 C-2.66 18 -3.32 18 -4 18 C-4 25.92 -4 33.84 -4 42 C8.54 42 21.08 42 34 42 C34 42.33 34 42.66 34 43 C28.46411467 43.02464775 22.928261 43.04283496 17.39233398 43.05493164 C15.5075627 43.05997244 13.62279535 43.06680498 11.73803711 43.07543945 C9.03498364 43.08751617 6.33198169 43.09323068 3.62890625 43.09765625 C2.78099014 43.10281754 1.93307404 43.10797882 1.0594635 43.11329651 C-0.96071068 43.11349195 -2.98077934 43.06206211 -5 43 C-6.59614666 41.40385334 -6.12983576 39.72678224 -6.1328125 37.51953125 C-6.13474609 36.1437793 -6.13474609 36.1437793 -6.13671875 34.74023438 C-6.13285156 33.77408203 -6.12898438 32.80792969 -6.125 31.8125 C-6.12886719 30.86568359 -6.13273437 29.91886719 -6.13671875 28.94335938 C-6.1300757 24.18361246 -5.99094167 19.67944679 -5 15 C-4.34 15 -3.68 15 -3 15 C-2.95101563 14.41992188 -2.90203125 13.83984375 -2.8515625 13.2421875 C-2.40350595 8.56076908 -1.701979 4.42514541 0 0 Z " fill="#CDCDCD" transform="translate(25,73)"/>
<path d="M0 0 C3.96 0 7.92 0 12 0 C12 5.28 12 10.56 12 16 C9.69 16 7.38 16 5 16 C5.33 15.34 5.66 14.68 6 14 C6.22622081 12.29636178 6.40888473 10.58671299 6.5625 8.875 C6.64628906 7.96492187 6.73007813 7.05484375 6.81640625 6.1171875 C6.87699219 5.41851562 6.93757812 4.71984375 7 4 C4.69 4 2.38 4 0 4 C0 2.68 0 1.36 0 0 Z " fill="#111111" transform="translate(228,162)"/>
<path d="M0 0 C4.96916636 0.51405169 9.29026351 1.23384882 14 3 C14 3.66 14 4.32 14 5 C14.71027344 5.19335938 15.42054688 5.38671875 16.15234375 5.5859375 C17.53099609 5.97652344 17.53099609 5.97652344 18.9375 6.375 C19.85402344 6.63023438 20.77054688 6.88546875 21.71484375 7.1484375 C24 8 24 8 25 10 C25.70125 10.4125 26.4025 10.825 27.125 11.25 C30.76625016 13.46641314 33.82412481 16.17191517 37 19 C36.1433706 23.3287124 34.23790978 24.97325825 31 28 C29.72521387 29.2668682 28.4544726 30.53781763 27.1875 31.8125 C26.125 32.875 25.0625 33.9375 24 35 C23.34 34.67 22.68 34.34 22 34 C26.03523352 29.18876004 30.04467233 24.86757281 35 21 C27.90164802 13.45800102 20.93403031 9.10438447 11 6 C11 5.34 11 4.68 11 4 C7.37 3.34 3.74 2.68 0 2 C0 1.34 0 0.68 0 0 Z " fill="#C2C2C2" transform="translate(119,31)"/>
<path d="M0 0 C6.27 0 12.54 0 19 0 C17.875 7.875 17.875 7.875 15 11 C15.66 8.03 16.32 5.06 17 2 C11.72 2 6.44 2 1 2 C0.34 3.98 -0.32 5.96 -1 8 C-4.21626707 14.79420272 -9.25582911 19.29453539 -15 24 C-15.99 23.67 -16.98 23.34 -18 23 C-17.40832031 22.5875 -16.81664063 22.175 -16.20703125 21.75 C-9.84850044 17.10298238 -5.51603998 12.54811993 -3 5 C-2.34 5 -1.68 5 -1 5 C-0.67 3.35 -0.34 1.7 0 0 Z " fill="#A9A8A8" transform="translate(137,114)"/>
<path d="M0 0 C1.98 0 3.96 0 6 0 C6.32213502 5.04678194 5.58835768 8.64978627 3.8671875 13.37890625 C2.18031116 18.47752797 1.14252175 23.75736472 0 29 C-0.66 29 -1.32 29 -2 29 C-2 30.65 -2 32.3 -2 34 C-4.31 34 -6.62 34 -9 34 C-9.33 32.35 -9.66 30.7 -10 29 C-10.66 29 -11.32 29 -12 29 C-12.99 24.71 -13.98 20.42 -15 16 C-11.67695058 19.32304942 -11.08762757 21.24653845 -9.8125 25.6875 C-9.29623047 27.45673828 -9.29623047 27.45673828 -8.76953125 29.26171875 C-8.51558594 30.16535156 -8.26164062 31.06898438 -8 32 C-6.35 32.33 -4.7 32.66 -3 33 C-3.061875 32.01 -3.12375 31.02 -3.1875 30 C-3.19491327 26.3007799 -2.20325835 23.58244551 -0.80078125 20.19921875 C0.63559128 16.25444933 1.28133954 12.1259565 2 8 C2.66 8 3.32 8 4 8 C4.33 5.69 4.66 3.38 5 1 C3.35 1 1.7 1 0 1 C0 0.67 0 0.34 0 0 Z " fill="#CCCCCC" transform="translate(387,146)"/>
<path d="M0 0 C4.46913057 4.46913057 7.50579927 8.41388334 10.625 13.8125 C11.81316542 16.12294121 11.81316542 16.12294121 14 17 C15.1875 18.875 15.1875 18.875 16 21 C15.67 21.99 15.34 22.98 15 24 C12 20.25 12 20.25 12 18 C11.34 18 10.68 18 10 18 C7 13.61538462 7 13.61538462 7 11 C6.34 11 5.68 11 5 11 C4.34 9.68 3.68 8.36 3 7 C2.67 12.61 2.34 18.22 2 24 C1.34 24 0.68 24 0 24 C0 16.08 0 8.16 0 0 Z " fill="#E1E1E1" transform="translate(698,156)"/>
<path d="M0 0 C1.39035371 4.17106112 -0.09769194 7.18206859 -1.4375 11.1875 C-1.68048828 11.93708984 -1.92347656 12.68667969 -2.17382812 13.45898438 C-2.77465056 15.30857501 -3.38629678 17.15464327 -4 19 C-0.91240441 18.35932024 -0.91240441 18.35932024 -0.05078125 16.15234375 C0.19285156 15.42144531 0.43648437 14.69054687 0.6875 13.9375 C1.120625 12.638125 1.55375 11.33875 2 10 C6.29 10 10.58 10 15 10 C15.33 11.65 15.66 13.3 16 15 C15.34 15 14.68 15 14 15 C13.67 14.01 13.34 13.02 13 12 C9.7 11.67 6.4 11.34 3 11 C2.855625 12.093125 2.71125 13.18625 2.5625 14.3125 C2 18 2 18 1 21 C-1.97 21 -4.94 21 -8 21 C-6.48728707 16.28562282 -4.73227046 11.71041415 -2.875 7.125 C-2.59785156 6.43664062 -2.32070313 5.74828125 -2.03515625 5.0390625 C-1.35835767 3.35873499 -0.67940197 1.67927658 0 0 Z " fill="#A2A2A2" transform="translate(569,159)"/>
<path d="M0 0 C0.33 0 0.66 0 1 0 C1 10.23 1 20.46 1 31 C1.99 31 2.98 31 4 31 C3.98839844 30.14535156 3.97679687 29.29070312 3.96484375 28.41015625 C3.95130859 26.75306641 3.95130859 26.75306641 3.9375 25.0625 C3.92589844 23.96035156 3.91429687 22.85820312 3.90234375 21.72265625 C4 19 4 19 5 18 C6.99958364 17.95919217 9.00045254 17.95745644 11 18 C11.83848804 19.45537568 12.67063934 20.91440373 13.5 22.375 C13.9640625 23.18710938 14.428125 23.99921875 14.90625 24.8359375 C16 27 16 27 16 29 C15.34 29 14.68 29 14 29 C13.75765625 28.43410156 13.5153125 27.86820313 13.265625 27.28515625 C12.93046875 26.55167969 12.5953125 25.81820312 12.25 25.0625 C11.92515625 24.33160156 11.6003125 23.60070312 11.265625 22.84765625 C9.97377317 20.52359666 9.97377317 20.52359666 6 20 C6 23.96 6 27.92 6 32 C4.02 32 2.04 32 0 32 C0 21.44 0 10.88 0 0 Z " fill="#7B7B7B" transform="translate(611,148)"/>
<path d="M0 0 C5.75 1.75 5.75 1.75 8 4 C7.44444444 8.55555556 7.44444444 8.55555556 6 10 C3.81360547 10.07258946 1.62499611 10.08373783 -0.5625 10.0625 C-2.35880859 10.04896484 -2.35880859 10.04896484 -4.19140625 10.03515625 C-5.11824219 10.02355469 -6.04507813 10.01195312 -7 10 C-7.33 10.99 -7.66 11.98 -8 13 C-5.77144426 13.0814222 -3.54202345 13.13938079 -1.3125 13.1875 C-0.07113281 13.22230469 1.17023437 13.25710937 2.44921875 13.29296875 C6.22385906 12.98152978 7.96303354 12.17238862 11 10 C11.66 9.67 12.32 9.34 13 9 C12.73828125 10.88671875 12.73828125 10.88671875 12 13 C5.68019113 17.15816403 -1.9130042 15.99529721 -9 15 C-9 12.69 -9 10.38 -9 8 C-4.38 8 0.24 8 5 8 C5 6.68 5 5.36 5 4 C2.525 3.01 2.525 3.01 0 2 C0 1.34 0 0.68 0 0 Z " fill="#CACACA" transform="translate(831,165)"/>
<path d="M0 0 C6.97908274 3.21259364 12.68938515 8.54585502 18 14 C19.09659582 14.90508507 20.20094975 15.8008448 21.3125 16.6875 C22.199375 17.450625 23.08625 18.21375 24 19 C24 19.66 24 20.32 24 21 C24.721875 21.226875 25.44375 21.45375 26.1875 21.6875 C29.54562879 23.25462677 31.4618052 25.328216 34 28 C34.99 28.66 35.98 29.32 37 30 C37 30.66 37 31.32 37 32 C31.77015578 30.49865689 28.66253035 27.13593478 24.875 23.4375 C17.97805621 16.84490774 10.90130936 10.67249106 3.2578125 4.9453125 C1 3 1 3 0 0 Z " fill="#CCCCCC" transform="translate(656,41)"/>
<path d="M0 0 C0 0.33 0 0.66 0 1 C-4.95 1 -9.9 1 -15 1 C-15 1.66 -15 2.32 -15 3 C-16.21623047 3.22042969 -16.21623047 3.22042969 -17.45703125 3.4453125 C-28.19385414 5.62017534 -36.90878745 9.56483171 -45 17 C-45.66 16.67 -46.32 16.34 -47 16 C-36.20547945 6 -36.20547945 6 -31 6 C-31 5.34 -31 4.68 -31 4 C-20.45074289 -0.17497101 -11.18842453 -0.45205756 0 0 Z " fill="#B9B9B9" transform="translate(105,49)"/>
<path d="M0 0 C4 2 4 2 6 5 C4.35 4.34 2.7 3.68 1 3 C1 18.84 1 34.68 1 51 C-5.27 51 -11.54 51 -18 51 C-18 50.67 -18 50.34 -18 50 C-12.06 50 -6.12 50 0 50 C0 33.5 0 17 0 0 Z " fill="#A4A4A4" transform="translate(660,70)"/>
<path d="M0 0 C0.66 0.33 1.32 0.66 2 1 C0.68 3.97 -0.64 6.94 -2 10 C-2.66 10 -3.32 10 -4 10 C-4.103125 10.721875 -4.20625 11.44375 -4.3125 12.1875 C-5 15 -5 15 -8 20 C-1.4 20.33 5.2 20.66 12 21 C12.99 17.535 12.99 17.535 14 14 C14.66 14 15.32 14 16 14 C15.34099246 17.07536854 14.46132217 19.07735566 13 22 C5.41 22 -2.18 22 -10 22 C-10.33 21.34 -10.66 20.68 -11 20 C-10.16380519 18.43213474 -9.30959377 16.8723911 -8.390625 15.3515625 C-6.58773939 12.30286268 -4.92028161 9.18496103 -3.25 6.0625 C-2.63640625 4.91910156 -2.0228125 3.77570313 -1.390625 2.59765625 C-0.93171875 1.74042969 -0.4728125 0.88320312 0 0 Z " fill="#CACACA" transform="translate(322,99)"/>
<path d="M0 0 C3.14304213 2.09536142 3.61141512 2.79427783 5.125 6.0625 C7.83124804 11.71354073 10.75069769 17.23243318 13.70166016 22.75805664 C14.80773145 24.83527113 15.90408213 26.91741464 17 29 C17.39687012 29.73702148 17.79374023 30.47404297 18.20263672 31.23339844 C19.19610557 33.12478569 20.10564646 35.05977892 21 37 C20.67 37.66 20.34 38.32 20 39 C16 32.25 16 32.25 16 30 C15.34 30 14.68 30 14 30 C13.01 26.7 12.02 23.4 11 20 C10.34 20 9.68 20 9 20 C6 14.375 6 14.375 6 11 C5.34 11 4.68 11 4 11 C3.32880451 9.5437455 2.66318193 8.08492133 2 6.625 C1.62875 5.81289062 1.2575 5.00078125 0.875 4.1640625 C0 2 0 2 0 0 Z " fill="#C0C0C0" transform="translate(813,62)"/>
<path d="M0 0 C0.99 0 1.98 0 3 0 C3 10.23 3 20.46 3 31 C1.35 31 -0.3 31 -2 31 C-0.68 30.67 0.64 30.34 2 30 C1.855625 28.92363281 1.71125 27.84726563 1.5625 26.73828125 C0.4044452 17.75355127 -0.28400248 9.07230139 0 0 Z " fill="#060606" transform="translate(716,148)"/>
<path d="M0 0 C6.93604576 2.70324054 11.40890537 6.24167792 16 12 C18.63460948 12.87943404 18.63460948 12.87943404 21 13 C20.67 13.66 20.34 14.32 20 15 C15.71193127 14.52354792 13.73352513 13.34097516 11 10 C11 9.34 11 8.68 11 8 C10.4225 7.87625 9.845 7.7525 9.25 7.625 C6.97664233 6.99351176 5.0746471 6.11141809 3 5 C3 4.34 3 3.68 3 3 C-8.52023612 1.96314909 -8.52023612 1.96314909 -20 3 C-14.87356059 -1.89104168 -6.61391907 -1.15099779 0 0 Z " fill="#BFBFBF" transform="translate(267,47)"/>
<path d="M0 0 C4.455 0.99 4.455 0.99 9 2 C9.42820102 5.63970867 8.97413512 7.04569463 7.125 10.3125 C6.42375 11.199375 5.7225 12.08625 5 13 C4.34 13 3.68 13 3 13 C2.7525 13.61875 2.505 14.2375 2.25 14.875 C0.76045906 17.4072196 -0.37581048 17.80718658 -3 19 C-3.495 19.495 -3.99 19.99 -4.5 20.5 C-6.22997297 22.22997297 -7.7109145 23.14159294 -10 24 C-10.99 23.67 -11.98 23.34 -13 23 C-11.96552734 22.41605469 -11.96552734 22.41605469 -10.91015625 21.8203125 C-3.73126951 17.54646223 2.00392048 12.74779135 7 6 C7 5.34 7 4.68 7 4 C4.69 3.34 2.38 2.68 0 2 C0 1.34 0 0.68 0 0 Z " fill="#C7C7C7" transform="translate(293,94)"/>
<path d="M0 0 C0.66 0.33 1.32 0.66 2 1 C0.68 7.6 -0.64 14.2 -2 21 C-2.99 21.33 -3.98 21.66 -5 22 C-7.32655091 16.01589463 -9.42934122 10.41991126 -10 4 C-9.34 4 -8.68 4 -8 4 C-6.68 8.62 -5.36 13.24 -4 18 C-2.68 12.06 -1.36 6.12 0 0 Z " fill="#BABABA" transform="translate(385,147)"/>
<path d="M0 0 C0.33 0 0.66 0 1 0 C1 17.16 1 34.32 1 52 C-4 49 -4 49 -5 47 C-3.68 47.33 -2.36 47.66 -1 48 C-0.67 32.16 -0.34 16.32 0 0 Z " fill="#DFDFDF" transform="translate(703,31)"/>
<path d="M0 0 C0.66 0.33 1.32 0.66 2 1 C2.10824843 2.6026782 2.18570645 4.20745748 2.25 5.8125 C2.29640625 6.70582031 2.3428125 7.59914062 2.390625 8.51953125 C2 11 2 11 -0.015625 12.82421875 C-0.99789062 13.40623047 -0.99789062 13.40623047 -2 14 C-0.88204647 17.0743722 0.44985661 19.82715412 2.125 22.625 C4 26 4 26 4 29 C1.36 29 -1.28 29 -4 29 C-3.67 28.34 -3.34 27.68 -3 27 C-1.35 27.33 0.3 27.66 2 28 C1.505 27.05125 1.01 26.1025 0.5 25.125 C-1 22 -1 22 -1 20 C-1.66 20 -2.32 20 -3 20 C-3.66 18.02 -4.32 16.04 -5 14 C-4.175 13.360625 -3.35 12.72125 -2.5 12.0625 C0.83579155 7.97615535 0.4971834 5.07127064 0 0 Z " fill="#CECECE" transform="translate(803,151)"/>
<path d="M0 0 C1.98 0 3.96 0 6 0 C6.33 1.65 6.66 3.3 7 5 C6.34 4.67 5.68 4.34 5 4 C5 3.34 5 2.68 5 2 C3.35 2 1.7 2 0 2 C0.061875 2.845625 0.12375 3.69125 0.1875 4.5625 C-0.03311227 8.60705829 -1.30773459 11.34470672 -3 15 C-3.37308631 16.32276056 -3.73046415 17.65232077 -4 19 C-4.66 19 -5.32 19 -6 19 C-6.33 19.99 -6.66 20.98 -7 22 C-7.66 19.03 -8.32 16.06 -9 13 C-8.01 13.495 -8.01 13.495 -7 14 C-6.67 14.99 -6.34 15.98 -6 17 C-5.81824219 16.443125 -5.63648438 15.88625 -5.44921875 15.3125 C-3.75137815 10.15803009 -1.93577765 5.06989385 0 0 Z " fill="#C4C4C4" transform="translate(368,146)"/>
<path d="M0 0 C1.65 0 3.3 0 5 0 C3.68 0.33 2.36 0.66 1 1 C0.87625 1.928125 0.7525 2.85625 0.625 3.8125 C0 7 0 7 -2 10 C-2.66 10 -3.32 10 -4 10 C-4.08121094 10.67417969 -4.16242188 11.34835938 -4.24609375 12.04296875 C-5.22810494 15.89469141 -7.03843189 18.91807836 -9.0625 22.3125 C-9.62807617 23.28026367 -9.62807617 23.28026367 -10.20507812 24.26757812 C-11.13037493 25.84878152 -12.06432681 27.4249146 -13 29 C-13.33 28.34 -13.66 27.68 -14 27 C-12.88923745 24.45036347 -11.72026646 22.02414691 -10.4375 19.5625 C-9.89029297 18.49128906 -9.89029297 18.49128906 -9.33203125 17.3984375 C-6.32535908 11.54278576 -3.21326624 5.74493055 0 0 Z " fill="#CBCBCB" transform="translate(359,31)"/>
<path d="M0 0 C-1.42396058 4.27188173 -4.27117731 5.92081394 -7.75 8.625 C-8.37132812 9.12773437 -8.99265625 9.63046875 -9.6328125 10.1484375 C-13.01473231 12.80260241 -15.57181261 14.64506895 -20 15 C-20 15.66 -20 16.32 -20 17 C-26.625 20.125 -26.625 20.125 -30 19 C-29.26064209 18.61630249 -29.26064209 18.61630249 -28.50634766 18.22485352 C-19.4059279 13.45801754 -11.05185477 8.94439594 -3.75 1.6171875 C-2 0 -2 0 0 0 Z " fill="#C5C5C5" transform="translate(159,155)"/>
<path d="M0 0 C0.33 0.99 0.66 1.98 1 3 C-2.91795077 10.06875035 -9.82115555 17.23966441 -17.57421875 19.875 C-19.69520568 20.35446957 -21.84734882 20.6924784 -24 21 C-24 20.34 -24 19.68 -24 19 C-23.35933594 18.76925781 -22.71867187 18.53851563 -22.05859375 18.30078125 C-11.33859577 14.2588148 -6.1949229 9.69721974 0 0 Z " fill="#B8B8B8" transform="translate(513,97)"/>
<path d="M0 0 C14.52 0 29.04 0 44 0 C44 0.33 44 0.66 44 1 C42.74340576 1.00410889 41.48681152 1.00821777 40.19213867 1.01245117 C35.53449355 1.03420598 30.87769764 1.08845741 26.22045898 1.15258789 C24.20394015 1.17579985 22.18729953 1.19017109 20.1706543 1.19555664 C17.2731509 1.20482295 14.37757141 1.24576132 11.48046875 1.29296875 C10.57725388 1.2890361 9.674039 1.28510345 8.74345398 1.28105164 C6.38578672 1.33614253 4.2849765 1.41537717 2 2 C-0.17940898 4.36620351 -0.17940898 4.36620351 -1 7 C-1.33 6.01 -1.66 5.02 -2 4 C-1.34 2.68 -0.68 1.36 0 0 Z " fill="#787878" transform="translate(340,106)"/>
<path d="M0 0 C-2 2 -2 2 -3.9140625 2.390625 C-6.68136708 3.19905106 -7.58723376 4.51739051 -9.375 6.75 C-12.33547475 10.30512735 -15.35799323 13.15745813 -19 16 C-18.34 14.35 -17.68 12.7 -17 11 C-16.34 11 -15.68 11 -15 11 C-14.938125 10.21625 -14.87625 9.4325 -14.8125 8.625 C-14.544375 7.75875 -14.27625 6.8925 -14 6 C-11.5 4.875 -11.5 4.875 -9 4 C-8.67 3.01 -8.34 2.02 -8 1 C-4.68510482 -0.74468167 -3.63361056 -1.21120352 0 0 Z " fill="#575757" transform="translate(85,69)"/>
<path d="M0 0 C0.99 0.33 1.98 0.66 3 1 C3 1.66 3 2.32 3 3 C-0.96 3 -4.92 3 -9 3 C-11.81573751 8.96273825 -10.75822476 14.6677986 -10 21 C-10.66 21 -11.32 21 -12 21 C-13.6323191 16.10304271 -13.51721485 11.11008267 -13 6 C-9.50482919 0.05820962 -6.63036858 -0.23264451 0 0 Z " fill="#BBBBBB" transform="translate(321,151)"/>
<path d="M0 0 C6.43821158 1.07303526 9.53756494 3.21104531 14 8 C14.86625 8.9075 15.7325 9.815 16.625 10.75 C19.61997268 14.35908379 20.77978695 18.5358059 22 23 C19.91259879 21.05099003 18.8890384 19.76798938 17.625 17.125 C13.82662726 9.82043705 6.33749147 5.03271382 0 0 Z " fill="#CACACA" transform="translate(494,36)"/>
<path d="M0 0 C0.66 0 1.32 0 2 0 C1.71253906 0.99257812 1.42507813 1.98515625 1.12890625 3.0078125 C0.37612094 5.64090298 -0.34460552 8.27960839 -1.03515625 10.9296875 C-1.20466797 11.579375 -1.37417969 12.2290625 -1.54882812 12.8984375 C-1.8972292 14.23905305 -2.24351535 15.58021967 -2.58789062 16.921875 C-3.88970026 21.88970026 -3.88970026 21.88970026 -5 23 C-7.33297433 23.04092937 -9.66705225 23.04241723 -12 23 C-12.33 21.35 -12.66 19.7 -13 18 C-12.34 19.32 -11.68 20.64 -11 22 C-9.35 22 -7.7 22 -6 22 C-5.73445313 20.83082031 -5.46890625 19.66164062 -5.1953125 18.45703125 C-4.83875149 16.90880583 -4.48196898 15.36063141 -4.125 13.8125 C-3.95097656 13.04357422 -3.77695312 12.27464844 -3.59765625 11.48242188 C-2.67454956 7.49938746 -1.66927814 3.75211617 0 0 Z " fill="#BFBFBF" transform="translate(370,157)"/>
<path d="M0 0 C6 0 6 0 8.3125 2.25 C9.77169188 4.62794232 10.59619773 6.27433465 11 9 C10.34 9 9.68 9 9 9 C8.5875 8.030625 8.175 7.06125 7.75 6.0625 C6.88375 4.5465625 6.88375 4.5465625 6 3 C4.68 2.67 3.36 2.34 2 2 C2 5.96 2 9.92 2 14 C1.34 14 0.68 14 0 14 C0 9.38 0 4.76 0 0 Z " fill="#B1B0B0" transform="translate(266,166)"/>
<path d="M0 0 C4.17826127 3.83948333 7.62257328 7.39365076 8.23706055 13.26513672 C8.29446391 15.80843162 8.26217457 18.33223514 8.1875 20.875 C8.17396484 21.75414063 8.16042969 22.63328125 8.14648438 23.5390625 C8.11136623 25.69297552 8.05756694 27.84657004 8 30 C7.34 30 6.68 30 6 30 C6 23.4 6 16.8 6 10 C5.34 10 4.68 10 4 10 C3.32845067 8.71086513 2.66291141 7.41859796 2 6.125 C1.62875 5.40570313 1.2575 4.68640625 0.875 3.9453125 C0 2 0 2 0 0 Z " fill="#999899" transform="translate(491,55)"/>
<path d="M0 0 C1.13050781 -0.01417969 2.26101562 -0.02835937 3.42578125 -0.04296875 C6.61954843 0.18269863 8.8151429 0.82407346 11.6875 2.1875 C11.6875 2.8475 11.6875 3.5075 11.6875 4.1875 C10.016875 3.6615625 10.016875 3.6615625 8.3125 3.125 C2.33615279 1.63887458 -3.56407159 1.93278268 -9.1875 4.5 C-11.40473501 6.26074545 -13.38365884 8.11578172 -15.3125 10.1875 C-15.0541116 6.69925659 -14.04783264 5.94535753 -11.375 3.5 C-7.14564105 0.30640243 -5.25913914 0.02977995 0 0 Z " fill="#D9D9D9" transform="translate(98.3125,86.8125)"/>
<path d="M0 0 C2 1 2 1 3.3125 3.25 C4.94335577 6.14710378 4.94335577 6.14710378 7.625 8.625 C10 11 10 11 11 14 C13.32891096 15.02700444 13.32891096 15.02700444 16.0625 15.6875 C16.98160156 15.93886719 17.90070313 16.19023438 18.84765625 16.44921875 C19.55792969 16.63097656 20.26820313 16.81273438 21 17 C21 17.66 21 18.32 21 19 C12.39854737 18.18081403 8.19617389 13.40533331 2.63671875 7.31640625 C0.87051441 4.81674235 0.36642294 3.01104067 0 0 Z " fill="#D0D0D0" transform="translate(231,85)"/>
<path d="M0 0 C1.423125 -0.061875 2.84625 -0.12375 4.3125 -0.1875 C5.51326172 -0.23970703 5.51326172 -0.23970703 6.73828125 -0.29296875 C9 0 9 0 10.8046875 1.28515625 C12 3 12 3 11.8125 6.625 C11.544375 7.73875 11.27625 8.8525 11 10 C7.57067929 11.71466036 3.78283935 11.05404056 0 11 C0 7.37 0 3.74 0 0 Z M1 1 C1 3.97 1 6.94 1 10 C5.1460881 10.34778172 5.1460881 10.34778172 8.875 8.8125 C10.34781139 6.43963721 10.22223194 4.74086056 10 2 C7.04335481 0.5216774 4.25770263 0.93967217 1 1 Z " fill="#AFAFAF" transform="translate(530,152)"/>
<path d="M0 0 C3.32304942 3.32304942 3.91237243 5.24653845 5.1875 9.6875 C5.53167969 10.86699219 5.87585938 12.04648438 6.23046875 13.26171875 C6.48441406 14.16535156 6.73835938 15.06898438 7 16 C8.65 16.33 10.3 16.66 12 17 C12 14.69 12 12.38 12 10 C12.66 9.67 13.32 9.34 14 9 C13.67 11.97 13.34 14.94 13 18 C10.69 18 8.38 18 6 18 C5.67 16.35 5.34 14.7 5 13 C4.34 13 3.68 13 3 13 C2.01 8.71 1.02 4.42 0 0 Z " fill="#B2B2B2" transform="translate(372,162)"/>
<path d="M0 0 C3.27078876 0.5639291 4.86371562 1.45680431 7 4 C8.27286015 6.5457203 8.03245039 8.11134497 7.8125 10.9375 C7.72935547 12.25041016 7.72935547 12.25041016 7.64453125 13.58984375 C6.82712841 16.64643498 5.59527814 17.31180936 3 19 C2.67 19.66 2.34 20.32 2 21 C1.34 20.01 0.68 19.02 0 18 C0.825 17.38125 1.65 16.7625 2.5 16.125 C4.49013007 14.19092993 4.96918044 13.23749193 5.33203125 10.44140625 C5.31432259 7.9444847 5.21731991 5.48710565 5 3 C2.525 2.01 2.525 2.01 0 1 C0 0.67 0 0.34 0 0 Z " fill="#D3D3D3" transform="translate(626,147)"/>
<path d="M0 0 C0.66 0.33 1.32 0.66 2 1 C1.56429687 1.38929687 1.12859375 1.77859375 0.6796875 2.1796875 C-5.42210819 7.91167739 -9.34006155 14.52547781 -13 22 C-14 19 -14 19 -12.8125 16.1875 C-5.04109589 2.52054795 -5.04109589 2.52054795 0 0 Z " fill="#D5D5D5" transform="translate(225,41)"/>
<path d="M0 0 C0.33 0.66 0.66 1.32 1 2 C0.67 2.99 0.34 3.98 0 5 C-0.08021999 6.40824893 -0.10765977 7.81997231 -0.09765625 9.23046875 C-0.09443359 10.03291016 -0.09121094 10.83535156 -0.08789062 11.66210938 C-0.07951172 12.49548828 -0.07113281 13.32886719 -0.0625 14.1875 C-0.05798828 15.03248047 -0.05347656 15.87746094 -0.04882812 16.74804688 C-0.03705403 18.83206155 -0.0191189 20.91603977 0 23 C-0.66 23 -1.32 23 -2 23 C-3.65639619 18.1282465 -4.12302922 15.00258473 -3 10 C-2.84593598 8.58420479 -2.70041497 7.16745944 -2.5625 5.75 C-2 2 -2 2 0 0 Z " fill="#9F9F9F" transform="translate(212,62)"/>
<path d="M0 0 C3.3 0 6.6 0 10 0 C11.39431504 2.78863007 11.25660094 4.92078868 11 8 C7.91111478 10.05925681 7.29064073 10.2390374 3.8125 10.125 C1.9253125 10.063125 1.9253125 10.063125 0 10 C0 6.7 0 3.4 0 0 Z M1 1 C1 3.64 1 6.28 1 9 C3.31 9 5.62 9 8 9 C9.19838209 6.67145537 9.19838209 6.67145537 10 4 C9.34 3.01 8.68 2.02 8 1 C4.41642759 0.74984127 4.41642759 0.74984127 1 1 Z " fill="#D5D5D5" transform="translate(616,152)"/>
<path d="M0 0 C1 3 1 3 -0.1875 5.5625 C-2.53599762 8.72082439 -4.51936925 9.71902222 -8.3671875 10.44921875 C-13.12061462 10.90086837 -17.29631745 11.11403008 -22 10 C-22 9.67 -22 9.34 -22 9 C-20.46279297 8.97873047 -20.46279297 8.97873047 -18.89453125 8.95703125 C-17.53381029 8.91010984 -16.17313459 8.86186256 -14.8125 8.8125 C-14.13896484 8.80669922 -13.46542969 8.80089844 -12.77148438 8.79492188 C-8.90221433 8.62505148 -7.15278388 8.12610402 -4.13671875 5.63671875 C-1.93541678 3.00376217 -1.93541678 3.00376217 0 0 Z " fill="#BBBBBB" transform="translate(332,170)"/>
<path d="M0 0 C0.66 0 1.32 0 2 0 C1.52269162 1.4589426 1.04308958 2.91713496 0.5625 4.375 C0.29566406 5.18710938 0.02882813 5.99921875 -0.24609375 6.8359375 C-1 9 -1 9 -2 11 C-2.66 11 -3.32 11 -4 11 C-4.4640625 12.670625 -4.4640625 12.670625 -4.9375 14.375 C-6 18 -6 18 -7 20 C-7.66 20 -8.32 20 -9 20 C-7.99806563 16.20696275 -7.18975773 13.28463659 -5 10 C-4.34 10 -3.68 10 -3 10 C-2.814375 8.9171875 -2.814375 8.9171875 -2.625 7.8125 C-2.0095069 5.04278106 -1.11555626 2.6029646 0 0 Z " fill="#BDBDBD" transform="translate(333,78)"/>
<path d="M0 0 C4.29 0.66 8.58 1.32 13 2 C12.67 2.99 12.34 3.98 12 5 C3.42857143 5.14285714 3.42857143 5.14285714 0 4 C0 2.68 0 1.36 0 0 Z " fill="#050505" transform="translate(823,174)"/>
<path d="M0 0 C0.99 0.66 1.98 1.32 3 2 C2.52219508 6.30024427 0.06572482 8.13421376 -3 11 C-4.27478613 12.2668682 -5.5455274 13.53781763 -6.8125 14.8125 C-7.875 15.875 -8.9375 16.9375 -10 18 C-10.66 17.67 -11.32 17.34 -12 17 C-7.96476648 12.18876004 -3.95532767 7.86757281 1 4 C0.67 2.68 0.34 1.36 0 0 Z " fill="#E2E2E2" transform="translate(153,48)"/>
<path d="M0 0 C5.94 1.485 5.94 1.485 12 3 C12 3.66 12 4.32 12 5 C13.4540625 5.4021875 13.4540625 5.4021875 14.9375 5.8125 C15.948125 6.204375 16.95875 6.59625 18 7 C18.33 7.99 18.66 8.98 19 10 C15.91332801 8.842498 12.98999542 7.50589016 10.0625 6 C6.7863189 4.33393447 3.52847101 3.0585413 0 2 C0 1.34 0 0.68 0 0 Z " fill="#C1C1C1" transform="translate(272,31)"/>
<path d="M0 0 C2.5 -0.4375 2.5 -0.4375 6 0 C8.27039534 1.63972996 10.24556713 3.43324754 12.265625 5.37109375 C13.91695815 7.07778631 13.91695815 7.07778631 16 8 C16 8.66 16 9.32 16 10 C11.6687053 8.72608979 9.43276951 6.63158651 6.52734375 3.33984375 C4.73183328 1.764754 3.32751084 1.40543737 1 1 C1 3.31 1 5.62 1 8 C0.67 8 0.34 8 0 8 C0 5.36 0 2.72 0 0 Z " fill="#CFCFCF" transform="translate(640,31)"/>
<path d="M0 0 C0.33 0.99 0.66 1.98 1 3 C-3.59165782 6.520271 -8.36127375 7.03597274 -14 7 C-17.625 6.0625 -17.625 6.0625 -20 5 C-16.89804352 4.06869667 -14.2869308 3.97595081 -11.0625 4.125 C-6.85344535 4.18087241 -4.37284089 3.72003297 -1 1 C-0.67 0.67 -0.34 0.34 0 0 Z " fill="#9A9A9A" transform="translate(843,174)"/>
<path d="M0 0 C0.99 0 1.98 0 3 0 C3.66 3.3 4.32 6.6 5 10 C2.69 10 0.38 10 -2 10 C-1.34 6.7 -0.68 3.4 0 0 Z M1 3 C0.67 4.98 0.34 6.96 0 9 C1.32 9 2.64 9 4 9 C3.34 7.02 2.68 5.04 2 3 C1.67 3 1.34 3 1 3 Z " fill="#C1C1C1" transform="translate(576,155)"/>
<path d="M0 0 C0.66 0 1.32 0 2 0 C1.34099246 3.07536854 0.46132217 5.07735566 -1 8 C-8.26 8 -15.52 8 -23 8 C-23 7.67 -23 7.34 -23 7 C-16.07 7 -9.14 7 -2 7 C-1.34 4.69 -0.68 2.38 0 0 Z " fill="#B3B3B3" transform="translate(336,113)"/>
<path d="M0 0 C3.82709696 1.60665863 6.4721292 4.07172401 9.5 6.875 C10.4384375 7.73867187 11.376875 8.60234375 12.34375 9.4921875 C14.60314005 11.62531752 16.81852983 13.78765997 19 16 C14.80165873 14.60305639 12.16409471 12.62717931 8.9375 9.625 C7.68259766 8.46871094 7.68259766 8.46871094 6.40234375 7.2890625 C1.9718907 3.06752513 1.9718907 3.06752513 0 1 C0 0.67 0 0.34 0 0 Z " fill="#DADADA" transform="translate(691,96)"/>
<path d="M0 0 C2.99324263 1.0975223 3.84610901 1.67682892 5.25 4.625 C5.4975 5.40875 5.745 6.1925 6 7 C6.66 7 7.32 7 8 7 C8 10.96 8 14.92 8 19 C7.34 19 6.68 19 6 19 C6.1546875 17.2984375 6.1546875 17.2984375 6.3125 15.5625 C6.35099804 10.16315022 3.81049746 6.44150747 1 2 C0.67 1.34 0.34 0.68 0 0 Z " fill="#B9B9B9" transform="translate(110,91)"/>
<path d="M0 0 C4.96916636 0.51405169 9.29026351 1.23384882 14 3 C14 3.66 14 4.32 14 5 C14.99 5.33 15.98 5.66 17 6 C14 7 14 7 11 6 C11 5.34 11 4.68 11 4 C7.37 3.34 3.74 2.68 0 2 C0 1.34 0 0.68 0 0 Z " fill="#A1A0A0" transform="translate(119,31)"/>
<path d="M0 0 C0.66 0.33 1.32 0.66 2 1 C1.360625 1.86625 0.72125 2.7325 0.0625 3.625 C-1.97548296 6.9598812 -2.63433093 9.16047478 -3 13 C-2.34 13 -1.68 13 -1 13 C-0.67 14.65 -0.34 16.3 0 18 C-0.66 17.67 -1.32 17.34 -2 17 C-2 16.34 -2 15.68 -2 15 C-2.66 15 -3.32 15 -4 15 C-4.63019694 4.84682713 -4.63019694 4.84682713 -2 1.3125 C-1.34 0.879375 -0.68 0.44625 0 0 Z " fill="#B2B2B2" transform="translate(221,154)"/>
<path d="M0 0 C3.54581059 1.8662161 5.6710856 3.1340672 7 7 C7 7.99 7 8.98 7 10 C7.66 10 8.32 10 9 10 C9.33 11.98 9.66 13.96 10 16 C7.09106923 14.54553462 6.40221655 12.3992863 4.875 9.5625 C4.33617187 8.57378906 3.79734375 7.58507812 3.2421875 6.56640625 C2 4 2 4 2 2 C1.34 2 0.68 2 0 2 C0 1.34 0 0.68 0 0 Z " fill="#C2C1C1" transform="translate(128,78)"/>
<path d="M0 0 C5.94155844 5.74350649 5.94155844 5.74350649 6.125 9.6875 C6.08375 10.450625 6.0425 11.21375 6 12 C3.69 12 1.38 12 -1 12 C-1.33 11.01 -1.66 10.02 -2 9 C-1.34 9 -0.68 9 0 9 C0 9.66 0 10.32 0 11 C1.32 11 2.64 11 4 11 C3.71125 10.37351563 3.4225 9.74703125 3.125 9.1015625 C2.75375 8.28429687 2.3825 7.46703125 2 6.625 C1.443125 5.40683594 1.443125 5.40683594 0.875 4.1640625 C0 2 0 2 0 0 Z " fill="#BFBFBF" transform="translate(629,168)"/>
<path d="M0 0 C2.19050021 0.09017996 4.378466 0.24666208 6.5625 0.4375 C7.76003906 0.53933594 8.95757813 0.64117187 10.19140625 0.74609375 C11.11824219 0.82988281 12.04507813 0.91367188 13 1 C13 1.66 13 2.32 13 3 C8.38 3 3.76 3 -1 3 C-1.33 3.99 -1.66 4.98 -2 6 C-1.125 1.125 -1.125 1.125 0 0 Z " fill="#AEAEAE" transform="translate(830,151)"/>
<path d="M0 0 C3.84740968 0.56419612 6.41398441 1.63320248 9.625 3.8125 C10.38039062 4.31394531 11.13578125 4.81539062 11.9140625 5.33203125 C14.04381516 7.03503572 15.47057487 8.75457012 17 11 C14.1641159 10.0547053 12.28476275 9.29458216 10.1875 7.125 C7.19464365 4.21765384 3.76689327 2.71887363 0 1 C0 0.67 0 0.34 0 0 Z " fill="#D3D3D3" transform="translate(123,55)"/>
<path d="M0 0 C0 0.66 0 1.32 0 2 C-0.88171875 2.37125 -0.88171875 2.37125 -1.78125 2.75 C-4.3262446 4.18379977 -5.66914225 5.73639406 -7.5 8 C-9.80257939 10.84682543 -11.60645694 12.57113976 -15 14 C-14.60167969 13.55269531 -14.20335937 13.10539062 -13.79296875 12.64453125 C-11.38979491 9.90222339 -9.20513052 7.35503359 -7.375 4.1875 C-5.48957635 1.18796238 -3.55266538 0 0 0 Z " fill="#696969" transform="translate(234,36)"/>
<path d="M0 0 C-2.66455198 2.66455198 -8.41462474 2.66238509 -12 3 C-14.88880476 2.63552463 -17.22490494 1.94248512 -20 1 C-20 0.67 -20 0.34 -20 0 C-17.41703983 -0.19522373 -14.83395921 -0.38144403 -12.25 -0.5625 C-11.52039063 -0.61857422 -10.79078125 -0.67464844 -10.0390625 -0.73242188 C-6.45046349 -0.97709908 -3.44972775 -0.99666259 0 0 Z " fill="#A3A3A3" transform="translate(240,179)"/>
<path d="M0 0 C5.90693899 0.30291995 10.65233838 3.11608895 15 7 C15 7.99 15 8.98 15 10 C14.41992188 9.60167969 13.83984375 9.20335938 13.2421875 8.79296875 C8.9360712 5.87248393 4.725837 3.18115554 0 1 C0 0.67 0 0.34 0 0 Z " fill="#CDCDCD" transform="translate(112,68)"/>
<path d="M0 0 C0.66 0 1.32 0 2 0 C1.52269162 1.4589426 1.04308958 2.91713496 0.5625 4.375 C0.29566406 5.18710938 0.02882813 5.99921875 -0.24609375 6.8359375 C-1 9 -1 9 -2 11 C-2.66 11 -3.32 11 -4 11 C-4.66 12.65 -5.32 14.3 -6 16 C-6.33 15.34 -6.66 14.68 -7 14 C-6.0625 11.375 -6.0625 11.375 -5 9 C-4.34 9 -3.68 9 -3 9 C-2.01 6.03 -1.02 3.06 0 0 Z " fill="#C7C7C7" transform="translate(755,97)"/>
<path d="M0 0 C0.33 0.66 0.66 1.32 1 2 C0.34 2 -0.32 2 -1 2 C-1.268125 2.721875 -1.53625 3.44375 -1.8125 4.1875 C-2.99298938 6.98339591 -4.41165654 9.41894188 -6 12 C-6.68096422 13.32608822 -7.35330586 14.65686601 -8 16 C-9 13 -9 13 -7.8125 10.1875 C-2.82191781 1.4109589 -2.82191781 1.4109589 0 0 Z " fill="#D1D1D1" transform="translate(69,78)"/>
<path d="M0 0 C0.33 0 0.66 0 1 0 C1 5.94 1 11.88 1 18 C-4 15 -4 15 -5 13 C-3.68 13.33 -2.36 13.66 -1 14 C-0.67 9.38 -0.34 4.76 0 0 Z " fill="#D2D2D2" transform="translate(703,65)"/>
<path d="M0 0 C0 0.66 0 1.32 0 2 C-1.828125 3.3671875 -1.828125 3.3671875 -4.25 4.875 C-7.54771181 6.99384476 -10.38402455 9.04281036 -13 12 C-11.60991124 6.74855359 -8.1957125 4.12699328 -4 1 C-2 0 -2 0 0 0 Z " fill="#D3D3D3" transform="translate(247,50)"/>
<path d="M0 0 C3 1 3 1 4.60546875 3.94140625 C5.12753906 5.13636719 5.64960937 6.33132812 6.1875 7.5625 C6.71730469 8.76003906 7.24710938 9.95757812 7.79296875 11.19140625 C8.19128906 12.11824219 8.58960938 13.04507813 9 14 C5.06360824 12.68786941 4.71346403 11.17198478 2.8125 7.5625 C2.01779297 6.07943359 2.01779297 6.07943359 1.20703125 4.56640625 C0 2 0 2 0 0 Z " fill="#CACACA" transform="translate(815,107)"/>
<path d="M0 0 C1 1 2 2 3 3 C3.7734375 3.7115625 3.7734375 3.7115625 4.5625 4.4375 C6.1947199 6.21165206 7.15318854 7.7418361 8 10 C7.67 10.99 7.34 11.98 7 13 C4 9.25 4 9.25 4 7 C3.34 7 2.68 7 2 7 C0.5393715 4.35261084 0 3.10551666 0 0 Z " fill="#B2B2B2" transform="translate(706,167)"/>
<path d="M0 0 C4.16368546 1.60141749 7.33094371 4.47982049 10 8 C10.875 11.375 10.875 11.375 11 14 C10.484375 13.34 9.96875 12.68 9.4375 12 C6.84274087 8.8064503 4.13386893 5.73785351 1.390625 2.671875 C0 1 0 1 0 0 Z " fill="#C4C4C4" transform="translate(291,41)"/>
<path d="M0 0 C0.66 0 1.32 0 2 0 C2.99 2.97 3.98 5.94 5 9 C4.34 9 3.68 9 3 9 C2.34 7.35 1.68 5.7 1 4 C0.67 4.66 0.34 5.32 0 6 C-0.66 6 -1.32 6 -2 6 C-1.125 1.125 -1.125 1.125 0 0 Z " fill="#BDBDBD" transform="translate(794,67)"/>
<path d="M0 0 C2.58361518 -0.05407567 5.16609255 -0.093707 7.75 -0.125 C8.84441406 -0.15013672 8.84441406 -0.15013672 9.9609375 -0.17578125 C13.8044624 -0.21072239 16.74606772 -0.17499684 20 2 C20 2.66 20 3.32 20 4 C19.33613281 3.68289062 18.67226563 3.36578125 17.98828125 3.0390625 C14.39075657 1.78815849 10.9560199 1.54809948 7.1875 1.375 C6.49462891 1.33632812 5.80175781 1.29765625 5.08789062 1.2578125 C3.39232985 1.16426432 1.69620288 1.08107636 0 1 C0 0.67 0 0.34 0 0 Z " fill="#A5A5A5" transform="translate(526,147)"/>
<path d="M0 0 C0.66 0.33 1.32 0.66 2 1 C0.89902432 2.12812303 -0.20591556 3.25237811 -1.3125 4.375 C-1.92738281 5.00148437 -2.54226562 5.62796875 -3.17578125 6.2734375 C-5 8 -5 8 -8 10 C-8.99 9.67 -9.98 9.34 -11 9 C-10.37351562 8.51789063 -9.74703125 8.03578125 -9.1015625 7.5390625 C-7.87566406 6.59160156 -7.87566406 6.59160156 -6.625 5.625 C-5.81289062 4.99851563 -5.00078125 4.37203125 -4.1640625 3.7265625 C-1.95776805 2.03226506 -1.95776805 2.03226506 0 0 Z " fill="#D5D4D4" transform="translate(130,128)"/>
<path d="M0 0 C0.33 0.99 0.66 1.98 1 3 C-0.36328125 5.2265625 -0.36328125 5.2265625 -2.3125 7.625 C-2.94800781 8.42164062 -3.58351563 9.21828125 -4.23828125 10.0390625 C-6 12 -6 12 -8 13 C-6.62408154 8.9869045 -4.72281449 6.2333422 -2 3 C-1.34 2.01 -0.68 1.02 0 0 Z " fill="#D3D3D3" transform="translate(513,97)"/>
<path d="M0 0 C1 3 1 3 -0.1875 5.9375 C-1.89368313 8.82036115 -3.4427135 10.85517906 -6 13 C-6.66 13 -7.32 13 -8 13 C-7 10 -7 10 -5.125 8.1875 C-2.69059284 5.68149263 -1.43809163 3.16380159 0 0 Z " fill="#DDDDDD" transform="translate(496,86)"/>
<path d="M0 0 C0.99 0.33 1.98 0.66 3 1 C4.1875 4.5625 4.1875 4.5625 5 8 C4.34 8 3.68 8 3 8 C2.34 6.68 1.68 5.36 1 4 C0.67 4.99 0.34 5.98 0 7 C-0.66 7 -1.32 7 -2 7 C-1.34 4.69 -0.68 2.38 0 0 Z " fill="#C6C6C6" transform="translate(361,67)"/>
<path d="M0 0 C1.65 0 3.3 0 5 0 C4.01 0.495 4.01 0.495 3 1 C3 1.66 3 2.32 3 3 C-0.3 3.66 -3.6 4.32 -7 5 C-7 4.34 -7 3.68 -7 3 C-3.535 2.505 -3.535 2.505 0 2 C0 1.34 0 0.68 0 0 Z " fill="#B6B6B6" transform="translate(114,138)"/>
<path d="M0 0 C0.66 0 1.32 0 2 0 C1.1875 2.9375 1.1875 2.9375 0 6 C-0.99 6.33 -1.98 6.66 -3 7 C-3.33 7.99 -3.66 8.98 -4 10 C-4.66 10 -5.32 10 -6 10 C-4.34643078 6.41726669 -2.32019297 3.19026533 0 0 Z " fill="#C0C0C0" transform="translate(164,145)"/>
<path d="M0 0 C3.3566285 2.23775234 3.57996014 2.93320048 4.6875 6.625 C4.93886719 7.44226563 5.19023437 8.25953125 5.44921875 9.1015625 C5.72185547 10.04128906 5.72185547 10.04128906 6 11 C5.34 11 4.68 11 4 11 C3.32880451 9.5437455 2.66318193 8.08492133 2 6.625 C1.62875 5.81289062 1.2575 5.00078125 0.875 4.1640625 C0 2 0 2 0 0 Z " fill="#C2C2C2" transform="translate(390,79)"/>
<path d="M0 0 C1.65 0 3.3 0 5 0 C3.68 0.33 2.36 0.66 1 1 C0.896875 1.928125 0.79375 2.85625 0.6875 3.8125 C-0.0070192 7.03254358 -0.47740939 8.02579865 -3 10 C-2.49287967 6.28111761 -1.88391785 3.26545761 0 0 Z " fill="#B6B6B6" transform="translate(359,31)"/>
<path d="M0 0 C0.66 0 1.32 0 2 0 C1.49701212 4.40114397 -0.08772731 6.71195019 -3 10 C-3 8.35 -3 6.7 -3 5 C-2.34 5 -1.68 5 -1 5 C-0.67 3.35 -0.34 1.7 0 0 Z " fill="#B8B8B8" transform="translate(789,75)"/>
<path d="M0 0 C3.53586014 3.17320782 5.58578031 5.16743695 6 10 C5.34 10 4.68 10 4 10 C3.32845067 8.71086513 2.66291141 7.41859796 2 6.125 C1.62875 5.40570313 1.2575 4.68640625 0.875 3.9453125 C0 2 0 2 0 0 Z " fill="#D5D4D4" transform="translate(491,55)"/>
<path d="M0 0 C0.33 0.99 0.66 1.98 1 3 C-0.98 4.98 -2.96 6.96 -5 9 C-5.66 8.67 -6.32 8.34 -7 8 C-4.69 5.36 -2.38 2.72 0 0 Z " fill="#CDCDCD" transform="translate(148,57)"/>
<path d="M0 0 C3.16115776 1.36983503 3.9927092 1.9890638 6 5 C3.525 4.01 3.525 4.01 1 3 C1 4.65 1 6.3 1 8 C0.67 8 0.34 8 0 8 C0 5.36 0 2.72 0 0 Z " fill="#BEBEBE" transform="translate(660,70)"/>
<path d="M0 0 C-2.6855594 2.6855594 -5.37621328 3.06049974 -9 4 C-8 1 -8 1 -5.625 -0.25 C-3 -1 -3 -1 0 0 Z " fill="#CECECE" transform="translate(85,69)"/>
<path d="M0 0 C2.31 0.66 4.62 1.32 7 2 C7.33 3.32 7.66 4.64 8 6 C5.36 4.68 2.72 3.36 0 2 C0 1.34 0 0.68 0 0 Z " fill="#BBBBBB" transform="translate(836,161)"/>
<path d="M0 0 C-1.11666174 3.34998521 -1.74694925 3.79340222 -4.5625 5.6875 C-5.20316406 6.12449219 -5.84382812 6.56148437 -6.50390625 7.01171875 C-6.99761719 7.33785156 -7.49132812 7.66398438 -8 8 C-6.48291727 4.46014029 -4.24676932 0 0 0 Z " fill="#E3E3E3" transform="translate(159,155)"/>
</svg>
