<?xml version="1.0" encoding="UTF-8"?>
<svg version="1.1" xmlns="http://www.w3.org/2000/svg" width="866" height="209">
<path d="M0 0 C2.31 0 4.62 0 7 0 C7 0.66 7 1.32 7 2 C7.66 2 8.32 2 9 2 C9 2.66 9 3.32 9 4 C9.66 4 10.32 4 11 4 C11 4.66 11 5.32 11 6 C11.66 6 12.32 6 13 6 C13 6.66 13 7.32 13 8 C13.66 8 14.32 8 15 8 C15 8.66 15 9.32 15 10 C15.66 10 16.32 10 17 10 C17 10.66 17 11.32 17 12 C17.66 12 18.32 12 19 12 C19 12.66 19 13.32 19 14 C19.66 14 20.32 14 21 14 C21 14.66 21 15.32 21 16 C21.66 16 22.32 16 23 16 C23 16.66 23 17.32 23 18 C23.66 18 24.32 18 25 18 C25 18.66 25 19.32 25 20 C25.66 20 26.32 20 27 20 C27 20.66 27 21.32 27 22 C27.66 22 28.32 22 29 22 C31 25 31 25 31 28 C31.66 28 32.32 28 33 28 C33 28.66 33 29.32 33 30 C33.66 30 34.32 30 35 30 C35 30.66 35 31.32 35 32 C35.66 32 36.32 32 37 32 C37 32.66 37 33.32 37 34 C37.66 34 38.32 34 39 34 C39 34.66 39 35.32 39 36 C39.66 36 40.32 36 41 36 C41 36.66 41 37.32 41 38 C41.66 38 42.32 38 43 38 C43 38.99 43 39.98 43 41 C43.66 41 44.32 41 45 41 C45 41.66 45 42.32 45 43 C45.66 43 46.32 43 47 43 C47 43.66 47 44.32 47 45 C47.66 45 48.32 45 49 45 C49 45.66 49 46.32 49 47 C49.66 47 50.32 47 51 47 C52.5078125 48.6796875 52.5078125 48.6796875 54.125 50.875 C54.66382813 51.59429687 55.20265625 52.31359375 55.7578125 53.0546875 C57 55 57 55 57 57 C57.66 57 58.32 57 59 57 C58.99555878 56.38914047 58.99111755 55.77828094 58.98654175 55.14891052 C58.94218874 48.77336981 58.9120839 42.39787317 58.89013672 36.0222168 C58.88009842 33.64492003 58.86646496 31.26763555 58.84912109 28.89038086 C58.82477759 25.46725424 58.81349495 22.04429134 58.8046875 18.62109375 C58.79436493 17.56353378 58.78404236 16.50597382 58.77340698 15.41636658 C58.77256973 9.87108615 59.13521705 5.23623309 61 0 C65.62 0 70.24 0 75 0 C75.04629386 11.16117756 75.08185419 22.32233237 75.10362434 33.48358631 C75.11407171 38.66593117 75.1282483 43.84821046 75.15087891 49.03051758 C75.1725733 54.02959019 75.18456145 59.02859964 75.18975449 64.02771568 C75.19345637 65.93714073 75.200685 67.84656223 75.21146011 69.75596046 C75.22592979 72.42568114 75.22797984 75.09513915 75.22705078 77.76489258 C75.23424133 78.55827026 75.24143188 79.35164795 75.24884033 80.16906738 C75.23441687 83.98692567 75.1703966 85.7444051 73 89 C71.0546875 89.29296875 71.0546875 89.29296875 68.875 89.1875 C67.59625 89.125625 66.3175 89.06375 65 89 C65 88.34 65 87.68 65 87 C64.34 87 63.68 87 63 87 C63 86.34 63 85.68 63 85 C61.9171875 84.690625 61.9171875 84.690625 60.8125 84.375 C57.02781616 82.52471012 55.47741347 80.39759562 53 77 C53 76.34 53 75.68 53 75 C52.34 75 51.68 75 51 75 C51 74.34 51 73.68 51 73 C50.34 73 49.68 73 49 73 C49 72.34 49 71.68 49 71 C48.34 71 47.68 71 47 71 C47 70.34 47 69.68 47 69 C46.34 69 45.68 69 45 69 C45 68.34 45 67.68 45 67 C44.34 67 43.68 67 43 67 C43 66.34 43 65.68 43 65 C42.34 65 41.68 65 41 65 C41 64.34 41 63.68 41 63 C40.34 63 39.68 63 39 63 C37 60 37 60 37 57 C36.34 57 35.68 57 35 57 C35 56.34 35 55.68 35 55 C34.34 55 33.68 55 33 55 C33 54.34 33 53.68 33 53 C32.34 53 31.68 53 31 53 C31 52.34 31 51.68 31 51 C30.34 51 29.68 51 29 51 C29 50.34 29 49.68 29 49 C28.34 49 27.68 49 27 49 C25 46 25 46 25 43 C24.34 43 23.68 43 23 43 C23 42.34 23 41.68 23 41 C22.34 41 21.68 41 21 41 C21 40.34 21 39.68 21 39 C20.34 39 19.68 39 19 39 C19 38.34 19 37.68 19 37 C18.34 37 17.68 37 17 37 C17 36.34 17 35.68 17 35 C16.34 35 15.68 35 15 35 C14.67 34.34 14.34 33.68 14 33 C13.99191315 33.62782883 13.98382629 34.25565765 13.97549438 34.9025116 C13.889401 41.44017711 13.789895 47.97754108 13.68261719 54.51489258 C13.64434698 56.95429417 13.6094907 59.39375182 13.578125 61.83325195 C13.53243255 65.34086127 13.47444395 68.84808534 13.4140625 72.35546875 C13.39673569 73.99010323 13.39673569 73.99010323 13.37905884 75.65776062 C13.35918915 76.67844131 13.33931946 77.69912201 13.31884766 78.75073242 C13.30552399 79.64563889 13.29220032 80.54054535 13.2784729 81.46257019 C13 84 13 84 11 89 C6.71 89 2.42 89 -2 89 C-2 60.29 -2 31.58 -2 2 C-1.34 2 -0.68 2 0 2 C0 1.34 0 0.68 0 0 Z " fill="#FEFEFE" transform="translate(509,59)"/>
<path d="M0 0 C14.19 0 28.38 0 43 0 C43 0.66 43 1.32 43 2 C47.62 2 52.24 2 57 2 C57 2.66 57 3.32 57 4 C58.32 4 59.64 4 61 4 C61 4.66 61 5.32 61 6 C61.928125 6.2165625 61.928125 6.2165625 62.875 6.4375 C66.26313119 7.33435826 66.92891689 7.90403781 69.109375 10.84765625 C71.85922929 15.83846322 71.43791588 20.8831403 71.25 26.4375 C71.23195313 27.45521484 71.21390625 28.47292969 71.1953125 29.52148438 C71.14847997 32.01531655 71.08291427 34.50715047 71 37 C70.34 37 69.68 37 69 37 C69 38.32 69 39.64 69 41 C68.34 41 67.68 41 67 41 C67 41.66 67 42.32 67 43 C66.34 43 65.68 43 65 43 C65 43.66 65 44.32 65 45 C64.34 45 63.68 45 63 45 C63 45.66 63 46.32 63 47 C62.34 47 61.68 47 61 47 C61 47.66 61 48.32 61 49 C59.68 49 58.36 49 57 49 C57 49.66 57 50.32 57 51 C56.01 51.495 56.01 51.495 55 52 C55 52.99 55 53.98 55 55 C55.66 55 56.32 55 57 55 C59 58 59 58 59 61 C59.66 61 60.32 61 61 61 C61 61.66 61 62.32 61 63 C61.66 63 62.32 63 63 63 C65 66 65 66 65 69 C65.66 69 66.32 69 67 69 C67 69.66 67 70.32 67 71 C67.66 71 68.32 71 69 71 C69 72.32 69 73.64 69 75 C69.66 75 70.32 75 71 75 C71 75.66 71 76.32 71 77 C71.66 77 72.32 77 73 77 C75.60018816 80.90028225 75.15085514 84.47434569 75 89 C71.04 89 67.08 89 63 89 C63 88.34 63 87.68 63 87 C62.40703125 86.90589844 61.8140625 86.81179687 61.203125 86.71484375 C58.50857359 85.84054781 57.53677244 84.73279682 55.75 82.5625 C54.96882813 81.63630859 54.96882813 81.63630859 54.171875 80.69140625 C53 79 53 79 53 77 C52.34 77 51.68 77 51 77 C51 76.34 51 75.68 51 75 C50.34 75 49.68 75 49 75 C49 74.34 49 73.68 49 73 C48.34 73 47.68 73 47 73 C47 71.68 47 70.36 47 69 C46.34 69 45.68 69 45 69 C45 68.34 45 67.68 45 67 C44.34 67 43.68 67 43 67 C43 66.34 43 65.68 43 65 C42.34 65 41.68 65 41 65 C40.34 63.02 39.68 61.04 39 59 C38.34 59 37.68 59 37 59 C37 58.34 37 57.68 37 57 C36.34 57 35.68 57 35 57 C34.34 55.02 33.68 53.04 33 51 C27.72 51 22.44 51 17 51 C17 51.66 17 52.32 17 53 C16.01 53 15.02 53 14 53 C14.01047363 53.6391333 14.02094727 54.2782666 14.03173828 54.93676758 C14.07388495 57.89530335 14.09950945 60.85377561 14.125 63.8125 C14.15013672 65.31973633 14.15013672 65.31973633 14.17578125 66.85742188 C14.22036024 73.78945544 13.48266066 80.22940584 12 87 C11.34 87 10.68 87 10 87 C10 87.66 10 88.32 10 89 C7.36 89 4.72 89 2 89 C2 88.34 2 87.68 2 87 C1.34 87 0.68 87 0 87 C0 58.29 0 29.58 0 0 Z M12 16 C12.33 16.99 12.66 17.98 13 19 C13.14492123 20.40664926 13.24628931 21.8181133 13.31640625 23.23046875 C13.35830078 24.03291016 13.40019531 24.83535156 13.44335938 25.66210938 C13.48267578 26.49548828 13.52199219 27.32886719 13.5625 28.1875 C13.60568359 29.03248047 13.64886719 29.87746094 13.69335938 30.74804688 C13.79931518 32.83184433 13.9001502 34.91590103 14 37 C17.94684991 37.07505712 21.89341427 37.12902215 25.84082031 37.16479492 C27.83152905 37.18701479 29.82203968 37.22516595 31.8125 37.26367188 C39.41181664 37.32124246 45.89367547 36.78825267 53 34 C53 33.34 53 32.68 53 32 C53.66 32 54.32 32 55 32 C55.91377136 27.33976609 56.40616073 24.21078128 54 20 C48.5670473 16.37803153 43.61020499 15.70883956 37.1953125 15.8046875 C36.4713327 15.8075174 35.74735291 15.81034729 35.00143433 15.81326294 C32.7091151 15.82437913 30.41719937 15.84946688 28.125 15.875 C26.56250568 15.8850409 25.00000518 15.89416481 23.4375 15.90234375 C19.62484662 15.92429027 15.81249152 15.95875987 12 16 Z " fill="#FEFEFE" transform="translate(404,59)"/>
<path d="M0 0 C23.43 0 46.86 0 71 0 C71 5.28 71 10.56 71 16 C52.19 16 33.38 16 14 16 C14 22.93 14 29.86 14 37 C17.17882812 36.97679687 20.35765625 36.95359375 23.6328125 36.9296875 C26.72069907 36.91407799 29.80858119 36.90194063 32.89648438 36.89013672 C35.03810604 36.88009584 37.17971405 36.86646046 39.32128906 36.84912109 C42.40433121 36.82478882 45.48719165 36.81349758 48.5703125 36.8046875 C49.52366486 36.79436493 50.47701721 36.78404236 51.45925903 36.77340698 C56.38457948 36.77258073 60.38011328 37.0565542 65 39 C65 42.3 65 45.6 65 49 C64.34 49 63.68 49 63 49 C63 49.66 63 50.32 63 51 C46.83 51 30.66 51 14 51 C14 58.26 14 65.52 14 73 C32.81 73 51.62 73 71 73 C71 78.28 71 83.56 71 89 C47.57 89 24.14 89 0 89 C0 59.63 0 30.26 0 0 Z " fill="#FDFDFD" transform="translate(200,59)"/>
<path d="M0 0 C23.43 0 46.86 0 71 0 C71 5.28 71 10.56 71 16 C52.19 16 33.38 16 14 16 C14 22.93 14 29.86 14 37 C17.09503906 36.97679687 20.19007813 36.95359375 23.37890625 36.9296875 C26.39070221 36.91407087 29.40249359 36.90193757 32.41430664 36.89013672 C34.50059034 36.88010573 36.58686008 36.86647774 38.6730957 36.84912109 C41.67923438 36.82474506 44.68518645 36.81348764 47.69140625 36.8046875 C48.61772354 36.79436493 49.54404083 36.78404236 50.49842834 36.77340698 C55.73480568 36.77250849 60.04364493 37.28559352 65 39 C65 42.3 65 45.6 65 49 C64.34 49 63.68 49 63 49 C63 49.66 63 50.32 63 51 C46.83 51 30.66 51 14 51 C14 58.26 14 65.52 14 73 C32.81 73 51.62 73 71 73 C71 78.28 71 83.56 71 89 C47.57 89 24.14 89 0 89 C0 59.63 0 30.26 0 0 Z " fill="#FEFEFE" transform="translate(617,59)"/>
<path d="M0 0 C6.93 0 13.86 0 21 0 C21 1.32 21 2.64 21 4 C21.66 4 22.32 4 23 4 C24.60355101 7.50776784 25.22036864 10.14354879 25 14 C25.66 14 26.32 14 27 14 C28.31626692 17.61973402 29 20.09567131 29 24 C29.66 24 30.32 24 31 24 C32.31626692 27.61973402 33 30.09567131 33 34 C33.66 34 34.32 34 35 34 C35 35.65 35 37.3 35 39 C35.66 39 36.32 39 37 39 C38.60355101 42.50776784 39.22036864 45.14354879 39 49 C39.66 49 40.32 49 41 49 C41 50.32 41 51.64 41 53 C41.66 53 42.32 53 43 53 C43 54.98 43 56.96 43 59 C43.66 59 44.32 59 45 59 C45 60.32 45 61.64 45 63 C45.66 63 46.32 63 47 63 C47 64.98 47 66.96 47 69 C47.66 69 48.32 69 49 69 C49 70.32 49 71.64 49 73 C49.66 73 50.32 73 51 73 C51 74.98 51 76.96 51 79 C51.66 79 52.32 79 53 79 C53 82.3 53 85.6 53 89 C49.04 89 45.08 89 41 89 C41 88.34 41 87.68 41 87 C40.34 87 39.68 87 39 87 C39 86.34 39 85.68 39 85 C38.34 85 37.68 85 37 85 C37 83.68 37 82.36 37 81 C36.34 81 35.68 81 35 81 C35 79.68 35 78.36 35 77 C34.34 77 33.68 77 33 77 C33 75.02 33 73.04 33 71 C32.34 71 31.68 71 31 71 C31 69.68 31 68.36 31 67 C16.81 67 2.62 67 -12 67 C-12 67.66 -12 68.32 -12 69 C-12.66 69 -13.32 69 -14 69 C-14.2165625 70.0828125 -14.2165625 70.0828125 -14.4375 71.1875 C-14.95833333 73.79166667 -15.47916667 76.39583333 -16 79 C-16.66 79 -17.32 79 -18 79 C-18 80.32 -18 81.64 -18 83 C-18.66 83 -19.32 83 -20 83 C-20.33 84.32 -20.66 85.64 -21 87 C-21.99 87 -22.98 87 -24 87 C-24 87.66 -24 88.32 -24 89 C-28.29 89 -32.58 89 -37 89 C-37 85.88742431 -36.82638376 83.89234315 -36 81 C-35.34 81 -34.68 81 -34 81 C-34.04125 80.278125 -34.0825 79.55625 -34.125 78.8125 C-33.99078695 75.79270631 -33.24829381 73.73064271 -32 71 C-31.34 71 -30.68 71 -30 71 C-29.7834375 69.9171875 -29.7834375 69.9171875 -29.5625 68.8125 C-29.04166667 66.20833333 -28.52083333 63.60416667 -28 61 C-27.34 61 -26.68 61 -26 61 C-26 59.68 -26 58.36 -26 57 C-25.34 57 -24.68 57 -24 57 C-24.04125 56.278125 -24.0825 55.55625 -24.125 54.8125 C-23.99078695 51.79270631 -23.24829381 49.73064271 -22 47 C-21.34 47 -20.68 47 -20 47 C-20 45.35 -20 43.7 -20 42 C-19.34 42 -18.68 42 -18 42 C-17.855625 41.278125 -17.71125 40.55625 -17.5625 39.8125 C-17.04166667 37.20833333 -16.52083333 34.60416667 -16 32 C-15.34 32 -14.68 32 -14 32 C-14 30.68 -14 29.36 -14 28 C-13.34 28 -12.68 28 -12 28 C-12 26.02 -12 24.04 -12 22 C-11.34 22 -10.68 22 -10 22 C-10 20.68 -10 19.36 -10 18 C-9.34 18 -8.68 18 -8 18 C-8 16.02 -8 14.04 -8 12 C-7.34 12 -6.68 12 -6 12 C-6 10.68 -6 9.36 -6 8 C-5.34 8 -4.68 8 -4 8 C-4 6.35 -4 4.7 -4 3 C-2.68 2.67 -1.36 2.34 0 2 C0 1.34 0 0.68 0 0 Z M8 18 C5.78772032 20.21227968 5.04232904 21.92876494 3.875 24.8125 C3.52179688 25.66457031 3.16859375 26.51664063 2.8046875 27.39453125 C1.97523277 30.08019292 1.84961755 32.20789919 2 35 C1.34 35 0.68 35 0 35 C-1.31626692 38.61973402 -2 41.09567131 -2 45 C-2.66 45 -3.32 45 -4 45 C-4.33 46.98 -4.66 48.96 -5 51 C4.24 51 13.48 51 23 51 C20.5446374 41.98633316 20.5446374 41.98633316 18 33 C17.34 33 16.68 33 16 33 C16 31.68 16 30.36 16 29 C15.34 29 14.68 29 14 29 C14 27.68 14 26.36 14 25 C13.34 25 12.68 25 12 25 C11.855625 24.401875 11.71125 23.80375 11.5625 23.1875 C11.1127561 21.43849596 10.57107659 19.71322977 10 18 C9.34 18 8.68 18 8 18 Z " fill="#FEFEFE" transform="translate(327,59)"/>
<path d="M0 0 C3.63 0 7.26 0 11 0 C11 0.66 11 1.32 11 2 C11.66 2 12.32 2 13 2 C13.06058594 2.63808594 13.12117188 3.27617188 13.18359375 3.93359375 C13.26738281 4.75988281 13.35117188 5.58617188 13.4375 6.4375 C13.51871094 7.26121094 13.59992188 8.08492187 13.68359375 8.93359375 C13.78930815 10.98662025 13.78930815 10.98662025 15 12 C15.08737645 13.85369611 15.10698153 15.71067541 15.09765625 17.56640625 C15.09443359 18.69111328 15.09121094 19.81582031 15.08789062 20.97460938 C15.07951172 22.15861328 15.07113281 23.34261719 15.0625 24.5625 C15.05798828 25.75037109 15.05347656 26.93824219 15.04882812 28.16210938 C15.03699675 31.10812226 15.02051287 34.05403681 15 37 C16.58560393 36.74279326 18.16845924 36.46861201 19.75 36.1875 C20.63171875 36.03667969 21.5134375 35.88585937 22.421875 35.73046875 C25.20000356 34.94333232 26.76130354 33.77635698 29 32 C29.66 32 30.32 32 31 32 C31 31.34 31 30.68 31 30 C31.66 30 32.32 30 33 30 C33 29.34 33 28.68 33 28 C33.66 28 34.32 28 35 28 C35 27.34 35 26.68 35 26 C35.66 26 36.32 26 37 26 C37 25.34 37 24.68 37 24 C37.66 24 38.32 24 39 24 C39 23.34 39 22.68 39 22 C39.66 22 40.32 22 41 22 C41 21.34 41 20.68 41 20 C41.66 20 42.32 20 43 20 C43 19.34 43 18.68 43 18 C43.66 18 44.32 18 45 18 C45 17.34 45 16.68 45 16 C45.66 16 46.32 16 47 16 C47 15.34 47 14.68 47 14 C47.66 14 48.32 14 49 14 C49 13.34 49 12.68 49 12 C49.66 12 50.32 12 51 12 C51 11.34 51 10.68 51 10 C51.66 10 52.32 10 53 10 C53 9.34 53 8.68 53 8 C54.98 7.34 56.96 6.68 59 6 C59 5.34 59 4.68 59 4 C59.66 4 60.32 4 61 4 C61 3.34 61 2.68 61 2 C62.32 2 63.64 2 65 2 C65 1.34 65 0.68 65 0 C67.31 0 69.62 0 72 0 C72 0.66 72 1.32 72 2 C72.99 2 73.98 2 75 2 C75.50130606 7.26371362 74.31168629 9.9090934 71 14 C70.34 14 69.68 14 69 14 C69 14.66 69 15.32 69 16 C68.34 16 67.68 16 67 16 C67 16.66 67 17.32 67 18 C66.34 18 65.68 18 65 18 C65 18.66 65 19.32 65 20 C64.34 20 63.68 20 63 20 C62.566875 20.8971875 62.566875 20.8971875 62.125 21.8125 C61 24 61 24 59 27 C58.34 27 57.68 27 57 27 C57 27.66 57 28.32 57 29 C56.34 29 55.68 29 55 29 C55 29.66 55 30.32 55 31 C54.34 31 53.68 31 53 31 C53 31.66 53 32.32 53 33 C52.34 33 51.68 33 51 33 C51 33.66 51 34.32 51 35 C50.34 35 49.68 35 49 35 C49 35.66 49 36.32 49 37 C48.34 37 47.68 37 47 37 C47 37.66 47 38.32 47 39 C46.34 39 45.68 39 45 39 C45 39.66 45 40.32 45 41 C44.34 41 43.68 41 43 41 C43 41.66 43 42.32 43 43 C42.34 43 41.68 43 41 43 C41 43.66 41 44.32 41 45 C41.66 45 42.32 45 43 45 C43 45.66 43 46.32 43 47 C43.66 47 44.32 47 45 47 C45 47.66 45 48.32 45 49 C45.66 49 46.32 49 47 49 C51 53.47058824 51 53.47058824 51 56 C51.66 56 52.32 56 53 56 C53.66 57.65 54.32 59.3 55 61 C55.66 61 56.32 61 57 61 C57 61.66 57 62.32 57 63 C57.66 63 58.32 63 59 63 C59 63.66 59 64.32 59 65 C59.66 65 60.32 65 61 65 C61 65.66 61 66.32 61 67 C61.66 67 62.32 67 63 67 C63 67.66 63 68.32 63 69 C63.66 69 64.32 69 65 69 C65 69.66 65 70.32 65 71 C65.66 71 66.32 71 67 71 C67 71.66 67 72.32 67 73 C67.66 73 68.32 73 69 73 C73 78.41176471 73 78.41176471 73 81 C73.66 81 74.32 81 75 81 C75 82.98 75 84.96 75 87 C74.34 87 73.68 87 73 87 C73 87.66 73 88.32 73 89 C69.7 89 66.4 89 63 89 C63 88.34 63 87.68 63 87 C62.34 87 61.68 87 61 87 C61 86.34 61 85.68 61 85 C59.68 85 58.36 85 57 85 C57 84.34 57 83.68 57 83 C56.34 83 55.68 83 55 83 C55 82.34 55 81.68 55 81 C54.34 81 53.68 81 53 81 C53 80.34 53 79.68 53 79 C52.34 79 51.68 79 51 79 C51 78.34 51 77.68 51 77 C50.34 77 49.68 77 49 77 C49 76.34 49 75.68 49 75 C48.34 75 47.68 75 47 75 C47 74.34 47 73.68 47 73 C46.34 73 45.68 73 45 73 C45 72.34 45 71.68 45 71 C44.34 71 43.68 71 43 71 C43 70.34 43 69.68 43 69 C42.34 69 41.68 69 41 69 C41 68.34 41 67.68 41 67 C40.34 67 39.68 67 39 67 C39 66.34 39 65.68 39 65 C38.34 65 37.68 65 37 65 C37 64.34 37 63.68 37 63 C36.34 63 35.68 63 35 63 C35 62.34 35 61.68 35 61 C34.34 61 33.68 61 33 61 C33 60.34 33 59.68 33 59 C32.236875 58.71125 31.47375 58.4225 30.6875 58.125 C28 57 28 57 25 55 C25 54.34 25 53.68 25 53 C24.4225 52.855625 23.845 52.71125 23.25 52.5625 C20.125 51.78125 20.125 51.78125 17 51 C17 51.66 17 52.32 17 53 C16.34 53 15.68 53 15 53 C15 61.25 15 69.5 15 78 C14.34 78 13.68 78 13 78 C13 80.97 13 83.94 13 87 C12.34 87 11.68 87 11 87 C11 87.66 11 88.32 11 89 C7.37 89 3.74 89 0 89 C0 59.63 0 30.26 0 0 Z " fill="#FEFEFE" transform="translate(98,59)"/>
<path d="M0 0 C3.96 0 7.92 0 12 0 C12 0.66 12 1.32 12 2 C13.32 2 14.64 2 16 2 C16 2.66 16 3.32 16 4 C16.66 4 17.32 4 18 4 C18 4.66 18 5.32 18 6 C18.66 6 19.32 6 20 6 C22 9 22 9 22 12 C22.66 12 23.32 12 24 12 C24 12.66 24 13.32 24 14 C24.66 14 25.32 14 26 14 C26 14.66 26 15.32 26 16 C26.66 16 27.32 16 28 16 C28.66 17.98 29.32 19.96 30 22 C30.66 22 31.32 22 32 22 C32 22.66 32 23.32 32 24 C32.66 24 33.32 24 34 24 C34.66 25.98 35.32 27.96 36 30 C36.66 30 37.32 30 38 30 C39.33333333 31.66666667 40.66666667 33.33333333 42 35 C42.66 35 43.32 35 44 35 C44 34.01 44 33.02 44 32 C44.66 32 45.32 32 46 32 C46.33 30.68 46.66 29.36 47 28 C47.66 28 48.32 28 49 28 C49.28875 27.4225 49.5775 26.845 49.875 26.25 C50.91666667 24.16666667 51.95833333 22.08333333 53 20 C53.66 20 54.32 20 55 20 C55 19.34 55 18.68 55 18 C55.66 18 56.32 18 57 18 C57.66 16.02 58.32 14.04 59 12 C59.66 12 60.32 12 61 12 C61 11.34 61 10.68 61 10 C61.66 10 62.32 10 63 10 C63 9.34 63 8.68 63 8 C63.66 8 64.32 8 65 8 C65 7.34 65 6.68 65 6 C65.66 6 66.32 6 67 6 C67 5.34 67 4.68 67 4 C67.66 4 68.32 4 69 4 C69 3.34 69 2.68 69 2 C72.21182149 0.09391902 74.53882603 -0.22266247 78.25 -0.125 C79.8175 -0.08375 81.385 -0.0425 83 0 C83 3.3 83 6.6 83 10 C82.34 10 81.68 10 81 10 C80.34 11.98 79.68 13.96 79 16 C78.34 16 77.68 16 77 16 C77 16.66 77 17.32 77 18 C76.34 18 75.68 18 75 18 C74.855625 18.61875 74.71125 19.2375 74.5625 19.875 C74 22 74 22 73 24 C72.34 24 71.68 24 71 24 C71 24.66 71 25.32 71 26 C70.34 26 69.68 26 69 26 C69 26.99 69 27.98 69 29 C68.34 29 67.68 29 67 29 C67 29.66 67 30.32 67 31 C66.34 31 65.68 31 65 31 C65 31.66 65 32.32 65 33 C64.34 33 63.68 33 63 33 C63 34.32 63 35.64 63 37 C62.34 37 61.68 37 61 37 C61 37.66 61 38.32 61 39 C60.34 39 59.68 39 59 39 C59 39.66 59 40.32 59 41 C58.34 41 57.68 41 57 41 C57 42.32 57 43.64 57 45 C56.34 45 55.68 45 55 45 C55 45.66 55 46.32 55 47 C54.34 47 53.68 47 53 47 C53 47.66 53 48.32 53 49 C52.34 49 51.68 49 51 49 C51 50.32 51 51.64 51 53 C50.34 53 49.68 53 49 53 C49 64.55 49 76.1 49 88 C46.63386544 89.18306728 45.13219264 89.13354608 42.5 89.125 C41.7059375 89.12757813 40.911875 89.13015625 40.09375 89.1328125 C38 89 38 89 36 88 C35.96241577 86.53191895 35.96241577 86.53191895 35.92407227 85.03417969 C35.82976017 81.39619296 35.72959797 77.75838657 35.62768555 74.12060547 C35.58442662 72.54740626 35.54274526 70.97416283 35.50268555 69.40087891 C35.44476338 67.13690885 35.38113286 64.87315949 35.31640625 62.609375 C35.29969376 61.90818542 35.28298126 61.20699585 35.26576233 60.48455811 C35.16648978 57.19766179 34.99187328 54.14857995 34 51 C33.34 51 32.68 51 32 51 C32 50.34 32 49.68 32 49 C31.34 49 30.68 49 30 49 C30 48.34 30 47.68 30 47 C29.34 47 28.68 47 28 47 C28 45.68 28 44.36 28 43 C27.34 43 26.68 43 26 43 C26 42.34 26 41.68 26 41 C25.34 41 24.68 41 24 41 C24 40.34 24 39.68 24 39 C23.34 39 22.68 39 22 39 C22 37.68 22 36.36 22 35 C21.34 35 20.68 35 20 35 C20 34.34 20 33.68 20 33 C19.34 33 18.68 33 18 33 C18 32.34 18 31.68 18 31 C17.34 31 16.68 31 16 31 C16 30.01 16 29.02 16 28 C15.34 28 14.68 28 14 28 C10 22.58823529 10 22.58823529 10 20 C9.34 20 8.68 20 8 20 C8 19.34 8 18.68 8 18 C7.34 18 6.68 18 6 18 C6 16.68 6 15.36 6 14 C5.34 14 4.68 14 4 14 C4 13.34 4 12.68 4 12 C3.34 12 2.68 12 2 12 C2 10.68 2 9.36 2 8 C1.34 8 0.68 8 0 8 C0 5.36 0 2.72 0 0 Z " fill="#FEFEFE" transform="translate(708,59)"/>
</svg>
