<?xml version="1.0" encoding="UTF-8"?>
<svg version="1.1" xmlns="http://www.w3.org/2000/svg" width="787" height="290">
<path d="M0 0 C1.17691406 -0.00128906 2.35382813 -0.00257812 3.56640625 -0.00390625 C5.41298828 0.00189453 5.41298828 0.00189453 7.296875 0.0078125 C8.51246094 0.00394531 9.72804687 0.00007813 10.98046875 -0.00390625 C26.36696563 0.01287292 26.36696563 0.01287292 31.046875 3.1328125 C31.234375 6.2578125 31.234375 6.2578125 31.046875 9.1328125 C30.098125 9.2978125 29.149375 9.4628125 28.171875 9.6328125 C27.140625 10.1278125 26.109375 10.6228125 25.046875 11.1328125 C22.97703383 17.17892751 22.79522403 22.79052148 22.921875 29.1328125 C22.93089844 30.00292969 22.93992188 30.87304688 22.94921875 31.76953125 C22.97252881 33.8907467 23.00838921 36.01181812 23.046875 38.1328125 C23.706875 38.1328125 24.366875 38.1328125 25.046875 38.1328125 C25.046875 37.4728125 25.046875 36.8128125 25.046875 36.1328125 C25.706875 36.1328125 26.366875 36.1328125 27.046875 36.1328125 C27.046875 35.4728125 27.046875 34.8128125 27.046875 34.1328125 C27.706875 34.1328125 28.366875 34.1328125 29.046875 34.1328125 C29.046875 33.4728125 29.046875 32.8128125 29.046875 32.1328125 C29.706875 32.1328125 30.366875 32.1328125 31.046875 32.1328125 C31.046875 31.4728125 31.046875 30.8128125 31.046875 30.1328125 C31.706875 30.1328125 32.366875 30.1328125 33.046875 30.1328125 C33.046875 29.4728125 33.046875 28.8128125 33.046875 28.1328125 C33.706875 28.1328125 34.366875 28.1328125 35.046875 28.1328125 C35.046875 27.4728125 35.046875 26.8128125 35.046875 26.1328125 C35.706875 26.1328125 36.366875 26.1328125 37.046875 26.1328125 C37.046875 25.4728125 37.046875 24.8128125 37.046875 24.1328125 C37.706875 24.1328125 38.366875 24.1328125 39.046875 24.1328125 C39.315 23.3284375 39.583125 22.5240625 39.859375 21.6953125 C40.4471875 20.426875 40.4471875 20.426875 41.046875 19.1328125 C42.036875 18.8028125 43.026875 18.4728125 44.046875 18.1328125 C44.046875 17.1428125 44.046875 16.1528125 44.046875 15.1328125 C44.706875 15.1328125 45.366875 15.1328125 46.046875 15.1328125 C45.386875 14.5140625 44.726875 13.8953125 44.046875 13.2578125 C42.046875 11.1328125 42.046875 11.1328125 42.046875 9.1328125 C39.571875 8.1428125 39.571875 8.1428125 37.046875 7.1328125 C37.00433144 5.13326504 37.00606717 3.13239614 37.046875 1.1328125 C38.94310702 -0.76341952 41.71057859 0.00383624 44.2331543 -0.00613403 C45.53313354 -0.00309769 45.53313354 -0.00309769 46.859375 0 C47.74343018 -0.00095673 48.62748535 -0.00191345 49.53833008 -0.00289917 C51.41129629 -0.00358101 53.28426486 -0.00172643 55.15722656 0.00244141 C58.03455888 0.00778961 60.91173508 0.00249657 63.7890625 -0.00390625 C65.60416701 -0.00324547 67.41927143 -0.00196431 69.234375 0 C70.10102783 -0.00202423 70.96768066 -0.00404846 71.8605957 -0.00613403 C77.93192491 0.01786241 77.93192491 0.01786241 79.046875 1.1328125 C79.08751332 2.79898365 79.089596 4.46669345 79.046875 6.1328125 C77.726875 6.4628125 76.406875 6.7928125 75.046875 7.1328125 C75.046875 7.7928125 75.046875 8.4528125 75.046875 9.1328125 C73.726875 9.1328125 72.406875 9.1328125 71.046875 9.1328125 C71.046875 9.7928125 71.046875 10.4528125 71.046875 11.1328125 C69.726875 11.1328125 68.406875 11.1328125 67.046875 11.1328125 C67.046875 11.7928125 67.046875 12.4528125 67.046875 13.1328125 C66.056875 13.1328125 65.066875 13.1328125 64.046875 13.1328125 C64.046875 13.7928125 64.046875 14.4528125 64.046875 15.1328125 C63.386875 15.1328125 62.726875 15.1328125 62.046875 15.1328125 C62.046875 15.7928125 62.046875 16.4528125 62.046875 17.1328125 C61.386875 17.1328125 60.726875 17.1328125 60.046875 17.1328125 C60.046875 17.7928125 60.046875 18.4528125 60.046875 19.1328125 C59.386875 19.1328125 58.726875 19.1328125 58.046875 19.1328125 C58.046875 19.7928125 58.046875 20.4528125 58.046875 21.1328125 C57.386875 21.1328125 56.726875 21.1328125 56.046875 21.1328125 C56.046875 21.7928125 56.046875 22.4528125 56.046875 23.1328125 C55.386875 23.1328125 54.726875 23.1328125 54.046875 23.1328125 C53.61375 24.03 53.61375 24.03 53.171875 24.9453125 C52.046875 27.1328125 52.046875 27.1328125 50.046875 30.1328125 C49.386875 30.1328125 48.726875 30.1328125 48.046875 30.1328125 C48.046875 30.7928125 48.046875 31.4528125 48.046875 32.1328125 C47.386875 32.1328125 46.726875 32.1328125 46.046875 32.1328125 C46.046875 32.7928125 46.046875 33.4528125 46.046875 34.1328125 C45.056875 34.1328125 44.066875 34.1328125 43.046875 34.1328125 C43.046875 34.7928125 43.046875 35.4528125 43.046875 36.1328125 C42.386875 36.1328125 41.726875 36.1328125 41.046875 36.1328125 C41.046875 37.4528125 41.046875 38.7728125 41.046875 40.1328125 C41.706875 40.1328125 42.366875 40.1328125 43.046875 40.1328125 C45.65733948 42.98059193 47.47364069 45.26348088 48.046875 49.1328125 C48.706875 49.1328125 49.366875 49.1328125 50.046875 49.1328125 C50.046875 49.7928125 50.046875 50.4528125 50.046875 51.1328125 C50.706875 51.1328125 51.366875 51.1328125 52.046875 51.1328125 C54.046875 54.1328125 54.046875 54.1328125 54.046875 57.1328125 C54.706875 57.1328125 55.366875 57.1328125 56.046875 57.1328125 C56.046875 57.7928125 56.046875 58.4528125 56.046875 59.1328125 C56.706875 59.1328125 57.366875 59.1328125 58.046875 59.1328125 C62.046875 65.8828125 62.046875 65.8828125 62.046875 68.1328125 C62.706875 68.1328125 63.366875 68.1328125 64.046875 68.1328125 C64.046875 68.7928125 64.046875 69.4528125 64.046875 70.1328125 C65.036875 70.1328125 66.026875 70.1328125 67.046875 70.1328125 C67.046875 70.7928125 67.046875 71.4528125 67.046875 72.1328125 C67.706875 72.1328125 68.366875 72.1328125 69.046875 72.1328125 C69.046875 72.7928125 69.046875 73.4528125 69.046875 74.1328125 C69.706875 74.1328125 70.366875 74.1328125 71.046875 74.1328125 C71.046875 74.7928125 71.046875 75.4528125 71.046875 76.1328125 C71.706875 76.1328125 72.366875 76.1328125 73.046875 76.1328125 C73.046875 76.7928125 73.046875 77.4528125 73.046875 78.1328125 C73.706875 78.1328125 74.366875 78.1328125 75.046875 78.1328125 C75.046875 78.7928125 75.046875 79.4528125 75.046875 80.1328125 C75.706875 80.1328125 76.366875 80.1328125 77.046875 80.1328125 C77.046875 80.7928125 77.046875 81.4528125 77.046875 82.1328125 C79.026875 82.1328125 81.006875 82.1328125 83.046875 82.1328125 C84.2014459 78.3392224 84.3896365 74.50439875 84.609375 70.5703125 C84.6518335 69.8388501 84.69429199 69.1073877 84.73803711 68.35375977 C85.19606322 59.6162435 85.1332815 50.8790706 85.046875 42.1328125 C84.428125 41.9884375 83.809375 41.8440625 83.171875 41.6953125 C81.046875 41.1328125 81.046875 41.1328125 79.046875 40.1328125 C78.75390625 34.078125 78.75390625 34.078125 79.046875 32.1328125 C82.25093962 29.99676942 83.04288247 29.89072342 86.71484375 29.9375 C87.60751953 29.94394531 88.50019531 29.95039062 89.41992188 29.95703125 C90.81307617 29.98216797 90.81307617 29.98216797 92.234375 30.0078125 C93.17474609 30.01683594 94.11511719 30.02585937 95.08398438 30.03515625 C97.40520468 30.05872194 99.72591144 30.09162134 102.046875 30.1328125 C102.07193115 30.91519287 102.0969873 31.69757324 102.12280273 32.50366211 C102.23837288 36.02606199 102.36127449 39.5481681 102.484375 43.0703125 C102.52369141 44.30201172 102.56300781 45.53371094 102.60351562 46.80273438 C102.64541016 47.97255859 102.68730469 49.14238281 102.73046875 50.34765625 C102.76712646 51.43167725 102.80378418 52.51569824 102.84155273 53.63256836 C102.77051765 56.0720755 102.77051765 56.0720755 104.046875 57.1328125 C104.13401331 58.84053608 104.15387507 60.55179899 104.14453125 62.26171875 C104.13969727 63.81342773 104.13969727 63.81342773 104.13476562 65.39648438 C104.12219727 67.0294043 104.12219727 67.0294043 104.109375 68.6953125 C104.10486328 69.78779297 104.10035156 70.88027344 104.09570312 72.00585938 C104.08387326 74.71489745 104.06739043 77.42382849 104.046875 80.1328125 C104.706875 80.1328125 105.366875 80.1328125 106.046875 80.1328125 C106.046875 80.7928125 106.046875 81.4528125 106.046875 82.1328125 C108.356875 82.1328125 110.666875 82.1328125 113.046875 82.1328125 C113.046875 81.4728125 113.046875 80.8128125 113.046875 80.1328125 C113.706875 80.1328125 114.366875 80.1328125 115.046875 80.1328125 C115.046875 67.5928125 115.046875 55.0528125 115.046875 42.1328125 C114.386875 42.1328125 113.726875 42.1328125 113.046875 42.1328125 C113.046875 41.4728125 113.046875 40.8128125 113.046875 40.1328125 C111.726875 40.1328125 110.406875 40.1328125 109.046875 40.1328125 C109.046875 37.4928125 109.046875 34.8528125 109.046875 32.1328125 C109.706875 32.1328125 110.366875 32.1328125 111.046875 32.1328125 C111.046875 31.4728125 111.046875 30.8128125 111.046875 30.1328125 C113.46384372 30.07870126 115.87959287 30.03908972 118.296875 30.0078125 C118.97878906 29.99105469 119.66070312 29.97429688 120.36328125 29.95703125 C125.75492301 29.90468521 128.41814579 30.59456824 132.296875 34.2578125 C132.874375 34.8765625 133.451875 35.4953125 134.046875 36.1328125 C134.046875 35.4728125 134.046875 34.8128125 134.046875 34.1328125 C135.366875 34.1328125 136.686875 34.1328125 138.046875 34.1328125 C138.046875 33.4728125 138.046875 32.8128125 138.046875 32.1328125 C139.366875 32.1328125 140.686875 32.1328125 142.046875 32.1328125 C142.046875 31.4728125 142.046875 30.8128125 142.046875 30.1328125 C148.316875 30.1328125 154.586875 30.1328125 161.046875 30.1328125 C161.046875 30.7928125 161.046875 31.4528125 161.046875 32.1328125 C162.366875 32.1328125 163.686875 32.1328125 165.046875 32.1328125 C165.046875 32.7928125 165.046875 33.4528125 165.046875 34.1328125 C165.706875 34.1328125 166.366875 34.1328125 167.046875 34.1328125 C167.046875 35.4528125 167.046875 36.7728125 167.046875 38.1328125 C167.706875 38.1328125 168.366875 38.1328125 169.046875 38.1328125 C169.07193115 38.85460693 169.0969873 39.57640137 169.12280273 40.32006836 C169.23838802 43.5703475 169.36128274 46.82030938 169.484375 50.0703125 C169.52369141 51.20662109 169.56300781 52.34292969 169.60351562 53.51367188 C169.66635742 55.13305664 169.66635742 55.13305664 169.73046875 56.78515625 C169.78545532 58.28550415 169.78545532 58.28550415 169.84155273 59.81616211 C169.79359341 62.09350438 169.79359341 62.09350438 171.046875 63.1328125 C171.3344322 66.36440769 171.49572503 69.59628972 171.66796875 72.8359375 C172.03169568 76.00073677 172.61126072 78.30245553 174.046875 81.1328125 C174.748125 81.5865625 175.449375 82.0403125 176.171875 82.5078125 C178.046875 84.1328125 178.046875 84.1328125 178.421875 87.6953125 C178.046875 91.1328125 178.046875 91.1328125 176.046875 93.1328125 C173.28125 93.39160156 173.28125 93.39160156 169.796875 93.3984375 C167.92515625 93.40230469 167.92515625 93.40230469 166.015625 93.40625 C164.05109375 93.39464844 164.05109375 93.39464844 162.046875 93.3828125 C160.7371875 93.39054687 159.4275 93.39828125 158.078125 93.40625 C156.8303125 93.40367188 155.5825 93.40109375 154.296875 93.3984375 C153.14703125 93.39618164 151.9971875 93.39392578 150.8125 93.39160156 C148.046875 93.1328125 148.046875 93.1328125 146.046875 91.1328125 C145.796875 87.6328125 145.796875 87.6328125 146.046875 84.1328125 C146.706875 83.4728125 147.366875 82.8128125 148.046875 82.1328125 C149.036875 82.1328125 150.026875 82.1328125 151.046875 82.1328125 C151.046875 81.4728125 151.046875 80.8128125 151.046875 80.1328125 C151.706875 80.1328125 152.366875 80.1328125 153.046875 80.1328125 C153.046875 78.94042969 153.046875 77.74804688 153.046875 76.51953125 C153.046875 65.72395833 153.046875 54.92838542 153.046875 44.1328125 C152.386875 44.1328125 151.726875 44.1328125 151.046875 44.1328125 C151.046875 43.4728125 151.046875 42.8128125 151.046875 42.1328125 C148.736875 42.1328125 146.426875 42.1328125 144.046875 42.1328125 C144.046875 42.7928125 144.046875 43.4528125 144.046875 44.1328125 C138.296875 47.1328125 138.296875 47.1328125 136.046875 47.1328125 C134.90393186 50.56164191 134.83723028 53.37364088 134.73046875 56.98828125 C134.70968765 57.64991776 134.68890656 58.31155426 134.66749573 58.99324036 C134.60222773 61.10216102 134.54322156 63.21120385 134.484375 65.3203125 C134.44116811 66.75196565 134.39755312 68.18360654 134.35351562 69.61523438 C134.24656994 73.12096404 134.14523859 76.62683036 134.046875 80.1328125 C134.706875 80.1328125 135.366875 80.1328125 136.046875 80.1328125 C136.046875 80.7928125 136.046875 81.4528125 136.046875 82.1328125 C137.366875 82.1328125 138.686875 82.1328125 140.046875 82.1328125 C142.33701153 85.5680173 142.22530473 87.1181435 142.046875 91.1328125 C140.726875 91.1328125 139.406875 91.1328125 138.046875 91.1328125 C138.046875 91.7928125 138.046875 92.4528125 138.046875 93.1328125 C110.986875 93.1328125 83.926875 93.1328125 56.046875 93.1328125 C56.046875 92.4728125 56.046875 91.8128125 56.046875 91.1328125 C55.386875 91.1328125 54.726875 91.1328125 54.046875 91.1328125 C52.046875 88.1328125 52.046875 88.1328125 52.046875 84.1328125 C51.386875 84.1328125 50.726875 84.1328125 50.046875 84.1328125 C50.046875 83.4728125 50.046875 82.8128125 50.046875 82.1328125 C49.386875 82.1328125 48.726875 82.1328125 48.046875 82.1328125 C48.046875 80.8128125 48.046875 79.4928125 48.046875 78.1328125 C47.386875 78.1328125 46.726875 78.1328125 46.046875 78.1328125 C46.046875 77.4728125 46.046875 76.8128125 46.046875 76.1328125 C45.386875 76.1328125 44.726875 76.1328125 44.046875 76.1328125 C43.716875 75.1428125 43.386875 74.1528125 43.046875 73.1328125 C42.4075 72.5346875 41.768125 71.9365625 41.109375 71.3203125 C38.68151395 68.74530835 37.96879235 66.51317613 37.046875 63.1328125 C36.386875 63.1328125 35.726875 63.1328125 35.046875 63.1328125 C35.046875 62.4728125 35.046875 61.8128125 35.046875 61.1328125 C34.386875 61.1328125 33.726875 61.1328125 33.046875 61.1328125 C33.046875 59.8128125 33.046875 58.4928125 33.046875 57.1328125 C32.386875 57.1328125 31.726875 57.1328125 31.046875 57.1328125 C31.046875 56.4728125 31.046875 55.8128125 31.046875 55.1328125 C30.386875 55.1328125 29.726875 55.1328125 29.046875 55.1328125 C29.046875 53.8128125 29.046875 52.4928125 29.046875 51.1328125 C28.386875 51.1328125 27.726875 51.1328125 27.046875 51.1328125 C26.386875 53.1128125 25.726875 55.0928125 25.046875 57.1328125 C24.386875 57.1328125 23.726875 57.1328125 23.046875 57.1328125 C22.716875 59.7728125 22.386875 62.4128125 22.046875 65.1328125 C21.386875 65.1328125 20.726875 65.1328125 20.046875 65.1328125 C20.046875 66.1228125 20.046875 67.1128125 20.046875 68.1328125 C20.706875 68.1328125 21.366875 68.1328125 22.046875 68.1328125 C22.15644531 68.73609375 22.26601562 69.339375 22.37890625 69.9609375 C23.47596356 76.14851179 23.47596356 76.14851179 27.046875 81.1328125 C29.59870904 82.33731554 29.59870904 82.33731554 32.046875 83.1328125 C33.046875 84.1328125 33.046875 84.1328125 33.109375 87.6953125 C33.08875 88.8296875 33.068125 89.9640625 33.046875 91.1328125 C29.34376206 93.52357964 25.730993 93.40711513 21.47265625 93.36328125 C20.74821823 93.36282303 20.02378021 93.36236481 19.27738953 93.3618927 C17.75188552 93.35887984 16.22638433 93.35102251 14.70092773 93.33862305 C12.35714934 93.3202951 10.01376466 93.31811397 7.66992188 93.31835938 C6.18749656 93.31344654 4.70507393 93.30761925 3.22265625 93.30078125 C2.51853104 93.29966843 1.81440582 93.2985556 1.08894348 93.29740906 C-3.83704964 93.24888786 -3.83704964 93.24888786 -4.953125 92.1328125 C-5.32398593 86.2917529 -5.32398593 86.2917529 -4.953125 84.1328125 C-1.953125 82.1328125 -1.953125 82.1328125 2.046875 82.1328125 C2.046875 80.8128125 2.046875 79.4928125 2.046875 78.1328125 C2.706875 78.1328125 3.366875 78.1328125 4.046875 78.1328125 C4.046875 56.6828125 4.046875 35.2328125 4.046875 13.1328125 C3.386875 13.1328125 2.726875 13.1328125 2.046875 13.1328125 C2.046875 12.4728125 2.046875 11.8128125 2.046875 11.1328125 C0.726875 11.1328125 -0.593125 11.1328125 -1.953125 11.1328125 C-1.953125 10.4728125 -1.953125 9.8128125 -1.953125 9.1328125 C-2.943125 9.1328125 -3.933125 9.1328125 -4.953125 9.1328125 C-4.953125 8.4728125 -4.953125 7.8128125 -4.953125 7.1328125 C-5.613125 7.1328125 -6.273125 7.1328125 -6.953125 7.1328125 C-6.953125 6.1428125 -6.953125 5.1528125 -6.953125 4.1328125 C-7.613125 4.1328125 -8.273125 4.1328125 -8.953125 4.1328125 C-8.953125 3.1428125 -8.953125 2.1528125 -8.953125 1.1328125 C-5.73159112 0.05896787 -3.38650339 0.00356689 0 0 Z " fill="#FEFEFE" transform="translate(179.953125,25.8671875)"/>
<path d="M0 0 C0.33 0.33 0.66 0.66 1 1 C2.53851559 1.15915679 4.08137761 1.27706625 5.625 1.375 C10.34356741 1.7885526 13.78109295 2.89054647 18 5 C18 5.66 18 6.32 18 7 C18.66 7 19.32 7 20 7 C20 8.98 20 10.96 20 13 C20.66 13 21.32 13 22 13 C22.02505615 13.56509277 22.0501123 14.13018555 22.07592773 14.71240234 C22.19179956 17.26683742 22.31456537 19.8208955 22.4375 22.375 C22.47681641 23.26445312 22.51613281 24.15390625 22.55664062 25.0703125 C22.59853516 25.92109375 22.64042969 26.771875 22.68359375 27.6484375 C22.73858032 28.82672119 22.73858032 28.82672119 22.79467773 30.02880859 C22.890891 32.07523496 22.890891 32.07523496 24 34 C24.08342159 35.44848582 24.10732861 36.90070869 24.09765625 38.3515625 C24.09443359 39.20234375 24.09121094 40.053125 24.08789062 40.9296875 C24.07532227 42.26386719 24.07532227 42.26386719 24.0625 43.625 C24.05798828 44.5221875 24.05347656 45.419375 24.04882812 46.34375 C24.03702611 48.56252831 24.01909039 50.78127243 24 53 C28.95 52.505 28.95 52.505 34 52 C34.33 51.01 34.66 50.02 35 49 C35.66 49 36.32 49 37 49 C37 47.87980469 37 46.75960937 37 45.60546875 C37 35.40364583 37 25.20182292 37 15 C36.34 15 35.68 15 35 15 C35 14.34 35 13.68 35 13 C33.68 13 32.36 13 31 13 C31 12.34 31 11.68 31 11 C28.525 10.01 28.525 10.01 26 9 C26 8.01 26 7.02 26 6 C25.34 6 24.68 6 24 6 C24 5.01 24 4.02 24 3 C27.62431797 1.18784101 31.82104538 1.68688302 35.8125 1.625 C37.16698242 1.56892578 37.16698242 1.56892578 38.54882812 1.51171875 C43.23198363 1.44978135 45.30917872 1.47177551 49.13671875 4.3984375 C51 7 51 7 51 9 C51.99 9 52.98 9 54 9 C54 8.34 54 7.68 54 7 C57.46153846 4 57.46153846 4 60 4 C60 3.34 60 2.68 60 2 C61.98 2 63.96 2 66 2 C66 1.34 66 0.68 66 0 C78.01727321 -0.57734231 78.01727321 -0.57734231 83 3 C84.375 5.1875 84.375 5.1875 85 7 C85.66 7 86.32 7 87 7 C87 7.66 87 8.32 87 9 C87.66 9 88.32 9 89 9 C89.12375 8.21625 89.2475 7.4325 89.375 6.625 C90 4 90 4 92 2 C94.79736328 1.77294922 94.79736328 1.77294922 98.3203125 1.8046875 C100.20556641 1.81435547 100.20556641 1.81435547 102.12890625 1.82421875 C104.10697266 1.84935547 104.10697266 1.84935547 106.125 1.875 C107.46483721 1.88503017 108.80468152 1.89415596 110.14453125 1.90234375 C113.42986573 1.92597925 116.71484465 1.95892766 120 2 C120.33 2.99 120.66 3.98 121 5 C121.66 5 122.32 5 123 5 C122.62952882 7.74148672 122.31412056 9.58593199 120.625 11.8125 C119 13 119 13 116 13 C116 14.32 116 15.64 116 17 C116.66 17 117.32 17 118 17 C120.15305957 20.85756507 121.39253254 23.55129785 121 28 C121.66 28 122.32 28 123 28 C123 29.32 123 30.64 123 32 C123.66 32 124.32 32 125 32 C125 33.32 125 34.64 125 36 C125.66 36 126.32 36 127 36 C127 34.68 127 33.36 127 32 C127.66 32 128.32 32 129 32 C129 30.68 129 29.36 129 28 C129.66 28 130.32 28 131 28 C130.95875 27.113125 130.9175 26.22625 130.875 25.3125 C130.99897246 22.02722987 131.61387904 19.94550705 133 17 C133.66 17 134.32 17 135 17 C135 15.68 135 14.36 135 13 C133.7934375 12.5359375 133.7934375 12.5359375 132.5625 12.0625 C130 11 130 11 129 10 C128.71252685 7.26900511 128.54831202 5.63579634 130.16918945 3.35424805 C132.70129199 1.48125528 134.41608432 1.65739816 137.54296875 1.70703125 C139.15268555 1.7215332 139.15268555 1.7215332 140.79492188 1.73632812 C142.47424805 1.7740332 142.47424805 1.7740332 144.1875 1.8125 C145.31865234 1.82603516 146.44980469 1.83957031 147.61523438 1.85351562 C150.41063317 1.88890042 153.20507892 1.93827052 156 2 C156 4.31 156 6.62 156 9 C155.34 9 154.68 9 154 9 C154 9.66 154 10.32 154 11 C153.34 11 152.68 11 152 11 C152 11.66 152 12.32 152 13 C151.34 13 150.68 13 150 13 C149.855625 13.61875 149.71125 14.2375 149.5625 14.875 C149 17 149 17 148 19 C147.34 19 146.68 19 146 19 C146 20.32 146 21.64 146 23 C145.34 23 144.68 23 144 23 C144 24.32 144 25.64 144 27 C143.34 27 142.68 27 142 27 C141.814375 28.11375 141.814375 28.11375 141.625 29.25 C141.04513299 31.80141485 140.26291261 33.7267573 139 36 C138.34 36 137.68 36 137 36 C137 37.32 137 38.64 137 40 C136.34 40 135.68 40 135 40 C135 41.32 135 42.64 135 44 C134.34 44 133.68 44 133 44 C133 45.65 133 47.3 133 49 C132.34 49 131.68 49 131 49 C131 50.65 131 52.3 131 54 C130.34 54 129.68 54 129 54 C129 55.65 129 57.3 129 59 C128.34 59 127.68 59 127 59 C127 60.32 127 61.64 127 63 C126.34 63 125.68 63 125 63 C125 64.32 125 65.64 125 67 C124.34 67 123.68 67 123 67 C122.855625 67.7425 122.71125 68.485 122.5625 69.25 C122.09812508 71.52027739 121.58136431 73.75759479 121 76 C120.34 76 119.68 76 119 76 C118.67 77.32 118.34 78.64 118 80 C117.34 80 116.68 80 116 80 C116 81.32 116 82.64 116 84 C115.34 84 114.68 84 114 84 C114 85.32 114 86.64 114 88 C113.34 88 112.68 88 112 88 C112 88.66 112 89.32 112 90 C109.36 90 106.72 90 104 90 C104 86.7 104 83.4 104 80 C104.66 80 105.32 80 106 80 C106 78.68 106 77.36 106 76 C106.66 76 107.32 76 108 76 C108 74.68 108 73.36 108 72 C108.66 72 109.32 72 110 72 C110.144375 71.2575 110.28875 70.515 110.4375 69.75 C110.90187492 67.47972261 111.41863569 65.24240521 112 63 C112.66 63 113.32 63 114 63 C114 61.68 114 60.36 114 59 C114.66 59 115.32 59 116 59 C115.69255859 58.00419922 115.69255859 58.00419922 115.37890625 56.98828125 C115.10949219 56.10527344 114.84007812 55.22226563 114.5625 54.3125 C114.29566406 53.44238281 114.02882813 52.57226562 113.75390625 51.67578125 C113.03655471 49.12974079 112.482459 46.5996577 112 44 C111.34 44 110.68 44 110 44 C110 42.68 110 41.36 110 40 C109.34 40 108.68 40 108 40 C108 38.68 108 37.36 108 36 C107.34 36 106.68 36 106 36 C106 34.68 106 33.36 106 32 C105.34 32 104.68 32 104 32 C102.50178941 28.62902617 102 26.79557881 102 23 C101.34 23 100.68 23 100 23 C98 20 98 20 98 17 C97.34 17 96.68 17 96 17 C93 13.53846154 93 13.53846154 93 11 C92.01 11 91.02 11 90 11 C89.97112186 14.47914941 89.95324313 17.95826831 89.9375 21.4375 C89.92493164 22.92733398 89.92493164 22.92733398 89.91210938 24.44726562 C89.90727539 25.86362305 89.90727539 25.86362305 89.90234375 27.30859375 C89.89448853 28.62041626 89.89448853 28.62041626 89.88647461 29.95874023 C89.77215191 31.99440206 89.77215191 31.99440206 91 33 C91.08631874 34.34267413 91.10706473 35.68974322 91.09765625 37.03515625 C91.09282227 38.24848633 91.09282227 38.24848633 91.08789062 39.48632812 C91.07532227 40.7615332 91.07532227 40.7615332 91.0625 42.0625 C91.05798828 42.91650391 91.05347656 43.77050781 91.04882812 44.65039062 C91.03700373 46.76695663 91.01906769 48.88348685 91 51 C91.66 51 92.32 51 93 51 C93 51.66 93 52.32 93 53 C93.66 53 94.32 53 95 53 C95 53.66 95 54.32 95 55 C95.78375 55.144375 96.5675 55.28875 97.375 55.4375 C100 56 100 56 102 57 C102 57.66 102 58.32 102 59 C102.66 59 103.32 59 104 59 C104 60.32 104 61.64 104 63 C73.33333333 63 42.66666667 63 12 63 C12 62.34 12 61.68 12 61 C11.01 61 10.02 61 9 61 C9 59.68 9 58.36 9 57 C8.34 57 7.68 57 7 57 C7 57.66 7 58.32 7 59 C6.34 59 5.68 59 5 59 C5 59.66 5 60.32 5 61 C3.68 61 2.36 61 1 61 C1 61.66 1 62.32 1 63 C-0.98 63 -2.96 63 -5 63 C-5 63.66 -5 64.32 -5 65 C-7.97 65 -10.94 65 -14 65 C-14 64.34 -14 63.68 -14 63 C-15.98 63 -17.96 63 -20 63 C-20 62.34 -20 61.68 -20 61 C-20.66 61 -21.32 61 -22 61 C-22 59.68 -22 58.36 -22 57 C-22.66 57 -23.32 57 -24 57 C-24.0582253 53.91674642 -24.09367134 50.83363495 -24.125 47.75 C-24.14175781 46.87730469 -24.15851562 46.00460938 -24.17578125 45.10546875 C-24.18222656 44.26113281 -24.18867187 43.41679687 -24.1953125 42.546875 C-24.20578613 41.77182617 -24.21625977 40.99677734 -24.22705078 40.19824219 C-23.97326556 37.74116461 -23.22444152 36.12688458 -22 34 C-21.34 34 -20.68 34 -20 34 C-20 33.34 -20 32.68 -20 32 C-18.68 32 -17.36 32 -16 32 C-16 31.34 -16 30.68 -16 30 C-15.01 30 -14.02 30 -13 30 C-13 29.34 -13 28.68 -13 28 C-9.7 28 -6.4 28 -3 28 C-2.67 27.01 -2.34 26.02 -2 25 C1.0625 23.8125 1.0625 23.8125 4 23 C4.33 19.7 4.66 16.4 5 13 C3.68 13 2.36 13 1 13 C1 12.34 1 11.68 1 11 C-2.3 11.66 -5.6 12.32 -9 13 C-9.33 14.98 -9.66 16.96 -10 19 C-10.66 19 -11.32 19 -12 19 C-12 20.98 -12 22.96 -12 25 C-14.64 25 -17.28 25 -20 25 C-20 24.34 -20 23.68 -20 23 C-20.66 23 -21.32 23 -22 23 C-22 21.68 -22 20.36 -22 19 C-22.66 19 -23.32 19 -24 19 C-24 15.04 -24 11.08 -24 7 C-23.34 7 -22.68 7 -22 7 C-22 6.34 -22 5.68 -22 5 C-20.68 4.67 -19.36 4.34 -18 4 C-18 3.34 -18 2.68 -18 2 C-11.99984057 0.41130531 -6.22559073 -0.59754554 0 0 Z M61.25 15 C60.1775 15.66 59.105 16.32 58 17 C58 17.66 58 18.32 58 19 C57.34 19 56.68 19 56 19 C56 19.66 56 20.32 56 21 C55.01 21 54.02 21 53 21 C53 30.9 53 40.8 53 51 C53.99 51 54.98 51 56 51 C56 51.66 56 52.32 56 53 C56.66 53 57.32 53 58 53 C58 53.66 58 54.32 58 55 C59.32 55 60.64 55 62 55 C62 55.66 62 56.32 62 57 C62.66 57 63.32 57 64 57 C64 57.66 64 58.32 64 59 C64.66 59 65.32 59 66 59 C66.33 57.35 66.66 55.7 67 54 C69.475 53.505 69.475 53.505 72 53 C72 52.34 72 51.68 72 51 C72.66 51 73.32 51 74 51 C75.12658858 45.53059417 75.21867756 40.18473272 75.25 34.625 C75.270625 33.7175 75.29125 32.81 75.3125 31.875 C75.34694413 25.89894376 74.65371438 21.3942325 72 16 C71.01 15.67 70.02 15.34 69 15 C69 14.34 69 13.68 69 13 C65.1335864 13 64.30980686 13.11704193 61.25 15 Z M-6 38 C-6 38.66 -6 39.32 -6 40 C-6.99 40 -7.98 40 -9 40 C-9.93380961 44.53140653 -9.93380961 44.53140653 -9 49 C-8.34 49 -7.68 49 -7 49 C-7 49.66 -7 50.32 -7 51 C-5.02 51 -3.04 51 -1 51 C-1 50.34 -1 49.68 -1 49 C0.32 49 1.64 49 3 49 C5.20914 45.68629 5.22481553 44.6553979 5.125 40.8125 C5.10695313 39.91144531 5.08890625 39.01039063 5.0703125 38.08203125 C5.04710937 37.39496094 5.02390625 36.70789063 5 36 C0.78121808 35.80377759 -2.17010894 36.19769832 -6 38 Z " fill="#FEFEFE" transform="translate(617,171)"/>
<path d="M0 0 C8.91 0 17.82 0 27 0 C27 0.66 27 1.32 27 2 C28.65 2 30.3 2 32 2 C32 9.59 32 17.18 32 25 C30.68 25 29.36 25 28 25 C28 24.34 28 23.68 28 23 C27.34 23 26.68 23 26 23 C26 22.34 26 21.68 26 21 C25.360625 20.731875 24.72125 20.46375 24.0625 20.1875 C22 19 22 19 21 16 C20.34 16 19.68 16 19 16 C19 15.34 19 14.68 19 14 C18.34 14 17.68 14 17 14 C17 13.34 17 12.68 17 12 C16.34 12 15.68 12 15 12 C15 11.34 15 10.68 15 10 C13.68 10 12.36 10 11 10 C11 9.34 11 8.68 11 8 C10.34 8 9.68 8 9 8 C9 8.66 9 9.32 9 10 C7.68 10 6.36 10 5 10 C4.67 12.31 4.34 14.62 4 17 C4.78375 17.144375 5.5675 17.28875 6.375 17.4375 C9 18 9 18 11 19 C11 19.66 11 20.32 11 21 C12.98 21 14.96 21 17 21 C17 21.66 17 22.32 17 23 C18.32 23 19.64 23 21 23 C21 23.66 21 24.32 21 25 C22.32 25 23.64 25 25 25 C25 25.66 25 26.32 25 27 C26.32 27 27.64 27 29 27 C29 27.66 29 28.32 29 29 C29.99 29 30.98 29 32 29 C32 29.66 32 30.32 32 31 C32.66 31 33.32 31 34 31 C34.495 32.98 34.495 32.98 35 35 C35.04898438 33.97519531 35.09796875 32.95039062 35.1484375 31.89453125 C35.22351071 30.5338294 35.29905655 29.17315356 35.375 27.8125 C35.4059375 27.13896484 35.436875 26.46542969 35.46875 25.77148438 C35.70103922 21.80321025 36.28387476 18.59270121 38 15 C38.66 15 39.32 15 40 15 C40.268125 14.2575 40.53625 13.515 40.8125 12.75 C41.95276751 10.10938051 43.09380306 8.14447156 45 6 C45.66 6 46.32 6 47 6 C47 5.34 47 4.68 47 4 C47.66 4 48.32 4 49 4 C49 3.34 49 2.68 49 2 C50.32 2 51.64 2 53 2 C53 1.34 53 0.68 53 0 C59.93 0 66.86 0 74 0 C74 0.66 74 1.32 74 2 C75.32 2 76.64 2 78 2 C78 2.66 78 3.32 78 4 C78.66 4 79.32 4 80 4 C80 2.68 80 1.36 80 0 C90.89 0 101.78 0 113 0 C113 0.66 113 1.32 113 2 C113.99 2 114.98 2 116 2 C116 4.64 116 7.28 116 10 C115.01 10 114.02 10 113 10 C113 10.66 113 11.32 113 12 C112.34 12.33 111.68 12.66 111 13 C111.3609375 13.81984375 111.721875 14.6396875 112.09375 15.484375 C112.78984375 17.10085937 112.78984375 17.10085937 113.5 18.75 C114.19609375 20.35101563 114.19609375 20.35101563 114.90625 21.984375 C116 25 116 25 116 29 C116.66 29 117.32 29 118 29 C118 30.65 118 32.3 118 34 C118.66 34 119.32 34 120 34 C120.66 31.69 121.32 29.38 122 27 C122.66 27 123.32 27 124 27 C124 25.68 124 24.36 124 23 C124.66 23 125.32 23 126 23 C126 21.02 126 19.04 126 17 C126.66 17 127.32 17 128 17 C127.3045656 13.99615946 127.3045656 13.99615946 126 11 C123.96756452 10.03122943 123.96756452 10.03122943 122 10 C122 7.36 122 4.72 122 2 C123.32 2 124.64 2 126 2 C126 1.34 126 0.68 126 0 C134.91 0 143.82 0 153 0 C153 1.32 153 2.64 153 4 C152.34 4 151.68 4 151 4 C151 4.66 151 5.32 151 6 C150.34 6 149.68 6 149 6 C149 6.66 149 7.32 149 8 C148.34 8 147.68 8 147 8 C147 8.66 147 9.32 147 10 C146.34 10 145.68 10 145 10 C145 10.66 145 11.32 145 12 C144.34 12 143.68 12 143 12 C142.62875 13.2684375 142.62875 13.2684375 142.25 14.5625 C140.86026373 18.38427474 139.08879162 21.51868063 137 25 C136.34 25 135.68 25 135 25 C134.87625 25.9075 134.7525 26.815 134.625 27.75 C134.07890323 30.58970323 133.42736197 32.52590591 132 35 C131.34 35 130.68 35 130 35 C130 36.65 130 38.3 130 40 C129.34 40 128.68 40 128 40 C128 41.32 128 42.64 128 44 C127.34 44 126.68 44 126 44 C126.04125 44.721875 126.0825 45.44375 126.125 46.1875 C125.99078695 49.20729369 125.24829381 51.26935729 124 54 C123.34 54 122.68 54 122 54 C121.855625 54.7425 121.71125 55.485 121.5625 56.25 C121.09812508 58.52027739 120.58136431 60.75759479 120 63 C119.34 63 118.68 63 118 63 C117.896875 63.66 117.79375 64.32 117.6875 65 C116.30629365 71.02708225 113.86979265 76.53372828 111 82 C110.34 82 109.68 82 109 82 C109 83.32 109 84.64 109 86 C108.34 86 107.68 86 107 86 C107 87.32 107 88.64 107 90 C104.36 90 101.72 90 99 90 C99 89.34 99 88.68 99 88 C98.34 88 97.68 88 97 88 C97 86.02 97 84.04 97 82 C97.66 82 98.32 82 99 82 C98.95875 81.113125 98.9175 80.22625 98.875 79.3125 C98.99897246 76.02722987 99.61387904 73.94550705 101 71 C101.66 71 102.32 71 103 71 C103 69.68 103 68.36 103 67 C103.66 67 104.32 67 105 67 C105 65.68 105 64.36 105 63 C105.66 63 106.32 63 107 63 C107 61.68 107 60.36 107 59 C107.66 59 108.32 59 109 59 C108.855625 58.39671875 108.71125 57.7934375 108.5625 57.171875 C108.376875 56.37265625 108.19125 55.5734375 108 54.75 C107.814375 53.96109375 107.62875 53.1721875 107.4375 52.359375 C107 50 107 50 107 46 C106.34 46 105.68 46 105 46 C105 44.68 105 43.36 105 42 C104.34 42 103.68 42 103 42 C101.50178941 38.62902617 101 36.79557881 101 33 C100.34 33 99.68 33 99 33 C99 31.68 99 30.36 99 29 C98.34 29 97.68 29 97 29 C97 27.68 97 26.36 97 25 C96.34 25 95.68 25 95 25 C95 23.68 95 22.36 95 21 C94.34 21 93.68 21 93 21 C93 20.01 93 19.02 93 18 C92.34 18 91.68 18 91 18 C90.505 16.515 90.505 16.515 90 15 C89.01 14.505 89.01 14.505 88 14 C88 13.34 88 12.68 88 12 C87.34 12 86.68 12 86 12 C86 16.95 86 21.9 86 27 C84.68 27 83.36 27 82 27 C82 27.66 82 28.32 82 29 C76.39 29 70.78 29 65 29 C65 29.66 65 30.32 65 31 C60.38 31 55.76 31 51 31 C51 32.65 51 34.3 51 36 C51.66 36 52.32 36 53 36 C53 37.32 53 38.64 53 40 C53.66 40 54.32 40 55 40 C55 40.66 55 41.32 55 42 C55.66 42 56.32 42 57 42 C57 42.66 57 43.32 57 44 C57.66 44 58.32 44 59 44 C59 44.66 59 45.32 59 46 C60.32 46 61.64 46 63 46 C63 46.66 63 47.32 63 48 C66.63 48 70.26 48 74 48 C74 47.34 74 46.68 74 46 C75.98 45.34 77.96 44.68 80 44 C80 43.34 80 42.68 80 42 C80.66 42 81.32 42 82 42 C82 41.34 82 40.68 82 40 C84.97 40 87.94 40 91 40 C91.125 47.75 91.125 47.75 90 50 C89.34 50 88.68 50 88 50 C88 50.66 88 51.32 88 52 C87.34 52 86.68 52 86 52 C86 52.66 86 53.32 86 54 C85.34 54 84.68 54 84 54 C84 54.66 84 55.32 84 56 C83.34 56 82.68 56 82 56 C82 56.99 82 57.98 82 59 C78.91190305 60.76462683 77.76687864 61 74 61 C74 61.66 74 62.32 74 63 C70.99900412 63.10890711 68.00203622 63.18773555 65 63.25 C63.74123047 63.30027344 63.74123047 63.30027344 62.45703125 63.3515625 C55.66290917 63.45689773 50.45371686 62.02885486 45.27734375 57.48925781 C44 56 44 56 44 54 C43.34 54 42.68 54 42 54 C42 53.34 42 52.68 42 52 C41.34 52 40.68 52 40 52 C40 50.68 40 49.36 40 48 C39.34 48 38.68 48 38 48 C37.67 47.01 37.34 46.02 37 45 C36.67 47.97 36.34 50.94 36 54 C35.34 54 34.68 54 34 54 C34 55.32 34 56.64 34 58 C33.34 58 32.68 58 32 58 C32 58.66 32 59.32 32 60 C27.86172081 63.33954817 23.95317955 63.39966623 18.85546875 63.29296875 C18.08568192 63.28872391 17.31589508 63.28447906 16.52278137 63.28010559 C14.07732354 63.26338597 11.63270643 63.2257477 9.1875 63.1875 C7.52410049 63.17244441 5.86068799 63.15875754 4.19726562 63.14648438 C0.13093025 63.11606291 -3.93359995 63.05733306 -8 63 C-8 54.75 -8 46.5 -8 38 C-6.515 37.505 -6.515 37.505 -5 37 C-3.29115995 38.62339805 -1.62553283 40.29319053 0 42 C0 42.66 0 43.32 0 44 C0.66 44 1.32 44 2 44 C2 44.66 2 45.32 2 46 C2.66 46 3.32 46 4 46 C4 46.66 4 47.32 4 48 C4.99 48 5.98 48 7 48 C7 48.66 7 49.32 7 50 C11.95 50.66 16.9 51.32 22 52 C22 50.02 22 48.04 22 46 C21.01 45.34 20.02 44.68 19 44 C19 43.34 19 42.68 19 42 C18.13117188 41.89816406 17.26234375 41.79632813 16.3671875 41.69140625 C12.77915302 40.95465207 10.29160378 39.75250461 7.125 37.9375 C6.15820312 37.38964844 5.19140625 36.84179688 4.1953125 36.27734375 C3.47085937 35.85582031 2.74640625 35.43429688 2 35 C2 34.34 2 33.68 2 33 C0.68 33 -0.64 33 -2 33 C-2 32.34 -2 31.68 -2 31 C-2.66 31 -3.32 31 -4 31 C-4 30.34 -4 29.68 -4 29 C-4.66 29 -5.32 29 -6 29 C-6 28.34 -6 27.68 -6 27 C-6.66 27 -7.32 27 -8 27 C-8.36103536 25.18885568 -8.71365504 23.37603177 -9.0625 21.5625 C-9.35833984 20.04849609 -9.35833984 20.04849609 -9.66015625 18.50390625 C-9.77230469 17.67761719 -9.88445312 16.85132812 -10 16 C-9.67 15.67 -9.34 15.34 -9 15 C-8.63239269 12.67182036 -8.29758419 10.3381615 -8 8 C-7.34 8 -6.68 8 -6 8 C-6 6.68 -6 5.36 -6 4 C-3 2 -3 2 0 2 C0 1.34 0 0.68 0 0 Z M63 8 C63 8.66 63 9.32 63 10 C61.68 10 60.36 10 59 10 C59 10.66 59 11.32 59 12 C58.34 12 57.68 12 57 12 C57 12.66 57 13.32 57 14 C56.34 14 55.68 14 55 14 C55 14.66 55 15.32 55 16 C54.34 16 53.68 16 53 16 C52.34 17.65 51.68 19.3 51 21 C56.61 21 62.22 21 68 21 C68 20.34 68 19.68 68 19 C69.32 19 70.64 19 72 19 C72 16.69 72 14.38 72 12 C71.34 12 70.68 12 70 12 C70 11.34 70 10.68 70 10 C68.35 10 66.7 10 65 10 C65 9.34 65 8.68 65 8 C64.34 8 63.68 8 63 8 Z " fill="#FEFEFE" transform="translate(368,56)"/>
<path d="M0 0 C0.86238281 -0.00386719 1.72476563 -0.00773437 2.61328125 -0.01171875 C3.84884766 -0.00978516 3.84884766 -0.00978516 5.109375 -0.0078125 C6.23037598 -0.00612061 6.23037598 -0.00612061 7.37402344 -0.00439453 C9.25 0.125 9.25 0.125 11.25 1.125 C11.25 2.445 11.25 3.765 11.25 5.125 C11.91 5.125 12.57 5.125 13.25 5.125 C13.518125 6.011875 13.78625 6.89875 14.0625 7.8125 C15.11223164 11.07950027 15.11223164 11.07950027 16.75 13.625 C19.25592014 17.80153357 20.25 21.25715397 20.25 26.125 C20.91 26.125 21.57 26.125 22.25 26.125 C22.25 28.105 22.25 30.085 22.25 32.125 C22.91 32.125 23.57 32.125 24.25 32.125 C24.25 33.445 24.25 34.765 24.25 36.125 C24.91 36.125 25.57 36.125 26.25 36.125 C26.25 38.105 26.25 40.085 26.25 42.125 C26.91 42.125 27.57 42.125 28.25 42.125 C28.25 43.775 28.25 45.425 28.25 47.125 C28.91 47.125 29.57 47.125 30.25 47.125 C31.85355101 50.63276784 32.47036864 53.26854879 32.25 57.125 C33.9 57.125 35.55 57.125 37.25 57.125 C37.25 55.805 37.25 54.485 37.25 53.125 C37.91 53.125 38.57 53.125 39.25 53.125 C39.25 51.145 39.25 49.165 39.25 47.125 C39.91 47.125 40.57 47.125 41.25 47.125 C41.394375 46.3825 41.53875 45.64 41.6875 44.875 C42.15187492 42.60472261 42.66863569 40.36740521 43.25 38.125 C43.91 38.125 44.57 38.125 45.25 38.125 C45.25 36.805 45.25 35.485 45.25 34.125 C45.91 34.125 46.57 34.125 47.25 34.125 C47.25 32.145 47.25 30.165 47.25 28.125 C47.91 28.125 48.57 28.125 49.25 28.125 C49.25 26.805 49.25 25.485 49.25 24.125 C49.91 24.125 50.57 24.125 51.25 24.125 C51.21132812 23.40828125 51.17265625 22.6915625 51.1328125 21.953125 C51.26092757 18.86128129 51.95458776 16.72841379 53.125 13.875 C53.47304687 13.00359375 53.82109375 12.1321875 54.1796875 11.234375 C55.25 9.125 55.25 9.125 57.25 8.125 C57.90555119 5.59766765 57.90555119 5.59766765 58.25 3.125 C58.91 3.125 59.57 3.125 60.25 3.125 C60.58 2.135 60.91 1.145 61.25 0.125 C64.87498334 0.09606068 68.49993713 0.07822208 72.125 0.0625 C73.67380859 0.04993164 73.67380859 0.04993164 75.25390625 0.03710938 C76.24003906 0.03388672 77.22617188 0.03066406 78.2421875 0.02734375 C79.60899658 0.01948853 79.60899658 0.01948853 81.00341797 0.01147461 C83.25 0.125 83.25 0.125 85.25 1.125 C85.25 1.785 85.25 2.445 85.25 3.125 C85.91 3.125 86.57 3.125 87.25 3.125 C87.25 4.775 87.25 6.425 87.25 8.125 C85.93 8.455 84.61 8.785 83.25 9.125 C83.25 9.785 83.25 10.445 83.25 11.125 C81.6 11.125 79.95 11.125 78.25 11.125 C78.25 33.235 78.25 55.345 78.25 78.125 C78.91 78.125 79.57 78.125 80.25 78.125 C80.58 79.445 80.91 80.765 81.25 82.125 C82.57 82.125 83.89 82.125 85.25 82.125 C85.25 82.785 85.25 83.445 85.25 84.125 C85.91 84.125 86.57 84.125 87.25 84.125 C87.375 87.5 87.375 87.5 87.25 91.125 C84.76149326 93.61350674 83.2878994 93.3711233 79.89086914 93.40289307 C78.80020142 93.39682037 78.80020142 93.39682037 77.6875 93.390625 C76.56686157 93.39349518 76.56686157 93.39349518 75.42358398 93.39642334 C73.84325829 93.39778498 72.26292142 93.39409 70.68261719 93.38574219 C68.25951078 93.375042 65.83714577 93.38563779 63.4140625 93.3984375 C61.88020669 93.3971159 60.34635135 93.3945535 58.8125 93.390625 C58.08538818 93.39467346 57.35827637 93.39872192 56.60913086 93.40289307 C51.47992361 93.35492361 51.47992361 93.35492361 49.25 91.125 C48.98008094 88.43660615 49.16262643 85.83358064 49.25 83.125 C50.384375 82.67125 51.51875 82.2175 52.6875 81.75 C56.29721692 80.55404194 56.29721692 80.55404194 57.25 78.125 C57.33705146 75.13529711 57.36550145 72.16915045 57.34765625 69.1796875 C57.3462413 68.2946756 57.34482635 67.4096637 57.34336853 66.49783325 C57.3377614 63.66518809 57.32520771 60.83262136 57.3125 58 C57.30748592 56.08203239 57.30292285 54.16406354 57.29882812 52.24609375 C57.28778966 47.53903218 57.27052025 42.8320294 57.25 38.125 C56.59 38.125 55.93 38.125 55.25 38.125 C55.25 39.445 55.25 40.765 55.25 42.125 C54.59 42.125 53.93 42.125 53.25 42.125 C53.25 44.105 53.25 46.085 53.25 48.125 C52.59 48.125 51.93 48.125 51.25 48.125 C51.25 49.775 51.25 51.425 51.25 53.125 C50.59 53.125 49.93 53.125 49.25 53.125 C49.25 54.445 49.25 55.765 49.25 57.125 C48.59 57.125 47.93 57.125 47.25 57.125 C47.25 59.105 47.25 61.085 47.25 63.125 C46.59 63.125 45.93 63.125 45.25 63.125 C45.105625 63.8675 44.96125 64.61 44.8125 65.375 C44.34812508 67.64527739 43.83136431 69.88259479 43.25 72.125 C42.59 72.125 41.93 72.125 41.25 72.125 C41.064375 73.48625 41.064375 73.48625 40.875 74.875 C40.32890323 77.71470323 39.67736197 79.65090591 38.25 82.125 C37.59 82.125 36.93 82.125 36.25 82.125 C36.25 83.445 36.25 84.765 36.25 86.125 C35.59 86.125 34.93 86.125 34.25 86.125 C33.755 88.105 33.755 88.105 33.25 90.125 C30.775 90.62 30.775 90.62 28.25 91.125 C28.25 90.465 28.25 89.805 28.25 89.125 C27.59 89.125 26.93 89.125 26.25 89.125 C24.75178941 85.75402617 24.25 83.92057881 24.25 80.125 C23.59 80.125 22.93 80.125 22.25 80.125 C22.25 78.805 22.25 77.485 22.25 76.125 C21.59 76.125 20.93 76.125 20.25 76.125 C18.44769832 72.29510894 18.05377759 69.34378192 18.25 65.125 C17.59 65.125 16.93 65.125 16.25 65.125 C16.25 63.805 16.25 62.485 16.25 61.125 C15.26 60.795 14.27 60.465 13.25 60.125 C11.54466783 56.80408998 11.25 54.94007216 11.25 51.125 C10.59 51.125 9.93 51.125 9.25 51.125 C9.25 49.475 9.25 47.825 9.25 46.125 C8.59 46.125 7.93 46.125 7.25 46.125 C7.25 44.145 7.25 42.165 7.25 40.125 C6.59 40.125 5.93 40.125 5.25 40.125 C5.25 38.805 5.25 37.485 5.25 36.125 C4.59 36.125 3.93 36.125 3.25 36.125 C3.25 50.645 3.25 65.165 3.25 80.125 C3.91 80.125 4.57 80.125 5.25 80.125 C5.25 80.785 5.25 81.445 5.25 82.125 C7.23 82.455 9.21 82.785 11.25 83.125 C11.25 86.095 11.25 89.065 11.25 92.125 C6.9156545 94.29217275 1.07329475 93.30996361 -3.6875 93.3125 C-4.89341797 93.32474609 -6.09933594 93.33699219 -7.34179688 93.34960938 C-9.07333008 93.35250977 -9.07333008 93.35250977 -10.83984375 93.35546875 C-12.43107056 93.36163208 -12.43107056 93.36163208 -14.05444336 93.36791992 C-16.75 93.125 -16.75 93.125 -19.75 91.125 C-20.22114738 88.3822492 -19.92805784 85.92941103 -19.75 83.125 C-18.75 82.125 -18.75 82.125 -16.1875 82.0625 C-15.383125 82.083125 -14.57875 82.10375 -13.75 82.125 C-13.75 81.465 -13.75 80.805 -13.75 80.125 C-13.09 80.125 -12.43 80.125 -11.75 80.125 C-11.75 79.465 -11.75 78.805 -11.75 78.125 C-11.09 78.125 -10.43 78.125 -9.75 78.125 C-9.75523682 77.55056152 -9.76047363 76.97612305 -9.76586914 76.38427734 C-9.78678576 73.75619623 -9.79970659 71.12813271 -9.8125 68.5 C-9.82087891 67.59636719 -9.82925781 66.69273438 -9.83789062 65.76171875 C-9.854973 61.08114918 -9.64069139 56.73726241 -8.75 52.125 C-8.5494493 48.81001498 -8.39885187 45.47503164 -9.24023438 42.24023438 C-9.87568265 39.60348923 -9.94921067 37.11703885 -10.03125 34.40625 C-10.06863281 33.30925781 -10.10601562 32.21226563 -10.14453125 31.08203125 C-10.21484375 28.77734375 -10.28515625 26.47265625 -10.35546875 24.16796875 C-10.39285156 23.07097656 -10.43023437 21.97398438 -10.46875 20.84375 C-10.49904297 19.84279297 -10.52933594 18.84183594 -10.56054688 17.81054688 C-10.72738418 15.44558502 -11.08406621 13.3924102 -11.75 11.125 C-12.41 11.125 -13.07 11.125 -13.75 11.125 C-13.75 10.465 -13.75 9.805 -13.75 9.125 C-15.07 9.125 -16.39 9.125 -17.75 9.125 C-19.75 6.125 -19.75 6.125 -19.75 3.125 C-18.43 3.125 -17.11 3.125 -15.75 3.125 C-15.75 2.465 -15.75 1.805 -15.75 1.125 C-10.46619943 0.03715871 -5.36686215 -0.02450622 0 0 Z " fill="#FEFEFE" transform="translate(37.75,25.875)"/>
<path d="M0 0 C1.01707031 0.00193359 2.03414062 0.00386719 3.08203125 0.00585938 C4.65791016 0.02422852 4.65791016 0.02422852 6.265625 0.04296875 C7.33167969 0.04361328 8.39773437 0.04425781 9.49609375 0.04492188 C17.37524524 0.09008899 17.37524524 0.09008899 18.515625 1.23046875 C20.36454446 1.46410756 22.22050531 1.6435051 24.078125 1.79296875 C25.890625 1.93880208 27.703125 2.08463542 29.515625 2.23046875 C29.54450012 5.87628562 29.56238085 9.52207338 29.578125 13.16796875 C29.58650391 14.20888672 29.59488281 15.24980469 29.60351562 16.32226562 C29.60673828 17.31162109 29.60996094 18.30097656 29.61328125 19.3203125 C29.61851807 20.23675537 29.62375488 21.15319824 29.62915039 22.09741211 C29.515625 24.23046875 29.515625 24.23046875 28.515625 25.23046875 C25.265625 25.73046875 25.265625 25.73046875 21.515625 25.23046875 C19.34932099 23.17704906 17.82890472 20.90544404 16.515625 18.23046875 C16.515625 17.57046875 16.515625 16.91046875 16.515625 16.23046875 C15.855625 16.23046875 15.195625 16.23046875 14.515625 16.23046875 C14.515625 15.57046875 14.515625 14.91046875 14.515625 14.23046875 C13.855625 14.23046875 13.195625 14.23046875 12.515625 14.23046875 C12.515625 13.57046875 12.515625 12.91046875 12.515625 12.23046875 C11.938125 12.08609375 11.360625 11.94171875 10.765625 11.79296875 C7.640625 11.01171875 7.640625 11.01171875 4.515625 10.23046875 C4.515625 9.57046875 4.515625 8.91046875 4.515625 8.23046875 C3.525625 8.23046875 2.535625 8.23046875 1.515625 8.23046875 C1.515625 8.89046875 1.515625 9.55046875 1.515625 10.23046875 C0.195625 10.23046875 -1.124375 10.23046875 -2.484375 10.23046875 C-2.484375 10.89046875 -2.484375 11.55046875 -2.484375 12.23046875 C-3.474375 12.56046875 -4.464375 12.89046875 -5.484375 13.23046875 C-6.21761296 15.24555233 -6.21761296 15.24555233 -6.484375 17.23046875 C-7.144375 17.23046875 -7.804375 17.23046875 -8.484375 17.23046875 C-8.484375 18.55046875 -8.484375 19.87046875 -8.484375 21.23046875 C-7.824375 21.23046875 -7.164375 21.23046875 -6.484375 21.23046875 C-6.484375 21.89046875 -6.484375 22.55046875 -6.484375 23.23046875 C-5.824375 23.23046875 -5.164375 23.23046875 -4.484375 23.23046875 C-4.484375 23.89046875 -4.484375 24.55046875 -4.484375 25.23046875 C-3.824375 25.23046875 -3.164375 25.23046875 -2.484375 25.23046875 C-2.484375 25.89046875 -2.484375 26.55046875 -2.484375 27.23046875 C-1.824375 27.23046875 -1.164375 27.23046875 -0.484375 27.23046875 C-0.484375 27.89046875 -0.484375 28.55046875 -0.484375 29.23046875 C0.175625 29.23046875 0.835625 29.23046875 1.515625 29.23046875 C1.515625 29.89046875 1.515625 30.55046875 1.515625 31.23046875 C2.505625 31.56046875 3.495625 31.89046875 4.515625 32.23046875 C4.515625 32.89046875 4.515625 33.55046875 4.515625 34.23046875 C5.175625 34.23046875 5.835625 34.23046875 6.515625 34.23046875 C6.515625 34.89046875 6.515625 35.55046875 6.515625 36.23046875 C7.175625 36.23046875 7.835625 36.23046875 8.515625 36.23046875 C8.515625 36.89046875 8.515625 37.55046875 8.515625 38.23046875 C9.175625 38.23046875 9.835625 38.23046875 10.515625 38.23046875 C10.515625 38.89046875 10.515625 39.55046875 10.515625 40.23046875 C11.175625 40.23046875 11.835625 40.23046875 12.515625 40.23046875 C12.515625 40.89046875 12.515625 41.55046875 12.515625 42.23046875 C13.175625 42.23046875 13.835625 42.23046875 14.515625 42.23046875 C14.515625 42.89046875 14.515625 43.55046875 14.515625 44.23046875 C15.175625 44.23046875 15.835625 44.23046875 16.515625 44.23046875 C16.515625 44.89046875 16.515625 45.55046875 16.515625 46.23046875 C17.175625 46.23046875 17.835625 46.23046875 18.515625 46.23046875 C18.515625 46.89046875 18.515625 47.55046875 18.515625 48.23046875 C19.175625 48.23046875 19.835625 48.23046875 20.515625 48.23046875 C20.515625 48.89046875 20.515625 49.55046875 20.515625 50.23046875 C21.175625 50.23046875 21.835625 50.23046875 22.515625 50.23046875 C22.515625 50.89046875 22.515625 51.55046875 22.515625 52.23046875 C23.155 52.49859375 23.794375 52.76671875 24.453125 53.04296875 C26.515625 54.23046875 26.515625 54.23046875 27.515625 57.23046875 C28.175625 57.23046875 28.835625 57.23046875 29.515625 57.23046875 C29.515625 57.89046875 29.515625 58.55046875 29.515625 59.23046875 C31.495625 59.89046875 33.475625 60.55046875 35.515625 61.23046875 C35.515625 61.89046875 35.515625 62.55046875 35.515625 63.23046875 C36.175625 63.23046875 36.835625 63.23046875 37.515625 63.23046875 C37.185625 56.96046875 36.855625 50.69046875 36.515625 44.23046875 C35.525625 44.23046875 34.535625 44.23046875 33.515625 44.23046875 C33.515625 43.57046875 33.515625 42.91046875 33.515625 42.23046875 C32.855625 42.23046875 32.195625 42.23046875 31.515625 42.23046875 C31.515625 41.57046875 31.515625 40.91046875 31.515625 40.23046875 C30.195625 40.23046875 28.875625 40.23046875 27.515625 40.23046875 C27.515625 39.57046875 27.515625 38.91046875 27.515625 38.23046875 C26.195625 37.90046875 24.875625 37.57046875 23.515625 37.23046875 C23.515625 35.25046875 23.515625 33.27046875 23.515625 31.23046875 C29.03319979 31.20579266 34.55074261 31.18762019 40.06835938 31.17553711 C41.94629475 31.17050112 43.8242262 31.16367204 45.70214844 31.1550293 C48.39779632 31.14293162 51.09339247 31.13723318 53.7890625 31.1328125 C54.63181732 31.12765121 55.47457214 31.12248993 56.34286499 31.11717224 C62.28788159 31.11659704 62.28788159 31.11659704 64.515625 32.23046875 C63.525625 35.20046875 63.525625 35.20046875 62.515625 38.23046875 C61.855625 38.23046875 61.195625 38.23046875 60.515625 38.23046875 C60.515625 38.89046875 60.515625 39.55046875 60.515625 40.23046875 C59.855625 40.23046875 59.195625 40.23046875 58.515625 40.23046875 C58.515625 40.89046875 58.515625 41.55046875 58.515625 42.23046875 C57.030625 42.72546875 57.030625 42.72546875 55.515625 43.23046875 C55.185625 44.22046875 54.855625 45.21046875 54.515625 46.23046875 C53.855625 46.23046875 53.195625 46.23046875 52.515625 46.23046875 C52.515625 47.55046875 52.515625 48.87046875 52.515625 50.23046875 C51.855625 50.23046875 51.195625 50.23046875 50.515625 50.23046875 C50.556875 51.40609375 50.598125 52.58171875 50.640625 53.79296875 C50.65546135 57.95456549 49.82733278 61.29534542 48.515625 65.23046875 C47.855625 65.23046875 47.195625 65.23046875 46.515625 65.23046875 C46.515625 67.54046875 46.515625 69.85046875 46.515625 72.23046875 C47.175625 72.56046875 47.835625 72.89046875 48.515625 73.23046875 C48.515625 73.89046875 48.515625 74.55046875 48.515625 75.23046875 C50.495625 75.72546875 50.495625 75.72546875 52.515625 76.23046875 C52.515625 76.89046875 52.515625 77.55046875 52.515625 78.23046875 C53.175625 78.23046875 53.835625 78.23046875 54.515625 78.23046875 C54.515625 78.89046875 54.515625 79.55046875 54.515625 80.23046875 C55.835625 80.23046875 57.155625 80.23046875 58.515625 80.23046875 C58.515625 80.89046875 58.515625 81.55046875 58.515625 82.23046875 C60.495625 82.23046875 62.475625 82.23046875 64.515625 82.23046875 C64.515625 85.53046875 64.515625 88.83046875 64.515625 92.23046875 C57.915625 92.23046875 51.315625 92.23046875 44.515625 92.23046875 C44.515625 91.57046875 44.515625 90.91046875 44.515625 90.23046875 C42.205625 90.23046875 39.895625 90.23046875 37.515625 90.23046875 C37.515625 89.57046875 37.515625 88.91046875 37.515625 88.23046875 C36.195625 88.23046875 34.875625 88.23046875 33.515625 88.23046875 C33.515625 87.57046875 33.515625 86.91046875 33.515625 86.23046875 C32.855625 86.23046875 32.195625 86.23046875 31.515625 86.23046875 C31.515625 86.89046875 31.515625 87.55046875 31.515625 88.23046875 C30.195625 88.23046875 28.875625 88.23046875 27.515625 88.23046875 C27.515625 88.89046875 27.515625 89.55046875 27.515625 90.23046875 C25.865625 90.23046875 24.215625 90.23046875 22.515625 90.23046875 C22.515625 90.89046875 22.515625 91.55046875 22.515625 92.23046875 C19.875625 92.23046875 17.235625 92.23046875 14.515625 92.23046875 C14.515625 92.89046875 14.515625 93.55046875 14.515625 94.23046875 C11.66119747 94.2848388 8.80782424 94.32431849 5.953125 94.35546875 C5.15326172 94.37222656 4.35339844 94.38898438 3.52929688 94.40625 C-1.54937835 94.44770857 -5.67249406 93.8710295 -10.484375 92.23046875 C-10.484375 91.57046875 -10.484375 90.91046875 -10.484375 90.23046875 C-11.804375 90.23046875 -13.124375 90.23046875 -14.484375 90.23046875 C-14.484375 89.57046875 -14.484375 88.91046875 -14.484375 88.23046875 C-15.144375 88.23046875 -15.804375 88.23046875 -16.484375 88.23046875 C-16.484375 87.57046875 -16.484375 86.91046875 -16.484375 86.23046875 C-17.144375 86.23046875 -17.804375 86.23046875 -18.484375 86.23046875 C-18.484375 85.57046875 -18.484375 84.91046875 -18.484375 84.23046875 C-19.12375 84.00359375 -19.763125 83.77671875 -20.421875 83.54296875 C-22.484375 82.23046875 -22.484375 82.23046875 -23.234375 79.60546875 C-23.316875 78.82171875 -23.399375 78.03796875 -23.484375 77.23046875 C-24.144375 77.23046875 -24.804375 77.23046875 -25.484375 77.23046875 C-25.484375 69.31046875 -25.484375 61.39046875 -25.484375 53.23046875 C-24.824375 53.23046875 -24.164375 53.23046875 -23.484375 53.23046875 C-23.401875 52.52921875 -23.319375 51.82796875 -23.234375 51.10546875 C-22.30428495 47.54012355 -20.71751131 45.14031303 -18.484375 42.23046875 C-17.824375 42.23046875 -17.164375 42.23046875 -16.484375 42.23046875 C-16.484375 41.57046875 -16.484375 40.91046875 -16.484375 40.23046875 C-15.824375 40.23046875 -15.164375 40.23046875 -14.484375 40.23046875 C-14.484375 39.24046875 -14.484375 38.25046875 -14.484375 37.23046875 C-15.144375 37.23046875 -15.804375 37.23046875 -16.484375 37.23046875 C-16.484375 35.25046875 -16.484375 33.27046875 -16.484375 31.23046875 C-17.144375 31.23046875 -17.804375 31.23046875 -18.484375 31.23046875 C-18.5424226 27.95970992 -18.57798665 24.68908351 -18.609375 21.41796875 C-18.62613281 20.48919922 -18.64289063 19.56042969 -18.66015625 18.60351562 C-18.66660156 17.71083984 -18.67304688 16.81816406 -18.6796875 15.8984375 C-18.69016113 15.07625732 -18.70063477 14.25407715 -18.71142578 13.40698242 C-18.484375 11.23046875 -18.484375 11.23046875 -16.484375 8.23046875 C-15.824375 8.23046875 -15.164375 8.23046875 -14.484375 8.23046875 C-13.824375 6.91046875 -13.164375 5.59046875 -12.484375 4.23046875 C-11.824375 4.23046875 -11.164375 4.23046875 -10.484375 4.23046875 C-10.484375 3.57046875 -10.484375 2.91046875 -10.484375 2.23046875 C-6.83620631 0.56369 -4.00158222 -0.01766015 0 0 Z M-10.484375 50.23046875 C-10.484375 55.84046875 -10.484375 61.45046875 -10.484375 67.23046875 C-9.824375 67.23046875 -9.164375 67.23046875 -8.484375 67.23046875 C-8.484375 68.55046875 -8.484375 69.87046875 -8.484375 71.23046875 C-7.824375 71.23046875 -7.164375 71.23046875 -6.484375 71.23046875 C-6.484375 71.89046875 -6.484375 72.55046875 -6.484375 73.23046875 C-5.824375 73.23046875 -5.164375 73.23046875 -4.484375 73.23046875 C-4.484375 73.89046875 -4.484375 74.55046875 -4.484375 75.23046875 C-3.824375 75.23046875 -3.164375 75.23046875 -2.484375 75.23046875 C-2.154375 76.22046875 -1.824375 77.21046875 -1.484375 78.23046875 C-0.494375 78.23046875 0.495625 78.23046875 1.515625 78.23046875 C1.515625 78.89046875 1.515625 79.55046875 1.515625 80.23046875 C3.165625 80.23046875 4.815625 80.23046875 6.515625 80.23046875 C6.515625 80.89046875 6.515625 81.55046875 6.515625 82.23046875 C10.475625 82.23046875 14.435625 82.23046875 18.515625 82.23046875 C18.515625 81.57046875 18.515625 80.91046875 18.515625 80.23046875 C20.165625 80.23046875 21.815625 80.23046875 23.515625 80.23046875 C23.73093908 78.13015196 23.73093908 78.13015196 22.140625 76.60546875 C20.61594179 75.01515467 20.61594179 75.01515467 18.515625 75.23046875 C18.515625 74.57046875 18.515625 73.91046875 18.515625 73.23046875 C17.855625 73.23046875 17.195625 73.23046875 16.515625 73.23046875 C16.515625 72.57046875 16.515625 71.91046875 16.515625 71.23046875 C15.855625 71.23046875 15.195625 71.23046875 14.515625 71.23046875 C14.515625 70.57046875 14.515625 69.91046875 14.515625 69.23046875 C13.855625 69.23046875 13.195625 69.23046875 12.515625 69.23046875 C12.515625 68.57046875 12.515625 67.91046875 12.515625 67.23046875 C11.855625 67.23046875 11.195625 67.23046875 10.515625 67.23046875 C10.515625 66.57046875 10.515625 65.91046875 10.515625 65.23046875 C9.855625 65.23046875 9.195625 65.23046875 8.515625 65.23046875 C8.515625 64.57046875 8.515625 63.91046875 8.515625 63.23046875 C7.855625 63.23046875 7.195625 63.23046875 6.515625 63.23046875 C6.515625 62.57046875 6.515625 61.91046875 6.515625 61.23046875 C5.855625 61.23046875 5.195625 61.23046875 4.515625 61.23046875 C4.515625 60.57046875 4.515625 59.91046875 4.515625 59.23046875 C3.855625 59.23046875 3.195625 59.23046875 2.515625 59.23046875 C2.515625 58.57046875 2.515625 57.91046875 2.515625 57.23046875 C-0.12122247 54.8322657 -0.12122247 54.8322657 -3.484375 54.23046875 C-3.484375 53.57046875 -3.484375 52.91046875 -3.484375 52.23046875 C-6.43814998 49.86066862 -6.43814998 49.86066862 -10.484375 50.23046875 Z " fill="#FEFEFE" transform="translate(200.484375,141.76953125)"/>
<path d="M0 0 C0 0.66 0 1.32 0 2 C0.99 2.33 1.98 2.66 3 3 C3 3.66 3 4.32 3 5 C3.66 5 4.32 5 5 5 C5 5.66 5 6.32 5 7 C5.66 7 6.32 7 7 7 C7 6.34 7 5.68 7 5 C8.32 5 9.64 5 11 5 C11.33 4.01 11.66 3.02 12 2 C12.99 2 13.98 2 15 2 C15 1.34 15 0.68 15 0 C21.40338126 -2.17987447 27.51273707 -3.1386981 34.0625 -1 C34.701875 -0.67 35.34125 -0.34 36 0 C36 0.66 36 1.32 36 2 C36.66 2 37.32 2 38 2 C38 2.99 38 3.98 38 5 C38.66 5 39.32 5 40 5 C40 5.66 40 6.32 40 7 C40.66 7 41.32 7 42 7 C42.02505615 7.69150146 42.0501123 8.38300293 42.07592773 9.09545898 C42.19152161 12.20967866 42.31441242 15.32356789 42.4375 18.4375 C42.47681641 19.52611328 42.51613281 20.61472656 42.55664062 21.73632812 C42.59853516 22.77080078 42.64042969 23.80527344 42.68359375 24.87109375 C42.72025146 25.82943115 42.75690918 26.78776855 42.79467773 27.77514648 C42.75834424 29.97138925 42.75834424 29.97138925 44 31 C44.08631874 32.34267413 44.10706473 33.68974322 44.09765625 35.03515625 C44.09282227 36.24848633 44.09282227 36.24848633 44.08789062 37.48632812 C44.07532227 38.7615332 44.07532227 38.7615332 44.0625 40.0625 C44.05798828 40.91650391 44.05347656 41.77050781 44.04882812 42.65039062 C44.03700373 44.76695663 44.01906769 46.88348685 44 49 C44.99 49 45.98 49 47 49 C47 49.66 47 50.32 47 51 C47.99 51 48.98 51 50 51 C51.36952673 53.73905345 51.12621361 55.97087332 51 59 C50.505 59.99 50.505 59.99 50 61 C40.1 61 30.2 61 20 61 C18.63047327 58.26094655 18.87378639 56.02912668 19 53 C19.495 52.01 19.495 52.01 20 51 C21.98 51 23.96 51 26 51 C26 49.68 26 48.36 26 47 C26.66 47 27.32 47 28 47 C28 36.44 28 25.88 28 15 C27.34 15 26.68 15 26 15 C26 14.34 26 13.68 26 13 C25.34 13 24.68 13 24 13 C24 12.34 24 11.68 24 11 C22.35 11 20.7 11 19 11 C19 11.66 19 12.32 19 13 C17.68 13 16.36 13 15 13 C15 13.66 15 14.32 15 15 C13.68 15 12.36 15 11 15 C11 15.66 11 16.32 11 17 C10.34 17 9.68 17 9 17 C9 28.22 9 39.44 9 51 C10.98 51 12.96 51 15 51 C15.02689216 52.47906892 15.04634621 53.95827483 15.0625 55.4375 C15.07410156 56.26121094 15.08570313 57.08492187 15.09765625 57.93359375 C15 60 15 60 14 61 C11.92737924 61.08767112 9.85179706 61.10695873 7.77734375 61.09765625 C6.51728516 61.09443359 5.25722656 61.09121094 3.95898438 61.08789062 C2.61848891 61.07953403 1.27799412 61.07106907 -0.0625 61.0625 C-1.40689942 61.0574866 -2.7513006 61.05292342 -4.09570312 61.04882812 C-7.39717941 61.03699488 -10.69856803 61.02050971 -14 61 C-14 60.34 -14 59.68 -14 59 C-14.66 59 -15.32 59 -16 59 C-16 56.36 -16 53.72 -16 51 C-14.02 51 -12.04 51 -10 51 C-10 38.46 -10 25.92 -10 13 C-15.73886755 12.02071361 -15.73886755 12.02071361 -21 13 C-21 13.66 -21 14.32 -21 15 C-22.32 15 -23.64 15 -25 15 C-25 15.66 -25 16.32 -25 17 C-25.66 17 -26.32 17 -27 17 C-27 28.22 -27 39.44 -27 51 C-25.02 51 -23.04 51 -21 51 C-21 53.64 -21 56.28 -21 59 C-21.66 59 -22.32 59 -23 59 C-23 59.66 -23 60.32 -23 61 C-31.91 61 -40.82 61 -50 61 C-50 60.34 -50 59.68 -50 59 C-50.66 59 -51.32 59 -52 59 C-52.04241723 56.66705225 -52.04092937 54.33297433 -52 52 C-51 51 -51 51 -48.4375 50.9375 C-47.633125 50.958125 -46.82875 50.97875 -46 51 C-46.01160156 49.98679688 -46.02320313 48.97359375 -46.03515625 47.9296875 C-46.04454209 46.57812686 -46.05364143 45.2265642 -46.0625 43.875 C-46.07087891 43.20984375 -46.07925781 42.5446875 -46.08789062 41.859375 C-46.1032799 38.71996208 -45.96462098 35.79358174 -45.43359375 32.6953125 C-44.77240871 29.91128935 -44.77240871 29.91128935 -46 27 C-46.07051114 24.26134713 -46.09357765 21.54972412 -46.0625 18.8125 C-46.05798828 18.06291016 -46.05347656 17.31332031 -46.04882812 16.54101562 C-46.03706354 14.69397617 -46.01912865 12.84697787 -46 11 C-47.98 10.34 -49.96 9.68 -52 9 C-52 6.36 -52 3.72 -52 1 C-48.99713071 -0.50143464 -45.9160504 -0.2250678 -42.625 -0.25 C-41.95210938 -0.270625 -41.27921875 -0.29125 -40.5859375 -0.3125 C-37.42542489 -0.33738593 -35.30290102 -0.17008322 -32.5234375 1.390625 C-31 3 -31 3 -31 5 C-29.68 5 -28.36 5 -27 5 C-27 4.34 -27 3.68 -27 3 C-18.97421275 -2.66526159 -9.02000261 -4.11038094 0 0 Z " fill="#FEFEFE" transform="translate(477,173)"/>
<path d="M0 0 C0.886875 0.495 1.77375 0.99 2.6875 1.5 C2.6875 2.16 2.6875 2.82 2.6875 3.5 C3.3475 3.5 4.0075 3.5 4.6875 3.5 C4.6875 4.16 4.6875 4.82 4.6875 5.5 C5.3475 5.5 6.0075 5.5 6.6875 5.5 C6.6875 6.82 6.6875 8.14 6.6875 9.5 C7.6775 9.83 8.6675 10.16 9.6875 10.5 C11.93985935 14.54011694 11.92030171 18.21459267 11.8828125 22.76953125 C11.8799826 23.45053391 11.87715271 24.13153656 11.87423706 24.83317566 C11.86310525 26.99313455 11.83801457 29.15266794 11.8125 31.3125 C11.80246111 32.78319711 11.79333685 34.25390076 11.78515625 35.72460938 C11.76318913 39.31654286 11.7287082 42.90822985 11.6875 46.5 C11.0275 46.5 10.3675 46.5 9.6875 46.5 C9.3575 48.15 9.0275 49.8 8.6875 51.5 C8.0275 51.5 7.3675 51.5 6.6875 51.5 C6.6875 52.82 6.6875 54.14 6.6875 55.5 C6.0275 55.5 5.3675 55.5 4.6875 55.5 C4.6875 56.16 4.6875 56.82 4.6875 57.5 C4.0275 57.5 3.3675 57.5 2.6875 57.5 C2.6875 58.16 2.6875 58.82 2.6875 59.5 C1.3675 59.5 0.0475 59.5 -1.3125 59.5 C-1.3125 60.16 -1.3125 60.82 -1.3125 61.5 C-3.2925 61.5 -5.2725 61.5 -7.3125 61.5 C-7.3125 62.16 -7.3125 62.82 -7.3125 63.5 C-11.6025 63.5 -15.8925 63.5 -20.3125 63.5 C-20.3125 62.84 -20.3125 62.18 -20.3125 61.5 C-22.2925 61.5 -24.2725 61.5 -26.3125 61.5 C-26.3125 60.84 -26.3125 60.18 -26.3125 59.5 C-26.9725 59.5 -27.6325 59.5 -28.3125 59.5 C-28.3125 58.84 -28.3125 58.18 -28.3125 57.5 C-28.9725 57.5 -29.6325 57.5 -30.3125 57.5 C-29.9825 58.593125 -29.6525 59.68625 -29.3125 60.8125 C-27.98264468 66.02890432 -28.13556016 71.15248469 -28.3125 76.5 C-27.6525 76.5 -26.9925 76.5 -26.3125 76.5 C-26.3125 77.16 -26.3125 77.82 -26.3125 78.5 C-25.6525 78.5 -24.9925 78.5 -24.3125 78.5 C-24.3125 79.16 -24.3125 79.82 -24.3125 80.5 C-21.3425 81.49 -21.3425 81.49 -18.3125 82.5 C-18.3125 83.49 -18.3125 84.48 -18.3125 85.5 C-17.6525 85.5 -16.9925 85.5 -16.3125 85.5 C-16.3125 86.49 -16.3125 87.48 -16.3125 88.5 C-29.1825 88.5 -42.0525 88.5 -55.3125 88.5 C-55.3125 86.52 -55.3125 84.54 -55.3125 82.5 C-54.6525 82.5 -53.9925 82.5 -53.3125 82.5 C-53.3125 81.84 -53.3125 81.18 -53.3125 80.5 C-49.85096154 77.5 -49.85096154 77.5 -47.3125 77.5 C-47.3125 76.51 -47.3125 75.52 -47.3125 74.5 C-46.6525 74.5 -45.9925 74.5 -45.3125 74.5 C-45.31773682 73.81897217 -45.32297363 73.13794434 -45.32836914 72.4362793 C-45.34914458 69.35336223 -45.36216198 66.2704599 -45.375 63.1875 C-45.38337891 62.11564453 -45.39175781 61.04378906 -45.40039062 59.93945312 C-45.40522461 58.39741211 -45.40522461 58.39741211 -45.41015625 56.82421875 C-45.41801147 55.4024231 -45.41801147 55.4024231 -45.42602539 53.9519043 C-45.3125 51.5 -45.3125 51.5 -44.3125 48.5 C-44.1595353 45.98945095 -44.05554822 43.50111475 -43.99609375 40.98828125 C-43.97531265 40.26005661 -43.95453156 39.53183197 -43.93312073 38.78153992 C-43.86781254 36.45862125 -43.80882763 34.13559094 -43.75 31.8125 C-43.70679695 30.23631665 -43.66318208 28.66014452 -43.61914062 27.08398438 C-43.5121504 23.22277025 -43.41083039 19.36144397 -43.3125 15.5 C-43.9725 15.5 -44.6325 15.5 -45.3125 15.5 C-45.3125 14.84 -45.3125 14.18 -45.3125 13.5 C-45.9725 13.5 -46.6325 13.5 -47.3125 13.5 C-47.3125 12.84 -47.3125 12.18 -47.3125 11.5 C-48.240625 11.2834375 -48.240625 11.2834375 -49.1875 11.0625 C-51.3125 10.5 -51.3125 10.5 -53.3125 9.5 C-53.3125 8.84 -53.3125 8.18 -53.3125 7.5 C-53.9725 7.5 -54.6325 7.5 -55.3125 7.5 C-55.3125 6.51 -55.3125 5.52 -55.3125 4.5 C-55.9725 4.5 -56.6325 4.5 -57.3125 4.5 C-57.3125 3.51 -57.3125 2.52 -57.3125 1.5 C-53.85211453 -0.23019274 -50.00151208 0.18837482 -46.1875 0.125 C-45.35734375 0.08761719 -44.5271875 0.05023438 -43.671875 0.01171875 C-37.25388978 -0.07881709 -33.37468738 1.60072375 -28.3125 5.5 C-28.3125 4.84 -28.3125 4.18 -28.3125 3.5 C-20.35789161 -2.11501769 -9.10487326 -3.92066992 0 0 Z M-24.3125 16.5 C-24.3125 17.49 -24.3125 18.48 -24.3125 19.5 C-24.9725 19.5 -25.6325 19.5 -26.3125 19.5 C-26.3125 20.16 -26.3125 20.82 -26.3125 21.5 C-26.9725 21.5 -27.6325 21.5 -28.3125 21.5 C-28.456875 22.634375 -28.60125 23.76875 -28.75 24.9375 C-29.3125 28.5 -29.3125 28.5 -30.3125 29.5 C-30.35342937 31.83297433 -30.35491723 34.16705225 -30.3125 36.5 C-29.6525 36.5 -28.9925 36.5 -28.3125 36.5 C-28.374375 37.386875 -28.43625 38.27375 -28.5 39.1875 C-28.28712727 42.9482515 -27.6622169 44.58311006 -25.3125 47.5 C-22.74150598 48.84689915 -22.74150598 48.84689915 -20.3125 49.5 C-20.3125 50.16 -20.3125 50.82 -20.3125 51.5 C-16.6825 51.5 -13.0525 51.5 -9.3125 51.5 C-9.3125 50.84 -9.3125 50.18 -9.3125 49.5 C-8.6525 49.5 -7.9925 49.5 -7.3125 49.5 C-7.3125 48.84 -7.3125 48.18 -7.3125 47.5 C-6.6525 47.5 -5.9925 47.5 -5.3125 47.5 C-3.63091854 43.83135949 -3.07221129 41.00583953 -3.1171875 36.98046875 C-3.12363281 35.95888672 -3.13007812 34.93730469 -3.13671875 33.88476562 C-3.15347656 32.82966797 -3.17023437 31.77457031 -3.1875 30.6875 C-3.19652344 29.61306641 -3.20554687 28.53863281 -3.21484375 27.43164062 C-3.23834694 24.78753146 -3.27120425 22.14388128 -3.3125 19.5 C-3.9725 19.5 -4.6325 19.5 -5.3125 19.5 C-5.3125 18.18 -5.3125 16.86 -5.3125 15.5 C-5.9725 15.5 -6.6325 15.5 -7.3125 15.5 C-7.3125 14.84 -7.3125 14.18 -7.3125 13.5 C-8.6325 13.5 -9.9525 13.5 -11.3125 13.5 C-11.3125 12.84 -11.3125 12.18 -11.3125 11.5 C-16.82019098 10.82833037 -20.5384756 12.53615781 -24.3125 16.5 Z " fill="#FEFEFE" transform="translate(577.3125,172.5)"/>
<path d="M0 0 C4.25414623 -0.02465622 8.50825498 -0.04283899 12.76245117 -0.05493164 C14.21070073 -0.05997101 15.65894517 -0.06680253 17.10717773 -0.07543945 C19.18474588 -0.08752247 21.26224697 -0.09323211 23.33984375 -0.09765625 C24.59144287 -0.10289307 25.84304199 -0.10812988 27.13256836 -0.11352539 C30 0 30 0 31 1 C33.85877909 1.23701239 36.69883297 1.42219182 39.5625 1.5625 C40.77196289 1.62727539 40.77196289 1.62727539 42.00585938 1.69335938 C44.00368805 1.79975262 46.0018207 1.90040888 48 2 C48.07406517 6.5206339 48.12856045 11.040916 48.16479492 15.56201172 C48.17989711 17.10048574 48.20038046 18.63891661 48.22631836 20.17724609 C48.26264074 22.38650141 48.27971119 24.59518848 48.29296875 26.8046875 C48.30845261 27.49432587 48.32393646 28.18396423 48.33988953 28.89450073 C48.34057617 30.83544922 48.34057617 30.83544922 48 34 C45 36 45 36 42.3125 35.625 C41.549375 35.41875 40.78625 35.2125 40 35 C40 34.34 40 33.68 40 33 C39.34 33 38.68 33 38 33 C37.505 30.03 37.505 30.03 37 27 C36.34 27 35.68 27 35 27 C35 25.68 35 24.36 35 23 C34.34 23 33.68 23 33 23 C33 22.34 33 21.68 33 21 C32.34 21 31.68 21 31 21 C31 20.34 31 19.68 31 19 C30.34 19 29.68 19 29 19 C26.875 17.1875 26.875 17.1875 25 15 C25 14.01 25 13.02 25 12 C23.68 12 22.36 12 21 12 C21 11.34 21 10.68 21 10 C16.71 10 12.42 10 8 10 C8 10.66 8 11.32 8 12 C6.68 12 5.36 12 4 12 C4 12.66 4 13.32 4 14 C2.68 14.33 1.36 14.66 0 15 C0 15.66 0 16.32 0 17 C-0.66 17 -1.32 17 -2 17 C-2.33 18.32 -2.66 19.64 -3 21 C-3.66 21 -4.32 21 -5 21 C-5 22.98 -5 24.96 -5 27 C-5.66 27 -6.32 27 -7 27 C-7 38.88 -7 50.76 -7 63 C-6.34 63 -5.68 63 -5 63 C-5 64.32 -5 65.64 -5 67 C-4.34 67 -3.68 67 -3 67 C-2.67 68.32 -2.34 69.64 -2 71 C-1.34 71 -0.68 71 0 71 C4 75.47058824 4 75.47058824 4 78 C5.32 78 6.64 78 8 78 C8 78.66 8 79.32 8 80 C8.804375 79.979375 9.60875 79.95875 10.4375 79.9375 C13 80 13 80 14 81 C15.84891946 81.23363881 17.70488031 81.41303635 19.5625 81.5625 C21.08037109 81.68818359 21.08037109 81.68818359 22.62890625 81.81640625 C23.41136719 81.87699219 24.19382812 81.93757813 25 82 C25 81.34 25 80.68 25 80 C26.98 80 28.96 80 31 80 C31 79.34 31 78.68 31 78 C32.4609375 76.7109375 32.4609375 76.7109375 34.375 75.375 C35.00148438 74.92898437 35.62796875 74.48296875 36.2734375 74.0234375 C38 73 38 73 40 73 C40 72.34 40 71.68 40 71 C40.66 71 41.32 71 42 71 C42 70.34 42 69.68 42 69 C42.66 69 43.32 69 44 69 C44 68.34 44 67.68 44 67 C44.66 67 45.32 67 46 67 C46 66.34 46 65.68 46 65 C47.98 65 49.96 65 52 65 C52.50604984 71.98629919 52.0333905 76.20200116 48 82 C47.34 82 46.68 82 46 82 C46 82.66 46 83.32 46 84 C45.34 84 44.68 84 44 84 C44 84.66 44 85.32 44 86 C43.01 86 42.02 86 41 86 C41 86.66 41 87.32 41 88 C39.68 88 38.36 88 37 88 C37 88.66 37 89.32 37 90 C35.68 90 34.36 90 33 90 C33 90.66 33 91.32 33 92 C31.02 92 29.04 92 27 92 C27 92.66 27 93.32 27 94 C20.07 94 13.14 94 6 94 C6 93.34 6 92.68 6 92 C4.02 92 2.04 92 0 92 C0 91.34 0 90.68 0 90 C-0.70125 89.896875 -1.4025 89.79375 -2.125 89.6875 C-5.39137647 88.90640997 -8.0471852 87.57941257 -11 86 C-11 85.34 -11 84.68 -11 84 C-11.66 84 -12.32 84 -13 84 C-13 83.34 -13 82.68 -13 82 C-13.66 82 -14.32 82 -15 82 C-15 81.34 -15 80.68 -15 80 C-15.66 80 -16.32 80 -17 80 C-17 79.01 -17 78.02 -17 77 C-17.66 77 -18.32 77 -19 77 C-19 75.68 -19 74.36 -19 73 C-19.66 73 -20.32 73 -21 73 C-21 71.68 -21 70.36 -21 69 C-21.66 69 -22.32 69 -23 69 C-23 67.02 -23 65.04 -23 63 C-23.66 63 -24.32 63 -25 63 C-26.4730043 60.0539914 -26.12989305 57.41391588 -26.1328125 54.12890625 C-26.13376923 53.45077377 -26.13472595 52.7726413 -26.13571167 52.07395935 C-26.1363924 50.63906766 -26.13454554 49.20417289 -26.13037109 47.76928711 C-26.12502954 45.57463641 -26.13031534 43.38019113 -26.13671875 41.18554688 C-26.13605779 39.79166622 -26.13477625 38.39778568 -26.1328125 37.00390625 C-26.13168457 35.73361572 -26.13055664 34.4633252 -26.12939453 33.15454102 C-26 30 -26 30 -25 27 C-24.34 27 -23.68 27 -23 27 C-23.0825 26.319375 -23.165 25.63875 -23.25 24.9375 C-22.90053135 20.83124335 -21.18150968 18.47678105 -19 15 C-18.34 15 -17.68 15 -17 15 C-16.34 13.35 -15.68 11.7 -15 10 C-14.34 10 -13.68 10 -13 10 C-13 9.34 -13 8.68 -13 8 C-12.34 8 -11.68 8 -11 8 C-11 7.34 -11 6.68 -11 6 C-10.34 6 -9.68 6 -9 6 C-9 5.34 -9 4.68 -9 4 C-5.62902617 2.50178941 -3.79557881 2 0 2 C0 1.34 0 0.68 0 0 Z " fill="#FEFEFE" transform="translate(312,142)"/>
<path d="M0 0 C2.33294775 -0.04241723 4.66702567 -0.04092937 7 0 C7.495 0.495 7.495 0.495 8 1 C10.47511803 1.53650099 12.96281184 1.96392114 15.45703125 2.40234375 C17.90380998 2.97739313 19.81317927 3.78170127 22 5 C22 5.66 22 6.32 22 7 C22.99 7 23.98 7 25 7 C25 7.66 25 8.32 25 9 C25.66 9 26.32 9 27 9 C27 9.66 27 10.32 27 11 C27.66 11 28.32 11 29 11 C29 12.32 29 13.64 29 15 C29.66 15 30.32 15 31 15 C32.81359313 18.88134031 33.2373701 21.90693517 33.1953125 26.17578125 C33.18886719 27.33271484 33.18242187 28.48964844 33.17578125 29.68164062 C33.15902344 30.87982422 33.14226562 32.07800781 33.125 33.3125 C33.11597656 34.53001953 33.10695313 35.74753906 33.09765625 37.00195312 C33.07413037 40.00150274 33.04125653 43.00065044 33 46 C32.34 46 31.68 46 31 46 C31.04125 46.7425 31.0825 47.485 31.125 48.25 C30.99601866 51.08758952 30.42948778 52.58773938 29 55 C28.34 55 27.68 55 27 55 C27 55.66 27 56.32 27 57 C26.34 57 25.68 57 25 57 C25 57.66 25 58.32 25 59 C22.35261084 60.4606285 21.10551666 61 18 61 C18 61.66 18 62.32 18 63 C16.02 63 14.04 63 12 63 C12 63.66 12 64.32 12 65 C6.39 65 0.78 65 -5 65 C-5 64.34 -5 63.68 -5 63 C-5.763125 63.04125 -6.52625 63.0825 -7.3125 63.125 C-10 63 -10 63 -13 61 C-13 60.34 -13 59.68 -13 59 C-14.32 59 -15.64 59 -17 59 C-17 58.34 -17 57.68 -17 57 C-17.66 57 -18.32 57 -19 57 C-19 55.68 -19 54.36 -19 53 C-19.66 53 -20.32 53 -21 53 C-21 52.34 -21 51.68 -21 51 C-21.66 51 -22.32 51 -23 51 C-26.90497157 45.15799768 -26.41092367 39.27597631 -26.3125 32.4375 C-26.31572266 31.31408203 -26.31894531 30.19066406 -26.32226562 29.03320312 C-26.28819959 23.8210993 -26.19936111 19.79875531 -24 15 C-23.01 15 -22.02 15 -21 15 C-21 13.68 -21 12.36 -21 11 C-20.34 11 -19.68 11 -19 11 C-19 10.34 -19 9.68 -19 9 C-18.34 9 -17.68 9 -17 9 C-17 8.34 -17 7.68 -17 7 C-16.34 7 -15.68 7 -15 7 C-15 6.34 -15 5.68 -15 5 C-13.68 4.67 -12.36 4.34 -11 4 C-11 3.34 -11 2.68 -11 2 C-7.37 2 -3.74 2 0 2 C0 1.34 0 0.68 0 0 Z M-1 11 C-1 11.66 -1 12.32 -1 13 C-1.928125 13.185625 -1.928125 13.185625 -2.875 13.375 C-5.19120832 13.87197356 -5.19120832 13.87197356 -7 16 C-7 16.99 -7 17.98 -7 19 C-7.66 19 -8.32 19 -9 19 C-9 21.64 -9 24.28 -9 27 C-9.66 27 -10.32 27 -11 27 C-11 29.97 -11 32.94 -11 36 C-10.34 36 -9.68 36 -9 36 C-9 38.64 -9 41.28 -9 44 C-8.34 44 -7.68 44 -7 44 C-7 45.65 -7 47.3 -7 49 C-6.34 49 -5.68 49 -5 49 C-5 49.66 -5 50.32 -5 51 C-3.68 51 -2.36 51 -1 51 C-1 51.66 -1 52.32 -1 53 C0.65 53 2.3 53 4 53 C4 53.66 4 54.32 4 55 C5.32 55 6.64 55 8 55 C8 54.34 8 53.68 8 53 C9.32 53 10.64 53 12 53 C12 52.34 12 51.68 12 51 C12.66 51 13.32 51 14 51 C14 49.68 14 48.36 14 47 C14.66 47 15.32 47 16 47 C16 44.69 16 42.38 16 40 C16.66 40 17.32 40 18 40 C18.02685095 37.52076199 18.04676547 35.0418116 18.0625 32.5625 C18.07087891 31.85544922 18.07925781 31.14839844 18.08789062 30.41992188 C18.09653588 28.61306441 18.05220011 26.80612397 18 25 C17.67 24.67 17.34 24.34 17 24 C16.63239269 21.67182036 16.29758419 19.3381615 16 17 C15.34 17 14.68 17 14 17 C14 16.34 14 15.68 14 15 C13.34 15 12.68 15 12 15 C12 14.34 12 13.68 12 13 C10.68 13 9.36 13 8 13 C8 12.34 8 11.68 8 11 C5.03 11 2.06 11 -1 11 Z " fill="#FEFEFE" transform="translate(394,171)"/>
<path d="M0 0 C7.59 0 15.18 0 23 0 C23 0.66 23 1.32 23 2 C24.98 2 26.96 2 29 2 C29 2.66 29 3.32 29 4 C30.32 4 31.64 4 33 4 C33.05437607 5.58294782 33.09296271 7.16644256 33.125 8.75 C33.14820313 9.63171875 33.17140625 10.5134375 33.1953125 11.421875 C32.99139502 14.1135858 32.36551721 15.69904974 31 18 C30.34 18 29.68 18 29 18 C29 18.99 29 19.98 29 21 C28.34 21 27.68 21 27 21 C27 21.66 27 22.32 27 23 C26.34 23 25.68 23 25 23 C25 23.66 25 24.32 25 25 C24.34 25 23.68 25 23 25 C23 25.66 23 26.32 23 27 C21.35 27 19.7 27 18 27 C17.77213542 24.94921875 17.54427083 22.8984375 17.31640625 20.84765625 C17.18113386 18.98859771 17.18113386 18.98859771 16 18 C15.95919217 16.00041636 15.95745644 13.99954746 16 12 C15.34 12 14.68 12 14 12 C14 11.34 14 10.68 14 10 C13.4225 9.855625 12.845 9.71125 12.25 9.5625 C10.16666667 9.04166667 8.08333333 8.52083333 6 8 C6 8.66 6 9.32 6 10 C5.01 10 4.02 10 3 10 C2.67 11.32 2.34 12.64 2 14 C1.34 14 0.68 14 0 14 C-0.33 15.65 -0.66 17.3 -1 19 C-1.66 19 -2.32 19 -3 19 C-3 24.61 -3 30.22 -3 36 C-2.34 36 -1.68 36 -1 36 C-0.67 37.32 -0.34 38.64 0 40 C0.66 40 1.32 40 2 40 C2 40.66 2 41.32 2 42 C2.66 42 3.32 42 4 42 C4 42.66 4 43.32 4 44 C4.66 44 5.32 44 6 44 C6 44.66 6 45.32 6 46 C10.29 46.66 14.58 47.32 19 48 C19 47.34 19 46.68 19 46 C21.90600261 44.74335022 23.79604584 44 27 44 C27 43.34 27 42.68 27 42 C27.66 42 28.32 42 29 42 C29 41.34 29 40.68 29 40 C31.64 40 34.28 40 37 40 C37 43.3 37 46.6 37 50 C36.34 50 35.68 50 35 50 C35 50.66 35 51.32 35 52 C34.34 52 33.68 52 33 52 C33 52.66 33 53.32 33 54 C32.34 54 31.68 54 31 54 C31 54.66 31 55.32 31 56 C30.34 56 29.68 56 29 56 C29 56.99 29 57.98 29 59 C22.8640245 62.63613363 17.81030113 63.38634395 10.8125 63.375 C9.65451904 63.37693359 9.65451904 63.37693359 8.47314453 63.37890625 C3.9543629 63.29322369 0.25121192 62.69506058 -4 61 C-4 60.34 -4 59.68 -4 59 C-4.99 58.67 -5.98 58.34 -7 58 C-7 57.34 -7 56.68 -7 56 C-7.66 56 -8.32 56 -9 56 C-9 55.34 -9 54.68 -9 54 C-9.66 54 -10.32 54 -11 54 C-11 53.34 -11 52.68 -11 52 C-11.66 52 -12.32 52 -13 52 C-13 51.34 -13 50.68 -13 50 C-13.66 50 -14.32 50 -15 50 C-15 48.02 -15 46.04 -15 44 C-15.66 44 -16.32 44 -17 44 C-17 35.75 -17 27.5 -17 19 C-16.34 19 -15.68 19 -15 19 C-15 17.02 -15 15.04 -15 13 C-14.34 13 -13.68 13 -13 13 C-13 12.01 -13 11.02 -13 10 C-12.34 10 -11.68 10 -11 10 C-11 9.34 -11 8.68 -11 8 C-10.34 8 -9.68 8 -9 8 C-9 7.34 -9 6.68 -9 6 C-8.34 6 -7.68 6 -7 6 C-7 5.34 -7 4.68 -7 4 C-6.34 4 -5.68 4 -5 4 C-5 3.34 -5 2.68 -5 2 C-3.35 2 -1.7 2 0 2 C0 1.34 0 0.68 0 0 Z " fill="#FEFEFE" transform="translate(140,56)"/>
<path d="M0 0 C6.625 -0.25 6.625 -0.25 10 2 C10 2.66 10 3.32 10 4 C10.66 4 11.32 4 12 4 C12.08114106 5.77007714 12.13925505 7.54122098 12.1875 9.3125 C12.23970703 10.79169922 12.23970703 10.79169922 12.29296875 12.30078125 C12 15 12 15 10.84375 16.84375 C8.25868785 18.46489067 6.3356612 18.29419981 3.3125 18.1875 C1.82169922 18.14689453 1.82169922 18.14689453 0.30078125 18.10546875 C-0.45847656 18.07066406 -1.21773438 18.03585938 -2 18 C-2 17.34 -2 16.68 -2 16 C-2.66 16 -3.32 16 -4 16 C-5.24377393 13.51245214 -5.13306235 11.77344699 -5.125 9 C-5.12757813 8.113125 -5.13015625 7.22625 -5.1328125 6.3125 C-5 4 -5 4 -4 2 C-2.68 2 -1.36 2 0 2 C0 1.34 0 0.68 0 0 Z " fill="#FEFEFE" transform="translate(270,29)"/>
</svg>
