<?xml version="1.0" encoding="UTF-8"?>
<svg version="1.1" xmlns="http://www.w3.org/2000/svg" width="866" height="650">
<path d="M0 0 C13.6815472 -0.04036162 13.6815472 -0.04036162 19.73828125 0.21875 C20.82431641 0.26386719 21.91035156 0.30898437 23.02929688 0.35546875 C24.65448242 0.42701172 24.65448242 0.42701172 26.3125 0.5 C27.44623047 0.54769531 28.57996094 0.59539062 29.74804688 0.64453125 C32.49881083 0.76059724 35.24944454 0.8791106 38 1 C38 1.99 38 2.98 38 4 C38.66 4 39.32 4 40 4 C40.24234375 4.76183594 40.4846875 5.52367187 40.734375 6.30859375 C42.82183467 12.73957527 45.18545973 18.86103897 48 25 C53.55310084 37.44547893 53.55310084 37.44547893 54 44 C54.66 44 55.32 44 56 44 C56.50833591 45.24663331 57.00631145 46.49749387 57.5 47.75 C57.7784375 48.44609375 58.056875 49.1421875 58.34375 49.859375 C59 52 59 52 59 56 C59.66 56 60.32 56 61 56 C61.99 58.31 62.98 60.62 64 63 C64.64757625 61.56328432 65.29299453 60.12559584 65.9375 58.6875 C66.29714844 57.88699219 66.65679687 57.08648437 67.02734375 56.26171875 C68.07846041 53.90510392 68.07846041 53.90510392 69 51 C69.66 51 70.32 51 71 51 C71.10441406 50.1646875 71.20882812 49.329375 71.31640625 48.46875 C72.08060155 44.59100471 73.41122758 41.12352444 74.9375 37.5 C76.78672988 33.04565065 78.53133034 28.59757458 80 24 C80.66 24 81.32 24 82 24 C82.103125 23.175 82.20625 22.35 82.3125 21.5 C83.44202075 15.74971254 85.72100189 10.57260403 88.10546875 5.23828125 C88.4614917 4.44075439 88.81751465 3.64322754 89.18432617 2.8215332 C89.45349854 2.22042725 89.7226709 1.61932129 90 1 C93.72896328 0.82857437 97.4581937 0.66377962 101.1875 0.5 C102.22326172 0.45230469 103.25902344 0.40460938 104.32617188 0.35546875 C105.88754883 0.28779297 105.88754883 0.28779297 107.48046875 0.21875 C108.41785889 0.17685547 109.35524902 0.13496094 110.32104492 0.09179688 C115.87905089 -0.04688587 121.4402641 0 127 0 C127 43.89 127 87.78 127 133 C118.75 133 110.5 133 102 133 C100.32327339 131.32327339 100.84080112 129.25453509 100.81054688 126.95214844 C100.79382935 125.87302185 100.77711182 124.79389526 100.7598877 123.68206787 C100.74631226 122.50307922 100.73273682 121.32409058 100.71875 120.109375 C100.70034058 118.89864319 100.68193115 117.68791138 100.66296387 116.44049072 C100.60400237 112.54371176 100.5513759 108.64688588 100.5 104.75 C100.44834902 100.89596794 100.39516457 97.04198943 100.33703613 93.18804932 C100.30087341 90.78718469 100.26833981 88.38626156 100.2401123 85.98529053 C100.12494806 78.29079303 99.67561998 70.66538449 99 63 C94.49877124 71.7156476 90.10698935 80.67903195 87 90 C86.34 90 85.68 90 85 90 C84.835 91.175625 84.67 92.35125 84.5 93.5625 C83.43975563 98.36029645 81.46647782 102.43629592 79.1875 106.75 C78.85621094 107.38752197 78.52492188 108.02504395 78.18359375 108.68188477 C75.9710366 112.7447992 73.68381773 116.09460804 70 119 C66.95703125 119.5234375 66.95703125 119.5234375 63.8125 119.375 C62.76707031 119.34148437 61.72164062 119.30796875 60.64453125 119.2734375 C58 119 58 119 56 118 C56 117.34 56 116.68 56 116 C55.01 115.67 54.02 115.34 53 115 C51.25327015 111.5065403 50 108.93154432 50 105 C49.34 105 48.68 105 48 105 C45 98.5 45 98.5 45 94 C44.34 94 43.68 94 43 94 C40 87.5 40 87.5 40 83 C39.34 83 38.68 83 38 83 C37.49384702 81.73160474 36.99530901 80.46016898 36.5 79.1875 C36.2215625 78.47980469 35.943125 77.77210938 35.65625 77.04296875 C35 75 35 75 35 72 C34.34 72 33.68 72 33 72 C32.34 70.35 31.68 68.7 31 67 C30.97494385 67.90355225 30.9498877 68.80710449 30.92407227 69.73803711 C30.82912683 73.0796428 30.72988379 76.42106252 30.62768555 79.76245117 C30.5842837 81.2106424 30.54261256 82.65888654 30.50268555 84.10717773 C30.44510938 86.18489559 30.38137972 88.26234573 30.31640625 90.33984375 C30.27974854 91.59144287 30.24309082 92.84304199 30.20532227 94.13256836 C30 97 30 97 29 98 C28.84019563 100.44608998 28.74070553 102.86731058 28.68359375 105.31640625 C28.66281265 106.04746078 28.64203156 106.77851532 28.62062073 107.53172302 C28.55504976 109.87521656 28.49620568 112.21882539 28.4375 114.5625 C28.39432192 116.14779855 28.35070787 117.73308529 28.30664062 119.31835938 C28.19853718 123.21212298 28.09952117 127.10596958 28 131 C19.09 131 10.18 131 1 131 C0.86773247 118.79233986 0.7370265 106.58466548 0.60884857 94.37696171 C0.54923136 88.70450389 0.48900792 83.03205405 0.42724609 77.35961914 C0.14692281 51.57232144 -0.09221572 25.78901264 0 0 Z " fill="#FEFEFE" transform="translate(34,211)"/>
<path d="M0 0 C1.36354614 -0.00193359 1.36354614 -0.00193359 2.75463867 -0.00390625 C11.24314252 0.12690337 18.94072284 1.82156565 27 4.375 C27 5.035 27 5.695 27 6.375 C27.721875 6.478125 28.44375 6.58125 29.1875 6.6875 C32.31617344 7.45228684 34.31500546 8.60683286 37 10.375 C38.093125 11.055625 39.18625 11.73625 40.3125 12.4375 C41.199375 13.076875 42.08625 13.71625 43 14.375 C43 15.035 43 15.695 43 16.375 C43.639375 16.6225 44.27875 16.87 44.9375 17.125 C47.544301 18.70487939 47.29195078 19.54280311 48 22.375 C48.61875 22.684375 49.2375 22.99375 49.875 23.3125 C55.26106204 26.00553102 57.98785878 34.98975472 60 40.375 C62.93619563 50.25129438 63.27015521 59.99839563 63.3125 70.25 C63.31805908 71.39082031 63.32361816 72.53164063 63.3293457 73.70703125 C63.26226865 81.56823226 62.49272437 88.89682688 60 96.375 C59.34 96.375 58.68 96.375 58 96.375 C57.814375 97.4578125 57.814375 97.4578125 57.625 98.5625 C57.0095069 101.33221894 56.11555626 103.7720354 55 106.375 C54.34 106.375 53.68 106.375 53 106.375 C52.731875 107.344375 52.46375 108.31375 52.1875 109.3125 C51.795625 110.323125 51.40375 111.33375 51 112.375 C49.515 112.87 49.515 112.87 48 113.375 C47.71125 113.9525 47.4225 114.53 47.125 115.125 C44.61774584 120.13950831 41.0501396 122.41105682 36 124.375 C35.505 125.86 35.505 125.86 35 127.375 C32.10441559 128.8227922 30.25811062 129.375 27 129.375 C27 130.035 27 130.695 27 131.375 C18.71064708 133.81402542 11.12744289 134.84645588 2.5 134.75 C1.46230469 134.76160156 0.42460937 134.77320313 -0.64453125 134.78515625 C-8.13234919 134.75718184 -14.82656782 133.48568145 -22 131.375 C-22 130.715 -22 130.055 -22 129.375 C-23.11375 129.189375 -23.11375 129.189375 -24.25 129 C-28.58039766 128.01581871 -30.92203375 126.46765821 -34 123.375 C-36.04159031 121.63257342 -38.09726979 119.90855755 -40.16015625 118.19140625 C-42.03695969 116.33851113 -42.92183348 114.75491596 -44 112.375 C-44.495 111.88 -44.99 111.385 -45.5 110.875 C-47.21869236 109.15630764 -48.08744534 107.62128839 -49 105.375 C-49 104.385 -49 103.395 -49 102.375 C-49.66 102.375 -50.32 102.375 -51 102.375 C-51.81627446 99.98039412 -52.62811645 97.58443474 -53.4375 95.1875 C-53.66759766 94.51396484 -53.89769531 93.84042969 -54.13476562 93.14648438 C-56.97732638 84.70119518 -57.21448047 77.1790617 -57.25 68.3125 C-57.270625 67.05244141 -57.29125 65.79238281 -57.3125 64.49414062 C-57.36082354 52.80588394 -55.1698995 42.83141327 -50 32.375 C-49.65710938 31.64023438 -49.31421875 30.90546875 -48.9609375 30.1484375 C-47.28668076 26.63377641 -45.83264754 24.07541092 -43 21.375 C-41.28667551 19.43431491 -39.60069986 17.47170531 -37.9140625 15.5078125 C-33.80176999 10.92554371 -30.3643652 7.72339308 -24.6875 5.1875 C-23.08455078 4.45466797 -23.08455078 4.45466797 -21.44921875 3.70703125 C-14.17935634 0.89953059 -7.73314806 -0.01144486 0 0 Z M-13 33.375 C-13.886875 34.220625 -14.77375 35.06625 -15.6875 35.9375 C-18.22942014 38.05683456 -18.22942014 38.05683456 -18 40.375 C-18.66 40.375 -19.32 40.375 -20 40.375 C-22.04169485 43.28048882 -23 44.77642046 -23 48.375 C-23.66 48.375 -24.32 48.375 -25 48.375 C-29.23634251 61.91616624 -30.19044366 76.84721334 -23.7578125 89.89453125 C-22.5979599 91.85392721 -21.51500715 93.67499198 -20 95.375 C-19.34 95.375 -18.68 95.375 -18 95.375 C-17.75636719 95.97054687 -17.51273438 96.56609375 -17.26171875 97.1796875 C-14.42816505 102.10989548 -8.57822081 104.76586214 -3.4375 106.75 C3.26065111 107.96784566 8.55676075 107.52274642 15 105.375 C15 104.715 15 104.055 15 103.375 C15.804375 103.2821875 15.804375 103.2821875 16.625 103.1875 C20.15376838 101.98028977 22.32338724 99.93523829 25 97.375 C26.39819512 94.7235518 26.39819512 94.7235518 27 92.375 C27.66 92.375 28.32 92.375 29 92.375 C31.70844881 86.64209085 31.70844881 86.64209085 32 80.375 C32.66 80.375 33.32 80.375 34 80.375 C35.25551269 66.96998758 35.43422758 56.54190388 29 44.375 C28.34 44.045 27.68 43.715 27 43.375 C26.505 42.529375 26.01 41.68375 25.5 40.8125 C25.005 40.008125 24.51 39.20375 24 38.375 C23.34 38.375 22.68 38.375 22 38.375 C21.814375 37.818125 21.62875 37.26125 21.4375 36.6875 C19.31499219 33.27303091 16.5495385 31.15120332 13 29.375 C9.73806217 28.77689108 6.61637515 28.85110741 3.3125 29 C2.05083008 29.02126953 2.05083008 29.02126953 0.76367188 29.04296875 C-6.96308327 29.1009194 -6.96308327 29.1009194 -13 33.375 Z " fill="#FEFEFE" transform="translate(238,207.625)"/>
<path d="M0 0 C24 0 24 0 27 1 C28.4296875 2.78515625 28.4296875 2.78515625 29.875 5.0625 C30.390625 5.86945313 30.90625 6.67640625 31.4375 7.5078125 C31.953125 8.33023438 32.46875 9.15265625 33 10 C33.495 10.76054687 33.99 11.52109375 34.5 12.3046875 C38 17.73366477 38 17.73366477 38 20 C38.99 20.33 39.98 20.66 41 21 C42.03903878 22.72090797 43.0718841 24.4476974 44.015625 26.22265625 C45.02227878 28.14829748 45.02227878 28.14829748 46.75 30.25 C48 32 48 32 48 35 C48.99 35.33 49.98 35.66 51 36 C54 41.22222222 54 41.22222222 54 44 C54.66 44 55.32 44 56 44 C57.04296875 45.3984375 57.04296875 45.3984375 58.1875 47.375 C60.75968071 51.68244292 63.61069195 55.73480602 66.546875 59.80078125 C68 62 68 62 69 65 C69.433125 65.433125 69.86625 65.86625 70.3125 66.3125 C72 68 72 68 76 74 C76.33 49.58 76.66 25.16 77 0 C86.57 0 96.14 0 106 0 C106.06779407 10.21395914 106.12282668 20.42776869 106.15543652 30.64190197 C106.1710881 35.38480683 106.19231715 40.1275497 106.22631836 44.87036133 C106.25892985 49.44800215 106.27685684 54.02548721 106.28463173 58.60323524 C106.29017202 60.34913904 106.30099089 62.09503438 106.31719017 63.84087181 C106.33898842 66.28757482 106.34196595 68.73363533 106.34057617 71.18041992 C106.351362 71.90115189 106.36214783 72.62188385 106.3732605 73.36445618 C106.34650128 77.72218919 105.74127094 80.56207206 103 84 C102.34 84 101.68 84 101 84 C100.773125 84.70125 100.54625 85.4025 100.3125 86.125 C98.72727766 89.5973918 96.50683007 92.17550001 94 95 C93.01933425 96.1445506 92.04020972 97.29042324 91.0625 98.4375 C90.56363281 99.015 90.06476563 99.5925 89.55078125 100.1875 C88.47278949 101.44741984 87.40860248 102.71922929 86.35546875 104 C85.82566406 104.639375 85.29585938 105.27875 84.75 105.9375 C84.27046875 106.52402344 83.7909375 107.11054688 83.296875 107.71484375 C82 109 82 109 80 109 C79.7525 109.7425 79.505 110.485 79.25 111.25 C77.85086087 114.32810608 76.70634961 115.97023779 74 118 C70.75 118.25 70.75 118.25 68 118 C67.7525 117.4225 67.505 116.845 67.25 116.25 C66.10302042 113.94276643 66.10302042 113.94276643 64.25 112.25 C62.22698677 110.22698677 60.49990413 108.19504142 58.75 105.9375 C57.96882813 104.93009766 57.96882813 104.93009766 57.171875 103.90234375 C56 102 56 102 56 99 C55.01 98.67 54.02 98.34 53 98 C50 92.77777778 50 92.77777778 50 90 C49.34 90 48.68 90 48 90 C47.566875 89.071875 47.13375 88.14375 46.6875 87.1875 C45.19893515 84.37576639 44.16581074 83.15511537 42 81 C40.96764858 79.56438631 39.96917356 78.10399923 39 76.625 C38.21496094 75.42810547 38.21496094 75.42810547 37.4140625 74.20703125 C35.89289038 71.83282614 34.4410243 69.42354087 33 67 C31.67126391 64.99694279 30.33837163 62.99663196 29 61 C27.9259937 75.84237173 27.68221178 90.68702022 27.4375 105.5625 C27.39419943 108.03841706 27.35058195 110.5143286 27.30664062 112.99023438 C27.20077776 118.9934309 27.09881069 124.99668347 27 131 C25.85660156 131.06058594 24.71320313 131.12117187 23.53515625 131.18359375 C22.04425695 131.26798428 20.55337225 131.35263302 19.0625 131.4375 C18.30775391 131.47681641 17.55300781 131.51613281 16.77539062 131.55664062 C13.08055813 131.44038024 13.08055813 131.44038024 10 133 C6.7 133 3.4 133 0 133 C0 89.11 0 45.22 0 0 Z " fill="#FEFEFE" transform="translate(321,211)"/>
<path d="M0 0 C27.72281448 0 55.31284029 0.0468438 83 1 C84.1780527 9.7512486 84 18.05132764 84 27 C66.18 27 48.36 27 30 27 C30 34.59 30 42.18 30 50 C45.51 50 61.02 50 77 50 C77 59.9 77 69.8 77 80 C61.49 80 45.98 80 30 80 C30 87.26 30 94.52 30 102 C36.20792914 101.96041973 36.20792914 101.96041973 42.41577148 101.90991211 C43.18477783 101.90741455 43.95378418 101.90491699 44.74609375 101.90234375 C45.53685303 101.89710693 46.3276123 101.89187012 47.14233398 101.88647461 C49 102 49 102 50 103 C52.51880517 103.15988491 55.01342266 103.25934225 57.53515625 103.31640625 C58.66503212 103.3475779 58.66503212 103.3475779 59.81773376 103.37937927 C62.2325599 103.44495425 64.64749798 103.50379621 67.0625 103.5625 C68.69597529 103.6056777 70.3294391 103.64929173 71.96289062 103.69335938 C75.97514718 103.80146797 79.98748424 103.90048114 84 104 C84 112.91 84 121.82 84 131 C56.28 131 28.56 131 0 131 C0 87.77 0 44.54 0 0 Z " fill="#FEFEFE" transform="translate(734,292)"/>
<path d="M0 0 C0.68126953 -0.00386719 1.36253906 -0.00773437 2.06445312 -0.01171875 C6.12593354 -0.00391571 9.95347503 0.34186873 13.9375 1.125 C13.9375 1.785 13.9375 2.445 13.9375 3.125 C15.154375 3.24875 16.37125 3.3725 17.625 3.5 C21.00229059 3.91391306 23.83506695 4.67073451 26.9375 6.125 C26.9375 6.785 26.9375 7.445 26.9375 8.125 C27.741875 8.33125 28.54625 8.5375 29.375 8.75 C34.96957349 10.90930907 39.92925441 13.93418663 44 18.375 C45.84691605 23.79262041 45.67242752 29.07493901 43.75 34.4375 C41.74450221 37.41116914 39.6406351 39.76842068 36.9375 42.125 C36.2775 42.125 35.6175 42.125 34.9375 42.125 C34.2775 43.775 33.6175 45.425 32.9375 47.125 C28.56825156 46.63952795 26.85766585 45.33718243 23.9375 42.125 C22.4525 41.135 22.4525 41.135 20.9375 40.125 C20.9375 39.465 20.9375 38.805 20.9375 38.125 C20.215625 37.856875 19.49375 37.58875 18.75 37.3125 C15.9375 36.125 15.9375 36.125 13.375 34.5625 C8.26176706 31.54700365 2.73754244 31.61402254 -3.0625 32.125 C-6.80088806 33.33398257 -6.80088806 33.33398257 -10.0625 35.125 C-15.95138889 38.125 -15.95138889 38.125 -18.0625 38.125 C-18.330625 38.764375 -18.59875 39.40375 -18.875 40.0625 C-20.0625 42.125 -20.0625 42.125 -23.0625 43.125 C-24.08531518 45.22219872 -24.08531518 45.22219872 -24.75 47.6875 C-25.12705078 48.92693359 -25.12705078 48.92693359 -25.51171875 50.19140625 C-25.69347656 50.82949219 -25.87523437 51.46757812 -26.0625 52.125 C-26.7225 52.125 -27.3825 52.125 -28.0625 52.125 C-28.0625 63.345 -28.0625 74.565 -28.0625 86.125 C-27.4025 86.125 -26.7425 86.125 -26.0625 86.125 C-25.83175781 86.64449219 -25.60101562 87.16398437 -25.36328125 87.69921875 C-23.1977693 92.32981941 -21.03404826 95.76445916 -17.0625 99.125 C-16.0725 99.455 -15.0825 99.785 -14.0625 100.125 C-14.0625 100.785 -14.0625 101.445 -14.0625 102.125 C-4.00403269 104.85271995 5.93078802 105.26436062 15.9375 102.125 C15.9375 101.465 15.9375 100.805 15.9375 100.125 C20.32211538 97.125 20.32211538 97.125 22.9375 97.125 C23.4325 95.64 23.4325 95.64 23.9375 94.125 C26.39746642 92.26340379 27.99870054 91.125 31.125 91.125 C33.70558085 92.54876874 33.92779391 94.43245042 34.9375 97.125 C36.4225 97.62 36.4225 97.62 37.9375 98.125 C38.62236725 99.44907669 39.28620203 100.78409241 39.9375 102.125 C41.94493389 104.26626282 44.02988888 106.2049039 46.25 108.125 C47.9375 110.125 47.9375 110.125 47.77734375 112.03515625 C46.7171166 114.67339591 45.38492877 115.77399125 43.1875 117.5625 C40.68722596 119.64158092 38.30098628 121.70337674 36.0625 124.0625 C33.9375 126.125 33.9375 126.125 31.9375 126.125 C31.9375 126.785 31.9375 127.445 31.9375 128.125 C29.94186738 129.09239508 27.94074118 130.04846044 25.9375 131 C24.82375 131.53367187 23.71 132.06734375 22.5625 132.6171875 C14.98018864 135.77103684 8.31697024 136.48654024 0.1875 136.4375 C-0.78606445 136.43186035 -1.75962891 136.4262207 -2.76269531 136.42041016 C-14.61699484 136.22052965 -23.21411255 133.76118939 -33.0625 127.125 C-34.135 126.485625 -35.2075 125.84625 -36.3125 125.1875 C-40.76083986 121.8512451 -43.99197762 117.73078357 -47.0625 113.125 C-47.0625 112.135 -47.0625 111.145 -47.0625 110.125 C-48.0525 109.795 -49.0425 109.465 -50.0625 109.125 C-51.84747161 106.35618577 -52.88697285 103.19213246 -54.0625 100.125 C-54.49046875 99.03574219 -54.9184375 97.94648438 -55.359375 96.82421875 C-61.4500851 80.14642139 -63.02593374 63.10485331 -57.0625 46.125 C-56.51310556 44.33568785 -55.97089494 42.54414661 -55.4375 40.75 C-55.17710937 39.87601562 -54.91671875 39.00203125 -54.6484375 38.1015625 C-54.35839844 37.12316406 -54.35839844 37.12316406 -54.0625 36.125 C-53.4025 36.125 -52.7425 36.125 -52.0625 36.125 C-51.0725 33.155 -50.0825 30.185 -49.0625 27.125 C-48.4025 27.125 -47.7425 27.125 -47.0625 27.125 C-46.794375 26.320625 -46.52625 25.51625 -46.25 24.6875 C-45.858125 23.841875 -45.46625 22.99625 -45.0625 22.125 C-44.0725 21.795 -43.0825 21.465 -42.0625 21.125 C-41.815 20.403125 -41.5675 19.68125 -41.3125 18.9375 C-38.20607634 11.94804677 -29.73789783 7.29140177 -23.0625 4.125 C-20.29359339 3.44060144 -17.9306857 3.2312291 -15.0625 3.125 C-15.0625 2.465 -15.0625 1.805 -15.0625 1.125 C-10.01460075 0.29574928 -5.11989692 -0.02922872 0 0 Z " fill="#FEFEFE" transform="translate(580.0625,288.875)"/>
<path d="M0 0 C3.5 1.5 3.5 1.5 6 3 C6 3.66 6 4.32 6 5 C6.58265625 5.25910156 7.1653125 5.51820313 7.765625 5.78515625 C10.16343838 7.08886248 11.81756794 8.51745533 13.75 10.4375 C14.36359375 11.03433594 14.9771875 11.63117188 15.609375 12.24609375 C17 14 17 14 17 17 C18.485 17.495 18.485 17.495 20 18 C21.5703125 20.6953125 21.5703125 20.6953125 23.125 24.125 C23.64320313 25.24132812 24.16140625 26.35765625 24.6953125 27.5078125 C26.0171082 31.04579261 26.60918666 34.25391119 27 38 C27.66 38 28.32 38 29 38 C33.91582354 58.80446747 32.34584044 81.2414082 21.3125 99.75 C20.549375 100.8225 19.78625 101.895 19 103 C18.34 103 17.68 103 17 103 C16.773125 103.721875 16.54625 104.44375 16.3125 105.1875 C14.73664872 108.56432417 12.79123384 110.55767039 10 113 C9.34 113 8.68 113 8 113 C8 113.66 8 114.32 8 115 C5.4385343 117.29648649 4.52032428 118 1 118 C0.505 119.485 0.505 119.485 0 121 C-9.6463828 126.89987478 -19.52312953 128.15082482 -30.5625 128.25 C-31.35398437 128.25942627 -32.14546875 128.26885254 -32.9609375 128.27856445 C-41.0309931 128.23423268 -48.01785732 126.97694384 -55.0625 122.875 C-56.00222656 122.33617187 -56.94195312 121.79734375 -57.91015625 121.2421875 C-58.59980469 120.83226562 -59.28945313 120.42234375 -60 120 C-60 119.34 -60 118.68 -60 118 C-60.680625 117.79375 -61.36125 117.5875 -62.0625 117.375 C-69.64639018 113.82509396 -75.49947432 106.92641879 -80 100 C-80.7265625 97.19140625 -80.7265625 97.19140625 -81 95 C-81.66 95 -82.32 95 -83 95 C-84.6274358 91.22434894 -85.90856695 88.09719657 -86.25 84 C-84.22526697 79.14064072 -80.21523126 76.0473415 -76 73 C-75.34 73 -74.68 73 -74 73 C-73.61521484 72.10667969 -73.61521484 72.10667969 -73.22265625 71.1953125 C-71.89030313 68.80303629 -70.56631395 67.57271801 -68.4375 65.875 C-65.78974334 63.79096366 -65.78974334 63.79096366 -64 61 C-63.34 61 -62.68 61 -62 61 C-62 61.66 -62 62.32 -62 63 C-61.34 63 -60.68 63 -60 63 C-59.32815382 65.10251861 -58.66269032 67.20707763 -58 69.3125 C-57.62875 70.48425781 -57.2575 71.65601563 -56.875 72.86328125 C-56 76 -56 76 -56 79 C-55.34 79 -54.68 79 -54 79 C-53.608125 80.051875 -53.21625 81.10375 -52.8125 82.1875 C-50.11120172 88.47784717 -44.39773733 93.48989452 -38.1875 96.25 C-37.465625 96.4975 -36.74375 96.745 -36 97 C-36 97.66 -36 98.32 -36 99 C-31.38 99 -26.76 99 -22 99 C-22 98.34 -22 97.68 -22 97 C-21.30132812 96.67386719 -20.60265625 96.34773438 -19.8828125 96.01171875 C-18.97273438 95.57472656 -18.06265625 95.13773437 -17.125 94.6875 C-15.76761719 94.04361328 -15.76761719 94.04361328 -14.3828125 93.38671875 C-11.73550524 92.0800612 -11.73550524 92.0800612 -10 89 C-9.34 89 -8.68 89 -8 89 C-7.7215625 88.27296875 -7.443125 87.5459375 -7.15625 86.796875 C-6.07319907 84.1770626 -4.8380372 81.7465816 -3.5 79.25 C-1.09996365 74.53488434 0.07786636 70.19748049 1 65 C1.66 65 2.32 65 3 65 C1.94543317 51.71245796 -2.88602618 38.16578877 -13 29 C-13.7425 28.46375 -14.485 27.9275 -15.25 27.375 C-15.8275 26.92125 -16.405 26.4675 -17 26 C-17 25.34 -17 24.68 -17 24 C-18.65 23.34 -20.3 22.68 -22 22 C-21.67 19.03 -21.34 16.06 -21 13 C-20.01 12.67 -19.02 12.34 -18 12 C-17.505 10.7625 -17.505 10.7625 -17 9.5 C-16.505 8.2625 -16.505 8.2625 -16 7 C-15.01 6.67 -14.02 6.34 -13 6 C-12.3162955 4.67532254 -11.65035814 3.34136367 -11 2 C-7.29034259 -0.47310494 -4.30185433 -0.55899802 0 0 Z " fill="#FEFEFE" transform="translate(478,297)"/>
<path d="M0 0 C8.91 0 17.82 0 27 0 C27 34.32 27 68.64 27 104 C43.17 104 59.34 104 76 104 C75.67 105.98 75.34 107.96 75 110 C74.87678889 111.56697217 74.7814988 113.13647551 74.71875 114.70703125 C74.68136719 115.54041016 74.64398437 116.37378906 74.60546875 117.23242188 C74.53435917 118.97197281 74.46406433 120.71155721 74.39453125 122.45117188 C74.35714844 123.27810547 74.31976562 124.10503906 74.28125 124.95703125 C74.25095703 125.70960205 74.22066406 126.46217285 74.18945312 127.23754883 C74 129 74 129 73 130 C68.36079532 130.81361858 63.85100417 131.14211703 59.14672852 131.20532227 C58.16415652 131.22037135 58.16415652 131.22037135 57.16173458 131.23572445 C55.06749293 131.26679479 52.97323213 131.29174882 50.87890625 131.31640625 C49.5885144 131.33505737 48.29812256 131.3537085 46.96862793 131.3729248 C42.1666523 131.44101894 37.36456841 131.50129728 32.5625 131.5625 C21.816875 131.706875 11.07125 131.85125 0 132 C0 88.44 0 44.88 0 0 Z " fill="#FEFEFE" transform="translate(645,292)"/>
<path d="M0 0 C0.29693807 3.09355483 0.29799097 4.56818541 -1.49609375 7.16796875 C-2.13675781 7.83441406 -2.77742187 8.50085938 -3.4375 9.1875 C-6.03807004 11.87000776 -6.03807004 11.87000776 -8 15 C-8.66 15 -9.32 15 -10 15 C-10.37125 16.11375 -10.37125 16.11375 -10.75 17.25 C-12.11153526 20.24537757 -13.62032943 21.76455189 -16 24 C-16.53625 24.7425 -17.0725 25.485 -17.625 26.25 C-18.07875 26.8275 -18.5325 27.405 -19 28 C-19.66 28 -20.32 28 -21 28 C-21.268125 28.804375 -21.53625 29.60875 -21.8125 30.4375 C-22.204375 31.283125 -22.59625 32.12875 -23 33 C-23.99 33.33 -24.98 33.66 -26 34 C-26.68044596 35.66108866 -27.34489163 37.32875638 -28 39 C-29.8828125 41.32421875 -29.8828125 41.32421875 -32.125 43.6875 C-36.14023635 48.00112225 -39.80172744 52.47701583 -43.37109375 57.1640625 C-44.17740234 58.07285156 -44.17740234 58.07285156 -45 59 C-45.66 59 -46.32 59 -47 59 C-47.0825 59.61875 -47.165 60.2375 -47.25 60.875 C-48 63 -48 63 -49.9375 63.9375 C-52.78577057 65.4047909 -52.85901355 67.0468586 -54 70 C-56.43970728 73.16502567 -58.89175158 75.89421177 -61.75 78.6875 C-64.19748805 80.86759687 -64.19748805 80.86759687 -65 84 C-66.64302953 85.68997323 -68.31471312 87.35216394 -70 89 C-71.58026013 90.86300275 -73.13251782 92.74446136 -74.66796875 94.64453125 C-75.10753906 95.09183594 -75.54710937 95.53914063 -76 96 C-76.66 96 -77.32 96 -78 96 C-78.16242188 96.88558594 -78.16242188 96.88558594 -78.328125 97.7890625 C-79.08158102 100.26845848 -80.01551076 101.4706381 -81.75 103.375 C-82.56210937 104.28378906 -82.56210937 104.28378906 -83.390625 105.2109375 C-83.92171875 105.80132812 -84.4528125 106.39171875 -85 107 C-85.825 107.99 -86.65 108.98 -87.5 110 C-89.88504408 112.8620529 -92.31426451 115.6792099 -94.765625 118.484375 C-96.08965054 119.99757953 -96.08965054 119.99757953 -97 122 C-97.66 122 -98.32 122 -99 122 C-99.268125 122.58265625 -99.53625 123.1653125 -99.8125 123.765625 C-101.01480991 126.02786601 -102.33825913 127.80576318 -104 129.75 C-104.515625 130.36359375 -105.03125 130.9771875 -105.5625 131.609375 C-107 133 -107 133 -109 133 C-109.103125 133.5775 -109.20625 134.155 -109.3125 134.75 C-110.10896465 137.35661158 -111.19065277 138.9735311 -113 141 C-113.66 141 -114.32 141 -115 141 C-115.2475 141.7425 -115.495 142.485 -115.75 143.25 C-117.13579766 146.29875486 -118.57451507 147.70926423 -121 150 C-122.07549011 151.19678599 -123.13724973 152.40600448 -124.1875 153.625 C-124.69667969 154.21539062 -125.20585937 154.80578125 -125.73046875 155.4140625 C-127.08147997 156.98810767 -127.08147997 156.98810767 -128 159 C-128.66 159 -129.32 159 -130 159 C-130.2578125 159.56203125 -130.515625 160.1240625 -130.78125 160.703125 C-132.14169777 163.26704579 -133.72788962 165.45226365 -135.5 167.75 C-136.1084375 168.54921875 -136.716875 169.3484375 -137.34375 170.171875 C-137.8903125 170.77515625 -138.436875 171.3784375 -139 172 C-139.66 172 -140.32 172 -141 172 C-141.2475 172.7425 -141.495 173.485 -141.75 174.25 C-143.13579766 177.29875486 -144.57451507 178.70926423 -147 181 C-148.07549011 182.19678599 -149.13724973 183.40600448 -150.1875 184.625 C-150.69667969 185.21539062 -151.20585937 185.80578125 -151.73046875 186.4140625 C-153.08147997 187.98810767 -153.08147997 187.98810767 -154 190 C-154.66 190 -155.32 190 -156 190 C-156.25910156 190.56589844 -156.51820313 191.13179687 -156.78515625 191.71484375 C-158.120718 194.22707405 -159.67882623 196.32728237 -161.4375 198.5625 C-162.03433594 199.32691406 -162.63117188 200.09132813 -163.24609375 200.87890625 C-164.7565639 202.70559955 -166.31142067 204.34244444 -168 206 C-171.33054056 209.70147754 -174.58130537 213.47165802 -177.75 217.3125 C-179.43939371 219.33038693 -181.14673037 221.14673037 -183 223 C-183.515625 223.721875 -184.03125 224.44375 -184.5625 225.1875 C-185.036875 225.785625 -185.51125 226.38375 -186 227 C-186.66 227 -187.32 227 -188 227 C-188.268125 227.639375 -188.53625 228.27875 -188.8125 228.9375 C-190 231 -190 231 -193 232 C-193.33733417 233.33232674 -193.67000244 234.66583716 -194 236 C-195.59472656 237.93530273 -195.59472656 237.93530273 -197.640625 239.93359375 C-198.38183594 240.66513672 -199.12304688 241.39667969 -199.88671875 242.15039062 C-200.66660156 242.90513672 -201.44648438 243.65988281 -202.25 244.4375 C-203.39662109 245.56381836 -203.39662109 245.56381836 -204.56640625 246.71289062 C-206.04755999 248.16718406 -207.53166707 249.61847714 -209.01904297 251.06640625 C-210.65828594 252.66645608 -212.28381053 254.27756189 -213.8984375 255.90234375 C-219.13773014 261.13189793 -224.34740062 265 -232 265 C-231.85437243 258.15550444 -228.74624157 253.83393195 -224 249 C-223.34 249 -222.68 249 -222 249 C-221.7628125 248.28070313 -221.525625 247.56140625 -221.28125 246.8203125 C-219.79748841 243.55422754 -217.95495296 241.48139486 -215.5 238.875 C-213.08551892 236.29589521 -210.96265593 233.94398389 -209 231 C-208.34 231 -207.68 231 -207 231 C-206.7525 230.21625 -206.505 229.4325 -206.25 228.625 C-204.79219136 225.56360186 -203.92006527 225.41293481 -201 224 C-200.835 223.34 -200.67 222.68 -200.5 222 C-200.335 221.34 -200.17 220.68 -200 220 C-199.360625 219.690625 -198.72125 219.38125 -198.0625 219.0625 C-195.77893331 218.17762353 -195.77893331 218.17762353 -195.1484375 215.7421875 C-193.77909589 212.47253508 -192.01840825 210.61271513 -189.5625 208.0625 C-184.91707102 203.11322755 -180.72927593 197.94579942 -176.66821289 192.50805664 C-173.31659265 188.10553088 -173.31659265 188.10553088 -170 187 C-169.33283105 185.33353433 -168.66626074 183.66682898 -168 182 C-166.50295241 180.19369029 -164.9325021 178.44690879 -163.3125 176.75 C-159.36480559 172.53950683 -155.77228002 168.24512474 -152.375 163.58203125 C-151.92125 163.05996094 -151.4675 162.53789062 -151 162 C-150.34 162 -149.68 162 -149 162 C-148.731875 161.195625 -148.46375 160.39125 -148.1875 159.5625 C-147.795625 158.716875 -147.40375 157.87125 -147 157 C-146.01 156.67 -145.02 156.34 -144 156 C-143.67 155.175 -143.34 154.35 -143 153.5 C-142.67 152.675 -142.34 151.85 -142 151 C-141.01 150.67 -140.02 150.34 -139 150 C-138.28293025 148.69308256 -137.62469505 147.35350594 -137 146 C-135.87000485 144.39028993 -134.7011076 142.80736832 -133.5 141.25 C-132.8915625 140.45078125 -132.283125 139.6515625 -131.65625 138.828125 C-131.1096875 138.22484375 -130.563125 137.6215625 -130 137 C-129.34 137 -128.68 137 -128 137 C-127.7525 136.2575 -127.505 135.515 -127.25 134.75 C-125.86420234 131.70124514 -124.42548493 130.29073577 -122 128 C-120.92450989 126.80321401 -119.86275027 125.59399552 -118.8125 124.375 C-118.30332031 123.78460938 -117.79414063 123.19421875 -117.26953125 122.5859375 C-115.91852003 121.01189233 -115.91852003 121.01189233 -115 119 C-114.34 119 -113.68 119 -113 119 C-112.74089844 118.43410156 -112.48179687 117.86820312 -112.21484375 117.28515625 C-110.879282 114.77292595 -109.32117377 112.67271763 -107.5625 110.4375 C-106.96566406 109.67308594 -106.36882812 108.90867187 -105.75390625 108.12109375 C-103.48753495 105.38024828 -101.01328606 103.01263796 -98.4375 100.5625 C-96.00675067 98.25718411 -96.00675067 98.25718411 -95 96 C-93.55786836 93.11573672 -91.28017992 91.27369292 -89 89 C-87.33102519 87.08239819 -85.68567159 85.14402437 -84.0625 83.1875 C-83.62719971 82.66341553 -83.19189941 82.13933105 -82.7434082 81.59936523 C-80.30561501 78.6460157 -77.95291417 75.64956698 -75.6875 72.5625 C-73.37271766 69.40893418 -70.80574221 66.7338001 -68 64 C-67.11314582 62.96840701 -66.23828114 61.92639912 -65.375 60.875 C-63.64159749 58.77667065 -61.91338702 56.91338702 -60 55 C-59.484375 54.278125 -58.96875 53.55625 -58.4375 52.8125 C-57.963125 52.214375 -57.48875 51.61625 -57 51 C-56.34 51 -55.68 51 -55 51 C-54.79375 50.319375 -54.5875 49.63875 -54.375 48.9375 C-51.58520614 42.97748584 -46.60213395 38.60213395 -42 34 C-40.47276584 32.24530543 -38.97353558 30.46866234 -37.47265625 28.69140625 C-35.43021721 26.34558104 -33.19880883 24.19880883 -31 22 C-29.8553125 20.576875 -29.8553125 20.576875 -28.6875 19.125 C-26.05465699 15.88006292 -22.97490323 13.27931721 -19.76953125 10.61328125 C-17.77730559 8.92720578 -17.77730559 8.92720578 -16 6 C-13.57421875 4.39453125 -13.57421875 4.39453125 -10.6875 2.8125 C-9.74261719 2.28269531 -8.79773438 1.75289062 -7.82421875 1.20703125 C-4.93852681 -0.02627278 -3.09588364 -0.25376095 0 0 Z " fill="#FEFEFE" transform="translate(531,199)"/>
</svg>
