<?xml version="1.0" encoding="UTF-8"?>
<svg version="1.1" xmlns="http://www.w3.org/2000/svg" width="866" height="147">
<path d="M0 0 C0.97646484 0.65935547 0.97646484 0.65935547 1.97265625 1.33203125 C4.6614704 3.04686262 7.50254351 4.29046368 10.43359375 5.53515625 C12 6.625 12 6.625 12.84375 8.60546875 C12.8953125 9.27191406 12.946875 9.93835938 13 10.625 C11.0625 12.875 11.0625 12.875 9 14.625 C15.63467764 11.43976759 21.9659948 7.93026354 28.23828125 4.078125 C30.89844952 2.6784325 33.04072274 2.03466315 36 1.625 C36 0.965 36 0.305 36 -0.375 C40.63407871 -2.91270977 44.75840687 -5.15107202 50.12109375 -3.8671875 C52.21714362 -3.15729539 54.10199713 -2.51651963 56 -1.375 C56.495 0.11 56.495 0.11 57 1.625 C57.71414062 1.73328125 58.42828125 1.8415625 59.1640625 1.953125 C66.76002986 3.75272057 73.90945802 8.85848888 80 13.625 C81.51392533 16.65285065 81.162841 19.79565593 81.16796875 23.1171875 C81.17296135 24.23071091 81.17296135 24.23071091 81.17805481 25.36672974 C81.18312087 26.93865336 81.18546323 28.51058775 81.18530273 30.08251953 C81.18748508 32.4835798 81.20563223 34.88417756 81.22460938 37.28515625 C81.22754422 38.81249843 81.22952841 40.33984279 81.23046875 41.8671875 C81.23765427 42.58397675 81.24483978 43.30076599 81.25224304 44.03927612 C81.23546338 47.71492868 81.1399078 50.55902304 79 53.625 C76.7890625 55.14453125 76.7890625 55.14453125 74 56.625 C72.93523437 57.22699219 71.87046875 57.82898438 70.7734375 58.44921875 C69.65195313 59.06410156 68.53046875 59.67898437 67.375 60.3125 C66.24835938 60.93511719 65.12171875 61.55773437 63.9609375 62.19921875 C61 63.625 61 63.625 58 63.625 C57.505 65.11 57.505 65.11 57 66.625 C52.13825664 69.90667677 47.68408084 70.3786807 42 69.625 C39.00708202 68.49581991 36.39147292 66.94681457 33.6875 65.25 C32.31664776 64.42928397 30.94556143 63.6089588 29.57421875 62.7890625 C28.98213623 62.42248535 28.39005371 62.0559082 27.7800293 61.67822266 C25.8949113 60.56282024 23.96892688 59.58335358 22 58.625 C22.34879632 55.36956771 23.02133261 54.60626893 25.5625 52.375 C26.366875 51.7975 27.17125 51.22 28 50.625 C27.44570312 50.91375 26.89140625 51.2025 26.3203125 51.5 C25.59585938 51.87125 24.87140625 52.2425 24.125 52.625 C23.40570313 52.99625 22.68640625 53.3675 21.9453125 53.75 C20 54.625 20 54.625 18 54.625 C18 55.285 18 55.945 18 56.625 C16.89140625 57.16769531 15.7828125 57.71039063 14.640625 58.26953125 C13.17697731 58.99197274 11.7134415 59.71464092 10.25 60.4375 C9.52039063 60.79392578 8.79078125 61.15035156 8.0390625 61.51757812 C4.42817887 63.30660683 1.14999809 65.08077077 -2 67.625 C-6.20302281 69.84326204 -10.32875501 70.24988604 -15 69.625 C-17.86652904 68.51489541 -20.39582837 66.997521 -23 65.375 C-24.33218617 64.57620869 -25.66552029 63.77932873 -27 62.984375 C-27.6496875 62.59314453 -28.299375 62.20191406 -28.96875 61.79882812 C-32.23507991 59.91126632 -35.60850637 58.27532503 -39 56.625 C-39 55.965 -39 55.305 -39 54.625 C-39.804375 54.33625 -40.60875 54.0475 -41.4375 53.75 C-44 52.625 -44 52.625 -45 50.625 C-45.12308974 48.04571047 -45.18835973 45.49445066 -45.203125 42.9140625 C-45.20882507 42.14951752 -45.21452515 41.38497253 -45.22039795 40.59725952 C-45.2298497 38.97826523 -45.23638263 37.35925168 -45.24023438 35.74023438 C-45.24993496 33.26658442 -45.28095335 30.79376719 -45.3125 28.3203125 C-45.31903068 26.74740077 -45.3242809 25.17448309 -45.328125 23.6015625 C-45.3404718 22.86289948 -45.3528186 22.12423645 -45.36553955 21.3631897 C-45.35183687 18.19460612 -45.21420968 15.99852006 -43.62158203 13.22143555 C-41.58521707 11.21664926 -39.51299329 9.98950495 -37 8.625 C-35.93523437 8.02300781 -34.87046875 7.42101562 -33.7734375 6.80078125 C-32.09121094 5.87845703 -32.09121094 5.87845703 -30.375 4.9375 C-29.24835938 4.31488281 -28.12171875 3.69226562 -26.9609375 3.05078125 C-24 1.625 -24 1.625 -21 1.625 C-20.67 0.635 -20.34 -0.355 -20 -1.375 C-12.27529662 -5.30511224 -7.22975497 -4.54683808 0 0 Z M3 16.625 C2.01 18.11 2.01 18.11 1 19.625 C2.65 18.965 4.3 18.305 6 17.625 C5.01 17.295 4.02 16.965 3 16.625 Z M34 45.625 C35 47.625 35 47.625 35 47.625 Z " fill="#FEFEFE" transform="translate(102,38.375)"/>
<path d="M0 0 C4.62 0 9.24 0 14 0 C16.04908454 4.09816907 17.41552256 6.91731411 18.5 11.15234375 C18.7475 12.09400391 18.995 13.03566406 19.25 14.00585938 C19.4975 14.97330078 19.745 15.94074219 20 16.9375 C22.00524582 24.74438151 24.27016739 31.82724498 28 39 C28.18175781 38.28714844 28.36351562 37.57429688 28.55078125 36.83984375 C28.80214844 35.88207031 29.05351562 34.92429688 29.3125 33.9375 C29.55613281 32.99777344 29.79976563 32.05804688 30.05078125 31.08984375 C30.92097456 28.25723918 32.03045367 25.64475978 33.22631836 22.9387207 C34.69060307 19.26946071 35.62303964 15.44110827 36.625 11.625 C38.873394 3.126606 38.873394 3.126606 40 2 C42.35313555 1.92728259 44.70833668 1.91629132 47.0625 1.9375 C48.35285156 1.94652344 49.64320313 1.95554688 50.97265625 1.96484375 C51.97167969 1.97644531 52.97070312 1.98804688 54 2 C59 14.95454545 59 14.95454545 59 21 C59.66 21 60.32 21 61 21 C63.475 29.91 63.475 29.91 66 39 C68.7800113 35.29331826 69.71430595 33.29836519 70.9375 28.984375 C71.27523437 27.81519531 71.61296875 26.64601563 71.9609375 25.44140625 C72.30382812 24.22324219 72.64671875 23.00507812 73 21.75 C77.18333806 7.07686313 77.18333806 7.07686313 80 0 C84.62 0 89.24 0 94 0 C93.39502042 6.06370342 92.1366972 11.65514242 90.4375 17.5 C90.08655273 18.73363281 90.08655273 18.73363281 89.72851562 19.9921875 C89.15757928 21.99629058 88.57953295 23.99836591 88 26 C87.34 26 86.68 26 86 26 C85.89816406 26.91910156 85.79632812 27.83820313 85.69140625 28.78515625 C84.929102 34.12128599 83.39043738 39.25614325 81.9375 44.4375 C81.65583984 45.45521484 81.37417969 46.47292969 81.08398438 47.52148438 C80.39317556 50.01542128 79.69842182 52.50818649 79 55 C78.34 55 77.68 55 77 55 C76.814375 56.5778125 76.814375 56.5778125 76.625 58.1875 C76 62 76 62 74 67 C69.71 67 65.42 67 61 67 C57.46538545 60.53670483 55.38901556 54.086852 53.4375 47 C51.54268319 40.21058986 49.59343225 33.55846697 47 27 C42.50776928 40.28231678 38.25603183 53.64049562 34 67 C30.04 67 26.08 67 22 67 C22 67.66 22 68.32 22 69 C21.34 69 20.68 69 20 69 C19.15960114 66.41877492 18.32749444 63.83536099 17.5 61.25 C17.14228516 60.15558594 17.14228516 60.15558594 16.77734375 59.0390625 C16.55175781 58.33007812 16.32617188 57.62109375 16.09375 56.890625 C15.88427734 56.24125977 15.67480469 55.59189453 15.45898438 54.92285156 C15 53 15 53 15 49 C14.34 49 13.68 49 13 49 C12.7733667 48.15816162 12.5467334 47.31632324 12.31323242 46.44897461 C11.46185824 43.29630757 10.60587004 40.14496683 9.74682617 36.99438477 C9.37748485 35.63615665 9.00993574 34.27743977 8.64428711 32.91821289 C8.11534037 30.95324431 7.57975721 28.99018271 7.04296875 27.02734375 C6.72352295 25.84906006 6.40407715 24.67077637 6.07495117 23.45678711 C4.94274804 19.81589131 3.53615279 16.48687237 2 13 C0.39510182 8.18530546 0 5.22274951 0 0 Z " fill="#FEFEFE" transform="translate(474,38)"/>
<path d="M0 0 C0.66 0.99 1.32 1.98 2 3 C4.25621163 1.91367588 6.37353544 0.76654035 8.5 -0.5625 C14.45993839 -3.98946457 21.0888366 -3.7048075 27.625 -2.0625 C32.14825467 -0.38780017 34.26822915 2.22510849 36.90625 6.16015625 C40.21568139 14.75285845 39.15210278 24.95670431 39.125 34 C39.12856941 35.33463636 39.13247352 36.66927187 39.13671875 38.00390625 C39.13542969 39.26074219 39.13414062 40.51757812 39.1328125 41.8125 C39.13168457 42.95332031 39.13055664 44.09414062 39.12939453 45.26953125 C39 48 39 48 38 50 C35.68756208 50.02685412 33.3750373 50.04632841 31.0625 50.0625 C29.13083984 50.07990234 29.13083984 50.07990234 27.16015625 50.09765625 C24 50 24 50 23 49 C22.8894166 46.52776623 22.83840524 44.07873883 22.82421875 41.60546875 C22.80101523 40.07746026 22.77689767 38.54946543 22.75195312 37.02148438 C22.71685764 34.60529526 22.68751171 32.18960611 22.67407227 29.77319336 C22.65858352 27.44583023 22.61836434 25.11994177 22.57421875 22.79296875 C22.57612717 22.07304245 22.57803558 21.35311615 22.58000183 20.6113739 C22.49744902 17.22146568 22.21758529 15.29849788 20.19848633 12.52856445 C17.10662357 10.37885288 14.67016977 10.71767925 11 11 C10.690625 11.61875 10.38125 12.2375 10.0625 12.875 C9.375 14.25 8.6875 15.625 8 17 C7.85595264 19.39404487 7.76613535 21.76390911 7.71875 24.16015625 C7.70034058 24.86522812 7.68193115 25.57029999 7.66296387 26.29673767 C7.58417898 29.31851853 7.51639985 32.3405233 7.44775391 35.36254883 C7.39614116 37.56603408 7.33885725 39.76932092 7.28125 41.97265625 C7.26767456 42.66118179 7.25409912 43.34970734 7.2401123 44.05909729 C7.11283078 48.88716922 7.11283078 48.88716922 6 50 C3.64686445 50.07271741 1.29166332 50.08370868 -1.0625 50.0625 C-2.35285156 50.05347656 -3.64320313 50.04445312 -4.97265625 50.03515625 C-5.97167969 50.02355469 -6.97070312 50.01195312 -8 50 C-8.029729 48.54762939 -8.029729 48.54762939 -8.06005859 47.06591797 C-8.13646218 43.45384898 -8.22512425 39.84216468 -8.31738281 36.23046875 C-8.35552961 34.67097602 -8.39040682 33.1113996 -8.421875 31.55175781 C-8.46783825 29.30243126 -8.52577808 27.05367385 -8.5859375 24.8046875 C-8.59748871 24.1138205 -8.60903992 23.42295349 -8.62094116 22.71115112 C-8.74860831 18.469017 -9.46684578 14.95392404 -11 11 C-14.63 11 -18.26 11 -22 11 C-25.03529195 19.44673739 -25.53239996 27.19123797 -25.6875 36.125 C-25.72075453 37.47659385 -25.75525136 38.82815773 -25.79101562 40.1796875 C-25.87284947 43.45304112 -25.94221113 46.72614854 -26 50 C-28.12493141 50.02693575 -30.24995912 50.04636628 -32.375 50.0625 C-33.55835938 50.07410156 -34.74171875 50.08570313 -35.9609375 50.09765625 C-39 50 -39 50 -41 49 C-41.02526787 41.89755001 -41.04283201 34.79511152 -41.05493164 27.69262695 C-41.05997349 25.27432828 -41.06680678 22.85603267 -41.07543945 20.43774414 C-41.08751157 16.97020717 -41.09322963 13.50271034 -41.09765625 10.03515625 C-41.10281754 8.94662857 -41.10797882 7.85810089 -41.11329651 6.73658752 C-41.11337204 5.73562546 -41.11344757 4.73466339 -41.11352539 3.70336914 C-41.115746 2.81734512 -41.11796661 1.93132111 -41.12025452 1.01844788 C-41 -1 -41 -1 -40 -2 C-37.85692104 -2.12537741 -35.70921114 -2.17574364 -33.5625 -2.1875 C-31.80099609 -2.20876953 -31.80099609 -2.20876953 -30.00390625 -2.23046875 C-27 -2 -27 -2 -25 0 C-23.865625 -0.495 -22.73125 -0.99 -21.5625 -1.5 C-13.85681579 -4.35395711 -7.33110978 -3.47263095 0 0 Z " fill="#FEFEFE" transform="translate(664,55)"/>
<path d="M0 0 C0.79277344 0.42410156 1.58554687 0.84820312 2.40234375 1.28515625 C10.0621414 5.8606427 14.75324993 12.36022472 17 21 C17.29886553 24.1300155 17.3248527 27.23247335 17.3125 30.375 C17.32861328 31.18710938 17.34472656 31.99921875 17.36132812 32.8359375 C17.36888231 42.26355613 14.16021975 48.96643264 8 56 C4.74985895 59.09159758 2.47291297 60.48880995 -2 61 C-2 61.66 -2 62.32 -2 63 C-12.27666942 66.35564716 -24.56024995 66.73825991 -34.37109375 61.80859375 C-42.2855698 56.55721172 -49.31271774 50.40899487 -51.6015625 40.8671875 C-53.09494321 30.1207028 -53.06082336 19.15276266 -46.9375 9.875 C-45 8 -45 8 -43 8 C-42.7525 7.401875 -42.505 6.80375 -42.25 6.1875 C-39.5132656 1.3982148 -33.95631327 -0.95102133 -29 -3 C-19.08139126 -5.53770424 -8.99331073 -4.88469161 0 0 Z M-31.4609375 15.53125 C-32.94628763 17.68026721 -34 19.3440528 -34 22 C-34.66 22 -35.32 22 -36 22 C-37.02835363 25.08506088 -37.13368434 27.2694272 -37.125 30.5 C-37.12757813 31.4590625 -37.13015625 32.418125 -37.1328125 33.40625 C-37.10992972 36.11571152 -37.10992972 36.11571152 -36 39 C-35.34 39 -34.68 39 -34 39 C-33.773125 39.9075 -33.54625 40.815 -33.3125 41.75 C-31.76234846 45.58847048 -30.49200627 46.8271961 -27 49 C-20.25569562 51.72366138 -14.37910532 51.27513408 -7.6875 48.75 C-4.02500754 46.36512119 -1.61309884 43.89038809 -0.25 39.6875 C-0.1675 39.130625 -0.085 38.57375 0 38 C0.66 38 1.32 38 2 38 C3.07859862 30.45952096 3.07859862 30.45952096 2 23 C1.34 23 0.68 23 0 23 C-0.3403125 21.948125 -0.3403125 21.948125 -0.6875 20.875 C-2.93110612 15.9604342 -5.29759128 12.69357392 -10.375 10.625 C-18.00164094 9.31006191 -25.76402321 9.56015267 -31.4609375 15.53125 Z " fill="#FEFEFE" transform="translate(260,41)"/>
<path d="M0 0 C5.60984905 4.36321593 8.52561533 9.6167915 9.50390625 16.59375 C9.783451 20.07567451 10.02369949 23.50669588 10 27 C9 28 9 28 5.67358398 28.11352539 C4.19774444 28.11336629 2.72189931 28.10767314 1.24609375 28.09765625 C0.47064713 28.0962413 -0.3047995 28.09482635 -1.10374451 28.09336853 C-3.59003494 28.08775345 -6.0762366 28.07519846 -8.5625 28.0625 C-10.24413933 28.05748694 -11.92578006 28.0529237 -13.60742188 28.04882812 C-17.73831566 28.03777913 -21.86914276 28.02050445 -26 28 C-25.64079643 29.96864663 -25.64079643 29.96864663 -25 32 C-23.13355094 33.18330183 -23.13355094 33.18330183 -21 34 C-20.01 34.66 -19.02 35.32 -18 36 C-9.29630802 38.16718435 -1.74097896 36.15369603 6 32 C6.66 32 7.32 32 8 32 C8 36.62 8 41.24 8 46 C0.85808341 49.75253244 -4.21165599 51.14610373 -12.375 51.1875 C-13.64085937 51.20167969 -14.90671875 51.21585938 -16.2109375 51.23046875 C-20.18323775 50.98885461 -23.24034042 50.22893265 -27 49 C-27 48.34 -27 47.68 -27 47 C-27.721875 46.7525 -28.44375 46.505 -29.1875 46.25 C-33.87449446 44.16689135 -36.3986449 42.18123323 -38.75 37.5625 C-42.13389711 27.91839323 -42.02732822 18.81599492 -38.20703125 9.3125 C-36.64179486 6.31372995 -34.85220248 4.78262655 -32 3 C-31.38125 2.29875 -30.7625 1.5975 -30.125 0.875 C-22.56191782 -5.79830781 -8.43859501 -4.30611433 0 0 Z M-24.75 12.9375 C-26.25915086 15.02564514 -26.25915086 15.02564514 -26 18 C-19.07 18 -12.14 18 -5 18 C-5 17.01 -5 16.02 -5 15 C-5.66 15 -6.32 15 -7 15 C-7.103125 14.38125 -7.20625 13.7625 -7.3125 13.125 C-7.87525373 10.63473516 -7.87525373 10.63473516 -11 9 C-16.78707401 8.63256673 -20.68073475 8.43224204 -24.75 12.9375 Z " fill="#FEFEFE" transform="translate(421,55)"/>
<path d="M0 0 C1.86814628 1.23305902 3.32174343 2.46020665 4.76953125 4.16796875 C4.76953125 4.82796875 4.76953125 5.48796875 4.76953125 6.16796875 C5.42953125 6.16796875 6.08953125 6.16796875 6.76953125 6.16796875 C9.58895666 12.37070466 9.89604874 18.60494143 9.90234375 25.34375 C9.90330048 25.99498337 9.9042572 26.64621674 9.90524292 27.31718445 C9.90591786 28.67931211 9.90411192 30.04144313 9.89990234 31.40356445 C9.89450034 33.49242257 9.89989273 35.58106995 9.90625 37.66992188 C9.90496094 38.98541016 9.90367187 40.30089844 9.90234375 41.65625 C9.90121582 42.85805908 9.90008789 44.05986816 9.89892578 45.2980957 C9.76953125 48.16796875 9.76953125 48.16796875 8.76953125 50.16796875 C4.80953125 50.16796875 0.84953125 50.16796875 -3.23046875 50.16796875 C-3.72546875 48.18796875 -3.72546875 48.18796875 -4.23046875 46.16796875 C-5.71546875 46.66296875 -5.71546875 46.66296875 -7.23046875 47.16796875 C-7.23046875 47.82796875 -7.23046875 48.48796875 -7.23046875 49.16796875 C-13.55991413 51.98105558 -21.54898726 52.47026152 -28.1015625 50.15234375 C-28.80410156 49.8275 -29.50664063 49.50265625 -30.23046875 49.16796875 C-30.23046875 48.50796875 -30.23046875 47.84796875 -30.23046875 47.16796875 C-30.82859375 46.94109375 -31.42671875 46.71421875 -32.04296875 46.48046875 C-35.06582368 44.66675579 -35.88391616 43.46702261 -37.23046875 40.16796875 C-37.92076075 34.04862342 -38.10328719 28.21436853 -34.23046875 23.16796875 C-28.40739465 17.95914298 -22.9958106 15.99863108 -15.23046875 16.16796875 C-12.19088153 16.37541832 -9.24982882 16.72967455 -6.23046875 17.16796875 C-6.89046875 15.18796875 -7.55046875 13.20796875 -8.23046875 11.16796875 C-14.17046875 11.16796875 -20.11046875 11.16796875 -26.23046875 11.16796875 C-26.23046875 11.82796875 -26.23046875 12.48796875 -26.23046875 13.16796875 C-29.13647136 14.42461853 -31.02651459 15.16796875 -34.23046875 15.16796875 C-34.23046875 10.54796875 -34.23046875 5.92796875 -34.23046875 1.16796875 C-22.75523186 -2.91211548 -11.41083697 -5.69450946 0 0 Z M-22.48046875 30.66796875 C-23.05796875 31.49296875 -23.63546875 32.31796875 -24.23046875 33.16796875 C-23.57046875 34.81796875 -22.91046875 36.46796875 -22.23046875 38.16796875 C-21.24046875 38.16796875 -20.25046875 38.16796875 -19.23046875 38.16796875 C-19.23046875 38.82796875 -19.23046875 39.48796875 -19.23046875 40.16796875 C-15.47498929 40.52563346 -13.41596886 40.2571515 -9.98046875 38.60546875 C-6.65775803 35.6603388 -6.05689667 33.46539391 -5.23046875 29.16796875 C-10.16698387 26.69971119 -18.47266502 26.55561362 -22.48046875 30.66796875 Z " fill="#FEFEFE" transform="translate(746.23046875,54.83203125)"/>
<path d="M0 0 C2.26921536 -0.13489391 4.5407067 -0.23193995 6.8125 -0.3125 C8.70935547 -0.39951172 8.70935547 -0.39951172 10.64453125 -0.48828125 C14 0 14 0 15.76953125 2.1015625 C16.37861328 3.53628906 16.37861328 3.53628906 17 5 C17.47179687 6.05574219 17.94359375 7.11148438 18.4296875 8.19921875 C18.90664063 9.35035156 19.38359375 10.50148438 19.875 11.6875 C22.34763944 17.58595409 25.04602714 23.32732645 28 29 C28.99 27.02 29.98 25.04 31 23 C31.66 23 32.32 23 33 23 C33.10441406 22.16984375 33.20882812 21.3396875 33.31640625 20.484375 C34.09866383 16.49709639 35.40265586 12.99693365 36.9375 9.25 C37.20240234 8.57839844 37.46730469 7.90679687 37.74023438 7.21484375 C38.89728188 4.34950029 39.79293383 2.20706617 42 0 C45.2578125 -0.1953125 45.2578125 -0.1953125 49.125 -0.125 C51.04699219 -0.09792969 51.04699219 -0.09792969 53.0078125 -0.0703125 C54.48894531 -0.03550781 54.48894531 -0.03550781 56 0 C54.85625914 6.74807106 52.622536 12.26836719 49.6640625 18.42578125 C46.83412085 24.50417706 44.43564037 30.75543267 42 37 C41.34 37 40.68 37 40 37 C39.89816406 37.83789062 39.79632812 38.67578125 39.69140625 39.5390625 C38.91875555 43.40668124 37.5456453 46.80051462 35.9375 50.375 C35.65583984 51.01566406 35.37417969 51.65632813 35.08398438 52.31640625 C34.39540579 53.88029659 33.69855289 55.44053941 33 57 C32.34 57 31.68 57 31 57 C30.79375 57.721875 30.5875 58.44375 30.375 59.1875 C27.75873638 64.53894832 22.49706371 67.99145749 17 70 C10.91803434 70.72546322 6.29443632 70.34385452 1 67 C1 63.04 1 59.08 1 55 C1.89203125 55.01160156 2.7840625 55.02320313 3.703125 55.03515625 C5.45882812 55.04869141 5.45882812 55.04869141 7.25 55.0625 C8.99023438 55.07990234 8.99023438 55.07990234 10.765625 55.09765625 C13.40977128 55.01782092 15.49826091 54.78643778 18 54 C20.14885668 46.72694663 17.11264158 41.60094681 14 35 C13.45601562 33.81792969 12.91203125 32.63585937 12.3515625 31.41796875 C9.94966389 26.2164835 7.50899762 21.0355528 4.99609375 15.88671875 C4.67237793 15.21487549 4.34866211 14.54303223 4.01513672 13.85083008 C3.39602393 12.56675017 2.76915007 11.28637325 2.13330078 10.01049805 C0.4612752 6.52446429 -0.35798189 3.87204897 0 0 Z " fill="#FEFEFE" transform="translate(565,53)"/>
<path d="M0 0 C5.10718553 4.99369252 7.03905584 10.10500473 7.22705078 17.19116211 C7.2267388 18.7199259 7.21572035 20.24871615 7.1953125 21.77734375 C7.1924826 22.58869278 7.18965271 23.40004181 7.18673706 24.23597717 C7.17562663 26.80330753 7.15053971 29.37027678 7.125 31.9375 C7.11495836 33.68814597 7.10583459 35.43879746 7.09765625 37.18945312 C7.07571734 41.45977254 7.0412516 45.72982525 7 50 C2.38 50 -2.24 50 -7 50 C-7.05607422 46.62201172 -7.05607422 46.62201172 -7.11328125 43.17578125 C-7.15954821 40.98468546 -7.21076279 38.79375702 -7.26245117 36.6027832 C-7.29561916 35.08498379 -7.32367632 33.56706344 -7.34643555 32.04907227 C-7.38013278 29.86161981 -7.43245204 27.67526736 -7.48828125 25.48828125 C-7.51446533 24.17384033 -7.54064941 22.85939941 -7.56762695 21.50512695 C-8.0184372 17.85053476 -8.95765877 16.00084562 -11 13 C-11 12.34 -11 11.68 -11 11 C-14.3 11 -17.6 11 -21 11 C-21 11.66 -21 12.32 -21 13 C-21.66 13 -22.32 13 -23 13 C-24.1803183 16.76853652 -24.19060218 20.42554839 -24.28125 24.35546875 C-24.29965942 25.05771072 -24.31806885 25.7599527 -24.33703613 26.48347473 C-24.41554309 29.47963618 -24.48373124 32.4760079 -24.55224609 35.47241211 C-24.60382719 37.66271567 -24.6610991 39.85281793 -24.71875 42.04296875 C-24.76418945 44.00786255 -24.76418945 44.00786255 -24.81054688 46.01245117 C-25 49 -25 49 -26 50 C-28.33160055 50.09909302 -30.66629942 50.12970504 -33 50.125 C-34.27875 50.12757812 -35.5575 50.13015625 -36.875 50.1328125 C-40 50 -40 50 -41 49 C-41.09846967 47.44000952 -41.12798618 45.87559456 -41.12939453 44.3125 C-41.13254669 43.31476563 -41.13569885 42.31703125 -41.13894653 41.2890625 C-41.1369223 40.20367187 -41.13489807 39.11828125 -41.1328125 38 C-41.13376923 36.89398438 -41.13472595 35.78796875 -41.13571167 34.6484375 C-41.13639367 32.30468692 -41.13453804 29.96093447 -41.13037109 27.6171875 C-41.12502314 24.01558212 -41.13031547 20.41410147 -41.13671875 16.8125 C-41.13605797 14.54166639 -41.13477682 12.27083286 -41.1328125 10 C-41.13483673 8.91460937 -41.13686096 7.82921875 -41.13894653 6.7109375 C-41.13579437 5.71320312 -41.13264221 4.71546875 -41.12939453 3.6875 C-41.12859894 2.80449219 -41.12780334 1.92148437 -41.12698364 1.01171875 C-41 -1 -41 -1 -40 -2 C-37.81360547 -2.07258946 -35.62499611 -2.08373783 -33.4375 -2.0625 C-31.64119141 -2.04896484 -31.64119141 -2.04896484 -29.80859375 -2.03515625 C-28.88175781 -2.02355469 -27.95492187 -2.01195312 -27 -2 C-26.67 -1.01 -26.34 -0.02 -26 1 C-25.2575 0.525625 -24.515 0.05125 -23.75 -0.4375 C-16.40712915 -4.60958571 -7.21217448 -4.24245558 0 0 Z " fill="#FEFEFE" transform="translate(805,55)"/>
<path d="M0 0 C4.62 0 9.24 0 14 0 C14.33 1.65 14.66 3.3 15 5 C15.66 5 16.32 5 17 5 C18.17461555 8.10121711 19.33830456 11.20642241 20.5 14.3125 C20.83386719 15.19357422 21.16773438 16.07464844 21.51171875 16.98242188 C21.82753906 17.82998047 22.14335937 18.67753906 22.46875 19.55078125 C22.90864258 20.72120972 22.90864258 20.72120972 23.35742188 21.9152832 C24 24 24 24 24 27 C24.66 27 25.32 27 26 27 C26.66 27.66 27.32 28.32 28 29 C29.65 24.38 31.3 19.76 33 15 C33.66 15 34.32 15 35 15 C35.0825 14.195625 35.165 13.39125 35.25 12.5625 C36.21390723 7.98394067 38.01134845 4.23390331 40 0 C44.62 0 49.24 0 54 0 C53.57018625 5.05031155 52.32103143 8.85147479 50.16796875 13.421875 C48.83506926 16.36406116 47.69816252 19.35134332 46.5625 22.375 C44.63805026 27.45176925 42.49220968 32.36253128 40.19921875 37.28125 C38.52451056 41.07798257 37.15180004 44.96241464 35.796875 48.8828125 C35 51 35 51 34 52 C31.64686445 52.07271741 29.29166332 52.08370868 26.9375 52.0625 C25.64714844 52.05347656 24.35679687 52.04445312 23.02734375 52.03515625 C22.02832031 52.02355469 21.02929688 52.01195312 20 52 C8 26.99711816 8 26.99711816 8 20 C7.34 20 6.68 20 6 20 C4.99183944 17.41958904 3.9932889 14.83613056 3 12.25 C2.71382813 11.52039063 2.42765625 10.79078125 2.1328125 10.0390625 C1.86210937 9.33007812 1.59140625 8.62109375 1.3125 7.890625 C1.06113281 7.24125977 0.80976563 6.59189453 0.55078125 5.92285156 C0 4 0 4 0 0 Z " fill="#FEFEFE" transform="translate(327,53)"/>
<path d="M0 0 C4.29 0 8.58 0 13 0 C13 1.98 13 3.96 13 6 C13.94875 5.195625 14.8975 4.39125 15.875 3.5625 C21.72209533 -1.39481996 27.47029997 -0.06845182 35 0 C35 4.95 35 9.9 35 15 C32.525 14.505 32.525 14.505 30 14 C25.06526944 13.57374124 25.06526944 13.57374124 20.6875 15.5 C20.130625 15.995 19.57375 16.49 19 17 C18.34 17 17.68 17 17 17 C15.87998007 20.63949795 15.8122075 24.12473758 15.71875 27.91796875 C15.70034058 28.57581863 15.68193115 29.23366852 15.66296387 29.91145325 C15.58449853 32.71644331 15.51626049 35.52165584 15.44775391 38.3269043 C15.39616936 40.37821833 15.33890142 42.42931773 15.28125 44.48046875 C15.25095703 45.70660889 15.22066406 46.93274902 15.18945312 48.19604492 C15 51 15 51 14 52 C9.38 52 4.76 52 0 52 C0 34.84 0 17.68 0 0 Z " fill="#FEFEFE" transform="translate(438,53)"/>
<path d="M0 0 C1.93166016 0.01740234 1.93166016 0.01740234 3.90234375 0.03515625 C5.19269531 0.04417969 6.48304688 0.05320313 7.8125 0.0625 C8.81152344 0.07410156 9.81054688 0.08570313 10.83984375 0.09765625 C11.91013665 3.30853496 11.96672368 5.61480988 11.96923828 8.99023438 C11.97239044 10.20159058 11.9755426 11.41294678 11.97879028 12.66101074 C11.97676605 13.97041626 11.97474182 15.27982178 11.97265625 16.62890625 C11.97332992 17.98506691 11.97430047 19.34122745 11.97555542 20.6973877 C11.97702942 23.5386673 11.97488739 26.37991546 11.97021484 29.22119141 C11.96451772 32.86297357 11.96779832 36.50468203 11.97378731 40.14646149 C11.97740094 42.9465592 11.97625063 45.74663944 11.97365952 48.54673767 C11.97266808 50.54259285 11.97570486 52.53844871 11.97879028 54.53430176 C11.97563812 55.74565796 11.97248596 56.95701416 11.96923828 58.20507812 C11.96844269 59.27302612 11.96764709 60.34097412 11.96682739 61.44128418 C11.83984375 64.09765625 11.83984375 64.09765625 10.83984375 67.09765625 C5.88984375 67.09765625 0.93984375 67.09765625 -4.16015625 67.09765625 C-4.18270984 58.50959514 -4.20107282 49.92155689 -4.21196842 41.33347416 C-4.21719661 37.34608425 -4.22429309 33.35871558 -4.2355957 29.37133789 C-4.24642686 25.52640511 -4.25243357 21.6814928 -4.25503349 17.83654594 C-4.25688733 16.36646642 -4.26050716 14.89638807 -4.26588631 13.42631721 C-4.2730998 11.37411158 -4.27414706 9.32199158 -4.27368164 7.26977539 C-4.27590225 6.09951309 -4.27812286 4.92925079 -4.28041077 3.723526 C-4.10472981 -0.1126318 -3.91202755 0.12089084 0 0 Z " fill="#FEFEFE" transform="translate(288.16015625,37.90234375)"/>
<path d="M0 0 C4.62 0 9.24 0 14 0 C14 17.16 14 34.32 14 52 C9.71 52 5.42 52 1 52 C0 51 0 51 -0.12025452 48.94358826 C-0.11803391 48.03979935 -0.11581329 47.13601044 -0.11352539 46.20483398 C-0.11344986 45.18385117 -0.11337433 44.16286835 -0.11329651 43.11094666 C-0.10813522 42.0005452 -0.10297394 40.89014374 -0.09765625 39.74609375 C-0.0962413 38.61551041 -0.09482635 37.48492706 -0.09336853 36.32008362 C-0.08775019 32.69252935 -0.07519458 29.06503576 -0.0625 25.4375 C-0.05748736 22.98502693 -0.05292405 20.5325529 -0.04882812 18.08007812 C-0.0377748 12.05336187 -0.02049788 6.02669124 0 0 Z " fill="#FEFEFE" transform="translate(309,53)"/>
<path d="M0 0 C2.375 0.8125 2.375 0.8125 4 2 C5.23838748 5.71516243 5.53600366 9.13922004 5 13 C3.5 15.5 3.5 15.5 1 17 C-2.99298467 17.78550518 -5.95397683 17.60146332 -9.5 15.5625 C-11.73340143 11.74710589 -11.76726228 8.31090664 -11 4 C-8.18428406 -0.61777415 -5.12929224 -0.54956703 0 0 Z " fill="#FEFEFE" transform="translate(319,35)"/>
</svg>
