<?xml version="1.0" encoding="UTF-8"?>
<svg version="1.1" xmlns="http://www.w3.org/2000/svg" width="866" height="150">
<path d="M0 0 C0.97646484 0.65935547 0.97646484 0.65935547 1.97265625 1.33203125 C4.6614704 3.04686262 7.50254351 4.29046368 10.43359375 5.53515625 C12 6.625 12 6.625 12.84375 8.60546875 C12.8953125 9.27191406 12.946875 9.93835938 13 10.625 C11.0625 12.875 11.0625 12.875 9 14.625 C15.63467764 11.43976759 21.9659948 7.93026354 28.23828125 4.078125 C30.89844952 2.6784325 33.04072274 2.03466315 36 1.625 C36 0.965 36 0.305 36 -0.375 C40.63407871 -2.91270977 44.75840687 -5.15107202 50.12109375 -3.8671875 C52.21714362 -3.15729539 54.10199713 -2.51651963 56 -1.375 C56.495 0.11 56.495 0.11 57 1.625 C57.71414062 1.73328125 58.42828125 1.8415625 59.1640625 1.953125 C66.76002986 3.75272057 73.90945802 8.85848888 80 13.625 C81.51392533 16.65285065 81.162841 19.79565593 81.16796875 23.1171875 C81.17296135 24.23071091 81.17296135 24.23071091 81.17805481 25.36672974 C81.18312087 26.93865336 81.18546323 28.51058775 81.18530273 30.08251953 C81.18748508 32.4835798 81.20563223 34.88417756 81.22460938 37.28515625 C81.22754422 38.81249843 81.22952841 40.33984279 81.23046875 41.8671875 C81.23765427 42.58397675 81.24483978 43.30076599 81.25224304 44.03927612 C81.23546338 47.71492868 81.1399078 50.55902304 79 53.625 C76.7890625 55.14453125 76.7890625 55.14453125 74 56.625 C72.93523437 57.22699219 71.87046875 57.82898438 70.7734375 58.44921875 C69.65195313 59.06410156 68.53046875 59.67898437 67.375 60.3125 C66.24835938 60.93511719 65.12171875 61.55773437 63.9609375 62.19921875 C61 63.625 61 63.625 58 63.625 C57.505 65.11 57.505 65.11 57 66.625 C52.13825664 69.90667677 47.68408084 70.3786807 42 69.625 C39.00708202 68.49581991 36.39147292 66.94681457 33.6875 65.25 C32.31664776 64.42928397 30.94556143 63.6089588 29.57421875 62.7890625 C28.98213623 62.42248535 28.39005371 62.0559082 27.7800293 61.67822266 C25.8949113 60.56282024 23.96892688 59.58335358 22 58.625 C22.34879632 55.36956771 23.02133261 54.60626893 25.5625 52.375 C26.366875 51.7975 27.17125 51.22 28 50.625 C27.44570312 50.91375 26.89140625 51.2025 26.3203125 51.5 C25.59585938 51.87125 24.87140625 52.2425 24.125 52.625 C23.40570313 52.99625 22.68640625 53.3675 21.9453125 53.75 C20 54.625 20 54.625 18 54.625 C18 55.285 18 55.945 18 56.625 C16.89140625 57.16769531 15.7828125 57.71039063 14.640625 58.26953125 C13.17697731 58.99197274 11.7134415 59.71464092 10.25 60.4375 C9.52039063 60.79392578 8.79078125 61.15035156 8.0390625 61.51757812 C4.42817887 63.30660683 1.14999809 65.08077077 -2 67.625 C-6.20302281 69.84326204 -10.32875501 70.24988604 -15 69.625 C-17.86652904 68.51489541 -20.39582837 66.997521 -23 65.375 C-24.33218617 64.57620869 -25.66552029 63.77932873 -27 62.984375 C-27.6496875 62.59314453 -28.299375 62.20191406 -28.96875 61.79882812 C-32.23507991 59.91126632 -35.60850637 58.27532503 -39 56.625 C-39 55.965 -39 55.305 -39 54.625 C-39.804375 54.33625 -40.60875 54.0475 -41.4375 53.75 C-44 52.625 -44 52.625 -45 50.625 C-45.12308974 48.04571047 -45.18835973 45.49445066 -45.203125 42.9140625 C-45.20882507 42.14951752 -45.21452515 41.38497253 -45.22039795 40.59725952 C-45.2298497 38.97826523 -45.23638263 37.35925168 -45.24023438 35.74023438 C-45.24993496 33.26658442 -45.28095335 30.79376719 -45.3125 28.3203125 C-45.31903068 26.74740077 -45.3242809 25.17448309 -45.328125 23.6015625 C-45.3404718 22.86289948 -45.3528186 22.12423645 -45.36553955 21.3631897 C-45.35183687 18.19460612 -45.21420968 15.99852006 -43.62158203 13.22143555 C-41.58521707 11.21664926 -39.51299329 9.98950495 -37 8.625 C-35.93523437 8.02300781 -34.87046875 7.42101562 -33.7734375 6.80078125 C-32.09121094 5.87845703 -32.09121094 5.87845703 -30.375 4.9375 C-29.24835938 4.31488281 -28.12171875 3.69226562 -26.9609375 3.05078125 C-24 1.625 -24 1.625 -21 1.625 C-20.67 0.635 -20.34 -0.355 -20 -1.375 C-12.27529662 -5.30511224 -7.22975497 -4.54683808 0 0 Z M3 16.625 C2.01 18.11 2.01 18.11 1 19.625 C2.65 18.965 4.3 18.305 6 17.625 C5.01 17.295 4.02 16.965 3 16.625 Z M34 45.625 C35 47.625 35 47.625 35 47.625 Z " fill="#090909" transform="translate(102,39.375)"/>
<path d="M0 0 C4.62 0 9.24 0 14 0 C16.04908454 4.09816907 17.41552256 6.91731411 18.5 11.15234375 C18.7475 12.09400391 18.995 13.03566406 19.25 14.00585938 C19.4975 14.97330078 19.745 15.94074219 20 16.9375 C22.00524582 24.74438151 24.27016739 31.82724498 28 39 C28.18175781 38.28714844 28.36351562 37.57429688 28.55078125 36.83984375 C28.80214844 35.88207031 29.05351562 34.92429688 29.3125 33.9375 C29.55613281 32.99777344 29.79976563 32.05804688 30.05078125 31.08984375 C30.92097456 28.25723918 32.03045367 25.64475978 33.22631836 22.9387207 C34.69060307 19.26946071 35.62303964 15.44110827 36.625 11.625 C38.873394 3.126606 38.873394 3.126606 40 2 C42.35313555 1.92728259 44.70833668 1.91629132 47.0625 1.9375 C48.35285156 1.94652344 49.64320313 1.95554688 50.97265625 1.96484375 C51.97167969 1.97644531 52.97070312 1.98804688 54 2 C59 14.95454545 59 14.95454545 59 21 C59.66 21 60.32 21 61 21 C63.475 29.91 63.475 29.91 66 39 C68.7800113 35.29331826 69.71430595 33.29836519 70.9375 28.984375 C71.27523437 27.81519531 71.61296875 26.64601563 71.9609375 25.44140625 C72.30382812 24.22324219 72.64671875 23.00507812 73 21.75 C77.18333806 7.07686313 77.18333806 7.07686313 80 0 C84.62 0 89.24 0 94 0 C93.39502042 6.06370342 92.1366972 11.65514242 90.4375 17.5 C90.08655273 18.73363281 90.08655273 18.73363281 89.72851562 19.9921875 C89.15757928 21.99629058 88.57953295 23.99836591 88 26 C87.34 26 86.68 26 86 26 C85.89816406 26.91910156 85.79632812 27.83820313 85.69140625 28.78515625 C84.929102 34.12128599 83.39043738 39.25614325 81.9375 44.4375 C81.65583984 45.45521484 81.37417969 46.47292969 81.08398438 47.52148438 C80.39317556 50.01542128 79.69842182 52.50818649 79 55 C78.34 55 77.68 55 77 55 C76.814375 56.5778125 76.814375 56.5778125 76.625 58.1875 C76 62 76 62 74 67 C69.71 67 65.42 67 61 67 C57.46538545 60.53670483 55.38901556 54.086852 53.4375 47 C51.54268319 40.21058986 49.59343225 33.55846697 47 27 C42.50776928 40.28231678 38.25603183 53.64049562 34 67 C30.04 67 26.08 67 22 67 C22 67.66 22 68.32 22 69 C21.34 69 20.68 69 20 69 C19.15960114 66.41877492 18.32749444 63.83536099 17.5 61.25 C17.14228516 60.15558594 17.14228516 60.15558594 16.77734375 59.0390625 C16.55175781 58.33007812 16.32617188 57.62109375 16.09375 56.890625 C15.88427734 56.24125977 15.67480469 55.59189453 15.45898438 54.92285156 C15 53 15 53 15 49 C14.34 49 13.68 49 13 49 C12.7733667 48.15816162 12.5467334 47.31632324 12.31323242 46.44897461 C11.46185824 43.29630757 10.60587004 40.14496683 9.74682617 36.99438477 C9.37748485 35.63615665 9.00993574 34.27743977 8.64428711 32.91821289 C8.11534037 30.95324431 7.57975721 28.99018271 7.04296875 27.02734375 C6.72352295 25.84906006 6.40407715 24.67077637 6.07495117 23.45678711 C4.94274804 19.81589131 3.53615279 16.48687237 2 13 C0.39510182 8.18530546 0 5.22274951 0 0 Z " fill="#181818" transform="translate(474,39)"/>
<path d="M0 0 C0.66 0.99 1.32 1.98 2 3 C4.25621163 1.91367588 6.37353544 0.76654035 8.5 -0.5625 C14.45993839 -3.98946457 21.0888366 -3.7048075 27.625 -2.0625 C32.14825467 -0.38780017 34.26822915 2.22510849 36.90625 6.16015625 C40.21568139 14.75285845 39.15210278 24.95670431 39.125 34 C39.12856941 35.33463636 39.13247352 36.66927187 39.13671875 38.00390625 C39.13542969 39.26074219 39.13414062 40.51757812 39.1328125 41.8125 C39.13168457 42.95332031 39.13055664 44.09414062 39.12939453 45.26953125 C39 48 39 48 38 50 C35.68756208 50.02685412 33.3750373 50.04632841 31.0625 50.0625 C29.13083984 50.07990234 29.13083984 50.07990234 27.16015625 50.09765625 C24 50 24 50 23 49 C22.8894166 46.52776623 22.83840524 44.07873883 22.82421875 41.60546875 C22.80101523 40.07746026 22.77689767 38.54946543 22.75195312 37.02148438 C22.71685764 34.60529526 22.68751171 32.18960611 22.67407227 29.77319336 C22.65858352 27.44583023 22.61836434 25.11994177 22.57421875 22.79296875 C22.57612717 22.07304245 22.57803558 21.35311615 22.58000183 20.6113739 C22.49744902 17.22146568 22.21758529 15.29849788 20.19848633 12.52856445 C17.10662357 10.37885288 14.67016977 10.71767925 11 11 C10.690625 11.61875 10.38125 12.2375 10.0625 12.875 C9.375 14.25 8.6875 15.625 8 17 C7.85595264 19.39404487 7.76613535 21.76390911 7.71875 24.16015625 C7.70034058 24.86522812 7.68193115 25.57029999 7.66296387 26.29673767 C7.58417898 29.31851853 7.51639985 32.3405233 7.44775391 35.36254883 C7.39614116 37.56603408 7.33885725 39.76932092 7.28125 41.97265625 C7.26767456 42.66118179 7.25409912 43.34970734 7.2401123 44.05909729 C7.11283078 48.88716922 7.11283078 48.88716922 6 50 C3.64686445 50.07271741 1.29166332 50.08370868 -1.0625 50.0625 C-2.35285156 50.05347656 -3.64320313 50.04445312 -4.97265625 50.03515625 C-5.97167969 50.02355469 -6.97070312 50.01195312 -8 50 C-8.029729 48.54762939 -8.029729 48.54762939 -8.06005859 47.06591797 C-8.13646218 43.45384898 -8.22512425 39.84216468 -8.31738281 36.23046875 C-8.35552961 34.67097602 -8.39040682 33.1113996 -8.421875 31.55175781 C-8.46783825 29.30243126 -8.52577808 27.05367385 -8.5859375 24.8046875 C-8.59748871 24.1138205 -8.60903992 23.42295349 -8.62094116 22.71115112 C-8.74860831 18.469017 -9.46684578 14.95392404 -11 11 C-14.63 11 -18.26 11 -22 11 C-25.03529195 19.44673739 -25.53239996 27.19123797 -25.6875 36.125 C-25.72075453 37.47659385 -25.75525136 38.82815773 -25.79101562 40.1796875 C-25.87284947 43.45304112 -25.94221113 46.72614854 -26 50 C-28.12493141 50.02693575 -30.24995912 50.04636628 -32.375 50.0625 C-33.55835938 50.07410156 -34.74171875 50.08570313 -35.9609375 50.09765625 C-39 50 -39 50 -41 49 C-41.02526787 41.89755001 -41.04283201 34.79511152 -41.05493164 27.69262695 C-41.05997349 25.27432828 -41.06680678 22.85603267 -41.07543945 20.43774414 C-41.08751157 16.97020717 -41.09322963 13.50271034 -41.09765625 10.03515625 C-41.10281754 8.94662857 -41.10797882 7.85810089 -41.11329651 6.73658752 C-41.11337204 5.73562546 -41.11344757 4.73466339 -41.11352539 3.70336914 C-41.115746 2.81734512 -41.11796661 1.93132111 -41.12025452 1.01844788 C-41 -1 -41 -1 -40 -2 C-37.85692104 -2.12537741 -35.70921114 -2.17574364 -33.5625 -2.1875 C-31.80099609 -2.20876953 -31.80099609 -2.20876953 -30.00390625 -2.23046875 C-27 -2 -27 -2 -25 0 C-23.865625 -0.495 -22.73125 -0.99 -21.5625 -1.5 C-13.85681579 -4.35395711 -7.33110978 -3.47263095 0 0 Z " fill="#070707" transform="translate(664,56)"/>
<path d="M0 0 C0.79277344 0.42410156 1.58554687 0.84820312 2.40234375 1.28515625 C10.0621414 5.8606427 14.75324993 12.36022472 17 21 C17.29886553 24.1300155 17.3248527 27.23247335 17.3125 30.375 C17.32861328 31.18710938 17.34472656 31.99921875 17.36132812 32.8359375 C17.36888231 42.26355613 14.16021975 48.96643264 8 56 C4.74985895 59.09159758 2.47291297 60.48880995 -2 61 C-2 61.66 -2 62.32 -2 63 C-12.27666942 66.35564716 -24.56024995 66.73825991 -34.37109375 61.80859375 C-42.2855698 56.55721172 -49.31271774 50.40899487 -51.6015625 40.8671875 C-53.09494321 30.1207028 -53.06082336 19.15276266 -46.9375 9.875 C-45 8 -45 8 -43 8 C-42.7525 7.401875 -42.505 6.80375 -42.25 6.1875 C-39.5132656 1.3982148 -33.95631327 -0.95102133 -29 -3 C-19.08139126 -5.53770424 -8.99331073 -4.88469161 0 0 Z M-31.4609375 15.53125 C-32.94628763 17.68026721 -34 19.3440528 -34 22 C-34.66 22 -35.32 22 -36 22 C-37.02835363 25.08506088 -37.13368434 27.2694272 -37.125 30.5 C-37.12757813 31.4590625 -37.13015625 32.418125 -37.1328125 33.40625 C-37.10992972 36.11571152 -37.10992972 36.11571152 -36 39 C-35.34 39 -34.68 39 -34 39 C-33.773125 39.9075 -33.54625 40.815 -33.3125 41.75 C-31.76234846 45.58847048 -30.49200627 46.8271961 -27 49 C-20.25569562 51.72366138 -14.37910532 51.27513408 -7.6875 48.75 C-4.02500754 46.36512119 -1.61309884 43.89038809 -0.25 39.6875 C-0.1675 39.130625 -0.085 38.57375 0 38 C0.66 38 1.32 38 2 38 C3.07859862 30.45952096 3.07859862 30.45952096 2 23 C1.34 23 0.68 23 0 23 C-0.3403125 21.948125 -0.3403125 21.948125 -0.6875 20.875 C-2.93110612 15.9604342 -5.29759128 12.69357392 -10.375 10.625 C-18.00164094 9.31006191 -25.76402321 9.56015267 -31.4609375 15.53125 Z " fill="#090909" transform="translate(260,42)"/>
<path d="M0 0 C5.60984905 4.36321593 8.52561533 9.6167915 9.50390625 16.59375 C9.783451 20.07567451 10.02369949 23.50669588 10 27 C9 28 9 28 5.67358398 28.11352539 C4.19774444 28.11336629 2.72189931 28.10767314 1.24609375 28.09765625 C0.47064713 28.0962413 -0.3047995 28.09482635 -1.10374451 28.09336853 C-3.59003494 28.08775345 -6.0762366 28.07519846 -8.5625 28.0625 C-10.24413933 28.05748694 -11.92578006 28.0529237 -13.60742188 28.04882812 C-17.73831566 28.03777913 -21.86914276 28.02050445 -26 28 C-25.64079643 29.96864663 -25.64079643 29.96864663 -25 32 C-23.13355094 33.18330183 -23.13355094 33.18330183 -21 34 C-20.01 34.66 -19.02 35.32 -18 36 C-9.29630802 38.16718435 -1.74097896 36.15369603 6 32 C6.66 32 7.32 32 8 32 C8 36.62 8 41.24 8 46 C0.85808341 49.75253244 -4.21165599 51.14610373 -12.375 51.1875 C-13.64085937 51.20167969 -14.90671875 51.21585938 -16.2109375 51.23046875 C-20.18323775 50.98885461 -23.24034042 50.22893265 -27 49 C-27 48.34 -27 47.68 -27 47 C-27.721875 46.7525 -28.44375 46.505 -29.1875 46.25 C-33.87449446 44.16689135 -36.3986449 42.18123323 -38.75 37.5625 C-42.13389711 27.91839323 -42.02732822 18.81599492 -38.20703125 9.3125 C-36.64179486 6.31372995 -34.85220248 4.78262655 -32 3 C-31.38125 2.29875 -30.7625 1.5975 -30.125 0.875 C-22.56191782 -5.79830781 -8.43859501 -4.30611433 0 0 Z M-24.75 12.9375 C-26.25915086 15.02564514 -26.25915086 15.02564514 -26 18 C-19.07 18 -12.14 18 -5 18 C-5 17.01 -5 16.02 -5 15 C-5.66 15 -6.32 15 -7 15 C-7.103125 14.38125 -7.20625 13.7625 -7.3125 13.125 C-7.87525373 10.63473516 -7.87525373 10.63473516 -11 9 C-16.78707401 8.63256673 -20.68073475 8.43224204 -24.75 12.9375 Z " fill="#1B1B1B" transform="translate(421,56)"/>
<path d="M0 0 C1.86814628 1.23305902 3.32174343 2.46020665 4.76953125 4.16796875 C4.76953125 4.82796875 4.76953125 5.48796875 4.76953125 6.16796875 C5.42953125 6.16796875 6.08953125 6.16796875 6.76953125 6.16796875 C9.58895666 12.37070466 9.89604874 18.60494143 9.90234375 25.34375 C9.90330048 25.99498337 9.9042572 26.64621674 9.90524292 27.31718445 C9.90591786 28.67931211 9.90411192 30.04144313 9.89990234 31.40356445 C9.89450034 33.49242257 9.89989273 35.58106995 9.90625 37.66992188 C9.90496094 38.98541016 9.90367187 40.30089844 9.90234375 41.65625 C9.90121582 42.85805908 9.90008789 44.05986816 9.89892578 45.2980957 C9.76953125 48.16796875 9.76953125 48.16796875 8.76953125 50.16796875 C4.80953125 50.16796875 0.84953125 50.16796875 -3.23046875 50.16796875 C-3.72546875 48.18796875 -3.72546875 48.18796875 -4.23046875 46.16796875 C-5.71546875 46.66296875 -5.71546875 46.66296875 -7.23046875 47.16796875 C-7.23046875 47.82796875 -7.23046875 48.48796875 -7.23046875 49.16796875 C-13.55991413 51.98105558 -21.54898726 52.47026152 -28.1015625 50.15234375 C-28.80410156 49.8275 -29.50664063 49.50265625 -30.23046875 49.16796875 C-30.23046875 48.50796875 -30.23046875 47.84796875 -30.23046875 47.16796875 C-30.82859375 46.94109375 -31.42671875 46.71421875 -32.04296875 46.48046875 C-35.06582368 44.66675579 -35.88391616 43.46702261 -37.23046875 40.16796875 C-37.92076075 34.04862342 -38.10328719 28.21436853 -34.23046875 23.16796875 C-28.40739465 17.95914298 -22.9958106 15.99863108 -15.23046875 16.16796875 C-12.19088153 16.37541832 -9.24982882 16.72967455 -6.23046875 17.16796875 C-6.89046875 15.18796875 -7.55046875 13.20796875 -8.23046875 11.16796875 C-14.17046875 11.16796875 -20.11046875 11.16796875 -26.23046875 11.16796875 C-26.23046875 11.82796875 -26.23046875 12.48796875 -26.23046875 13.16796875 C-29.13647136 14.42461853 -31.02651459 15.16796875 -34.23046875 15.16796875 C-34.23046875 10.54796875 -34.23046875 5.92796875 -34.23046875 1.16796875 C-22.75523186 -2.91211548 -11.41083697 -5.69450946 0 0 Z M-22.48046875 30.66796875 C-23.05796875 31.49296875 -23.63546875 32.31796875 -24.23046875 33.16796875 C-23.57046875 34.81796875 -22.91046875 36.46796875 -22.23046875 38.16796875 C-21.24046875 38.16796875 -20.25046875 38.16796875 -19.23046875 38.16796875 C-19.23046875 38.82796875 -19.23046875 39.48796875 -19.23046875 40.16796875 C-15.47498929 40.52563346 -13.41596886 40.2571515 -9.98046875 38.60546875 C-6.65775803 35.6603388 -6.05689667 33.46539391 -5.23046875 29.16796875 C-10.16698387 26.69971119 -18.47266502 26.55561362 -22.48046875 30.66796875 Z " fill="#242424" transform="translate(746.23046875,55.83203125)"/>
<path d="M0 0 C2.26921536 -0.13489391 4.5407067 -0.23193995 6.8125 -0.3125 C8.70935547 -0.39951172 8.70935547 -0.39951172 10.64453125 -0.48828125 C14 0 14 0 15.76953125 2.1015625 C16.37861328 3.53628906 16.37861328 3.53628906 17 5 C17.47179687 6.05574219 17.94359375 7.11148438 18.4296875 8.19921875 C18.90664063 9.35035156 19.38359375 10.50148438 19.875 11.6875 C22.34763944 17.58595409 25.04602714 23.32732645 28 29 C28.99 27.02 29.98 25.04 31 23 C31.66 23 32.32 23 33 23 C33.10441406 22.16984375 33.20882812 21.3396875 33.31640625 20.484375 C34.09866383 16.49709639 35.40265586 12.99693365 36.9375 9.25 C37.20240234 8.57839844 37.46730469 7.90679687 37.74023438 7.21484375 C38.89728188 4.34950029 39.79293383 2.20706617 42 0 C45.2578125 -0.1953125 45.2578125 -0.1953125 49.125 -0.125 C51.04699219 -0.09792969 51.04699219 -0.09792969 53.0078125 -0.0703125 C54.48894531 -0.03550781 54.48894531 -0.03550781 56 0 C54.85625914 6.74807106 52.622536 12.26836719 49.6640625 18.42578125 C46.83412085 24.50417706 44.43564037 30.75543267 42 37 C41.34 37 40.68 37 40 37 C39.89816406 37.83789062 39.79632812 38.67578125 39.69140625 39.5390625 C38.91875555 43.40668124 37.5456453 46.80051462 35.9375 50.375 C35.65583984 51.01566406 35.37417969 51.65632813 35.08398438 52.31640625 C34.39540579 53.88029659 33.69855289 55.44053941 33 57 C32.34 57 31.68 57 31 57 C30.79375 57.721875 30.5875 58.44375 30.375 59.1875 C27.75873638 64.53894832 22.49706371 67.99145749 17 70 C10.91803434 70.72546322 6.29443632 70.34385452 1 67 C1 63.04 1 59.08 1 55 C1.89203125 55.01160156 2.7840625 55.02320313 3.703125 55.03515625 C5.45882812 55.04869141 5.45882812 55.04869141 7.25 55.0625 C8.99023438 55.07990234 8.99023438 55.07990234 10.765625 55.09765625 C13.40977128 55.01782092 15.49826091 54.78643778 18 54 C20.14885668 46.72694663 17.11264158 41.60094681 14 35 C13.45601562 33.81792969 12.91203125 32.63585937 12.3515625 31.41796875 C9.94966389 26.2164835 7.50899762 21.0355528 4.99609375 15.88671875 C4.67237793 15.21487549 4.34866211 14.54303223 4.01513672 13.85083008 C3.39602393 12.56675017 2.76915007 11.28637325 2.13330078 10.01049805 C0.4612752 6.52446429 -0.35798189 3.87204897 0 0 Z " fill="#212121" transform="translate(565,54)"/>
<path d="M0 0 C5.10718553 4.99369252 7.03905584 10.10500473 7.22705078 17.19116211 C7.2267388 18.7199259 7.21572035 20.24871615 7.1953125 21.77734375 C7.1924826 22.58869278 7.18965271 23.40004181 7.18673706 24.23597717 C7.17562663 26.80330753 7.15053971 29.37027678 7.125 31.9375 C7.11495836 33.68814597 7.10583459 35.43879746 7.09765625 37.18945312 C7.07571734 41.45977254 7.0412516 45.72982525 7 50 C2.38 50 -2.24 50 -7 50 C-7.05607422 46.62201172 -7.05607422 46.62201172 -7.11328125 43.17578125 C-7.15954821 40.98468546 -7.21076279 38.79375702 -7.26245117 36.6027832 C-7.29561916 35.08498379 -7.32367632 33.56706344 -7.34643555 32.04907227 C-7.38013278 29.86161981 -7.43245204 27.67526736 -7.48828125 25.48828125 C-7.51446533 24.17384033 -7.54064941 22.85939941 -7.56762695 21.50512695 C-8.0184372 17.85053476 -8.95765877 16.00084562 -11 13 C-11 12.34 -11 11.68 -11 11 C-14.3 11 -17.6 11 -21 11 C-21 11.66 -21 12.32 -21 13 C-21.66 13 -22.32 13 -23 13 C-24.1803183 16.76853652 -24.19060218 20.42554839 -24.28125 24.35546875 C-24.29965942 25.05771072 -24.31806885 25.7599527 -24.33703613 26.48347473 C-24.41554309 29.47963618 -24.48373124 32.4760079 -24.55224609 35.47241211 C-24.60382719 37.66271567 -24.6610991 39.85281793 -24.71875 42.04296875 C-24.76418945 44.00786255 -24.76418945 44.00786255 -24.81054688 46.01245117 C-25 49 -25 49 -26 50 C-28.33160055 50.09909302 -30.66629942 50.12970504 -33 50.125 C-34.27875 50.12757812 -35.5575 50.13015625 -36.875 50.1328125 C-40 50 -40 50 -41 49 C-41.09846967 47.44000952 -41.12798618 45.87559456 -41.12939453 44.3125 C-41.13254669 43.31476563 -41.13569885 42.31703125 -41.13894653 41.2890625 C-41.1369223 40.20367187 -41.13489807 39.11828125 -41.1328125 38 C-41.13376923 36.89398438 -41.13472595 35.78796875 -41.13571167 34.6484375 C-41.13639367 32.30468692 -41.13453804 29.96093447 -41.13037109 27.6171875 C-41.12502314 24.01558212 -41.13031547 20.41410147 -41.13671875 16.8125 C-41.13605797 14.54166639 -41.13477682 12.27083286 -41.1328125 10 C-41.13483673 8.91460937 -41.13686096 7.82921875 -41.13894653 6.7109375 C-41.13579437 5.71320312 -41.13264221 4.71546875 -41.12939453 3.6875 C-41.12859894 2.80449219 -41.12780334 1.92148437 -41.12698364 1.01171875 C-41 -1 -41 -1 -40 -2 C-37.81360547 -2.07258946 -35.62499611 -2.08373783 -33.4375 -2.0625 C-31.64119141 -2.04896484 -31.64119141 -2.04896484 -29.80859375 -2.03515625 C-28.88175781 -2.02355469 -27.95492187 -2.01195312 -27 -2 C-26.67 -1.01 -26.34 -0.02 -26 1 C-25.2575 0.525625 -24.515 0.05125 -23.75 -0.4375 C-16.40712915 -4.60958571 -7.21217448 -4.24245558 0 0 Z " fill="#060606" transform="translate(805,56)"/>
<path d="M0 0 C4.62 0 9.24 0 14 0 C14.33 1.65 14.66 3.3 15 5 C15.66 5 16.32 5 17 5 C18.17461555 8.10121711 19.33830456 11.20642241 20.5 14.3125 C20.83386719 15.19357422 21.16773438 16.07464844 21.51171875 16.98242188 C21.82753906 17.82998047 22.14335937 18.67753906 22.46875 19.55078125 C22.90864258 20.72120972 22.90864258 20.72120972 23.35742188 21.9152832 C24 24 24 24 24 27 C24.66 27 25.32 27 26 27 C26.66 27.66 27.32 28.32 28 29 C29.65 24.38 31.3 19.76 33 15 C33.66 15 34.32 15 35 15 C35.0825 14.195625 35.165 13.39125 35.25 12.5625 C36.21390723 7.98394067 38.01134845 4.23390331 40 0 C44.62 0 49.24 0 54 0 C53.57018625 5.05031155 52.32103143 8.85147479 50.16796875 13.421875 C48.83506926 16.36406116 47.69816252 19.35134332 46.5625 22.375 C44.63805026 27.45176925 42.49220968 32.36253128 40.19921875 37.28125 C38.52451056 41.07798257 37.15180004 44.96241464 35.796875 48.8828125 C35 51 35 51 34 52 C31.64686445 52.07271741 29.29166332 52.08370868 26.9375 52.0625 C25.64714844 52.05347656 24.35679687 52.04445312 23.02734375 52.03515625 C22.02832031 52.02355469 21.02929688 52.01195312 20 52 C8 26.99711816 8 26.99711816 8 20 C7.34 20 6.68 20 6 20 C4.99183944 17.41958904 3.9932889 14.83613056 3 12.25 C2.71382813 11.52039063 2.42765625 10.79078125 2.1328125 10.0390625 C1.86210937 9.33007812 1.59140625 8.62109375 1.3125 7.890625 C1.06113281 7.24125977 0.80976563 6.59189453 0.55078125 5.92285156 C0 4 0 4 0 0 Z " fill="#1F1F1F" transform="translate(327,54)"/>
<path d="M0 0 C4.29 0 8.58 0 13 0 C13 1.98 13 3.96 13 6 C13.94875 5.195625 14.8975 4.39125 15.875 3.5625 C21.72209533 -1.39481996 27.47029997 -0.06845182 35 0 C35 4.95 35 9.9 35 15 C32.525 14.505 32.525 14.505 30 14 C25.06526944 13.57374124 25.06526944 13.57374124 20.6875 15.5 C20.130625 15.995 19.57375 16.49 19 17 C18.34 17 17.68 17 17 17 C15.87998007 20.63949795 15.8122075 24.12473758 15.71875 27.91796875 C15.70034058 28.57581863 15.68193115 29.23366852 15.66296387 29.91145325 C15.58449853 32.71644331 15.51626049 35.52165584 15.44775391 38.3269043 C15.39616936 40.37821833 15.33890142 42.42931773 15.28125 44.48046875 C15.25095703 45.70660889 15.22066406 46.93274902 15.18945312 48.19604492 C15 51 15 51 14 52 C9.38 52 4.76 52 0 52 C0 34.84 0 17.68 0 0 Z " fill="#111111" transform="translate(438,54)"/>
<path d="M0 0 C1.93166016 0.01740234 1.93166016 0.01740234 3.90234375 0.03515625 C5.19269531 0.04417969 6.48304688 0.05320313 7.8125 0.0625 C8.81152344 0.07410156 9.81054688 0.08570313 10.83984375 0.09765625 C11.91013665 3.30853496 11.96672368 5.61480988 11.96923828 8.99023438 C11.97239044 10.20159058 11.9755426 11.41294678 11.97879028 12.66101074 C11.97676605 13.97041626 11.97474182 15.27982178 11.97265625 16.62890625 C11.97332992 17.98506691 11.97430047 19.34122745 11.97555542 20.6973877 C11.97702942 23.5386673 11.97488739 26.37991546 11.97021484 29.22119141 C11.96451772 32.86297357 11.96779832 36.50468203 11.97378731 40.14646149 C11.97740094 42.9465592 11.97625063 45.74663944 11.97365952 48.54673767 C11.97266808 50.54259285 11.97570486 52.53844871 11.97879028 54.53430176 C11.97563812 55.74565796 11.97248596 56.95701416 11.96923828 58.20507812 C11.96844269 59.27302612 11.96764709 60.34097412 11.96682739 61.44128418 C11.83984375 64.09765625 11.83984375 64.09765625 10.83984375 67.09765625 C5.88984375 67.09765625 0.93984375 67.09765625 -4.16015625 67.09765625 C-4.18270984 58.50959514 -4.20107282 49.92155689 -4.21196842 41.33347416 C-4.21719661 37.34608425 -4.22429309 33.35871558 -4.2355957 29.37133789 C-4.24642686 25.52640511 -4.25243357 21.6814928 -4.25503349 17.83654594 C-4.25688733 16.36646642 -4.26050716 14.89638807 -4.26588631 13.42631721 C-4.2730998 11.37411158 -4.27414706 9.32199158 -4.27368164 7.26977539 C-4.27590225 6.09951309 -4.27812286 4.92925079 -4.28041077 3.723526 C-4.10472981 -0.1126318 -3.91202755 0.12089084 0 0 Z " fill="#000000" transform="translate(288.16015625,38.90234375)"/>
<path d="M0 0 C4.62 0 9.24 0 14 0 C14 17.16 14 34.32 14 52 C9.71 52 5.42 52 1 52 C0 51 0 51 -0.12025452 48.94358826 C-0.11803391 48.03979935 -0.11581329 47.13601044 -0.11352539 46.20483398 C-0.11344986 45.18385117 -0.11337433 44.16286835 -0.11329651 43.11094666 C-0.10813522 42.0005452 -0.10297394 40.89014374 -0.09765625 39.74609375 C-0.0962413 38.61551041 -0.09482635 37.48492706 -0.09336853 36.32008362 C-0.08775019 32.69252935 -0.07519458 29.06503576 -0.0625 25.4375 C-0.05748736 22.98502693 -0.05292405 20.5325529 -0.04882812 18.08007812 C-0.0377748 12.05336187 -0.02049788 6.02669124 0 0 Z " fill="#292929" transform="translate(309,54)"/>
<path d="M0 0 C0.66 0.99 1.32 1.98 2 3 C4.25621163 1.91367588 6.37353544 0.76654035 8.5 -0.5625 C13.80924645 -3.61531671 19.63325682 -3.89779818 25.51953125 -2.328125 C27.70150363 -1.59965548 29.85623414 -0.83368672 32 0 C32 0.99 32 1.98 32 3 C31.071875 2.505 30.14375 2.01 29.1875 1.5 C23.16430607 -1.0656607 16.08718586 -1.12495366 10 1.3125 C7.51246887 2.71173626 5.77932867 3.80200576 4 6 C1.78345373 4.97088923 -0.10869177 3.91765775 -2.0625 2.4375 C-6.90824959 -1.15773357 -13.24922143 -0.5781206 -19 0 C-21.47757853 1.05633193 -22.91172541 2.23299842 -25 4 C-25.99 4.33 -26.98 4.66 -28 5 C-28 3.35 -28 1.7 -28 0 C-31.63 0 -35.26 0 -39 0 C-39 15.84 -39 31.68 -39 48 C-35.04 48 -31.08 48 -27 48 C-27.02618408 47.05680908 -27.05236816 46.11361816 -27.0793457 45.1418457 C-27.16476922 41.62866855 -27.22734298 38.11660092 -27.2746582 34.6027832 C-27.29974109 33.08470199 -27.3338166 31.56674082 -27.37719727 30.04907227 C-27.43813293 27.86184035 -27.46626895 25.67620961 -27.48828125 23.48828125 C-27.51446533 22.17384033 -27.54064941 20.85939941 -27.56762695 19.50512695 C-26.86658742 15.17617013 -25.32839137 13.7387248 -22 11 C-22.20858643 11.54640137 -22.41717285 12.09280273 -22.63208008 12.65576172 C-25.31099376 20.44593805 -25.54542391 27.94141738 -25.6875 36.125 C-25.72075453 37.47659385 -25.75525136 38.82815773 -25.79101562 40.1796875 C-25.87284947 43.45304112 -25.94221113 46.72614854 -26 50 C-28.12493141 50.02693575 -30.24995912 50.04636628 -32.375 50.0625 C-33.55835938 50.07410156 -34.74171875 50.08570313 -35.9609375 50.09765625 C-39 50 -39 50 -41 49 C-41.02526787 41.89755001 -41.04283201 34.79511152 -41.05493164 27.69262695 C-41.05997349 25.27432828 -41.06680678 22.85603267 -41.07543945 20.43774414 C-41.08751157 16.97020717 -41.09322963 13.50271034 -41.09765625 10.03515625 C-41.10281754 8.94662857 -41.10797882 7.85810089 -41.11329651 6.73658752 C-41.11337204 5.73562546 -41.11344757 4.73466339 -41.11352539 3.70336914 C-41.115746 2.81734512 -41.11796661 1.93132111 -41.12025452 1.01844788 C-41 -1 -41 -1 -40 -2 C-37.85692104 -2.12537741 -35.70921114 -2.17574364 -33.5625 -2.1875 C-31.80099609 -2.20876953 -31.80099609 -2.20876953 -30.00390625 -2.23046875 C-27 -2 -27 -2 -25 0 C-23.865625 -0.495 -22.73125 -0.99 -21.5625 -1.5 C-13.85681579 -4.35395711 -7.33110978 -3.47263095 0 0 Z " fill="#BDBDBD" transform="translate(664,56)"/>
<path d="M0 0 C3.89572281 3.43025983 5.62715382 6.78015348 6 12 C4 10 4 10 2.625 7.0625 C0.41390394 2.89543436 -1.58130516 1.47289828 -6 0 C-16.00972602 -0.78975892 -16.00972602 -0.78975892 -25 3 C-25.33 3.66 -25.66 4.32 -26 5 C-26.66 5 -27.32 5 -28 5 C-28 3.35 -28 1.7 -28 0 C-31.63 0 -35.26 0 -39 0 C-39 15.84 -39 31.68 -39 48 C-35.04 48 -31.08 48 -27 48 C-27.02094727 47.09233887 -27.04189453 46.18467773 -27.06347656 45.24951172 C-27.13190933 41.86122358 -27.18192295 38.4736765 -27.21972656 35.08496094 C-27.23976332 33.62227748 -27.26700104 32.15967334 -27.30175781 30.69726562 C-27.35063225 28.5870399 -27.37304659 26.47787864 -27.390625 24.3671875 C-27.41157227 23.09987793 -27.43251953 21.83256836 -27.45410156 20.52685547 C-26.91847735 16.36684075 -25.63183052 14.2263303 -23 11 C-20.75 10.125 -20.75 10.125 -19 10 C-19.99 10.495 -19.99 10.495 -21 11 C-21 11.66 -21 12.32 -21 13 C-21.66 13 -22.32 13 -23 13 C-24.1803183 16.76853652 -24.19060218 20.42554839 -24.28125 24.35546875 C-24.29965942 25.05771072 -24.31806885 25.7599527 -24.33703613 26.48347473 C-24.41554309 29.47963618 -24.48373124 32.4760079 -24.55224609 35.47241211 C-24.60382719 37.66271567 -24.6610991 39.85281793 -24.71875 42.04296875 C-24.76418945 44.00786255 -24.76418945 44.00786255 -24.81054688 46.01245117 C-25 49 -25 49 -26 50 C-28.33160055 50.09909302 -30.66629942 50.12970504 -33 50.125 C-34.27875 50.12757812 -35.5575 50.13015625 -36.875 50.1328125 C-40 50 -40 50 -41 49 C-41.09846967 47.44000952 -41.12798618 45.87559456 -41.12939453 44.3125 C-41.13254669 43.31476563 -41.13569885 42.31703125 -41.13894653 41.2890625 C-41.1369223 40.20367187 -41.13489807 39.11828125 -41.1328125 38 C-41.13376923 36.89398438 -41.13472595 35.78796875 -41.13571167 34.6484375 C-41.13639367 32.30468692 -41.13453804 29.96093447 -41.13037109 27.6171875 C-41.12502314 24.01558212 -41.13031547 20.41410147 -41.13671875 16.8125 C-41.13605797 14.54166639 -41.13477682 12.27083286 -41.1328125 10 C-41.13483673 8.91460937 -41.13686096 7.82921875 -41.13894653 6.7109375 C-41.13579437 5.71320312 -41.13264221 4.71546875 -41.12939453 3.6875 C-41.12859894 2.80449219 -41.12780334 1.92148437 -41.12698364 1.01171875 C-41 -1 -41 -1 -40 -2 C-37.81360547 -2.07258946 -35.62499611 -2.08373783 -33.4375 -2.0625 C-31.64119141 -2.04896484 -31.64119141 -2.04896484 -29.80859375 -2.03515625 C-28.88175781 -2.02355469 -27.95492187 -2.01195312 -27 -2 C-26.67 -1.01 -26.34 -0.02 -26 1 C-25.2575 0.525625 -24.515 0.05125 -23.75 -0.4375 C-16.40712915 -4.60958571 -7.21217448 -4.24245558 0 0 Z " fill="#C5C5C5" transform="translate(805,56)"/>
<path d="M0 0 C1.93166016 0.01740234 1.93166016 0.01740234 3.90234375 0.03515625 C5.19269531 0.04417969 6.48304688 0.05320313 7.8125 0.0625 C8.81152344 0.07410156 9.81054688 0.08570313 10.83984375 0.09765625 C11.91013665 3.30853496 11.96672368 5.61480988 11.96923828 8.99023438 C11.97239044 10.20159058 11.9755426 11.41294678 11.97879028 12.66101074 C11.97676605 13.97041626 11.97474182 15.27982178 11.97265625 16.62890625 C11.97332992 17.98506691 11.97430047 19.34122745 11.97555542 20.6973877 C11.97702942 23.5386673 11.97488739 26.37991546 11.97021484 29.22119141 C11.96451772 32.86297357 11.96779832 36.50468203 11.97378731 40.14646149 C11.97740094 42.9465592 11.97625063 45.74663944 11.97365952 48.54673767 C11.97266808 50.54259285 11.97570486 52.53844871 11.97879028 54.53430176 C11.97563812 55.74565796 11.97248596 56.95701416 11.96923828 58.20507812 C11.96844269 59.27302612 11.96764709 60.34097412 11.96682739 61.44128418 C11.83984375 64.09765625 11.83984375 64.09765625 10.83984375 67.09765625 C5.88984375 67.09765625 0.93984375 67.09765625 -4.16015625 67.09765625 C-4.18270984 58.50959514 -4.20107282 49.92155689 -4.21196842 41.33347416 C-4.21719661 37.34608425 -4.22429309 33.35871558 -4.2355957 29.37133789 C-4.24642686 25.52640511 -4.25243357 21.6814928 -4.25503349 17.83654594 C-4.25688733 16.36646642 -4.26050716 14.89638807 -4.26588631 13.42631721 C-4.2730998 11.37411158 -4.27414706 9.32199158 -4.27368164 7.26977539 C-4.27590225 6.09951309 -4.27812286 4.92925079 -4.28041077 3.723526 C-4.10472981 -0.1126318 -3.91202755 0.12089084 0 0 Z M-2.16015625 2.09765625 C-2.16015625 22.88765625 -2.16015625 43.67765625 -2.16015625 65.09765625 C1.79984375 65.09765625 5.75984375 65.09765625 9.83984375 65.09765625 C9.83984375 44.30765625 9.83984375 23.51765625 9.83984375 2.09765625 C5.87984375 2.09765625 1.91984375 2.09765625 -2.16015625 2.09765625 Z " fill="#D1D1D1" transform="translate(288.16015625,38.90234375)"/>
<path d="M0 0 C2.375 0.8125 2.375 0.8125 4 2 C5.23838748 5.71516243 5.53600366 9.13922004 5 13 C3.5 15.5 3.5 15.5 1 17 C-2.99298467 17.78550518 -5.95397683 17.60146332 -9.5 15.5625 C-11.73340143 11.74710589 -11.76726228 8.31090664 -11 4 C-8.18428406 -0.61777415 -5.12929224 -0.54956703 0 0 Z " fill="#3F3E3F" transform="translate(319,36)"/>
<path d="M0 0 C6.07087647 5.87504174 5.87210988 11.26938383 6.09472656 19.50390625 C6.13369158 23.33646548 6.1364867 27.16727135 6.125 31 C6.12856941 32.33463636 6.13247352 33.66927187 6.13671875 35.00390625 C6.13542969 36.26074219 6.13414062 37.51757812 6.1328125 38.8125 C6.13168457 39.95332031 6.13055664 41.09414062 6.12939453 42.26953125 C6 45 6 45 5 47 C2.68756208 47.02685412 0.3750373 47.04632841 -1.9375 47.0625 C-3.22527344 47.07410156 -4.51304687 47.08570313 -5.83984375 47.09765625 C-9 47 -9 47 -10 46 C-10.1105834 43.52776623 -10.16159476 41.07873883 -10.17578125 38.60546875 C-10.19898477 37.07746026 -10.22310233 35.54946543 -10.24804688 34.02148438 C-10.28314236 31.60529526 -10.31248829 29.18960611 -10.32592773 26.77319336 C-10.34141648 24.44583023 -10.38163566 22.11994177 -10.42578125 19.79296875 C-10.42387283 19.07304245 -10.42196442 18.35311615 -10.41999817 17.6113739 C-10.50340327 14.18646753 -10.75881631 12.31573425 -12.86401367 9.55981445 C-15.27141892 7.80179501 -17.05968726 7.32670142 -20 7 C-20 6.67 -20 6.34 -20 6 C-13.64096386 5.51084337 -13.64096386 5.51084337 -10.625 7.8125 C-7.66728232 11.79404303 -7.86656978 15.54871152 -7.90234375 20.29296875 C-7.9037587 20.99899734 -7.90517365 21.70502594 -7.90663147 22.43244934 C-7.91222236 24.68417626 -7.92477312 26.93580321 -7.9375 29.1875 C-7.94251618 30.71549335 -7.94707888 32.24348827 -7.95117188 33.77148438 C-7.9621888 37.51436135 -7.97944713 41.25716373 -8 45 C-4.04 45 -0.08 45 4 45 C3.93093068 39.84002549 3.84287138 34.68084648 3.73754883 29.52148438 C3.7043878 27.76799373 3.67632858 26.01439862 3.65356445 24.26074219 C3.6198553 21.73327302 3.56753308 19.20675362 3.51171875 16.6796875 C3.50532883 15.90132538 3.4989389 15.12296326 3.49235535 14.3210144 C3.36251943 9.46506508 2.44804195 6.30656706 0 2 C0 1.34 0 0.68 0 0 Z " fill="#CDCDCD" transform="translate(697,59)"/>
<path d="M0 0 C4.29 0 8.58 0 13 0 C13 0.66 13 1.32 13 2 C9.04 2 5.08 2 1 2 C1 17.84 1 33.68 1 50 C4.96 50 8.92 50 13 50 C12.96519531 48.13214844 12.93039062 46.26429687 12.89453125 44.33984375 C12.86638556 41.87240485 12.83908624 39.40495619 12.8125 36.9375 C12.78736328 35.70837891 12.76222656 34.47925781 12.73632812 33.21289062 C12.68380479 26.7175052 12.6778255 21.67102427 16 16 C18 14 18 14 20 13 C20.99 13.33 21.98 13.66 23 14 C19.25 17 19.25 17 17 17 C15.87998007 20.63949795 15.8122075 24.12473758 15.71875 27.91796875 C15.70034058 28.57581863 15.68193115 29.23366852 15.66296387 29.91145325 C15.58449853 32.71644331 15.51626049 35.52165584 15.44775391 38.3269043 C15.39616936 40.37821833 15.33890142 42.42931773 15.28125 44.48046875 C15.25095703 45.70660889 15.22066406 46.93274902 15.18945312 48.19604492 C15 51 15 51 14 52 C9.38 52 4.76 52 0 52 C0 34.84 0 17.68 0 0 Z " fill="#B6B6B6" transform="translate(438,54)"/>
<path d="M0 0 C0.66 0.33 1.32 0.66 2 1 C1.071875 2.3303125 1.071875 2.3303125 0.125 3.6875 C-3.96091995 10.05672816 -4.33828653 14.9484789 -4.3125 22.375 C-4.32861328 23.29539062 -4.34472656 24.21578125 -4.36132812 25.1640625 C-4.36765962 34.0281586 -1.97548573 39.60643664 4.015625 46.19921875 C7.06419944 48.96574005 10.21867502 50.40786317 14 52 C14 52.66 14 53.32 14 54 C23.82148076 55.78572378 33.32234605 55.39800275 43 53 C43 53.66 43 54.32 43 55 C32.72333058 58.35564716 20.43975005 58.73825991 10.62890625 53.80859375 C2.7144302 48.55721172 -4.31271774 42.40899487 -6.6015625 32.8671875 C-8.08654945 22.18110494 -8.18444217 10.97777452 -1.8125 1.875 C-1.214375 1.25625 -0.61625 0.6375 0 0 Z " fill="#BABABA" transform="translate(215,50)"/>
<path d="M0 0 C8.18286239 2.30798683 15.31437026 6.84649374 22 12 C23.51392533 15.02785065 23.162841 18.17065593 23.16796875 21.4921875 C23.17129715 22.23453644 23.17462555 22.97688538 23.17805481 23.74172974 C23.18312087 25.31365336 23.18546323 26.88558775 23.18530273 28.45751953 C23.18748508 30.8585798 23.20563223 33.25917756 23.22460938 35.66015625 C23.22754422 37.18749843 23.22952841 38.71484279 23.23046875 40.2421875 C23.23765427 40.95897675 23.24483978 41.67576599 23.25224304 42.41427612 C23.23537648 46.10896461 23.04194284 48.86096179 21 52 C19.515 51.505 19.515 51.505 18 51 C18.66 50.01 19.32 49.02 20 48 C20.18347848 45.40935758 20.2562393 42.92908851 20.23046875 40.33984375 C20.23001053 39.59416641 20.22955231 38.84848907 20.2290802 38.08021545 C20.22606211 36.50585333 20.21818902 34.93149408 20.20581055 33.35717773 C20.1875423 30.94308945 20.18530101 28.5293846 20.18554688 26.11523438 C20.18063189 24.58593417 20.17480366 23.05663658 20.16796875 21.52734375 C20.16685593 20.80336899 20.1657431 20.07939423 20.16459656 19.33348083 C20.1886836 15.54061136 20.1886836 15.54061136 19 12 C18.05125 11.690625 17.1025 11.38125 16.125 11.0625 C12.92079265 9.9730695 12.2760777 9.2760777 10 7 C7.69442267 5.63687797 5.33745489 4.41799841 2.9609375 3.18359375 C1 2 1 2 0 0 Z " fill="#C1C1C1" transform="translate(160,41)"/>
<path d="M0 0 C0.66 0 1.32 0 2 0 C2.05441656 1.89551022 2.09298035 3.7914792 2.125 5.6875 C2.14820313 6.74324219 2.17140625 7.79898438 2.1953125 8.88671875 C1.75593186 15.89044617 -2.06569187 20.32858533 -7 25 C-12.86999935 28.68313685 -19.2532328 28.96638045 -26 28 C-30.57390654 26.15874689 -34.57624361 23.39305846 -37 19 C-37 18.34 -37 17.68 -37 17 C-37.99 16.67 -38.98 16.34 -40 16 C-40 11.05 -40 6.1 -40 1 C-39.67 1 -39.34 1 -39 1 C-38.67 5.62 -38.34 10.24 -38 15 C-37.34 15 -36.68 15 -36 15 C-35.195625 16.6396875 -35.195625 16.6396875 -34.375 18.3125 C-32.16102138 22.11777576 -30.26978749 23.5767375 -26 25 C-19.7508316 26.45849416 -14.77029359 26.35389679 -8.9765625 23.45703125 C-6.08450002 21.32513539 -4.58600358 18.7782436 -2.97265625 15.609375 C-2.49119141 14.81273438 -2.49119141 14.81273438 -2 14 C-1.34 14 -0.68 14 0 14 C0 9.38 0 4.76 0 0 Z " fill="#B9B9B9" transform="translate(262,66)"/>
<path d="M0 0 C1.32 0 2.64 0 4 0 C7.35352505 3.90858474 7.40249072 7.78381404 7.29296875 12.70703125 C7.28872391 13.43242599 7.28447906 14.15782074 7.28010559 14.90519714 C7.26339543 17.20801891 7.2257596 19.50994553 7.1875 21.8125 C7.17244316 23.3795446 7.1587565 24.946603 7.14648438 26.51367188 C7.11351731 30.34278957 7.06178992 34.17124334 7 38 C10.96 38 14.92 38 19 38 C19 26.45 19 14.9 19 3 C19.33 3 19.66 3 20 3 C20 15.21 20 27.42 20 40 C15.38 40 10.76 40 6 40 C5.96261719 37.74800781 5.92523437 35.49601562 5.88671875 33.17578125 C5.84045179 30.98468546 5.78923721 28.79375702 5.73754883 26.6027832 C5.70438084 25.08498379 5.67632368 23.56706344 5.65356445 22.04907227 C5.61986722 19.86161981 5.56754796 17.67526736 5.51171875 15.48828125 C5.48553467 14.17384033 5.45935059 12.85939941 5.43237305 11.50512695 C4.9815628 7.85053476 4.04234123 6.00084562 2 3 C2 2.34 2 1.68 2 1 C1.34 0.67 0.68 0.34 0 0 Z " fill="#CCCCCC" transform="translate(792,66)"/>
<path d="M0 0 C-1 2 -2 4 -3 6 C-3.14404736 8.39404487 -3.23386465 10.76390911 -3.28125 13.16015625 C-3.29965942 13.86522812 -3.31806885 14.57029999 -3.33703613 15.29673767 C-3.41582102 18.31851853 -3.48360015 21.3405233 -3.55224609 24.36254883 C-3.60385884 26.56603408 -3.66114275 28.76932092 -3.71875 30.97265625 C-3.73232544 31.66118179 -3.74590088 32.34970734 -3.7598877 33.05909729 C-3.88716922 37.88716922 -3.88716922 37.88716922 -5 39 C-9.62 39 -14.24 39 -19 39 C-19.33 27.12 -19.66 15.24 -20 3 C-19.34 3 -18.68 3 -18 3 C-18 14.22 -18 25.44 -18 37 C-13.71 37 -9.42 37 -5 37 C-5.01571045 36.0212793 -5.0314209 35.04255859 -5.04760742 34.03417969 C-5.1019857 30.39640562 -5.13637848 26.75866736 -5.16479492 23.12060547 C-5.17986364 21.54730178 -5.20032245 19.97403998 -5.22631836 18.40087891 C-5.26278738 16.13693904 -5.27974508 13.87355543 -5.29296875 11.609375 C-5.30845261 10.90818542 -5.32393646 10.20699585 -5.33988953 9.48455811 C-5.3409638 6.35368557 -5.15628272 4.27767772 -3.60668945 1.52441406 C-2 0 -2 0 0 0 Z " fill="#CFCFCF" transform="translate(675,67)"/>
<path d="M0 0 C4.62 0 9.24 0 14 0 C16.5943665 5.18873299 18.24011408 9.67954338 19.75 15.1875 C19.98332031 15.99380859 20.21664063 16.80011719 20.45703125 17.63085938 C20.67230469 18.40623047 20.88757813 19.18160156 21.109375 19.98046875 C21.30499023 20.68067139 21.50060547 21.38087402 21.70214844 22.10229492 C22 24 22 24 21 27 C17.98676613 22.66577822 16.92374116 18.44260558 15.8125 13.375 C15.54663086 12.2303125 15.54663086 12.2303125 15.27539062 11.0625 C14.57632826 7.98554597 14 5.16498797 14 2 C9.71 2 5.42 2 1 2 C1.639375 3.670625 2.27875 5.34125 2.9375 7.0625 C4.53622407 11.43498209 5.5887938 15.37393024 6 20 C4 19 4 19 2.9296875 16.26953125 C2.58164062 15.12871094 2.23359375 13.98789062 1.875 12.8125 C1.52179688 11.68457031 1.16859375 10.55664062 0.8046875 9.39453125 C0 6 0 6 0 0 Z " fill="#D0D0D0" transform="translate(474,39)"/>
<path d="M0 0 C0.66 0.33 1.32 0.66 2 1 C0.10934188 2.4654862 -1.78701997 3.92234703 -3.6875 5.375 C-4.48317383 5.99375 -4.48317383 5.99375 -5.29492188 6.625 C-8.41217673 8.9964086 -11.29266381 10.73847588 -15 12 C-18.89789864 13.47488057 -22.54341456 15.26366269 -26.23046875 17.1953125 C-28 18 -28 18 -30 18 C-30 18.66 -30 19.32 -30 20 C-31.62249941 20.83819158 -33.24808497 21.6704116 -34.875 22.5 C-35.77992187 22.9640625 -36.68484375 23.428125 -37.6171875 23.90625 C-40 25 -40 25 -42 25 C-42 24.34 -42 23.68 -42 23 C-41.2471875 22.59910156 -40.494375 22.19820312 -39.71875 21.78515625 C-33.43940068 18.42448507 -27.2001591 15.00473098 -21 11.5 C-18.98980411 10.36784021 -16.97902556 9.23672762 -14.96777344 8.10644531 C-13.66297213 7.37277788 -12.35892592 6.63776578 -11.05566406 5.90136719 C-9.24991269 4.88429195 -7.43850337 3.87817098 -5.625 2.875 C-4.58601563 2.29492188 -3.54703125 1.71484375 -2.4765625 1.1171875 C-1.65929687 0.74851562 -0.84203125 0.37984375 0 0 Z M-14 9 C-13 11 -13 11 -13 11 Z " fill="#CECECE" transform="translate(150,76)"/>
<path d="M0 0 C1.84265722 1.21623512 3.27289598 2.55086129 4.76953125 4.16796875 C4.43953125 4.82796875 4.10953125 5.48796875 3.76953125 6.16796875 C3.13015625 5.56984375 2.49078125 4.97171875 1.83203125 4.35546875 C-4.14912123 0.08321698 -10.88525329 -1.76665899 -18.23046875 -0.83203125 C-22.92607442 0.05125025 -27.5805201 1.07078986 -32.23046875 2.16796875 C-32.23046875 5.79796875 -32.23046875 9.42796875 -32.23046875 13.16796875 C-30.25046875 12.50796875 -28.27046875 11.84796875 -26.23046875 11.16796875 C-26.23046875 11.82796875 -26.23046875 12.48796875 -26.23046875 13.16796875 C-29.13647136 14.42461853 -31.02651459 15.16796875 -34.23046875 15.16796875 C-34.23046875 10.54796875 -34.23046875 5.92796875 -34.23046875 1.16796875 C-22.75523186 -2.91211548 -11.41083697 -5.69450946 0 0 Z " fill="#B7B7B7" transform="translate(746.23046875,55.83203125)"/>
<path d="M0 0 C1.93166016 0.01740234 1.93166016 0.01740234 3.90234375 0.03515625 C5.19269531 0.04417969 6.48304688 0.05320313 7.8125 0.0625 C8.81152344 0.07410156 9.81054688 0.08570313 10.83984375 0.09765625 C9.58631056 7.16302514 7.27780626 12.81222098 3.83984375 19.09765625 C3.50984375 19.09765625 3.17984375 19.09765625 2.83984375 19.09765625 C2.83984375 17.44765625 2.83984375 15.79765625 2.83984375 14.09765625 C3.49984375 14.09765625 4.15984375 14.09765625 4.83984375 14.09765625 C5.04480469 13.39898437 5.24976563 12.7003125 5.4609375 11.98046875 C5.73035156 11.07039063 5.99976563 10.1603125 6.27734375 9.22265625 C6.54417969 8.31773438 6.81101562 7.4128125 7.0859375 6.48046875 C7.83984375 4.09765625 7.83984375 4.09765625 8.83984375 2.09765625 C4.87984375 2.09765625 0.91984375 2.09765625 -3.16015625 2.09765625 C-3.57265625 3.37640625 -3.98515625 4.65515625 -4.41015625 5.97265625 C-5.60651144 9.54471203 -6.86996494 13.08167208 -8.22265625 16.59765625 C-8.54363281 17.43296875 -8.86460937 18.26828125 -9.1953125 19.12890625 C-10.16015625 21.09765625 -10.16015625 21.09765625 -12.16015625 22.09765625 C-6.31633106 0.19518946 -6.31633106 0.19518946 0 0 Z " fill="#C8C8C8" transform="translate(610.16015625,53.90234375)"/>
<path d="M0 0 C4.62 0 9.24 0 14 0 C13.39502042 6.06370342 12.1366972 11.65514242 10.4375 17.5 C10.20353516 18.32242188 9.96957031 19.14484375 9.72851562 19.9921875 C9.15757928 21.99629058 8.57953295 23.99836591 8 26 C7.34 26 6.68 26 6 26 C5.67 27.32 5.34 28.64 5 30 C5 27.69 5 25.38 5 23 C5.66 23 6.32 23 7 23 C7.12246094 21.99839844 7.24492188 20.99679688 7.37109375 19.96484375 C7.92969679 16.05462246 8.94359758 12.35233077 10.0625 8.5625 C10.42472656 7.32628906 10.78695312 6.09007812 11.16015625 4.81640625 C11.43730469 3.88699219 11.71445312 2.95757812 12 2 C8.37 2.33 4.74 2.66 1 3 C0.67 4.32 0.34 5.64 0 7 C-0.93423645 3.98968256 -1.04449911 3.13349732 0 0 Z " fill="#9D9D9D" transform="translate(554,39)"/>
<path d="M0 0 C0.66 0.33 1.32 0.66 2 1 C1.34 1.66 0.68 2.32 0 3 C-0.21197014 5.70115907 -0.30397679 8.29724538 -0.30078125 11 C-0.30506638 11.79148437 -0.3093515 12.58296875 -0.31376648 13.3984375 C-0.31951298 15.07290693 -0.32000768 16.74740132 -0.31567383 18.421875 C-0.31251229 20.99001412 -0.3359731 23.5570033 -0.36132812 26.125 C-0.36360086 27.74999854 -0.36430473 29.37500019 -0.36328125 31 C-0.372491 31.77085938 -0.38170074 32.54171875 -0.39118958 33.3359375 C-0.40535149 35.72793495 -0.40535149 35.72793495 0 39 C0.99 39.66 1.98 40.32 3 41 C3 41.66 3 42.32 3 43 C-1.875 41.25 -1.875 41.25 -3 39 C-3.12308974 36.42071047 -3.18835973 33.86945066 -3.203125 31.2890625 C-3.20882507 30.52451752 -3.21452515 29.75997253 -3.22039795 28.97225952 C-3.2298497 27.35326523 -3.23638263 25.73425168 -3.24023438 24.11523438 C-3.24993496 21.64158442 -3.28095335 19.16876719 -3.3125 16.6953125 C-3.31903068 15.12240077 -3.3242809 13.54948309 -3.328125 11.9765625 C-3.3404718 11.23789948 -3.3528186 10.49923645 -3.36553955 9.7381897 C-3.34737992 5.53898881 -2.99801204 3.04253697 0 0 Z " fill="#A8A8A8" transform="translate(60,51)"/>
<path d="M0 0 C1.92278297 3.52510211 3 5.97419837 3 10 C2.15308594 9.83886719 1.30617188 9.67773438 0.43359375 9.51171875 C-7.69282018 8.30061497 -16.2474317 8.04664065 -24 11 C-20.47068203 6.88246237 -16.21064574 6.49965096 -11 6 C-7.29738813 6.12124422 -3.66726541 6.48407293 0 7 C-0.66 5.02 -1.32 3.04 -2 1 C-7.94 1 -13.88 1 -20 1 C-20 0.34 -20 -0.32 -20 -1 C-13.77678579 -2.79240041 -5.7408665 -3.22048608 0 0 Z " fill="#AAAAAA" transform="translate(740,66)"/>
<path d="M0 0 C0.66 0 1.32 0 2 0 C2.50636607 1.74816858 3.00484619 3.49862263 3.5 5.25 C3.7784375 6.22453125 4.056875 7.1990625 4.34375 8.203125 C5 11 5 11 5 15 C9.29 15 13.58 15 18 15 C18.268125 13.411875 18.53625 11.82375 18.8125 10.1875 C19.44417786 6.44602347 20.03472242 4.4453385 23 2 C22.52396226 4.12570312 22.04407402 6.25054427 21.5625 8.375 C21.29566406 9.55835937 21.02882813 10.74171875 20.75390625 11.9609375 C20 15 20 15 19 17 C15.04 17 11.08 17 7 17 C7 17.66 7 18.32 7 19 C6.34 19 5.68 19 5 19 C4.16142312 16.39741676 3.32896656 13.79314353 2.5 11.1875 C2.14228516 10.08051758 2.14228516 10.08051758 1.77734375 8.95117188 C0.80059864 5.86744804 0 3.25504191 0 0 Z " fill="#BABABA" transform="translate(489,89)"/>
<path d="M0 0 C-0.33 0.66 -0.66 1.32 -1 2 C-1.64066406 1.59007812 -2.28132813 1.18015625 -2.94140625 0.7578125 C-7.91124762 -2.33815426 -12.26713518 -4.75372504 -18 -6 C-18 -6.66 -18 -7.32 -18 -8 C-20.70860124 -7.85823579 -23.41680752 -7.71171784 -26.125 -7.5625 C-26.88554687 -7.52318359 -27.64609375 -7.48386719 -28.4296875 -7.44335938 C-32.68509203 -7.20490998 -36.80370826 -6.79769763 -41 -6 C-30.97218279 -18.13893662 -9.69706786 -7.02686077 0 0 Z " fill="#CFCFCF" transform="translate(269,48)"/>
<path d="M0 0 C0.65097656 0.43957031 1.30195312 0.87914062 1.97265625 1.33203125 C4.6614704 3.04686262 7.50254351 4.29046368 10.43359375 5.53515625 C12 6.625 12 6.625 12.72265625 8.74609375 C12.81417969 9.36613281 12.90570313 9.98617187 13 10.625 C11.90716423 11.65795436 10.80029421 12.67607835 9.6875 13.6875 C9.07261719 14.25597656 8.45773438 14.82445313 7.82421875 15.41015625 C7.22222656 15.81105469 6.62023437 16.21195313 6 16.625 C5.01 16.295 4.02 15.965 3 15.625 C5.64 13.645 8.28 11.665 11 9.625 C7.36753532 6.90065149 3.70000578 4.58258806 -0.25 2.375 C-0.88035156 1.99859375 -1.51070312 1.6221875 -2.16015625 1.234375 C-7.23555389 -1.57725058 -10.33559449 -1.59989782 -16 -0.375 C-18.86673164 0.58526816 -18.86673164 0.58526816 -21 1.625 C-20 -1.375 -20 -1.375 -16.4375 -3.1875 C-10.11724253 -5.3167846 -5.45746692 -3.43223506 0 0 Z " fill="#C2C2C2" transform="translate(102,39.375)"/>
<path d="M0 0 C1.93166016 0.01740234 1.93166016 0.01740234 3.90234375 0.03515625 C5.19269531 0.04417969 6.48304688 0.05320313 7.8125 0.0625 C8.81152344 0.07410156 9.81054688 0.08570313 10.83984375 0.09765625 C11.37436935 1.34186272 11.89192986 2.59336561 12.40234375 3.84765625 C12.69238281 4.54375 12.98242188 5.23984375 13.28125 5.95703125 C13.91816178 8.39778409 13.64233206 9.73802175 12.83984375 12.09765625 C12.33580607 10.80755982 11.83674449 9.51551836 11.33984375 8.22265625 C11.06140625 7.50335938 10.78296875 6.7840625 10.49609375 6.04296875 C9.83984375 4.09765625 9.83984375 4.09765625 9.83984375 2.09765625 C5.87984375 2.09765625 1.91984375 2.09765625 -2.16015625 2.09765625 C-3.48015625 7.70765625 -4.80015625 13.31765625 -6.16015625 19.09765625 C-6.82015625 19.09765625 -7.48015625 19.09765625 -8.16015625 19.09765625 C-6.41019642 0.19809012 -6.41019642 0.19809012 0 0 Z " fill="#828383" transform="translate(517.16015625,40.90234375)"/>
<path d="M0 0 C2.49361571 1.20381448 4.68143083 2.45428722 7 4 C15.70369198 6.16718435 23.25902104 4.15369603 31 0 C31.66 0 32.32 0 33 0 C33 4.62 33 9.24 33 14 C31.35 14.33 29.7 14.66 28 15 C28.72123047 14.41798828 28.72123047 14.41798828 29.45703125 13.82421875 C31.45749498 11.45911353 31.48876068 9.87308547 31.6875 6.8125 C31.75324219 5.91144531 31.81898438 5.01039062 31.88671875 4.08203125 C31.92410156 3.39496094 31.96148437 2.70789063 32 2 C31.46890625 2.27714844 30.9378125 2.55429688 30.390625 2.83984375 C29.68421875 3.20207031 28.9778125 3.56429687 28.25 3.9375 C27.20585937 4.47697266 27.20585937 4.47697266 26.140625 5.02734375 C19.44238515 8.07088704 11.25911397 8.1238324 4.375 5.75 C1.9558939 3.96750077 0.97096458 2.81579728 0 0 Z " fill="#BCBBBB" transform="translate(396,88)"/>
<path d="M0 0 C7.8975 7.695 7.8975 7.695 8.4375 12.375 C7.7775 12.375 7.1175 12.375 6.4375 12.375 C5.51219135 10.96935597 4.64693229 9.52392191 3.8125 8.0625 C1.16295796 3.96247875 -0.85428531 2.0440802 -5.5625 0.7421875 C-12.30897869 -0.49642382 -17.85866642 0.55409217 -23.5625 4.375 C-25.3877254 6.65409161 -26.36753811 8.67334703 -27.5625 11.375 C-28.2225 11.375 -28.8825 11.375 -29.5625 11.375 C-28.31034899 5.53162862 -25.34350896 2.64397494 -20.5625 -0.625 C-14.12060726 -2.77229758 -6.16986528 -2.81432451 0 0 Z " fill="#C1C1C1" transform="translate(253.5625,52.625)"/>
<path d="M0 0 C2.26921536 -0.13489391 4.5407067 -0.23193995 6.8125 -0.3125 C8.70935547 -0.39951172 8.70935547 -0.39951172 10.64453125 -0.48828125 C14 0 14 0 15.87109375 2.38671875 C16.42990234 3.68029297 16.42990234 3.68029297 17 5 C17.4125 5.70125 17.825 6.4025 18.25 7.125 C19 9 19 9 18 12 C15.04816899 9.04816899 14.91336012 6.04488053 14 2 C8.06 2.495 8.06 2.495 2 3 C2.680625 4.60875 3.36125 6.2175 4.0625 7.875 C5.22265625 10.6171875 5.22265625 10.6171875 6 13 C5.67 13.66 5.34 14.32 5 15 C4.15415002 13.44424022 3.32381601 11.8800388 2.5 10.3125 C2.0359375 9.44238281 1.571875 8.57226562 1.09375 7.67578125 C-0.04818792 4.88211171 -0.21504208 2.98370887 0 0 Z " fill="#DFDFDF" transform="translate(565,54)"/>
<path d="M0 0 C1.34581972 4.03745915 0.19157055 5.72155625 -1.375 9.625 C-1.83648437 10.79289062 -2.29796875 11.96078125 -2.7734375 13.1640625 C-4 16 -4 16 -5 17 C-7.35313555 17.07271741 -9.70833668 17.08370868 -12.0625 17.0625 C-13.35285156 17.05347656 -14.64320313 17.04445313 -15.97265625 17.03515625 C-16.97167969 17.02355469 -17.97070312 17.01195313 -19 17 C-19.99 14.03 -20.98 11.06 -22 8 C-21.34 8 -20.68 8 -20 8 C-19.34 9.98 -18.68 11.96 -18 14 C-14.04 14 -10.08 14 -6 14 C-5.65066406 13.15695313 -5.30132812 12.31390625 -4.94140625 11.4453125 C-4.48636719 10.34960938 -4.03132813 9.25390625 -3.5625 8.125 C-3.11003906 7.03445312 -2.65757812 5.94390625 -2.19140625 4.8203125 C-1.50456537 3.19441376 -0.78934113 1.57868226 0 0 Z " fill="#BFBFBF" transform="translate(366,89)"/>
<path d="M0 0 C0 0.99 0 1.98 0 3 C-0.928125 2.505 -1.85625 2.01 -2.8125 1.5 C-8.83569393 -1.0656607 -15.91281414 -1.12495366 -22 1.3125 C-24.48753113 2.71173626 -26.22067133 3.80200576 -28 6 C-30.62187494 4.95125002 -31.79371361 4.35068687 -33.25 1.875 C-33.4975 1.25625 -33.745 0.6375 -34 0 C-31 1 -31 1 -30 3 C-27.74378837 1.91367588 -25.62646456 0.76654035 -23.5 -0.5625 C-15.73234221 -5.02890323 -7.88951513 -3.06814477 0 0 Z " fill="#B7B7B7" transform="translate(696,56)"/>
<path d="M0 0 C4.62 0 9.24 0 14 0 C14.33 1.32 14.66 2.64 15 4 C14.67 3.34 14.34 2.68 14 2 C10.04 2 6.08 2 2 2 C2.34933594 2.96421875 2.69867188 3.9284375 3.05859375 4.921875 C3.51833086 6.19788003 3.97796063 7.47392374 4.4375 8.75 C4.78264648 9.70132813 4.78264648 9.70132813 5.13476562 10.671875 C6.24244769 13.75412076 7.29661036 16.79836438 8 20 C7.34 20 6.68 20 6 20 C4.99183944 17.41958904 3.9932889 14.83613056 3 12.25 C2.71382813 11.52039063 2.42765625 10.79078125 2.1328125 10.0390625 C1.86210937 9.33007812 1.59140625 8.62109375 1.3125 7.890625 C1.06113281 7.24125977 0.80976563 6.59189453 0.55078125 5.92285156 C0 4 0 4 0 0 Z " fill="#CDCDCD" transform="translate(327,54)"/>
<path d="M0 0 C0.66 0 1.32 0 2 0 C2.53154742 1.60064843 3.04988353 3.20568874 3.5625 4.8125 C3.85253906 5.70582031 4.14257812 6.59914063 4.44140625 7.51953125 C5 10 5 10 4 13 C3.01 10.36 2.02 7.72 1 5 C0.49339844 6.58941406 0.49339844 6.58941406 -0.0234375 8.2109375 C-0.47363992 9.59906164 -0.92417825 10.98707687 -1.375 12.375 C-1.59671875 13.07367188 -1.8184375 13.77234375 -2.046875 14.4921875 C-3.7734375 19.7734375 -3.7734375 19.7734375 -6 22 C-2.91609977 2.91609977 -2.91609977 2.91609977 0 0 Z " fill="#C2C1C1" transform="translate(520,61)"/>
<path d="M0 0 C3.2578125 -0.29296875 3.2578125 -0.29296875 7.125 -0.1875 C9.04699219 -0.14689453 9.04699219 -0.14689453 11.0078125 -0.10546875 C11.99523437 -0.07066406 12.98265625 -0.03585938 14 0 C13.74438677 2.3431213 13.40729228 4.67843403 13 7 C12.01 7.495 12.01 7.495 11 8 C11.33 6.02 11.66 4.04 12 2 C8.04 2 4.08 2 0 2 C-0.268125 3.423125 -0.53625 4.84625 -0.8125 6.3125 C-1.47940716 9.85223799 -2.2289312 11.65408148 -5 14 C-4.54857225 12.22739369 -4.08859477 10.4569632 -3.625 8.6875 C-3.36976563 7.70136719 -3.11453125 6.71523438 -2.8515625 5.69921875 C-2 3 -2 3 0 0 Z " fill="#C9C9C9" transform="translate(367,54)"/>
<path d="M0 0 C0.66 0 1.32 0 2 0 C2.05441656 1.89551022 2.09298035 3.7914792 2.125 5.6875 C2.14820313 6.74324219 2.17140625 7.79898438 2.1953125 8.88671875 C1.86809539 14.10255941 0.04661653 17.32510755 -3.375 21.1875 C-4.25285156 22.19876953 -4.25285156 22.19876953 -5.1484375 23.23046875 C-7.89241986 25.85288227 -9.95135054 26.95233412 -13.75 27.125 C-14.4925 27.08375 -15.235 27.0425 -16 27 C-13 25 -13 25 -10.125 23.875 C-6.39195053 21.63517032 -5.10903198 19.40170917 -3.078125 15.64453125 C-2.72234375 15.10183594 -2.3665625 14.55914062 -2 14 C-1.34 14 -0.68 14 0 14 C0 9.38 0 4.76 0 0 Z " fill="#A9A9A9" transform="translate(262,66)"/>
<path d="M0 0 C1.16445606 3.49336818 0.77002998 4.62826149 -0.21484375 8.10546875 C-0.48876953 9.08837891 -0.76269531 10.07128906 -1.04492188 11.08398438 C-1.33947266 12.10814453 -1.63402344 13.13230469 -1.9375 14.1875 C-2.22818359 15.22326172 -2.51886719 16.25902344 -2.81835938 17.32617188 C-3.53803977 19.88634639 -4.2655212 22.44403911 -5 25 C-5.66 25 -6.32 25 -7 25 C-7.33 26.32 -7.66 27.64 -8 29 C-8 26.69 -8 24.38 -8 22 C-7.34 22 -6.68 22 -6 22 C-5.9175 21.113125 -5.835 20.22625 -5.75 19.3125 C-4.84516725 12.84560709 -2.92206518 5.84413037 0 0 Z " fill="#B0B0B0" transform="translate(558,69)"/>
<path d="M0 0 C1.32 0 2.64 0 4 0 C7.35352505 3.90858474 7.40249072 7.78381404 7.29296875 12.70703125 C7.28872391 13.43242599 7.28447906 14.15782074 7.28010559 14.90519714 C7.26339543 17.20801891 7.2257596 19.50994553 7.1875 21.8125 C7.17244316 23.3795446 7.1587565 24.946603 7.14648438 26.51367188 C7.11351731 30.34278957 7.06178992 34.17124334 7 38 C6.67 38 6.34 38 6 38 C5.98541748 37.11739502 5.97083496 36.23479004 5.95581055 35.32543945 C5.89457933 32.03561357 5.8203967 28.7466007 5.73754883 25.45727539 C5.70439443 24.03648798 5.67633308 22.61557187 5.65356445 21.19458008 C5.61984153 19.1460918 5.56752255 17.0987728 5.51171875 15.05078125 C5.48553467 13.82012939 5.45935059 12.58947754 5.43237305 11.3215332 C4.97203051 7.78513554 3.96440864 5.92292768 2 3 C2 2.34 2 1.68 2 1 C1.34 0.67 0.68 0.34 0 0 Z " fill="#555555" transform="translate(792,66)"/>
<path d="M0 0 C0.99 0.33 1.98 0.66 3 1 C-0.75 4 -0.75 4 -3 4 C-4.11865755 7.64658477 -4.20370892 11.1536151 -4.31640625 14.953125 C-4.33718735 15.61334656 -4.35796844 16.27356812 -4.37937927 16.95379639 C-4.44450147 19.05243015 -4.50358502 21.15118372 -4.5625 23.25 C-4.60572079 24.67709547 -4.6493362 26.10417905 -4.69335938 27.53125 C-4.80014411 31.02070722 -4.90151566 34.51029753 -5 38 C-5.33 38 -5.66 38 -6 38 C-6.09917794 33.53432237 -6.17161225 29.06923493 -6.21972656 24.6027832 C-6.23979203 23.0847659 -6.26705134 21.56682541 -6.30175781 20.04907227 C-6.35050393 17.86194878 -6.37301805 15.67585048 -6.390625 13.48828125 C-6.41157227 12.17384033 -6.43251953 10.85939941 -6.45410156 9.50512695 C-5.92906843 5.45249214 -4.86169466 3.85337965 -2 1 C-1.34 0.67 -0.68 0.34 0 0 Z " fill="#F9F9F9" transform="translate(458,67)"/>
<path d="M0 0 C0.33 0 0.66 0 1 0 C0.96519531 0.73863281 0.93039062 1.47726563 0.89453125 2.23828125 C0.61737073 12.62520183 2.34323954 21.22226825 8 30 C4.65801261 28.63377874 3.34069984 27.44973884 1.8125 24.1875 C1.48894531 23.52105469 1.16539062 22.85460937 0.83203125 22.16796875 C-0.79121866 17.93837392 -1.1375318 13.94268101 -1.125 9.4375 C-1.12757813 8.50808594 -1.13015625 7.57867187 -1.1328125 6.62109375 C-1.01309964 4.25852524 -0.66993233 2.25969237 0 0 Z " fill="#949494" transform="translate(381,70)"/>
<path d="M0 0 C2 1 2 1 3 3 C2.34 3 1.68 3 1 3 C1 3.66 1 4.32 1 5 C-1.11997834 6.19733988 -3.24513676 7.38298713 -5.375 8.5625 C-5.97828125 8.90474609 -6.5815625 9.24699219 -7.203125 9.59960938 C-8.76978241 10.46127095 -10.38290862 11.23718183 -12 12 C-12.66 11.67 -13.32 11.34 -14 11 C-12.23055495 9.53998252 -10.45939429 8.08204407 -8.6875 6.625 C-7.70136719 5.81289063 -6.71523437 5.00078125 -5.69921875 4.1640625 C-3 2 -3 2 0 0 Z " fill="#B8B8B8" transform="translate(102,57)"/>
<path d="M0 0 C3.85961727 1.77333766 5.90329054 3.60244481 7.44140625 7.6171875 C8.69624976 12.97001646 8.77973115 18.52366055 9 24 C8.34 24.33 7.68 24.66 7 25 C6.81824219 23.33710937 6.81824219 23.33710937 6.6328125 21.640625 C6.46393704 20.17703766 6.29464428 18.71349843 6.125 17.25 C6.04636719 16.52039063 5.96773438 15.79078125 5.88671875 15.0390625 C5.3269582 10.30262707 4.78932962 6.78932962 1.375 3.375 C0.92125 2.92125 0.4675 2.4675 0 2 C0 1.34 0 0.68 0 0 Z " fill="#A9A9A9" transform="translate(422,59)"/>
<path d="M0 0 C0.66 0.33 1.32 0.66 2 1 C0.35 1.66 -1.3 2.32 -3 3 C-3 6.63 -3 10.26 -3 14 C-1.02 13.34 0.96 12.68 3 12 C3 12.66 3 13.32 3 14 C0.09399739 15.25664978 -1.79604584 16 -5 16 C-5 11.38 -5 6.76 -5 2 C-3.35 1.34 -1.7 0.68 0 0 Z " fill="#CACACA" transform="translate(717,55)"/>
<path d="M0 0 C0.66 0 1.32 0 2 0 C0.68882339 7.11120489 -1.01720516 14.04699943 -3 21 C-3.66 21 -4.32 21 -5 21 C-5.33 22.32 -5.66 23.64 -6 25 C-6 22.69 -6 20.38 -6 18 C-5.34 18 -4.68 18 -4 18 C-3.896875 17.071875 -3.79375 16.14375 -3.6875 15.1875 C-2.96237678 10.00500168 -1.44330995 5.01981384 0 0 Z " fill="#B1B1B1" transform="translate(565,44)"/>
<path d="M0 0 C1.15355421 3.46066263 0.64439121 4.78535245 -0.84375 8.0234375 C-3.65126425 12.82276929 -7.38774639 16.92516426 -12 20 C-12.99 19.67 -13.98 19.34 -15 19 C-14.34 19 -13.68 19 -13 19 C-13 18.34 -13 17.68 -13 17 C-11.96875 16.38125 -10.9375 15.7625 -9.875 15.125 C-4.52370856 11.53930777 -2.49498682 5.73024444 0 0 Z " fill="#D2D2D2" transform="translate(275,82)"/>
<path d="M0 0 C3.3502463 3.81234923 5.16974789 7.33285711 7 12 C7.99 10.02 8.98 8.04 10 6 C10.66 6.33 11.32 6.66 12 7 C10.68 9.97 9.36 12.94 8 16 C7.34 16 6.68 16 6 16 C5.32645501 14.56570999 4.66140299 13.12742943 4 11.6875 C3.62875 10.88699219 3.2575 10.08648437 2.875 9.26171875 C2 7 2 7 2 4 C1.34 4 0.68 4 0 4 C0 2.68 0 1.36 0 0 Z " fill="#CBCBCB" transform="translate(586,71)"/>
<path d="M0 0 C0.66 0.33 1.32 0.66 2 1 C0.8803014 2.00593243 -0.2459412 3.0045849 -1.375 4 C-2.00148437 4.556875 -2.62796875 5.11375 -3.2734375 5.6875 C-5 7 -5 7 -7 7 C-5.37633534 10.24732932 -2.24612161 10.70155136 1 12 C1 12.66 1 13.32 1 14 C-2.48670834 12.8905928 -5.77484237 11.73662334 -9 10 C-8.62669176 7.27425729 -8.20805399 6.19177915 -6.15234375 4.296875 C-5.42144531 3.78640625 -4.69054687 3.2759375 -3.9375 2.75 C-3.20402344 2.22921875 -2.47054687 1.7084375 -1.71484375 1.171875 C-1.14894531 0.78515625 -0.58304688 0.3984375 0 0 Z " fill="#CCCCCC" transform="translate(133,88)"/>
<path d="M0 0 C0.66 0.33 1.32 0.66 2 1 C-1.96 3.97 -5.92 6.94 -10 10 C-10.33 9.34 -10.66 8.68 -11 8 C-11.66 7.67 -12.32 7.34 -13 7 C-10.88002166 5.80266012 -8.75486324 4.61701287 -6.625 3.4375 C-6.02171875 3.09525391 -5.4184375 2.75300781 -4.796875 2.40039062 C-3.23021759 1.53872905 -1.61709138 0.76281817 0 0 Z " fill="#B5B5B5" transform="translate(150,76)"/>
<path d="M0 0 C5.74640805 0.60488506 5.74640805 0.60488506 8.5625 2.375 C9.875 5.5 9.875 5.5 10.5625 8.375 C9.9025 8.375 9.2425 8.375 8.5625 8.375 C8.459375 7.735625 8.35625 7.09625 8.25 6.4375 C8.023125 5.756875 7.79625 5.07625 7.5625 4.375 C2.75901495 2.77383832 -2.6023862 2.7632954 -7.4375 4.375 C-5.02881548 1.29188382 -3.96676441 0.43273794 0 0 Z " fill="#949494" transform="translate(405.4375,62.625)"/>
<path d="M0 0 C1.00740234 0.25716797 1.00740234 0.25716797 2.03515625 0.51953125 C3.9375 1.1875 3.9375 1.1875 6.9375 3.1875 C6.6075 3.8475 6.2775 4.5075 5.9375 5.1875 C4.90625 4.6925 3.875 4.1975 2.8125 3.6875 C-1.29384346 1.95590938 -4.66286437 1.34228421 -8.9921875 2.8671875 C-10.70481573 3.58938013 -12.38686529 4.38319534 -14.0625 5.1875 C-14.0625 4.5275 -14.0625 3.8675 -14.0625 3.1875 C-5.26639963 -1.41046156 -5.26639963 -1.41046156 0 0 Z " fill="#D2D2D2" transform="translate(152.0625,35.8125)"/>
<path d="M0 0 C2.49361571 1.20381448 4.68143083 2.45428722 7 4 C9.96842658 4.45915507 9.96842658 4.45915507 13.1875 4.625 C14.27417969 4.69976562 15.36085938 4.77453125 16.48046875 4.8515625 C17.72763672 4.92503906 17.72763672 4.92503906 19 5 C18.67 5.66 18.34 6.32 18 7 C7.11542497 7.58079748 7.11542497 7.58079748 2 4 C0.625 1.8125 0.625 1.8125 0 0 Z " fill="#D7D7D7" transform="translate(396,88)"/>
<path d="M0 0 C7.32110622 1.16208035 12.09297127 3.559255 18 8 C17.67 8.66 17.34 9.32 17 10 C16.35933594 9.59007812 15.71867187 9.18015625 15.05859375 8.7578125 C10.08875238 5.66184574 5.73286482 3.24627496 0 2 C0 1.34 0 0.68 0 0 Z " fill="#A0A0A0" transform="translate(251,40)"/>
<path d="M0 0 C2.9719385 1.12451727 5.33440687 2.22293791 8 4 C7.75881648 7.25597758 6.47775788 8.7276304 4.125 10.8125 C3.09375 11.534375 2.0625 12.25625 1 13 C0.01 12.67 -0.98 12.34 -2 12 C0.64 10.02 3.28 8.04 6 6 C2.4472136 3.1490712 2.4472136 3.1490712 0 2 C0 1.34 0 0.68 0 0 Z " fill="#C9C9C9" transform="translate(107,43)"/>
<path d="M0 0 C3.89842585 2.59895057 4.01802664 4.48308886 5.25 8.9375 C5.60578125 10.18402344 5.9615625 11.43054688 6.328125 12.71484375 C7 16 7 16 6 19 C3.27330935 15.00543638 2.24025708 11.41464322 1.3125 6.6875 C1.06113281 5.43324219 0.80976563 4.17898437 0.55078125 2.88671875 C0.36902344 1.93410156 0.18726563 0.98148438 0 0 Z " fill="#A4A4A4" transform="translate(489,47)"/>
<path d="M0 0 C4.62 0 9.24 0 14 0 C17.22265625 5.95703125 17.22265625 5.95703125 18 8 C17.67 8.99 17.34 9.98 17 11 C14.04816899 8.04816899 13.91336012 5.04488053 13 1 C8.71 1 4.42 1 0 1 C0 0.67 0 0.34 0 0 Z " fill="#BDBDBD" transform="translate(566,55)"/>
<path d="M0 0 C0.66 0.33 1.32 0.66 2 1 C0.75945552 2.01170618 -0.4928702 3.00897797 -1.75 4 C-2.44609375 4.556875 -3.1421875 5.11375 -3.859375 5.6875 C-6 7 -6 7 -10 7 C-11.75 5.625 -11.75 5.625 -13 4 C-13 3.34 -13 2.68 -13 2 C-10 3 -10 3 -9 5 C-6.6810321 3.8834599 -4.54511944 2.70757679 -2.375 1.3125 C-1.59125 0.879375 -0.8075 0.44625 0 0 Z " fill="#D1D1D1" transform="translate(675,54)"/>
<path d="M0 0 C1.39195915 4.17587745 -0.17676781 6.13474776 -2 10 C-2.99 10 -3.98 10 -5 10 C-3.35 6.7 -1.7 3.4 0 0 Z " fill="#B0B0B0" transform="translate(275,82)"/>
<path d="M0 0 C0.99 0.33 1.98 0.66 3 1 C-0.75 4 -0.75 4 -3 4 C-3.33 5.32 -3.66 6.64 -4 8 C-4.66 8 -5.32 8 -6 8 C-4.75237172 4.15314615 -3.6129609 1.97070595 0 0 Z " fill="#CDCDCD" transform="translate(458,67)"/>
<path d="M0 0 C4.13875054 1.80852965 5.72133209 4.09371216 8 8 C8 8.66 8 9.32 8 10 C7.34 10 6.68 10 6 10 C4.4921875 7.8125 4.4921875 7.8125 2.875 5 C2.33617187 4.071875 1.79734375 3.14375 1.2421875 2.1875 C0.83226562 1.465625 0.42234375 0.74375 0 0 Z " fill="#DCDCDC" transform="translate(254,55)"/>
<path d="M0 0 C0.66 0.33 1.32 0.66 2 1 C0.54261898 1.98058352 -0.91593675 2.95942132 -2.375 3.9375 C-3.18710938 4.48277344 -3.99921875 5.02804688 -4.8359375 5.58984375 C-7 7 -7 7 -9 8 C-7.60415208 4.62670085 -6.07634389 2.95767338 -3 1 C-2.01 0.67 -1.02 0.34 0 0 Z " fill="#BABABA" transform="translate(226,42)"/>
<path d="M0 0 C3.27286682 2.7819368 4.96427697 6.27954067 7 10 C3.17398693 8.54875366 1.77670876 6.64225296 0 3 C0 2.01 0 1.02 0 0 Z " fill="#BABABA" transform="translate(382,90)"/>
<path d="M0 0 C1.32 0 2.64 0 4 0 C5.42944945 2.35438733 6.08661261 3.48032433 5.625 6.25 C5.41875 6.8275 5.2125 7.405 5 8 C2 3.25 2 3.25 2 1 C1.34 0.67 0.68 0.34 0 0 Z " fill="#C9C9C9" transform="translate(792,66)"/>
<path d="M0 0 C2.475 0.495 2.475 0.495 5 1 C5.66 2.98 6.32 4.96 7 7 C6.34 7 5.68 7 5 7 C4.87625 6.071875 4.87625 6.071875 4.75 5.125 C4.18741541 2.81562433 4.18741541 2.81562433 1.9375 1.75 C1.298125 1.5025 0.65875 1.255 0 1 C0 0.67 0 0.34 0 0 Z " fill="#A3A3A3" transform="translate(409,64)"/>
<path d="M0 0 C1.24546405 2.49092811 0.7767578 3.41080733 0 6 C-0.66 6 -1.32 6 -2 6 C-2.33 7.32 -2.66 8.64 -3 10 C-3 7.69 -3 5.38 -3 3 C-2.34 3 -1.68 3 -1 3 C-0.67 2.01 -0.34 1.02 0 0 Z " fill="#B7B7B7" transform="translate(562,59)"/>
</svg>
