<?xml version="1.0" encoding="UTF-8"?>
<svg version="1.1" xmlns="http://www.w3.org/2000/svg" width="866" height="650">
<path d="M0 0 C17.16 0 34.32 0 52 0 C52.495 2.475 52.495 2.475 53 5 C53.66 5 54.32 5 55 5 C55.50615298 6.26839526 56.00469099 7.53983102 56.5 8.8125 C56.7784375 9.52019531 57.056875 10.22789062 57.34375 10.95703125 C58 13 58 13 58 16 C58.66 16 59.32 16 60 16 C61.67566829 19.66262674 63.34038335 23.33007389 65 27 C65.33 27.72058594 65.66 28.44117188 66 29.18359375 C67.25489625 31.98901085 68 33.88575466 68 37 C68.66 37 69.32 37 70 37 C70.99 40.63 71.98 44.26 73 48 C73.66 48 74.32 48 75 48 C75.50615298 49.26839526 76.00469099 50.53983102 76.5 51.8125 C76.7784375 52.52019531 77.056875 53.22789062 77.34375 53.95703125 C78 56 78 56 78 59 C78.66 59 79.32 59 80 59 C80.495 61.475 80.495 61.475 81 64 C81.66 64 82.32 64 83 64 C83 63.01 83 62.02 83 61 C83.66 61 84.32 61 85 61 C85.18175781 59.92685547 85.18175781 59.92685547 85.3671875 58.83203125 C86.01739166 55.92216696 86.9544648 53.42779268 88.125 50.6875 C88.56457031 49.65496094 89.00414062 48.62242187 89.45703125 47.55859375 C92.28719059 41.03131487 95.13280384 34.51109675 98 28 C98.66 28 99.32 28 100 28 C100.185625 26.6696875 100.185625 26.6696875 100.375 25.3125 C100.94412736 22.29612498 101.76614436 19.79673946 103 17 C103.66 17 104.32 17 105 17 C105.13277344 16.37351563 105.26554687 15.74703125 105.40234375 15.1015625 C105.57894531 14.28429687 105.75554687 13.46703125 105.9375 12.625 C106.11152344 11.81289062 106.28554688 11.00078125 106.46484375 10.1640625 C107 8 107 8 108 6 C108.66 6 109.32 6 110 6 C110.33 4.02 110.66 2.04 111 0 C128.16 0 145.32 0 163 0 C163 6.93 163 13.86 163 21 C159.04 21 155.08 21 151 21 C151 43.11 151 65.22 151 88 C154.96 88 158.92 88 163 88 C163 94.93 163 101.86 163 109 C144.85 109 126.7 109 108 109 C108 102.07 108 95.14 108 88 C112.62 88 117.24 88 122 88 C121.67 73.15 121.34 58.3 121 43 C117.535 50.425 117.535 50.425 114 58 C112.9275 60.289375 111.855 62.57875 110.75 64.9375 C108.6133391 69.56502763 106.69606809 74.19447375 105 79 C104.34 79 103.68 79 103 79 C102.86722656 79.62648438 102.73445313 80.25296875 102.59765625 80.8984375 C102.42105469 81.71570313 102.24445313 82.53296875 102.0625 83.375 C101.88847656 84.18710938 101.71445312 84.99921875 101.53515625 85.8359375 C101 88 101 88 100 90 C99.34 90 98.68 90 98 90 C97.87625 90.7425 97.7525 91.485 97.625 92.25 C97 95 97 95 95 99 C86.09 99 77.18 99 68 99 C65 92 65 92 65 89 C64.34 89 63.68 89 63 89 C59.91228649 82.32528313 56.99209203 75.60550777 54.203125 68.80078125 C53.12836858 66.29883204 51.95607239 63.90760747 50.6875 61.5 C49 58 49 58 49 54 C48.34 54 47.68 54 47 54 C44 47.375 44 47.375 44 44 C43.34 44 42.68 44 42 44 C41.67 58.52 41.34 73.04 41 88 C45.62 88 50.24 88 55 88 C55 94.93 55 101.86 55 109 C36.85 109 18.7 109 0 109 C0 102.07 0 95.14 0 88 C3.96 88 7.92 88 12 88 C12 65.89 12 43.78 12 21 C8.04 21 4.08 21 0 21 C0 14.07 0 7.14 0 0 Z " fill="#FEFEFE" transform="translate(232,160)"/>
<path d="M0 0 C6.17464913 -0.12372902 12.34857456 -0.21440144 18.52416992 -0.2746582 C20.6242327 -0.29978051 22.72420823 -0.33388458 24.82397461 -0.37719727 C27.8451084 -0.43794871 30.86508496 -0.46623263 33.88671875 -0.48828125 C34.82335861 -0.51408768 35.75999847 -0.5398941 36.72502136 -0.56648254 C41.30140503 -0.56844532 43.31033403 -0.54324078 47.00585938 2.36767578 C47.66392578 3.23634277 48.32199219 4.10500977 49 5 C49.66644531 5.85980469 50.33289063 6.71960938 51.01953125 7.60546875 C51.61121094 8.45753906 52.20289063 9.30960938 52.8125 10.1875 C53.41707031 11.04730469 54.02164063 11.90710938 54.64453125 12.79296875 C56 15 56 15 56 17 C56.99 17.33 57.98 17.66 59 18 C59.70151152 19.3153341 60.36525925 20.65117592 61 22 C61.495 22.474375 61.99 22.94875 62.5 23.4375 C64.39903312 25.4156595 65.09899031 27.43558782 66 30 C66.66 30 67.32 30 68 30 C71 34.38461538 71 34.38461538 71 37 C72.485 37.495 72.485 37.495 74 38 C74.70151152 39.3153341 75.36525925 40.65117592 76 42 C76.41121094 42.40734375 76.82242188 42.8146875 77.24609375 43.234375 C79.75496384 45.76000814 81.88784788 48.56409595 84.0625 51.375 C84.50916016 51.93960938 84.95582031 52.50421875 85.41601562 53.0859375 C87.36856216 55.60761195 88.95013695 57.87317065 90.12109375 60.8515625 C90.41113281 61.56054688 90.70117188 62.26953125 91 63 C92.485 63.495 92.485 63.495 94 64 C94.33 49.81 94.66 35.62 95 21 C90.38 21 85.76 21 81 21 C81 14.07 81 7.14 81 0 C99.15 0 117.3 0 136 0 C136 6.6 136 13.2 136 20 C135.67 20.33 135.34 20.66 135 21 C131.37 21 127.74 21 124 21 C124 50.04 124 79.08 124 109 C113.11 109 102.22 109 91 109 C89.68 107.02 88.36 105.04 87 103 C86.2575 101.9275 85.515 100.855 84.75 99.75 C83 97 83 97 83 95 C81.515 94.505 81.515 94.505 80 94 C79.29848848 92.6846659 78.63474075 91.34882408 78 90 C77.505 89.525625 77.01 89.05125 76.5 88.5625 C74.60096688 86.5843405 73.90100969 84.56441218 73 82 C72.34 82 71.68 82 71 82 C68 77.61538462 68 77.61538462 68 75 C66.515 74.505 66.515 74.505 65 74 C63.31640625 71.890625 63.31640625 71.890625 61.5625 69.25 C59.67784571 66.45482707 57.83044183 63.79378061 55.6875 61.1875 C53.90939201 58.88254519 52.94046142 56.74301247 52 54 C51.34 54 50.68 54 50 54 C47 49.61538462 47 49.61538462 47 47 C46.01 46.67 45.02 46.34 44 46 C43.30062468 44.68352881 42.63270867 43.34977849 42 42 C41.01 41.505 41.01 41.505 40 41 C40 56.51 40 72.02 40 88 C44.62 88 49.24 88 54 88 C54 94.93 54 101.86 54 109 C36.18 109 18.36 109 0 109 C0 89 0 89 1 88 C4.96 88 8.92 88 13 88 C13 65.89 13 43.78 13 21 C9.04 21 5.08 21 1 21 C0 20 0 20 -0.11352539 18.05053711 C-0.10567017 16.8015564 -0.10567017 16.8015564 -0.09765625 15.52734375 C-0.09443359 14.62822266 -0.09121094 13.72910156 -0.08789062 12.80273438 C-0.07951172 11.85720703 -0.07113281 10.91167969 -0.0625 9.9375 C-0.05798828 8.98810547 -0.05347656 8.03871094 -0.04882812 7.06054688 C-0.0370011 4.70696935 -0.02052025 2.35351523 0 0 Z " fill="#FEFEFE" transform="translate(539,160)"/>
<path d="M0 0 C18.81 0 37.62 0 57 0 C57 7.26 57 14.52 57 22 C52.38 22 47.76 22 43 22 C43 29.26 43 36.52 43 44 C58.84 44 74.68 44 91 44 C91 36.74 91 29.48 91 22 C88.710625 22.020625 86.42125 22.04125 84.0625 22.0625 C81.70833668 22.08370868 79.35313555 22.07271741 77 22 C75.41062444 20.41062444 75.87018857 18.76100154 75.8671875 16.5625 C75.86589844 15.66789062 75.86460937 14.77328125 75.86328125 13.8515625 C75.86714844 12.91054688 75.87101563 11.96953125 75.875 11 C75.87113281 10.05898438 75.86726562 9.11796875 75.86328125 8.1484375 C75.86457031 7.25382812 75.86585938 6.35921875 75.8671875 5.4375 C75.86831543 4.61121094 75.86944336 3.78492188 75.87060547 2.93359375 C76 1 76 1 77 0 C78.7492872 -0.09365006 80.50236254 -0.11744438 82.25415039 -0.11352539 C83.37523697 -0.11344986 84.49632355 -0.11337433 85.65138245 -0.11329651 C87.48103798 -0.10555458 87.48103798 -0.10555458 89.34765625 -0.09765625 C91.2100016 -0.09553383 91.2100016 -0.09553383 93.10997009 -0.09336853 C96.41605491 -0.08870591 99.72207146 -0.07971497 103.02813721 -0.06866455 C106.3996115 -0.05844827 109.77109283 -0.05387045 113.14257812 -0.04882812 C119.76174018 -0.03777395 126.38086071 -0.0204966 133 0 C133 7.26 133 14.52 133 22 C128.71 22 124.42 22 120 22 C120 44.11 120 66.22 120 89 C124.29 89 128.58 89 133 89 C133 95.93 133 102.86 133 110 C114.19 110 95.38 110 76 110 C76 103.07 76 96.14 76 89 C80.95 89 85.9 89 91 89 C91 81.08 91 73.16 91 65 C75.16 65 59.32 65 43 65 C43 72.92 43 80.84 43 89 C47.62 89 52.24 89 57 89 C57 95.93 57 102.86 57 110 C38.19 110 19.38 110 0 110 C0 103.07 0 96.14 0 89 C3.96 89 7.92 89 12 89 C12 66.89 12 44.78 12 22 C8.04 22 4.08 22 0 22 C0 14.74 0 7.48 0 0 Z " fill="#FEFEFE" transform="translate(439,301)"/>
<path d="M0 0 C1.08096954 0.00007553 2.16193909 0.00015106 3.27566528 0.00022888 C5.03195755 0.00797081 5.03195755 0.00797081 6.82373047 0.01586914 C8.019487 0.01728409 9.21524353 0.01869904 10.44723511 0.02015686 C14.27848784 0.02576876 18.10968281 0.03832331 21.94091797 0.05102539 C24.53336504 0.05603886 27.12581303 0.06060203 29.71826172 0.06469727 C36.0841695 0.07574206 42.45003393 0.09301471 48.81591797 0.11352539 C48.81591797 6.71352539 48.81591797 13.31352539 48.81591797 20.11352539 C44.52591797 20.11352539 40.23591797 20.11352539 35.81591797 20.11352539 C36.14591797 28.69352539 36.47591797 37.27352539 36.81591797 46.11352539 C38.52779297 44.73165039 40.23966797 43.34977539 42.00341797 41.92602539 C43.4478125 40.76006836 43.4478125 40.76006836 44.92138672 39.57055664 C47.87123928 37.14352632 47.87123928 37.14352632 50.55419922 34.31274414 C52.81591797 32.11352539 52.81591797 32.11352539 54.81591797 32.11352539 C54.81591797 31.45352539 54.81591797 30.79352539 54.81591797 30.11352539 C56.93310547 28.16821289 56.93310547 28.16821289 59.69091797 25.98852539 C60.59583984 25.26407227 61.50076172 24.53961914 62.43310547 23.79321289 C64.81591797 22.11352539 64.81591797 22.11352539 66.81591797 22.11352539 C66.81591797 21.45352539 66.81591797 20.79352539 66.81591797 20.11352539 C64.17591797 20.11352539 61.53591797 20.11352539 58.81591797 20.11352539 C58.81591797 13.51352539 58.81591797 6.91352539 58.81591797 0.11352539 C76.96591797 0.11352539 95.11591797 0.11352539 113.81591797 0.11352539 C113.81591797 7.37352539 113.81591797 14.63352539 113.81591797 22.11352539 C111.27904297 22.20633789 111.27904297 22.20633789 108.69091797 22.30102539 C103.26777004 22.81850134 100.60461897 24.31578214 96.81591797 28.11352539 C95.09887234 29.54485907 93.36820274 30.95991906 91.62841797 32.36352539 C90.68998047 33.13438477 89.75154297 33.90524414 88.78466797 34.69946289 C86.75530613 36.34965449 84.71939164 37.97918055 82.65966797 39.59008789 C81.65935547 40.38157227 80.65904297 41.17305664 79.62841797 41.98852539 C78.70673828 42.70782227 77.78505859 43.42711914 76.83544922 44.16821289 C75.83578125 45.13114258 75.83578125 45.13114258 74.81591797 46.11352539 C74.81591797 47.10352539 74.81591797 48.09352539 74.81591797 49.11352539 C76.30091797 49.60852539 76.30091797 49.60852539 77.81591797 50.11352539 C78.48258464 51.78019206 79.1492513 53.44685872 79.81591797 55.11352539 C81.30091797 55.60852539 81.30091797 55.60852539 82.81591797 56.11352539 C84.64013672 58.32836914 84.64013672 58.32836914 86.50341797 61.05102539 C87.43734375 62.39487305 87.43734375 62.39487305 88.39013672 63.76586914 C89.81591797 66.11352539 89.81591797 66.11352539 89.81591797 68.11352539 C90.45529297 68.38165039 91.09466797 68.64977539 91.75341797 68.92602539 C93.81591797 70.11352539 93.81591797 70.11352539 94.81591797 73.11352539 C96.12386128 74.47177421 97.4608302 75.80230737 98.81591797 77.11352539 C100.092129 78.63356536 101.3426996 80.17552414 102.56591797 81.73852539 C103.17951172 82.51454102 103.79310547 83.29055664 104.42529297 84.09008789 C105.81591797 86.11352539 105.81591797 86.11352539 105.81591797 88.11352539 C111.42591797 88.44352539 117.03591797 88.77352539 122.81591797 89.11352539 C122.81591797 96.04352539 122.81591797 102.97352539 122.81591797 110.11352539 C117.54391091 110.36738176 112.2932932 110.58560517 107.02001953 110.71777344 C105.23087567 110.77285632 103.44222184 110.84775611 101.65478516 110.94335938 C86.80097728 111.71751268 86.80097728 111.71751268 81.81201172 107.6862793 C76.81591797 100.94001073 76.81591797 100.94001073 76.81591797 97.11352539 C75.33091797 96.61852539 75.33091797 96.61852539 73.81591797 96.11352539 C72.62841797 93.55102539 72.62841797 93.55102539 71.81591797 91.11352539 C71.15591797 91.11352539 70.49591797 91.11352539 69.81591797 91.11352539 C66.81591797 86.72891001 66.81591797 86.72891001 66.81591797 84.11352539 C66.15591797 84.11352539 65.49591797 84.11352539 64.81591797 84.11352539 C63.08707337 81.89538515 61.4692485 79.6774607 59.87841797 77.36352539 C58.99463429 76.0976693 58.11052779 74.83203852 57.22607422 73.56665039 C56.81115723 72.96916992 56.39624023 72.37168945 55.96875 71.75610352 C54.62603742 69.84297979 53.23618274 67.96971301 51.81591797 66.11352539 C49.50278902 67.92522768 47.1903892 69.73784678 44.87841797 71.55102539 C44.2190625 72.06729492 43.55970703 72.58356445 42.88037109 73.11547852 C42.25195312 73.60854492 41.62353516 74.10161133 40.97607422 74.60961914 C40.3947876 75.06522217 39.81350098 75.5208252 39.21459961 75.99023438 C36.97153967 77.71388379 36.97153967 77.71388379 36.49951172 80.61743164 C36.41830078 81.62676758 36.33708984 82.63610352 36.25341797 83.67602539 C36.10904297 85.47040039 35.96466797 87.26477539 35.81591797 89.11352539 C40.10591797 89.11352539 44.39591797 89.11352539 48.81591797 89.11352539 C49.62774537 92.36083501 49.91111468 94.05064027 49.69482422 97.22290039 C49.62231445 98.35405273 49.62231445 98.35405273 49.54833984 99.50805664 C49.49226563 100.28536133 49.43619141 101.06266602 49.37841797 101.86352539 C49.32621094 102.65629883 49.27400391 103.44907227 49.22021484 104.26586914 C49.09102473 106.21546536 48.95421832 108.16455425 48.81591797 110.11352539 C41.00139045 110.13879102 33.18687339 110.15635644 25.37231445 110.16845703 C22.71150316 110.17349922 20.05069465 110.18033275 17.38989258 110.18896484 C13.57486281 110.20103548 9.75986953 110.20675468 5.94482422 110.21118164 C4.14797935 110.21892357 4.14797935 110.21892357 2.31483459 110.2268219 C0.66323586 110.2269352 0.66323586 110.2269352 -1.02172852 110.22705078 C-1.996577 110.22927139 -2.97142548 110.231492 -3.97581482 110.23377991 C-6.18408203 110.11352539 -6.18408203 110.11352539 -7.18408203 109.11352539 C-7.28268334 107.71003804 -7.3148714 106.30172062 -7.31689453 104.89477539 C-7.31818359 104.0452832 -7.31947266 103.19579102 -7.32080078 102.32055664 C-7.31693359 101.42723633 -7.31306641 100.53391602 -7.30908203 99.61352539 C-7.31294922 98.72020508 -7.31681641 97.82688477 -7.32080078 96.90649414 C-7.31951172 96.05700195 -7.31822266 95.20750977 -7.31689453 94.33227539 C-7.3157666 93.54788086 -7.31463867 92.76348633 -7.31347656 91.95532227 C-7.18408203 90.11352539 -7.18408203 90.11352539 -6.18408203 89.11352539 C-2.22408203 89.11352539 1.73591797 89.11352539 5.81591797 89.11352539 C5.81591797 67.00352539 5.81591797 44.89352539 5.81591797 22.11352539 C1.85591797 22.11352539 -2.10408203 22.11352539 -6.18408203 22.11352539 C-7.35834467 19.76500011 -7.29916376 18.37578474 -7.28173828 15.76196289 C-7.27851562 14.91118164 -7.27529297 14.06040039 -7.27197266 13.18383789 C-7.26359375 12.29438477 -7.25521484 11.40493164 -7.24658203 10.48852539 C-7.24207031 9.59133789 -7.23755859 8.69415039 -7.23291016 7.76977539 C-7.22110794 5.55095891 -7.20464359 3.33227521 -7.18408203 1.11352539 C-4.63469388 -0.16116868 -2.85367205 -0.00663645 0 0 Z " fill="#FEFEFE" transform="translate(57.18408203125,300.886474609375)"/>
<path d="M0 0 C9.10959489 -0.0225528 18.21917137 -0.04091611 27.3287878 -0.05181217 C31.55831371 -0.05704056 35.7878196 -0.0641374 40.01733398 -0.07543945 C44.09568543 -0.08626991 48.17401757 -0.09227717 52.25238228 -0.09487724 C53.81177639 -0.09673121 55.3711694 -0.10035127 56.93055534 -0.10573006 C59.10729162 -0.11294262 61.28394714 -0.11399085 63.46069336 -0.11352539 C65.32267616 -0.11685631 65.32267616 -0.11685631 67.22227478 -0.12025452 C70 0 70 0 71 1 C72.70100391 1.35020669 74.41144686 1.65502053 76.125 1.9375 C80.53490378 2.70218996 84.72938925 3.67136555 89 5 C89 5.66 89 6.32 89 7 C89.886875 7.226875 90.77375 7.45375 91.6875 7.6875 C95.54970013 9.21780571 97.3779133 10.79522737 100 14 C101.3125 17.3125 101.3125 17.3125 102 20 C102.66 20 103.32 20 104 20 C105.7691279 25.32844473 106.3097038 29.96526879 106.25 35.5625 C106.26160156 36.65594727 106.26160156 36.65594727 106.2734375 37.77148438 C106.25739185 42.22816339 105.67116317 45.80219728 104 50 C103.34 50 102.68 50 102 50 C101.9175 50.61875 101.835 51.2375 101.75 51.875 C100.76174558 54.67505419 99.59640015 54.74113932 97 56 C96.67 56.680625 96.34 57.36125 96 58.0625 C95 60 95 60 92.875 60.75 C92.25625 60.8325 91.6375 60.915 91 61 C91 61.66 91 62.32 91 63 C90.34 63.66 89.68 64.32 89 65 C89.495 65.763125 89.99 66.52625 90.5 67.3125 C92 70 92 70 92 73 C93.485 73.495 93.485 73.495 95 74 C96.1875 77.0625 96.1875 77.0625 97 80 C97.66 80 98.32 80 99 80 C102 85.75 102 85.75 102 88 C107.61 88.33 113.22 88.66 119 89 C119 95.93 119 102.86 119 110 C113.6418127 110.11476365 108.28788043 110.21429913 102.92944336 110.2746582 C101.10670533 110.29981397 99.28406828 110.33394285 97.46166992 110.37719727 C94.84268307 110.43780546 92.22502847 110.46619761 89.60546875 110.48828125 C88.78974899 110.51408768 87.97402924 110.5398941 87.1335907 110.56648254 C84.82885742 110.56762695 84.82885742 110.56762695 81 110 C78.51883459 107.14726914 78 105.77467317 78 102 C76.515 101.505 76.515 101.505 75 101 C73.94535351 99.0282696 72.95394836 97.02237052 72 95 C71.278125 93.948125 70.55625 92.89625 69.8125 91.8125 C68 89 68 89 68 86 C67.34 86 66.68 86 66 86 C65.04078278 84.25048432 64.08266183 82.50036756 63.125 80.75 C62.59132813 79.77546875 62.05765625 78.8009375 61.5078125 77.796875 C60 75 60 75 59.28125 72.6875 C57.99210164 70.59244957 57.99210164 70.59244957 54.5234375 70.390625 C53.1416042 70.32059344 51.75831201 70.27855795 50.375 70.25 C47.94125 70.1675 45.5075 70.085 43 70 C43 76.27 43 82.54 43 89 C47.29 89 51.58 89 56 89 C56 95.93 56 102.86 56 110 C37.52 110 19.04 110 0 110 C0 103.07 0 96.14 0 89 C3.96 89 7.92 89 12 89 C12 67.22 12 45.44 12 23 C8.04 22.67 4.08 22.34 0 22 C0 14.74 0 7.48 0 0 Z M43 20 C43 29.57 43 39.14 43 49 C58.26444446 50.71965942 58.26444446 50.71965942 72.3125 45.4375 C75.31369894 42.34535563 76.00492199 39.34717075 76.1328125 35.10546875 C75.8460858 30.56000716 74.61439999 28.62938536 71.4375 25.375 C62.78652741 18.8299921 53.34320492 19.73924693 43 20 Z " fill="#FEFEFE" transform="translate(696,301)"/>
<path d="M0 0 C1.51013672 -0.00580078 1.51013672 -0.00580078 3.05078125 -0.01171875 C10.28145856 -0.00224211 16.77351753 0.24376918 23.5 3.125 C25.43000283 3.6928011 27.36786025 4.23455332 29.3125 4.75 C30.28832031 5.01039063 31.26414062 5.27078125 32.26953125 5.5390625 C33.00558594 5.73242188 33.74164063 5.92578125 34.5 6.125 C34.5 6.785 34.5 7.445 34.5 8.125 C35.20511719 8.19847656 35.91023438 8.27195313 36.63671875 8.34765625 C40.31480428 9.3462088 42.39900782 11.12483921 45.3125 13.5625 C46.28832031 14.36558594 47.26414062 15.16867188 48.26953125 15.99609375 C49.00558594 16.69863281 49.74164062 17.40117187 50.5 18.125 C50.5 18.785 50.5 19.445 50.5 20.125 C51.985 20.62 51.985 20.62 53.5 21.125 C62.71959559 31.91807324 64.67965384 43.88663451 64.6875 57.5625 C64.69974609 58.68205078 64.71199219 59.80160156 64.72460938 60.95507812 C64.73433579 66.41807866 64.69180576 71.03136689 62.5 76.125 C62.18160156 77.10082031 61.86320313 78.07664062 61.53515625 79.08203125 C61.21417969 80.02433594 60.89320313 80.96664062 60.5625 81.9375 C60.24410156 82.89269531 59.92570313 83.84789062 59.59765625 84.83203125 C59.23542969 85.58871094 58.87320313 86.34539062 58.5 87.125 C57.015 87.62 57.015 87.62 55.5 88.125 C55.14712665 89.45329563 54.81704274 90.78769944 54.5 92.125 C53.01171875 94.16015625 53.01171875 94.16015625 51.1875 96.1875 C50.59324219 96.85910156 49.99898437 97.53070313 49.38671875 98.22265625 C47.51623501 100.10863054 45.73719408 101.69158823 43.5 103.125 C42.51 103.125 41.52 103.125 40.5 103.125 C40.005 104.61 40.005 104.61 39.5 106.125 C31.63219341 111.1018451 21.59570257 112.93860401 12.5 114.125 C12.17 114.455 11.84 114.785 11.5 115.125 C9.80441274 115.22432153 8.10474253 115.25580007 6.40625 115.2578125 C5.37628906 115.25910156 4.34632813 115.26039063 3.28515625 115.26171875 C1.65900391 115.25591797 1.65900391 115.25591797 0 115.25 C-1.08410156 115.25386719 -2.16820312 115.25773437 -3.28515625 115.26171875 C-4.31511719 115.26042969 -5.34507812 115.25914062 -6.40625 115.2578125 C-7.35822266 115.25668457 -8.31019531 115.25555664 -9.29101562 115.25439453 C-11.5 115.125 -11.5 115.125 -12.5 114.125 C-15.12288853 113.58516612 -17.73849975 113.088107 -20.375 112.625 C-28.12922932 111.24859023 -28.12922932 111.24859023 -31.5 110.125 C-31.5 109.465 -31.5 108.805 -31.5 108.125 C-32.86125 107.939375 -32.86125 107.939375 -34.25 107.75 C-38.91989861 106.85194257 -41.21150966 105.41349034 -44.5 102.125 C-45.7687435 101.08078894 -47.0397319 100.03930177 -48.3125 99 C-53.93649979 94.10234705 -58.35522838 88.62522786 -59.5 81.125 C-60.16 81.125 -60.82 81.125 -61.5 81.125 C-65.81841463 65.59927122 -66.24457707 49.60135853 -61.5 34.125 C-60.84 34.125 -60.18 34.125 -59.5 34.125 C-59.396875 33.403125 -59.29375 32.68125 -59.1875 31.9375 C-57.82856866 26.37823544 -54.27361797 22.28565572 -50.5 18.125 C-49.84 18.125 -49.18 18.125 -48.5 18.125 C-48.2525 17.485625 -48.005 16.84625 -47.75 16.1875 C-46.5 14.125 -46.5 14.125 -44.4375 13.5625 C-43.4784375 13.3459375 -43.4784375 13.3459375 -42.5 13.125 C-42.17 12.135 -41.84 11.145 -41.5 10.125 C-34.74047185 5.68453024 -26.66389514 2.61475655 -18.5 3.125 C-18.5 2.465 -18.5 1.805 -18.5 1.125 C-12.31691979 0.03080322 -6.26907488 -0.02408095 0 0 Z M-14.5 27.125 C-14.5 27.785 -14.5 28.445 -14.5 29.125 C-15.263125 29.24875 -16.02625 29.3725 -16.8125 29.5 C-19.70267136 30.00602792 -19.70267136 30.00602792 -22.5 32.125 C-22.5 32.785 -22.5 33.445 -22.5 34.125 C-23.49 34.125 -24.48 34.125 -25.5 34.125 C-32.35185059 42.00462818 -34.04077283 50.5751754 -33.796875 60.85546875 C-33.35062619 65.77007738 -32.40118209 70.55518617 -30.5 75.125 C-29.84 75.455 -29.18 75.785 -28.5 76.125 C-28.066875 76.888125 -27.63375 77.65125 -27.1875 78.4375 C-23.83946827 83.76955054 -19.68576842 85.66740581 -13.75 87.3125 C-7.574883 89.050117 -7.574883 89.050117 -6.5 90.125 C1.20946193 90.71368138 7.48877471 90.38884625 14.5 87.125 C16.294375 86.444375 16.294375 86.444375 18.125 85.75 C22.6446015 83.57389558 26.41822268 81.54476505 28.5390625 76.80078125 C29.28215657 74.58886106 29.93769171 72.38903073 30.5 70.125 C31.16 70.125 31.82 70.125 32.5 70.125 C33.51965824 65.91688662 33.63364501 61.94750521 33.625 57.625 C33.62757813 56.3359375 33.63015625 55.046875 33.6328125 53.71875 C33.52135753 50.70290967 33.20804225 48.04707912 32.5 45.125 C31.84 45.125 31.18 45.125 30.5 45.125 C30.37625 44.3825 30.2525 43.64 30.125 42.875 C28.80858726 37.08278393 26.25309815 34.7373546 21.5 31.125 C18.73640286 29.46684172 17.78396216 29.125 14.5 29.125 C14.5 28.465 14.5 27.805 14.5 27.125 C4.1353405 24.99109951 -4.13761256 24.74674714 -14.5 27.125 Z " fill="#FEFEFE" transform="translate(467.5,156.875)"/>
<path d="M0 0 C0.97484848 0.00222061 1.94969696 0.00444122 2.9540863 0.00672913 C4.05515213 0.00680466 5.15621796 0.00688019 6.29064941 0.00695801 C8.08749428 0.01469994 8.08749428 0.01469994 9.92063904 0.02259827 C11.14000656 0.02401321 12.35937408 0.02542816 13.61569214 0.02688599 C17.52856349 0.03250485 21.4413786 0.04506055 25.35423279 0.05775452 C27.99941426 0.06276709 30.64459662 0.06733041 33.28977966 0.07142639 C39.79045253 0.08248041 46.29108311 0.09975768 52.79173279 0.12025452 C52.79173279 7.38025452 52.79173279 14.64025452 52.79173279 22.12025452 C48.50173279 22.12025452 44.21173279 22.12025452 39.79173279 22.12025452 C39.86083417 29.36139202 39.94891185 36.60196447 40.05418396 43.84266663 C40.08733191 46.30321458 40.11539501 48.76383672 40.13816833 51.22450256 C40.17190034 54.77210449 40.22422707 58.31903275 40.28001404 61.86634827 C40.28640396 62.95733322 40.29279388 64.04831818 40.29937744 65.17236328 C40.42307952 71.67425913 41.29299986 77.0993171 43.79173279 83.12025452 C44.45173279 83.24400452 45.11173279 83.36775452 45.79173279 83.49525452 C49.48871861 84.2654599 53.13179221 85.18976115 56.79173279 86.12025452 C56.79173279 86.78025452 56.79173279 87.44025452 56.79173279 88.12025452 C60.09173279 88.12025452 63.39173279 88.12025452 66.79173279 88.12025452 C66.79173279 87.46025452 66.79173279 86.80025452 66.79173279 86.12025452 C70.75173279 85.13025452 74.71173279 84.14025452 78.79173279 83.12025452 C78.79173279 82.46025452 78.79173279 81.80025452 78.79173279 81.12025452 C79.45173279 81.12025452 80.11173279 81.12025452 80.79173279 81.12025452 C83.3717601 75.19071807 83.14080204 69.2892233 83.20579529 62.94056702 C83.22516144 61.77266632 83.24452759 60.60476563 83.26448059 59.401474 C83.3241094 55.68280773 83.37059552 51.96411024 83.41673279 48.24525452 C83.45492788 45.71919959 83.4939805 43.19315746 83.53392029 40.66712952 C83.62979746 34.48494228 83.71389063 28.30269408 83.79173279 22.12025452 C79.50173279 22.12025452 75.21173279 22.12025452 70.79173279 22.12025452 C70.79173279 14.86025452 70.79173279 7.60025452 70.79173279 0.12025452 C78.60626493 0.09561495 86.42077467 0.07742347 94.2353363 0.06532288 C96.8961476 0.06028069 99.55695611 0.05344716 102.21775818 0.04481506 C106.03278795 0.03274443 109.84778122 0.02702522 113.66282654 0.02259827 C114.86072311 0.01743698 116.05861969 0.0122757 117.29281616 0.00695801 C118.9444149 0.00684471 118.9444149 0.00684471 120.62937927 0.00672913 C121.60422775 0.00450851 122.57907623 0.0022879 123.58346558 0 C125.79173279 0.12025452 125.79173279 0.12025452 126.79173279 1.12025452 C126.87858882 2.68198197 126.89875498 4.24754796 126.88938904 5.81166077 C126.88616638 6.75589905 126.88294373 7.70013733 126.87962341 8.67298889 C126.87124451 9.66621155 126.8628656 10.6594342 126.85423279 11.68275452 C126.84972107 12.67984436 126.84520935 13.6769342 126.84056091 14.70423889 C126.82873302 17.17626939 126.81079694 19.64826924 126.79173279 22.12025452 C122.50173279 22.12025452 118.21173279 22.12025452 113.79173279 22.12025452 C113.80220642 23.76952942 113.81268005 25.41880432 113.82347107 27.11805725 C113.85979072 33.26256625 113.88267685 39.40706582 113.90159607 45.551651 C113.91049225 48.20635291 113.92525334 50.86083679 113.94261169 53.51551819 C113.96699039 57.34082251 113.9782459 61.16598017 113.98704529 64.99134827 C113.99736786 66.16982834 114.00769043 67.34830841 114.01832581 68.5625 C114.01920424 75.07815383 113.48271396 80.82149592 111.79173279 87.12025452 C111.13173279 87.12025452 110.47173279 87.12025452 109.79173279 87.12025452 C109.66798279 87.86275452 109.54423279 88.60525452 109.41673279 89.37025452 C108.21252284 94.66877827 105.83520257 97.47126959 101.79173279 101.12025452 C100.30673279 101.61525452 100.30673279 101.61525452 98.79173279 102.12025452 C98.79173279 102.78025452 98.79173279 103.44025452 98.79173279 104.12025452 C93.16673279 107.12025452 93.16673279 107.12025452 89.79173279 107.12025452 C89.79173279 107.78025452 89.79173279 108.44025452 89.79173279 109.12025452 C72.51817486 114.57506228 47.66425392 115.56723529 30.96751404 107.80775452 C28.83704856 106.65932596 26.80181817 105.46562912 24.79173279 104.12025452 C24.79173279 103.46025452 24.79173279 102.80025452 24.79173279 102.12025452 C24.15235779 101.85212952 23.51298279 101.58400452 22.85423279 101.30775452 C20.79173279 100.12025452 20.79173279 100.12025452 19.79173279 97.12025452 C19.13173279 96.83150452 18.47173279 96.54275452 17.79173279 96.24525452 C15.79173279 95.12025452 15.79173279 95.12025452 15.04173279 92.49525452 C14.95923279 91.71150452 14.87673279 90.92775452 14.79173279 90.12025452 C14.13173279 90.12025452 13.47173279 90.12025452 12.79173279 90.12025452 C10.01292297 81.81703977 9.3853466 74.29412628 9.49876404 65.57728577 C9.50300888 64.32767563 9.50725372 63.07806549 9.5116272 61.79058838 C9.52546551 58.5074903 9.55230117 55.22485522 9.58573914 51.94190979 C9.61671867 48.57628472 9.63019137 45.21059119 9.64524841 41.84486389 C9.67815087 35.26981682 9.72822397 28.69507343 9.79173279 22.12025452 C8.93708435 22.13185608 8.08243591 22.14345764 7.20188904 22.15541077 C6.09716248 22.1644342 4.99243591 22.17345764 3.85423279 22.18275452 C2.75208435 22.19435608 1.64993591 22.20595764 0.51438904 22.21791077 C-2.20826721 22.12025452 -2.20826721 22.12025452 -3.20826721 21.12025452 C-3.30707518 19.64372788 -3.33905967 18.16258216 -3.34107971 16.68275452 C-3.34236877 15.78814514 -3.34365784 14.89353577 -3.34498596 13.97181702 C-3.33918518 12.56029358 -3.33918518 12.56029358 -3.33326721 11.12025452 C-3.3371344 10.17923889 -3.34100159 9.23822327 -3.34498596 8.26869202 C-3.3436969 7.37408264 -3.34240784 6.47947327 -3.34107971 5.55775452 C-3.33938782 4.31832092 -3.33938782 4.31832092 -3.33766174 3.05384827 C-3.15039069 0.25538269 -2.80162698 0.15256682 0 0 Z " fill="#FEFEFE" transform="translate(180.20826721191406,300.87974548339844)"/>
<path d="M0 0 C0.86818359 -0.00386719 1.73636719 -0.00773438 2.63085938 -0.01171875 C7.54854607 -0.00428461 12.21465056 0.2939401 17.0625 1.125 C17.0625 1.785 17.0625 2.445 17.0625 3.125 C18.3 3.24875 19.5375 3.3725 20.8125 3.5 C23.9387197 3.88246305 26.35129237 4.43049523 29.0625 6.125 C29.0625 5.135 29.0625 4.145 29.0625 3.125 C36.6525 3.125 44.2425 3.125 52.0625 3.125 C52.0625 15.995 52.0625 28.865 52.0625 42.125 C44.1425 42.125 36.2225 42.125 28.0625 42.125 C27.0725 38.495 26.0825 34.865 25.0625 31.125 C20.3840041 25.33843928 13.23316042 23.41030706 6.0625 22.125 C2.4985884 22.24649699 -0.56420018 23.00613323 -3.9375 24.125 C-4.80117187 24.39441406 -5.66484375 24.66382813 -6.5546875 24.94140625 C-8.69783002 25.63241949 -10.82059701 26.35800616 -12.9375 27.125 C-13.52952112 32.99258632 -13.52952112 32.99258632 -10.8125 38 C-7.87687694 40.16980835 -5.4564709 41.22479814 -1.9375 42.125 C-1.9375 42.785 -1.9375 43.445 -1.9375 44.125 C-1.10089844 44.17398438 -0.26429687 44.22296875 0.59765625 44.2734375 C26.33200153 45.92636333 26.33200153 45.92636333 35.0625 50.125 C36.08859375 50.59421875 37.1146875 51.0634375 38.171875 51.546875 C44.47814325 54.53717121 44.47814325 54.53717121 47.0625 56.125 C47.3925 57.115 47.7225 58.105 48.0625 59.125 C48.69800781 59.43566406 49.33351563 59.74632812 49.98828125 60.06640625 C52.55139631 61.37451205 53.07079892 62.47788376 54.25 65.0625 C54.57355469 65.75214844 54.89710938 66.44179687 55.23046875 67.15234375 C57.04530597 71.45512684 57.27890432 75.27239166 57.3125 79.875 C57.333125 80.5659375 57.35375 81.256875 57.375 81.96875 C57.44046663 90.67581157 53.42746697 97.06724572 47.9375 103.6875 C39.25931181 111.04509434 29.23983624 113.59072234 18.0625 113.125 C18.0625 113.785 18.0625 114.445 18.0625 115.125 C14.58335059 115.15387814 11.10423169 115.17175687 7.625 115.1875 C6.13516602 115.20006836 6.13516602 115.20006836 4.61523438 115.21289062 C3.19887695 115.21772461 3.19887695 115.21772461 1.75390625 115.22265625 C0.87935791 115.22789307 0.00480957 115.23312988 -0.89624023 115.23852539 C-2.9375 115.125 -2.9375 115.125 -3.9375 114.125 C-6.41436461 113.5869326 -8.88431284 113.0895603 -11.375 112.625 C-18.67635587 111.25557207 -18.67635587 111.25557207 -20.9375 110.125 C-20.9375 109.465 -20.9375 108.805 -20.9375 108.125 C-21.9275 108.125 -22.9175 108.125 -23.9375 108.125 C-24.2675 109.445 -24.5975 110.765 -24.9375 112.125 C-32.5275 112.125 -40.1175 112.125 -47.9375 112.125 C-47.9375 98.925 -47.9375 85.725 -47.9375 72.125 C-40.0175 72.125 -32.0975 72.125 -23.9375 72.125 C-23.2775 75.095 -22.6175 78.065 -21.9375 81.125 C-19.7160857 84.60521573 -17.79352368 86.61013355 -13.9375 88.125 C-13.9375 88.785 -13.9375 89.445 -13.9375 90.125 C-12.4215625 90.3415625 -12.4215625 90.3415625 -10.875 90.5625 C-8.41322275 90.91418246 -5.95413065 91.28591498 -3.5 91.6875 C2.80468092 92.46175906 8.6437469 92.17223329 14.9375 91.4375 C16.04867187 91.30988281 17.15984375 91.18226563 18.3046875 91.05078125 C21.29638799 90.39705288 21.29638799 90.39705288 22.4453125 87.54296875 C22.64898437 86.74503906 22.85265625 85.94710937 23.0625 85.125 C23.7225 85.125 24.3825 85.125 25.0625 85.125 C23.85296472 80.69003729 22.71057815 77.98430449 19.0625 75.125 C13.36763035 72.25157816 7.98159624 71.30156363 1.6875 70.5 C-0.11245309 70.26136024 -1.91196489 70.01935946 -3.7109375 69.7734375 C-4.89308838 69.62140869 -4.89308838 69.62140869 -6.09912109 69.46630859 C-7.9375 69.125 -7.9375 69.125 -8.9375 68.125 C-11.22573213 67.7097725 -13.51829225 67.31832925 -15.8125 66.9375 C-23.0057215 65.64242678 -28.7586536 63.09436287 -34.9375 59.125 C-34.9375 58.465 -34.9375 57.805 -34.9375 57.125 C-35.55625 57.0425 -36.175 56.96 -36.8125 56.875 C-38.9375 56.125 -38.9375 56.125 -40 54.25 C-40.309375 53.54875 -40.61875 52.8475 -40.9375 52.125 C-41.4325 51.691875 -41.9275 51.25875 -42.4375 50.8125 C-46.98902114 45.69203872 -46.28255507 38.07968082 -46.20703125 31.66015625 C-45.84113433 26.86107346 -44.66921131 22.59858756 -42.9375 18.125 C-42.2775 18.125 -41.6175 18.125 -40.9375 18.125 C-40.6796875 17.53203125 -40.421875 16.9390625 -40.15625 16.328125 C-38.83980105 13.94839035 -37.51169218 12.61521208 -35.4375 10.875 C-34.8290625 10.35421875 -34.220625 9.8334375 -33.59375 9.296875 C-31.9375 8.125 -31.9375 8.125 -29.9375 8.125 C-29.9375 7.465 -29.9375 6.805 -29.9375 6.125 C-20.52747722 2.68080866 -20.52747722 2.68080866 -15.9375 3.125 C-15.9375 2.465 -15.9375 1.805 -15.9375 1.125 C-10.59428225 0.01950667 -5.42826176 -0.02407211 0 0 Z " fill="#FEFEFE" transform="translate(98.9375,156.875)"/>
<path d="M0 0 C1.13795344 0.00138269 1.13795344 0.00138269 2.29889584 0.00279331 C3.16692837 0.00141865 4.0349609 0.00004398 4.92929745 -0.00137234 C5.88882824 0.00222294 6.84835903 0.00581821 7.83696651 0.00952244 C8.84173031 0.00937641 9.8464941 0.00923038 10.88170528 0.00907993 C14.22024817 0.00977953 17.55873604 0.01757409 20.89726925 0.02539158 C23.20512518 0.02725559 25.51298151 0.02867957 27.82083797 0.0296793 C33.90854126 0.03350578 39.99622086 0.04333718 46.08391476 0.05438328 C52.29057654 0.0645946 58.49724212 0.06917632 64.70390987 0.0742197 C76.89207302 0.08495933 89.08021234 0.10255718 101.268363 0.12304783 C101.268363 11.34304783 101.268363 22.56304783 101.268363 34.12304783 C97.328988 34.14367283 93.389613 34.16429783 89.330863 34.18554783 C87.46506588 34.19920383 87.46506588 34.19920383 85.56157589 34.21313572 C84.5895422 34.21563328 83.61750851 34.21813084 82.61601925 34.22070408 C81.11567135 34.2285593 81.11567135 34.2285593 79.58501339 34.23657322 C77.268363 34.12304783 77.268363 34.12304783 76.268363 33.12304783 C76.268363 29.49304783 76.268363 25.86304783 76.268363 22.12304783 C64.388363 22.12304783 52.508363 22.12304783 40.268363 22.12304783 C40.268363 29.71304783 40.268363 37.30304783 40.268363 45.12304783 C53.798363 45.12304783 67.328363 45.12304783 81.268363 45.12304783 C81.268363 51.72304783 81.268363 58.32304783 81.268363 65.12304783 C67.738363 65.12304783 54.208363 65.12304783 40.268363 65.12304783 C40.268363 73.04304783 40.268363 80.96304783 40.268363 89.12304783 C52.148363 89.12304783 64.028363 89.12304783 76.268363 89.12304783 C76.268363 85.49304783 76.268363 81.86304783 76.268363 78.12304783 C78.268363 76.12304783 78.268363 76.12304783 80.60674191 75.89599705 C82.03639278 75.9117075 82.03639278 75.9117075 83.4949255 75.92773533 C84.42385616 75.93273045 85.35278683 75.93772556 86.30986691 75.94287205 C88.08369747 75.97018406 88.08369747 75.97018406 89.893363 75.99804783 C93.647113 76.03929783 97.400863 76.08054783 101.268363 76.12304783 C101.268363 87.34304783 101.268363 98.56304783 101.268363 110.12304783 C66.948363 110.12304783 32.628363 110.12304783 -2.731637 110.12304783 C-2.731637 90.12304783 -2.731637 90.12304783 -1.731637 89.12304783 C1.898363 89.12304783 5.528363 89.12304783 9.268363 89.12304783 C9.268363 67.01304783 9.268363 44.90304783 9.268363 22.12304783 C5.638363 22.12304783 2.008363 22.12304783 -1.731637 22.12304783 C-3.32101256 20.53367227 -2.86144843 18.88404937 -2.8644495 16.68554783 C-2.86573856 15.79093845 -2.86702763 14.89632908 -2.86835575 13.97461033 C-2.86255497 12.56308689 -2.86255497 12.56308689 -2.856637 11.12304783 C-2.86050419 10.1820322 -2.86437138 9.24101658 -2.86835575 8.27148533 C-2.86706669 7.37687595 -2.86577763 6.48226658 -2.8644495 5.56054783 C-2.86275761 4.32111423 -2.86275761 4.32111423 -2.86103153 3.05664158 C-2.69465918 0.57047367 -2.49582772 0.17735021 0 0 Z " fill="#FEFEFE" transform="translate(584.7316370010376,300.8769521713257)"/>
<path d="M0 0 C0.474375 0.4125 0.94875 0.825 1.4375 1.25 C1.7675 -1.06 2.0975 -3.37 2.4375 -5.75 C10.3575 -5.75 18.2775 -5.75 26.4375 -5.75 C26.4375 10.75 26.4375 27.25 26.4375 44.25 C18.1875 44.25 9.9375 44.25 1.4375 44.25 C0.4693352 40.3773408 0.36127142 37.21388638 0.4375 33.25 C-0.2225 33.25 -0.8825 33.25 -1.5625 33.25 C-2.119375 31.9196875 -2.119375 31.9196875 -2.6875 30.5625 C-6.13898167 24.46488238 -11.7249375 20.78874537 -18.35546875 18.6796875 C-26.18225374 17.15588865 -34.72242818 18.18693941 -42.5625 19.25 C-42.5625 19.91 -42.5625 20.57 -42.5625 21.25 C-43.449375 21.62125 -44.33625 21.9925 -45.25 22.375 C-49.89719167 25.00548585 -52.8357809 28.06984269 -54.5625 33.25 C-55.2225 33.25 -55.8825 33.25 -56.5625 33.25 C-57.58196539 38.29878098 -57.71286701 43.12586409 -57.6875 48.25 C-57.69136719 49.03117187 -57.69523437 49.81234375 -57.69921875 50.6171875 C-57.69194141 54.93992831 -57.42197175 58.99356845 -56.5625 63.25 C-55.9025 63.25 -55.2425 63.25 -54.5625 63.25 C-53.9746875 64.61125 -53.9746875 64.61125 -53.375 66 C-50.89459208 70.44762799 -47.73073667 72.47117555 -43.5625 75.25 C-43.5625 75.91 -43.5625 76.57 -43.5625 77.25 C-42.49128906 77.45496094 -41.42007813 77.65992188 -40.31640625 77.87109375 C-38.91923149 78.14302709 -37.52209819 78.41517352 -36.125 78.6875 C-35.41794922 78.82220703 -34.71089844 78.95691406 -33.98242188 79.09570312 C-28.67578125 80.13671875 -28.67578125 80.13671875 -27.5625 81.25 C-21.51415807 81.74823506 -16.3393288 81.14059852 -10.5625 79.25 C-7.57206904 78.53845051 -4.5688153 77.8908019 -1.5625 77.25 C-1.5625 76.59 -1.5625 75.93 -1.5625 75.25 C1.34298882 73.20830515 2.83892046 72.25 6.4375 72.25 C7.4275 70.27 7.4275 70.27 8.4375 68.25 C10.0875 68.58 11.7375 68.91 13.4375 69.25 C13.7675 70.24 14.0975 71.23 14.4375 72.25 C15.13875 72.518125 15.84 72.78625 16.5625 73.0625 C21.61123564 75.14784733 25.42789991 78.73559987 28.4375 83.25 C28.27475462 86.50490758 27.90141841 87.81601181 25.5 90.0625 C23.4375 91.25 23.4375 91.25 21.4375 91.25 C21.4375 91.91 21.4375 92.57 21.4375 93.25 C18.53201118 95.29169485 17.03607954 96.25 13.4375 96.25 C13.4375 96.91 13.4375 97.57 13.4375 98.25 C11.3403405 99.22357186 9.23428083 100.17797596 7.125 101.125 C5.95324219 101.65867187 4.78148437 102.19234375 3.57421875 102.7421875 C-5.71253861 106.42581951 -15.4462418 106.60550194 -25.3125 106.5625 C-26.53936523 106.56121094 -27.76623047 106.55992187 -29.03027344 106.55859375 C-37.86937489 106.46498399 -46.05271495 105.68136716 -54.5625 103.25 C-54.5625 102.59 -54.5625 101.93 -54.5625 101.25 C-55.20058594 101.14042969 -55.83867187 101.03085937 -56.49609375 100.91796875 C-57.32238281 100.75941406 -58.14867187 100.60085938 -59 100.4375 C-60.23556641 100.21126953 -60.23556641 100.21126953 -61.49609375 99.98046875 C-62.51896484 99.61888672 -62.51896484 99.61888672 -63.5625 99.25 C-63.8925 98.26 -64.2225 97.27 -64.5625 96.25 C-66.41994207 95.63932856 -66.41994207 95.63932856 -68.5625 95.25 C-76.72974207 91.86358256 -83.00363893 81.75441647 -86.75 74 C-92.85550991 59.21823917 -92.11737258 41.35157157 -87.5625 26.25 C-86.9025 26.25 -86.2425 26.25 -85.5625 26.25 C-85.376875 24.6103125 -85.376875 24.6103125 -85.1875 22.9375 C-84.5625 19.25 -84.5625 19.25 -82.5625 16.25 C-81.9025 16.25 -81.2425 16.25 -80.5625 16.25 C-80.500625 15.693125 -80.43875 15.13625 -80.375 14.5625 C-79.2148629 11.26057134 -77.10690205 9.62092009 -74.5625 7.25 C-73.44875 6.0125 -73.44875 6.0125 -72.3125 4.75 C-66.78224466 -0.27750486 -61.04122169 -3.27263479 -53.5625 -3.75 C-53.5625 -4.41 -53.5625 -5.07 -53.5625 -5.75 C-36.66076629 -10.0039195 -14.81227194 -10.11569791 0 0 Z " fill="#FEFEFE" transform="translate(402.5625,306.75)"/>
<path d="M0 0 C3.03043986 1.33695876 4.82375491 3.58012698 7.125 5.9375 C8.053125 6.494375 8.98125 7.05125 9.9375 7.625 C11.0203125 8.2746875 11.0203125 8.2746875 12.125 8.9375 C12.125 9.5975 12.125 10.2575 12.125 10.9375 C12.7025 11.20820313 13.28 11.47890625 13.875 11.7578125 C19.27292904 14.58797668 23.90387712 18.58021186 28.125 22.9375 C30.43234422 24.96836506 32.77454681 26.95678102 35.125 28.9375 C35.04063067 31.80605713 34.53807819 33.49432315 32.5703125 35.60546875 C27.61059976 39.9375 27.61059976 39.9375 25.125 39.9375 C24.795 40.9275 24.465 41.9175 24.125 42.9375 C22.234375 44.5859375 22.234375 44.5859375 19.875 46.3125 C17.12781699 48.36634634 14.58487686 50.36106817 12.25 52.875 C10.125 54.9375 10.125 54.9375 7.125 54.9375 C6.19076355 57.94781744 6.08050089 58.80400268 7.125 61.9375 C8.9705184 62.99345403 8.9705184 62.99345403 11.125 63.9375 C12.50104389 64.88567611 13.85526436 65.86619729 15.1875 66.875 C15.85910156 67.37902344 16.53070312 67.88304687 17.22265625 68.40234375 C18.98827367 69.82716438 20.53722997 71.32071068 22.125 72.9375 C23.4073447 74.09375641 24.69961996 75.2390649 26 76.375 C26.69867187 76.98988281 27.39734375 77.60476562 28.1171875 78.23828125 C30.23497654 80.07993044 30.23497654 80.07993044 33.125 82.0625 C35.125 83.9375 35.125 83.9375 35.4375 86.6875 C35.2828125 87.80125 35.2828125 87.80125 35.125 88.9375 C34.568125 89.164375 34.01125 89.39125 33.4375 89.625 C30.47808639 91.30466718 28.50091214 93.50501852 26.125 95.9375 C24.12834402 97.60817133 22.12848966 99.27502986 20.125 100.9375 C19.42375 101.68 18.7225 102.4225 18 103.1875 C16.125 104.9375 16.125 104.9375 14 105.4375 C13.38125 105.6025 12.7625 105.7675 12.125 105.9375 C11.42562468 107.25397119 10.75770867 108.58772151 10.125 109.9375 C8.64 110.4325 8.64 110.4325 7.125 110.9375 C7.125 111.5975 7.125 112.2575 7.125 112.9375 C5.46967377 113.95616229 3.80239862 114.95560813 2.125 115.9375 C1.795 116.5975 1.465 117.2575 1.125 117.9375 C0.135 117.9375 -0.855 117.9375 -1.875 117.9375 C-1.875 117.2775 -1.875 116.6175 -1.875 115.9375 C-2.555625 115.73125 -3.23625 115.525 -3.9375 115.3125 C-8.43794046 113.20591085 -11.89617446 109.92657853 -15.3828125 106.421875 C-16.90579105 104.90687015 -18.48692665 103.51430053 -20.125 102.125 C-20.72957031 101.60808594 -21.33414063 101.09117187 -21.95703125 100.55859375 C-23.25907416 99.45808905 -24.56931135 98.36722097 -25.88671875 97.28515625 C-26.52222656 96.75792969 -27.15773438 96.23070312 -27.8125 95.6875 C-28.39902344 95.20796875 -28.98554687 94.7284375 -29.58984375 94.234375 C-30.875 92.9375 -30.875 92.9375 -30.875 90.9375 C-31.865 90.9375 -32.855 90.9375 -33.875 90.9375 C-34.37 92.4225 -34.37 92.4225 -34.875 93.9375 C-36.20833333 94.60416667 -37.54166667 95.27083333 -38.875 95.9375 C-40.56373879 97.58179829 -42.22805515 99.25134218 -43.875 100.9375 C-45.87165598 102.60817133 -47.87151034 104.27502986 -49.875 105.9375 C-50.79345703 106.87142578 -50.79345703 106.87142578 -51.73046875 107.82421875 C-54.07320936 110.13282106 -56.54404017 112.14990014 -59.125 114.1875 C-60.01703125 114.89390625 -60.9090625 115.6003125 -61.828125 116.328125 C-62.84132813 117.12476563 -62.84132813 117.12476563 -63.875 117.9375 C-66.80210398 116.59939532 -69.04254924 115.08063267 -71.4375 112.9375 C-73.54495197 111.06003722 -75.50832529 109.51528314 -77.875 107.9375 C-77.875 107.2775 -77.875 106.6175 -77.875 105.9375 C-78.514375 105.669375 -79.15375 105.40125 -79.8125 105.125 C-81.875 103.9375 -81.875 103.9375 -82.875 100.9375 C-83.74125 100.751875 -83.74125 100.751875 -84.625 100.5625 C-87.3052325 99.81799097 -88.44256058 98.4772778 -90.3046875 96.48046875 C-93.53844842 93.3030171 -97.2634845 90.66777425 -100.875 87.9375 C-100.31034661 84.59961222 -99.45446509 83.21329587 -96.8125 81.125 C-96.18472656 80.61582031 -95.55695312 80.10664063 -94.91015625 79.58203125 C-94.23855469 79.03933594 -93.56695313 78.49664062 -92.875 77.9375 C-91.49499449 76.7348865 -90.11998838 75.52651247 -88.75 74.3125 C-80.31208426 66.9375 -80.31208426 66.9375 -77.875 66.9375 C-77.6275 66.298125 -77.38 65.65875 -77.125 65 C-75.54512061 62.393199 -74.70719689 62.64554922 -71.875 61.9375 C-70.76663577 60.05433841 -70.76663577 60.05433841 -69.875 57.9375 C-68.16095216 55.65210287 -67.31883015 55.03093793 -64.5 54.4375 C-60.74924622 55.15192929 -59.41990783 57.14430848 -56.875 59.9375 C-55.84781732 60.82945863 -54.80590702 61.70473849 -53.75 62.5625 C-51.64173884 64.30410705 -49.79334367 66.01434845 -47.875 67.9375 C-46.61331358 69.07274876 -45.34183739 70.19718022 -44.0625 71.3125 C-43.36511719 71.92222656 -42.66773438 72.53195313 -41.94921875 73.16015625 C-40.11849344 74.72885684 -38.25685448 76.24362243 -36.375 77.75 C-35.55 78.471875 -34.725 79.19375 -33.875 79.9375 C-33.875 80.5975 -33.875 81.2575 -33.875 81.9375 C-30.28921093 79.47666437 -27.14357686 77.20607686 -24.0625 74.125 C-23.340625 73.403125 -22.61875 72.68125 -21.875 71.9375 C-21.215 71.9375 -20.555 71.9375 -19.875 71.9375 C-19.38 70.4525 -19.38 70.4525 -18.875 68.9375 C-16.9140625 67.25390625 -16.9140625 67.25390625 -14.5 65.5 C-11.37699573 63.2264122 -9.0559081 61.13851028 -6.875 57.9375 C-7.535 57.6075 -8.195 57.2775 -8.875 56.9375 C-8.875 56.2775 -8.875 55.6175 -8.875 54.9375 C-9.9578125 54.5971875 -9.9578125 54.5971875 -11.0625 54.25 C-14.46397247 52.66264618 -16.28525643 50.6505647 -18.875 47.9375 C-20.73674763 46.35559752 -22.61938699 44.80504228 -24.51953125 43.26953125 C-24.96683594 42.82996094 -25.41414062 42.39039063 -25.875 41.9375 C-25.875 41.2775 -25.875 40.6175 -25.875 39.9375 C-26.679375 39.669375 -27.48375 39.40125 -28.3125 39.125 C-29.158125 38.733125 -30.00375 38.34125 -30.875 37.9375 C-31.205 36.9475 -31.535 35.9575 -31.875 34.9375 C-33.87516466 33.72867904 -33.87516466 33.72867904 -35.875 32.9375 C-35.79623593 30.25952162 -35.39695464 28.48980084 -33.53125 26.515625 C-31.67684815 24.94781253 -29.77970975 23.44371961 -27.875 21.9375 C-26.49370197 20.73637128 -25.11869846 19.52796656 -23.75 18.3125 C-21.57412468 16.40125816 -19.39268155 14.5538376 -17.125 12.75 C-14.81512058 10.97351759 -14.81512058 10.97351759 -12.8125 8.75 C-10.875 6.9375 -10.875 6.9375 -8.75 6.4375 C-8.13125 6.2725 -7.5125 6.1075 -6.875 5.9375 C-5.78333725 4.00419397 -5.78333725 4.00419397 -4.875 1.9375 C-1.875 -0.0625 -1.875 -0.0625 0 0 Z " fill="#FEFEFE" transform="translate(780.875,154.0625)"/>
<path d="M0 0 C18.48 0 36.96 0 56 0 C56 6.93 56 13.86 56 21 C51.71 21 47.42 21 43 21 C43 43.11 43 65.22 43 88 C47.29 88 51.58 88 56 88 C56 94.93 56 101.86 56 109 C37.52 109 19.04 109 0 109 C0 102.07 0 95.14 0 88 C3.96 88 7.92 88 12 88 C12 65.89 12 43.78 12 21 C8.04 21 4.08 21 0 21 C0 14.07 0 7.14 0 0 Z " fill="#FEFEFE" transform="translate(165,160)"/>
<path d="M0 0 C0.89589844 -0.01417969 1.79179687 -0.02835937 2.71484375 -0.04296875 C5.0625 0.1875 5.0625 0.1875 7.0625 2.1875 C7.0625 4.8275 7.0625 7.4675 7.0625 10.1875 C12.3425 10.1875 17.6225 10.1875 23.0625 10.1875 C23.0625 7.5475 23.0625 4.9075 23.0625 2.1875 C23.3925 1.5275 23.7225 0.8675 24.0625 0.1875 C27.6925 0.1875 31.3225 0.1875 35.0625 0.1875 C35.0625 3.4875 35.0625 6.7875 35.0625 10.1875 C39.0225 10.1875 42.9825 10.1875 47.0625 10.1875 C47.0625 13.4875 47.0625 16.7875 47.0625 20.1875 C43.1025 20.1875 39.1425 20.1875 35.0625 20.1875 C35.0625 23.1575 35.0625 26.1275 35.0625 29.1875 C39.12618679 29.96153558 42.92675173 30.2859702 47.0625 30.1875 C47.25656478 31.83257218 47.44257935 33.47859594 47.625 35.125 C47.78162109 36.49978516 47.78162109 36.49978516 47.94140625 37.90234375 C48.00134766 39.03349609 48.00134766 39.03349609 48.0625 40.1875 C45.96697518 42.28302482 41.74643017 41.50998839 38.875 41.5625 C37.74094727 41.61857422 37.74094727 41.61857422 36.58398438 41.67578125 C32.47774879 41.73988553 29.84645833 41.45801327 26.57421875 38.8515625 C21.54316918 33.51536374 22.99349841 27.15666085 23.0625 20.1875 C17.7825 20.1875 12.5025 20.1875 7.0625 20.1875 C7.0625 23.4875 7.0625 26.7875 7.0625 30.1875 C10.3625 30.1875 13.6625 30.1875 17.0625 30.1875 C19.33928571 37.15178571 19.33928571 37.15178571 18.0625 41.1875 C15.49935501 41.26882187 12.93881582 41.32814175 10.375 41.375 C9.65376953 41.40013672 8.93253906 41.42527344 8.18945312 41.45117188 C3.60950626 41.51391087 0.67350113 41.0763009 -2.9375 38.1875 C-3.75 36 -3.75 36 -3.9375 34.1875 C-4.5975 34.1875 -5.2575 34.1875 -5.9375 34.1875 C-5.9375 29.5675 -5.9375 24.9475 -5.9375 20.1875 C-7.9175 20.1875 -9.8975 20.1875 -11.9375 20.1875 C-11.91429687 21.09113281 -11.89109375 21.99476563 -11.8671875 22.92578125 C-11.84914063 24.10527344 -11.83109375 25.28476562 -11.8125 26.5 C-11.78929687 27.67175781 -11.76609375 28.84351563 -11.7421875 30.05078125 C-11.9375 33.1875 -11.9375 33.1875 -13.9375 36.1875 C-14.5975 36.1875 -15.2575 36.1875 -15.9375 36.1875 C-16.185 36.826875 -16.4325 37.46625 -16.6875 38.125 C-17.9375 40.1875 -17.9375 40.1875 -19.5546875 40.80078125 C-22.82187177 41.33102919 -26.00311955 41.3978667 -29.3125 41.4375 C-30.59898437 41.46328125 -31.88546875 41.4890625 -33.2109375 41.515625 C-38.41947471 41.05701166 -41.66204516 39.53189835 -45.25 35.75 C-48.55433177 30.73231101 -48.61171293 25.55856463 -47.4375 19.6875 C-44.72527564 15.16712606 -40.55976707 10.89828296 -35.38671875 9.49609375 C-28.2891975 8.60182871 -22.05921497 9.0158722 -16.0625 13.1875 C-13.9375 15.1875 -13.9375 15.1875 -12.9375 17.1875 C-12.6075 14.8775 -12.2775 12.5675 -11.9375 10.1875 C-9.9575 10.1875 -7.9775 10.1875 -5.9375 10.1875 C-5.94910156 9.54941406 -5.96070313 8.91132813 -5.97265625 8.25390625 C-5.98167969 7.42761719 -5.99070312 6.60132813 -6 5.75 C-6.01160156 4.92628906 -6.02320313 4.10257812 -6.03515625 3.25390625 C-5.8455982 -0.75714203 -3.45584675 0.02479087 0 0 Z M-32.9375 20.1875 C-32.9375 20.5175 -32.9375 20.8475 -32.9375 21.1875 C-30.6275 21.1875 -28.3175 21.1875 -25.9375 21.1875 C-25.9375 20.8575 -25.9375 20.5275 -25.9375 20.1875 C-28.2475 20.1875 -30.5575 20.1875 -32.9375 20.1875 Z M-32.9375 29.1875 C-32.6075 29.8475 -32.2775 30.5075 -31.9375 31.1875 C-28.4725 30.6925 -28.4725 30.6925 -24.9375 30.1875 C-24.9375 29.8575 -24.9375 29.5275 -24.9375 29.1875 C-27.5775 29.1875 -30.2175 29.1875 -32.9375 29.1875 Z " fill="#FEFEFE" transform="translate(467.9375,447.8125)"/>
<path d="M0 0 C0.89589844 0.01417969 1.79179688 0.02835937 2.71484375 0.04296875 C4.06255859 0.05263672 4.06255859 0.05263672 5.4375 0.0625 C7.65234375 0.23046875 7.65234375 0.23046875 8.65234375 1.23046875 C8.79427712 4.23377893 8.69470753 7.22264009 8.65234375 10.23046875 C12.28234375 10.23046875 15.91234375 10.23046875 19.65234375 10.23046875 C19.65234375 13.53046875 19.65234375 16.83046875 19.65234375 20.23046875 C16.02234375 20.23046875 12.39234375 20.23046875 8.65234375 20.23046875 C9.14734375 24.68546875 9.14734375 24.68546875 9.65234375 29.23046875 C13.2401355 30.12741669 15.99853212 30.31350992 19.65234375 30.23046875 C19.84640853 31.87554093 20.0324231 33.52156469 20.21484375 35.16796875 C20.37146484 36.54275391 20.37146484 36.54275391 20.53125 37.9453125 C20.59119141 39.07646484 20.59119141 39.07646484 20.65234375 40.23046875 C18.62598308 42.25682942 14.67257026 41.46096011 11.90234375 41.48046875 C11.185625 41.50109375 10.46890625 41.52171875 9.73046875 41.54296875 C5.15897379 41.57658268 2.20450859 41.16931017 -1.34765625 38.23046875 C-4.46109067 34.32010318 -4.68423169 31.33745819 -4.53515625 26.41796875 C-4.49455078 24.67580078 -4.49455078 24.67580078 -4.453125 22.8984375 C-4.41832031 22.01800781 -4.38351562 21.13757813 -4.34765625 20.23046875 C-6.32765625 20.23046875 -8.30765625 20.23046875 -10.34765625 20.23046875 C-11.00765625 21.88046875 -11.66765625 23.53046875 -12.34765625 25.23046875 C-13.00765625 25.23046875 -13.66765625 25.23046875 -14.34765625 25.23046875 C-14.43015625 26.03484375 -14.51265625 26.83921875 -14.59765625 27.66796875 C-15.52144308 32.05595619 -17.07261121 37.95542371 -20.34765625 41.23046875 C-22.20053127 41.30273377 -24.05599503 41.31428095 -25.91015625 41.29296875 C-26.92207031 41.28394531 -27.93398438 41.27492188 -28.9765625 41.265625 C-30.15025391 41.24822266 -30.15025391 41.24822266 -31.34765625 41.23046875 C-31.67765625 39.25046875 -32.00765625 37.27046875 -32.34765625 35.23046875 C-33.00765625 35.23046875 -33.66765625 35.23046875 -34.34765625 35.23046875 C-34.67765625 34.24046875 -35.00765625 33.25046875 -35.34765625 32.23046875 C-36.00765625 34.21046875 -36.66765625 36.19046875 -37.34765625 38.23046875 C-38.00765625 38.23046875 -38.66765625 38.23046875 -39.34765625 38.23046875 C-39.34765625 39.22046875 -39.34765625 40.21046875 -39.34765625 41.23046875 C-42.97765625 41.23046875 -46.60765625 41.23046875 -50.34765625 41.23046875 C-52.38201156 37.50081736 -53.34765625 35.56141833 -53.34765625 31.23046875 C-54.00765625 31.23046875 -54.66765625 31.23046875 -55.34765625 31.23046875 C-55.85380923 29.96207349 -56.35234724 28.69063773 -56.84765625 27.41796875 C-57.12609375 26.71027344 -57.40453125 26.00257813 -57.69140625 25.2734375 C-58.34765625 23.23046875 -58.34765625 23.23046875 -58.34765625 20.23046875 C-59.00765625 20.23046875 -59.66765625 20.23046875 -60.34765625 20.23046875 C-61.66392317 16.61073473 -62.34765625 14.13479744 -62.34765625 10.23046875 C-58.05765625 10.23046875 -53.76765625 10.23046875 -49.34765625 10.23046875 C-48.37109375 12.54166667 -47.39453125 14.85286458 -46.41796875 17.1640625 C-45.52316255 19.3879359 -45.52316255 19.3879359 -43.34765625 20.23046875 C-43.21488281 19.59238281 -43.08210937 18.95429688 -42.9453125 18.296875 C-42.76871094 17.47058594 -42.59210937 16.64429688 -42.41015625 15.79296875 C-42.14912109 14.55740234 -42.14912109 14.55740234 -41.8828125 13.296875 C-41.34765625 11.23046875 -41.34765625 11.23046875 -40.34765625 10.23046875 C-37.01147394 10.08789686 -33.68790019 10.18818718 -30.34765625 10.23046875 C-27.87265625 14.68546875 -27.87265625 14.68546875 -25.34765625 19.23046875 C-23.36765625 14.77546875 -23.36765625 14.77546875 -21.34765625 10.23046875 C-15.73765625 10.23046875 -10.12765625 10.23046875 -4.34765625 10.23046875 C-4.34765625 7.59046875 -4.34765625 4.95046875 -4.34765625 2.23046875 C-2.34765625 0.23046875 -2.34765625 0.23046875 0 0 Z " fill="#FEFEFE" transform="translate(756.34765625,447.76953125)"/>
<path d="M0 0 C4.29 0 8.58 0 13 0 C13.33 6.27 13.66 12.54 14 19 C15.010625 17.845 16.02125 16.69 17.0625 15.5 C21.70575465 11.32694835 26.1615965 11.41043025 32.07055664 11.64453125 C33.71533053 11.7377691 35.35810054 11.86531294 37 12 C36.6708775 15.03409801 36.45681656 16.572719 34.1875 18.6953125 C33.465625 19.16710937 32.74375 19.63890625 32 20.125 C28.58919955 22.29696286 28.58919955 22.29696286 27 26 C27.9903215 28.97096451 29.37804606 30.37804606 31.625 32.625 C34 35 34 35 34 37 C34.99 37.33 35.98 37.66 37 38 C37.03758423 36.92516357 37.03758423 36.92516357 37.07592773 35.82861328 C37.19169751 32.59388486 37.31450969 29.35946159 37.4375 26.125 C37.47681641 24.99707031 37.51613281 23.86914062 37.55664062 22.70703125 C37.61948242 21.09248047 37.61948242 21.09248047 37.68359375 19.4453125 C37.72025146 18.45031738 37.75690918 17.45532227 37.79467773 16.43017578 C38 14 38 14 39 12 C43.29 12 47.58 12 52 12 C52 22.23 52 32.46 52 43 C47.33875 43.144375 42.6775 43.28875 37.875 43.4375 C35.68593018 43.53309204 35.68593018 43.53309204 33.45263672 43.63061523 C24.0506829 43.7720029 24.0506829 43.7720029 20.83691406 41.41064453 C19.2578125 39.47265625 19.2578125 39.47265625 18.08251953 37.51586914 C17.72528809 37.01563232 17.36805664 36.51539551 17 36 C16.01 36 15.02 36 14 36 C13.67 38.31 13.34 40.62 13 43 C11.02090602 43.02686553 9.04171029 43.04633375 7.0625 43.0625 C5.96035156 43.07410156 4.85820312 43.08570313 3.72265625 43.09765625 C1 43 1 43 0 42 C-0.08874135 38.89748799 -0.11518455 35.8173188 -0.09765625 32.71484375 C-0.0962413 31.78402481 -0.09482635 30.85320587 -0.09336853 29.8941803 C-0.08775172 26.90858809 -0.0751964 23.92306971 -0.0625 20.9375 C-0.05748716 18.91862087 -0.05292388 16.89974057 -0.04882812 14.88085938 C-0.03777683 9.92054428 -0.02050095 4.96028468 0 0 Z " fill="#FEFEFE" transform="translate(230,446)"/>
<path d="M0 0 C1.00023193 0.00523682 2.00046387 0.01047363 3.03100586 0.01586914 C4.1105957 0.0190918 5.19018555 0.02231445 6.30249023 0.02563477 C8.00695312 0.03820312 8.00695312 0.03820312 9.74584961 0.05102539 C11.45611328 0.05779297 11.45611328 0.05779297 13.20092773 0.06469727 C16.02845312 0.07652792 18.85587601 0.09301129 21.68334961 0.11352539 C22.01334961 2.75352539 22.34334961 5.39352539 22.68334961 8.11352539 C23.28147461 7.28852539 23.87959961 6.46352539 24.49584961 5.61352539 C25.57866211 4.37602539 25.57866211 4.37602539 26.68334961 3.11352539 C27.67334961 3.11352539 28.66334961 3.11352539 29.68334961 3.11352539 C29.68334961 2.45352539 29.68334961 1.79352539 29.68334961 1.11352539 C34.58816777 -1.33888369 42.28651164 -0.53967429 47.68334961 0.11352539 C52.01318122 1.5873805 54.78404654 3.32687013 56.85913086 7.44946289 C58.62001286 13.1410341 58.42665737 19.03226365 56.43334961 24.61352539 C53.12801689 29.33542928 49.08958771 31.22134206 43.68334961 33.11352539 C36.56738155 34.0467671 31.6794217 31.9340315 25.68334961 28.11352539 C21.36918569 24.43070253 21.09303394 20.72219421 20.66381836 15.32055664 C20.68334961 13.11352539 20.68334961 13.11352539 21.68334961 11.11352539 C19.37334961 11.11352539 17.06334961 11.11352539 14.68334961 11.11352539 C14.68334961 11.77352539 14.68334961 12.43352539 14.68334961 13.11352539 C13.69334961 13.44352539 12.70334961 13.77352539 11.68334961 14.11352539 C11.35334961 19.72352539 11.02334961 25.33352539 10.68334961 31.11352539 C0.62475586 31.21118164 0.62475586 31.21118164 -2.31665039 31.11352539 C-4.17379096 29.25638482 -3.4471372 26.1884549 -3.44946289 23.70727539 C-3.45075195 22.40661133 -3.45204102 21.10594727 -3.45336914 19.76586914 C-3.45127441 19.08508301 -3.44917969 18.40429688 -3.44702148 17.70288086 C-3.44167279 15.62224024 -3.44696719 13.5418155 -3.45336914 11.46118164 C-3.45208008 10.16051758 -3.45079102 8.85985352 -3.44946289 7.51977539 C-3.44833496 6.31643555 -3.44720703 5.1130957 -3.44604492 3.87329102 C-3.27195926 0.16033945 -3.27195926 0.16033945 0 0 Z M35.99584961 11.48852539 C34.47390391 13.02469797 34.47390391 13.02469797 34.68334961 15.11352539 C33.69334961 15.60852539 33.69334961 15.60852539 32.68334961 16.11352539 C34.84923806 18.78003339 34.84923806 18.78003339 37.68334961 21.11352539 C41.25417759 21.02850568 42.67714868 20.11765934 45.68334961 18.11352539 C45.34750891 15.00699894 45.09285682 13.50938236 42.80834961 11.30102539 C40.05084977 9.7600696 38.52070438 9.43123631 35.99584961 11.48852539 Z " fill="#FEFEFE" transform="translate(638.316650390625,457.886474609375)"/>
<path d="M0 0 C1.25683594 0.00322266 2.51367188 0.00644531 3.80859375 0.00976562 C5.12730469 0.01814453 6.44601562 0.02652344 7.8046875 0.03515625 C9.14452961 0.04017136 10.4843735 0.04473424 11.82421875 0.04882812 C15.10941956 0.06064539 18.39453147 0.07712008 21.6796875 0.09765625 C21.80416303 4.65077967 21.89443159 9.20289279 21.9543457 13.75732422 C21.97934482 15.30339837 22.01335652 16.84935607 22.05688477 18.39501953 C22.49037753 34.19455592 22.49037753 34.19455592 18.0793457 39.71704102 C13.38583877 44.34669072 9.14045707 44.67828805 2.8046875 44.66015625 C1.59522461 44.65870605 1.59522461 44.65870605 0.36132812 44.65722656 C-4.06219765 44.52542355 -7.30587258 44.30128129 -10.8203125 41.34765625 C-12.80790445 39.16130511 -14.18390769 36.82502778 -15.3203125 34.09765625 C-14.9453125 31.34765625 -14.9453125 31.34765625 -14.3203125 29.09765625 C-12.6703125 28.76765625 -11.0203125 28.43765625 -9.3203125 28.09765625 C-9.74183594 27.61554688 -10.16335938 27.1334375 -10.59765625 26.63671875 C-11.14550781 26.00507813 -11.69335938 25.3734375 -12.2578125 24.72265625 C-12.80308594 24.09617187 -13.34835937 23.4696875 -13.91015625 22.82421875 C-16.64324956 19.4778829 -16.70979605 16.70032246 -16.67578125 12.49609375 C-16.05890651 8.33388398 -14.13494818 6.1741185 -11.3203125 3.09765625 C-10.3303125 3.09765625 -9.3403125 3.09765625 -8.3203125 3.09765625 C-8.3203125 2.43765625 -8.3203125 1.77765625 -8.3203125 1.09765625 C-5.50207058 -0.31146471 -3.14779968 -0.01417928 0 0 Z M-2.3828125 12.34765625 C-3.53600724 14.98391274 -3.53600724 14.98391274 -2.8828125 17.34765625 C-1.36079293 19.35742588 -1.36079293 19.35742588 1.5546875 19.97265625 C4.72650938 20.09952913 6.06899428 19.80464797 8.6796875 18.09765625 C8.49504384 13.75581423 8.49504384 13.75581423 6.6796875 10.09765625 C1.53376185 9.40297299 1.53376185 9.40297299 -2.3828125 12.34765625 Z M-2.3203125 30.09765625 C-1.9903125 31.08765625 -1.6603125 32.07765625 -1.3203125 33.09765625 C1.53746783 33.78258998 1.53746783 33.78258998 4.6796875 34.09765625 C5.6696875 33.43765625 6.6596875 32.77765625 7.6796875 32.09765625 C7.6796875 31.43765625 7.6796875 30.77765625 7.6796875 30.09765625 C4.3796875 30.09765625 1.0796875 30.09765625 -2.3203125 30.09765625 Z " fill="#FEFEFE" transform="translate(610.3203125,457.90234375)"/>
<path d="M0 0 C1.20849609 0.00644531 2.41699219 0.01289063 3.66210938 0.01953125 C5.55606445 0.04466797 5.55606445 0.04466797 7.48828125 0.0703125 C8.76251953 0.07933594 10.03675781 0.08835937 11.34960938 0.09765625 C14.50018752 0.12125609 17.65039108 0.15418056 20.80078125 0.1953125 C20.92465345 5.23062213 21.01524639 10.26503947 21.07543945 15.30151367 C21.10053839 17.01358495 21.13462554 18.72554954 21.17797852 20.43725586 C21.23883864 22.90244895 21.26703557 25.36622235 21.2890625 27.83203125 C21.31486893 28.59368088 21.34067535 29.35533051 21.36726379 30.14006042 C21.36939396 34.20331421 21.01473193 35.93797156 18.38110352 39.10571289 C17.52959717 39.79528076 16.67809082 40.48484863 15.80078125 41.1953125 C15.21554687 41.78828125 14.6303125 42.38125 14.02734375 42.9921875 C10.52132912 44.88666558 7.08995481 44.55039098 3.17578125 44.4453125 C2.01175781 44.43757813 2.01175781 44.43757813 0.82421875 44.4296875 C-4.88917411 44.35033482 -4.88917411 44.35033482 -7.19921875 43.1953125 C-7.19921875 42.5353125 -7.19921875 41.8753125 -7.19921875 41.1953125 C-8.51921875 40.8653125 -9.83921875 40.5353125 -11.19921875 40.1953125 C-11.52921875 38.8753125 -11.85921875 37.5553125 -12.19921875 36.1953125 C-12.85921875 36.1953125 -13.51921875 36.1953125 -14.19921875 36.1953125 C-14.52921875 33.8853125 -14.85921875 31.5753125 -15.19921875 29.1953125 C-13.21921875 28.8653125 -11.23921875 28.5353125 -9.19921875 28.1953125 C-9.19921875 27.5353125 -9.19921875 26.8753125 -9.19921875 26.1953125 C-9.81796875 25.9271875 -10.43671875 25.6590625 -11.07421875 25.3828125 C-13.19921875 24.1953125 -13.19921875 24.1953125 -15.19921875 21.1953125 C-15.93582261 16.35072554 -16.35748415 11.32184393 -13.9609375 6.921875 C-9.79458285 2.02149757 -6.54940116 -0.06149672 0 0 Z M-0.19921875 10.1953125 C-2.49559654 12.95426885 -2.49559654 12.95426885 -1.94921875 15.7578125 C-1.36113823 18.34531817 -1.36113823 18.34531817 0.80078125 20.1953125 C5.14273061 20.09836134 5.14273061 20.09836134 8.80078125 18.1953125 C8.84171062 15.86233817 8.84319848 13.52826025 8.80078125 11.1953125 C5.83078125 10.8653125 2.86078125 10.5353125 -0.19921875 10.1953125 Z M-1.19921875 30.1953125 C-1.19921875 31.1853125 -1.19921875 32.1753125 -1.19921875 33.1953125 C3.33218778 34.12912211 3.33218778 34.12912211 7.80078125 33.1953125 C8.13078125 32.2053125 8.46078125 31.2153125 8.80078125 30.1953125 C5.50078125 30.1953125 2.20078125 30.1953125 -1.19921875 30.1953125 Z " fill="#FEFEFE" transform="translate(339.19921875,457.8046875)"/>
<path d="M0 0 C4.29 0 8.58 0 13 0 C13.03867188 2.74570312 13.03867188 2.74570312 13.078125 5.546875 C13.13439998 7.94794071 13.19174744 10.34898145 13.25 12.75 C13.26417969 13.9565625 13.27835938 15.163125 13.29296875 16.40625 C13.32519531 17.56640625 13.35742188 18.7265625 13.390625 19.921875 C13.41157227 20.99018555 13.43251953 22.05849609 13.45410156 23.15917969 C14.12751291 26.66356897 15.17064292 27.87640119 18 30 C21.77282526 30.33094958 24.40735548 30.19754817 28 29 C29.05836661 25.82490018 29.20243789 23.35717617 29.31640625 20.01953125 C29.35830078 18.85615234 29.40019531 17.69277344 29.44335938 16.49414062 C29.48267578 15.27919922 29.52199219 14.06425781 29.5625 12.8125 C29.60568359 11.58595703 29.64886719 10.35941406 29.69335938 9.09570312 C29.79953014 6.06393808 29.90027764 3.031984 30 0 C34.62 0 39.24 0 44 0 C44.05401439 4.37516578 44.09368368 8.74966253 44.125 13.125 C44.14175781 14.3625 44.15851563 15.6 44.17578125 16.875 C44.18544922 18.67324219 44.18544922 18.67324219 44.1953125 20.5078125 C44.21102295 22.15740967 44.21102295 22.15740967 44.22705078 23.84033203 C43.76403205 30.28376048 41.55134772 34.44865228 37 39 C31.73090962 41.75875452 27.47049441 42.51946367 21.5625 42.4375 C20.81403809 42.43137695 20.06557617 42.42525391 19.29443359 42.41894531 C13.57934149 42.25669111 9.72581851 41.40258933 5 38 C3.125 36 3.125 36 2 34 C1.62875 33.401875 1.2575 32.80375 0.875 32.1875 C-1.63430016 25.9142496 -1.15248987 18.82630276 -1.125 12.1875 C-1.12886719 11.23423828 -1.13273437 10.28097656 -1.13671875 9.29882812 C-1.13542969 8.38939453 -1.13414063 7.47996094 -1.1328125 6.54296875 C-1.13168457 5.71821045 -1.13055664 4.89345215 -1.12939453 4.04370117 C-1 2 -1 2 0 0 Z " fill="#FEFEFE" transform="translate(51,447)"/>
<path d="M0 0 C4.62 0 9.24 0 14 0 C14 3.96 14 7.92 14 12 C16.6915625 11.8453125 16.6915625 11.8453125 19.4375 11.6875 C25.59840397 11.6729007 30.24131693 12.98733376 35 17 C35.495 18.485 35.495 18.485 36 20 C36.66 20.33 37.32 20.66 38 21 C38.86001568 33.88112371 38.86001568 33.88112371 35.9375 37.625 C28.48850359 43.64759284 21.8312511 43.38318454 12.5625 43.1875 C8.416875 43.125625 4.27125 43.06375 0 43 C0 28.81 0 14.62 0 0 Z M14 23 C14 25.64 14 28.28 14 31 C16.46393719 32.55136786 17.68089146 33.03039129 20.625 32.75 C23.15600229 32.1515662 23.15600229 32.1515662 25 30 C24.83582968 26.43407381 24.83582968 26.43407381 24 23 C20.76674981 21.38337491 17.23325019 21.38337491 14 23 Z " fill="#FEFEFE" transform="translate(381,446)"/>
<path d="M0 0 C3.96 0 7.92 0 12 0 C12 3.96 12 7.92 12 12 C12.92941406 11.94199219 13.85882812 11.88398438 14.81640625 11.82421875 C26.17708701 11.40959536 26.17708701 11.40959536 30.375 14.3125 C33 17 33 17 33 20 C33.66 20 34.32 20 35 20 C35 27.59 35 35.18 35 43 C30.71 43 26.42 43 22 43 C21.505 33.1 21.505 33.1 21 23 C18.36 23 15.72 23 13 23 C12.67 29.6 12.34 36.2 12 43 C8.04 43 4.08 43 0 43 C0 28.81 0 14.62 0 0 Z " fill="#FEFEFE" transform="translate(780,446)"/>
<path d="M0 0 C2.73158177 2.29924509 4.66792538 4.38063479 6 7.75 C6.50528904 14.01558409 5.8542529 19.48298299 2.6875 25.0625 C-0.34255568 28.09255568 -3.3744454 28.70376336 -7.59375 29.015625 C-8.8828125 29.01046875 -10.171875 29.0053125 -11.5 29 C-13.43359375 29.00773437 -13.43359375 29.00773437 -15.40625 29.015625 C-20.36371645 28.64920357 -23.00221925 27.61171974 -26.75 24.375 C-30.28769544 20.24768865 -30.30227756 16.27402836 -30.20703125 10.9921875 C-29.82793191 6.88647007 -28.46944149 4.08882446 -25.41796875 1.30859375 C-18.19086896 -4.21801198 -7.80641672 -5.28178833 0 0 Z M-13 6.75 C-13.66 7.41 -14.32 8.07 -15 8.75 C-13.02 8.75 -11.04 8.75 -9 8.75 C-10.32 8.09 -11.64 7.43 -13 6.75 Z M-17 16.75 C-13.77208445 18.9019437 -12.71599191 18.95086443 -9 18.75 C-8.67 18.09 -8.34 17.43 -8 16.75 C-10.97 16.75 -13.94 16.75 -17 16.75 Z " fill="#FEFEFE" transform="translate(546,460.25)"/>
<path d="M0 0 C2.04886711 1.46975977 3.68427961 2.72687299 5.18359375 4.75390625 C5.18359375 5.74390625 5.18359375 6.73390625 5.18359375 7.75390625 C5.84359375 7.75390625 6.50359375 7.75390625 7.18359375 7.75390625 C8.55644904 14.48089717 7.57593712 18.79517659 4.68359375 24.94140625 C0.41152727 29.74748105 -5.02370593 31.29691893 -11.25390625 32.31640625 C-17.59290849 31.31551116 -23.76507585 29.15689329 -28.00390625 24.19140625 C-29.51219473 17.81018574 -29.66560105 11.55125384 -27.75390625 5.25390625 C-21.51665627 -2.79415824 -9.1193557 -4.03477735 0 0 Z M-14.81640625 9.75390625 C-17.0977957 12.51088809 -17.0977957 12.51088809 -16.62890625 15.31640625 C-15.98268183 18.08645742 -15.98268183 18.08645742 -12.81640625 19.75390625 C-8.9889172 19.57158033 -8.9889172 19.57158033 -5.81640625 17.75390625 C-5.56907488 13.6111375 -5.56907488 13.6111375 -6.81640625 9.75390625 C-10.1005493 8.80323326 -11.51334033 8.65288428 -14.81640625 9.75390625 Z " fill="#FEFEFE" transform="translate(182.81640625,459.24609375)"/>
<path d="M0 0 C4.41375 -0.020625 8.8275 -0.04125 13.375 -0.0625 C14.76638184 -0.071604 16.15776367 -0.08070801 17.59130859 -0.09008789 C18.68266113 -0.09258545 19.77401367 -0.09508301 20.8984375 -0.09765625 C22.57945557 -0.10551147 22.57945557 -0.10551147 24.29443359 -0.11352539 C27 0 27 0 29 1 C29 1.66 29 2.32 29 3 C29.639375 3.2475 30.27875 3.495 30.9375 3.75 C33 5 33 5 33.75 7.125 C33.8325 7.74375 33.915 8.3625 34 9 C34.66 9 35.32 9 36 9 C36 16.26 36 23.52 36 31 C31.71 31 27.42 31 23 31 C22.93941406 29.87980469 22.87882812 28.75960938 22.81640625 27.60546875 C22.73198576 26.13280016 22.64733851 24.66014456 22.5625 23.1875 C22.52318359 22.44951172 22.48386719 21.71152344 22.44335938 20.95117188 C22.25618965 17.76928658 22.01279207 15.03837622 21 12 C18.69 11.67 16.38 11.34 14 11 C13.67 17.6 13.34 24.2 13 31 C8.71 31 4.42 31 0 31 C0 20.77 0 10.54 0 0 Z " fill="#FEFEFE" transform="translate(286,458)"/>
<path d="M0 0 C4.145625 -0.103125 8.29125 -0.20625 12.5625 -0.3125 C13.85615479 -0.35802002 15.14980957 -0.40354004 16.48266602 -0.45043945 C26.02814341 -0.56524887 26.02814341 -0.56524887 30.33984375 2.33203125 C33 5 33 5 33 8 C33.66 8 34.32 8 35 8 C35 15.59 35 23.18 35 31 C30.71 31 26.42 31 22 31 C21.505 21.1 21.505 21.1 21 11 C18.36 11 15.72 11 13 11 C12.67 17.6 12.34 24.2 12 31 C8.04 31 4.08 31 0 31 C0 20.77 0 10.54 0 0 Z " fill="#FEFEFE" transform="translate(99,458)"/>
<path d="M0 0 C3.66342281 2.59660188 6.47927786 5.25860213 7.3203125 9.82421875 C7.02501323 11.16648818 6.69677552 12.50241525 6.3203125 13.82421875 C-3.94592507 14.4614335 -3.94592507 14.4614335 -7.0546875 11.76171875 C-7.5909375 11.12234375 -8.1271875 10.48296875 -8.6796875 9.82421875 C-12.0118373 10.01620397 -12.0118373 10.01620397 -14.6796875 11.82421875 C-14.72032582 13.4903899 -14.7224085 15.1580997 -14.6796875 16.82421875 C-12.10301616 18.04098021 -10.30186747 18.87606708 -7.4296875 18.63671875 C-6.8521875 18.36859375 -6.2746875 18.10046875 -5.6796875 17.82421875 C-5.3496875 16.83421875 -5.0196875 15.84421875 -4.6796875 14.82421875 C-1.0496875 14.82421875 2.5803125 14.82421875 6.3203125 14.82421875 C7.39381041 19.1182104 7.11714066 20.01917088 5.3203125 23.82421875 C4.6603125 23.82421875 4.0003125 23.82421875 3.3203125 23.82421875 C3.0728125 24.44296875 2.8253125 25.06171875 2.5703125 25.69921875 C1.01944396 28.33569527 0.17731828 28.76103791 -2.6796875 29.82421875 C-6.140625 30.125 -6.140625 30.125 -10.0546875 30.13671875 C-11.34117187 30.15347656 -12.62765625 30.17023438 -13.953125 30.1875 C-19.83035094 29.61456288 -23.88809519 27.31795778 -27.6796875 22.82421875 C-28.71323258 19.72358352 -28.81333746 17.50977807 -28.8046875 14.26171875 C-28.80726563 13.29105469 -28.80984375 12.32039063 -28.8125 11.3203125 C-28.6796875 8.82421875 -28.6796875 8.82421875 -27.6796875 6.82421875 C-27.0196875 6.82421875 -26.3596875 6.82421875 -25.6796875 6.82421875 C-25.6590625 6.24671875 -25.6384375 5.66921875 -25.6171875 5.07421875 C-24.43712349 2.24206513 -22.87102147 0.99675186 -20.16796875 -0.40234375 C-13.81149488 -2.3781394 -6.15180511 -2.69926142 0 0 Z " fill="#FEFEFE" transform="translate(220.6796875,459.17578125)"/>
<path d="M0 0 C7.92 0 15.84 0 24 0 C24 3.63 24 7.26 24 11 C22.329375 11.4640625 22.329375 11.4640625 20.625 11.9375 C17.2054845 12.82326483 17.2054845 12.82326483 15 14 C14.7137306 16.69152264 14.53256862 19.30097868 14.4375 22 C14.11929275 29.88070725 14.11929275 29.88070725 13 31 C8.71 31 4.42 31 0 31 C0 20.77 0 10.54 0 0 Z " fill="#FEFEFE" transform="translate(553,458)"/>
<path d="M0 0 C3.96 0 7.92 0 12 0 C12 14.19 12 28.38 12 43 C8.04 43 4.08 43 0 43 C0 28.81 0 14.62 0 0 Z " fill="#FEFEFE" transform="translate(139,446)"/>
<path d="M0 0 C2.5625 1.6875 2.5625 1.6875 4 4 C3.93096183 6.83056496 3.35914487 8.4213777 1.875 10.8125 C-1.04893747 12.66432706 -3.62469695 12.24109308 -7 12 C-7.99 11.67 -8.98 11.34 -10 11 C-11.52150158 7.95699684 -11.23899393 5.345915 -11 2 C-7.31826358 -0.45449095 -4.27666592 -0.69560229 0 0 Z " fill="#FFFFFF" transform="translate(279,445)"/>
</svg>
